<?xml version="1.0" standalone="no"?>
<!DOCTYPE svg PUBLIC "-//W3C//DTD SVG 1.1//EN" "http://www.w3.org/Graphics/SVG/1.1/DTD/svg11.dtd" >
<svg xmlns="http://www.w3.org/2000/svg" xmlns:xlink="http://www.w3.org/1999/xlink" version="1.1">
<metadata></metadata>
<defs>
<font id="truetypewriter_polyglottRg" horiz-adv-x="910" >
<font-face units-per-em="2048" ascent="1638" descent="-410" />
<missing-glyph horiz-adv-x="500" />
<glyph unicode="fi" d="M9 25l13 80q70 9 70 31l26 3l24 -10l35 -6q16 0 16 10q0 8 -11 22l16 85l23 -13l5 54q-25 12 -25 52l17 84l-16 21l21 82q-27 28 -27 50q0 19 20 31l-23 25q22 34 22 55q0 7 -4 11t-8.5 7t-8.5 7t-4 10l4 13h-25q-20 12 -34 12q-21 0 -31 -25q-44 23 -44 47l1 8l15 6 l-15 22l54 58l1 -17l12 -1q15 18 33 18q13 0 24.5 -10.5t17.5 -20.5q7 0 11 43l22 9l-30 118l26 16l-7 41q-15 30 -15 58q0 66 84 125q20 -27 24 -27q1 0 1 2v10q0 60 27 60q14 0 40 -20l91 54l-4 -19q0 -9 7 -9q10 0 36 20q72 -88 132 -88l16 2l-17 -62l49 -13l-14 -28 l73 -10l17 -100l-40 -26q12 -26 12 -45q0 -41 -62 -41l-92 -3l-31 43l-20 -24q-38 47 -38 89q0 56 67 102l-18 18l13 11q-39 36 -81 36q-60 0 -124 -70l32 -16l-52 -47l41 -39l-32 -2l35 -74q-40 -43 -40 -71q0 -14 11 -25q10 22 30 22q19 0 47 -22l-8 -31q0 -23 10 -42 q-7 -34 -32 -34l-16 3l-2 -16l-32 11q-32 -5 -32 -15q0 -16 46 -41l-23 -40l6 -63q18 -15 18 -29t-18 -27v-89l17 -8v-67l-17 4l21 -127l-19 -5l-5 -84q17 14 25 14q14 0 19 -24l46 -10l-11 -46l-42 -23l49 -38l-69 -15l-27 24l-25 -20l-31 45q-15 -40 -40 -40q-18 0 -40 19 l-64 -18l-31 5q-11 17 -25 17q-17 0 -38 -23zM574 859l74 -1q3 -32 95 -44q-35 -29 -35 -53q0 -7 3.5 -15t8 -15.5t8 -14.5t3.5 -12t-2 -8l-5 -7.5t-5 -12t-2 -20.5l7 -67l-17 11v-84q18 -15 18 -29t-18 -27v-89l17 -8v-67l-17 4l21 -87l-19 -5l15 -44h4q47 0 47 -19l-4 -14 l58 -3q39 -2 39 -51q0 -30 -4 -37l-23 -54l-39 38q-7 -31 -27 -31q-15 0 -31 13l-55 -20l6 40q-47 -36 -75 -36q-21 0 -32 20l-44 -18l-31 5q-11 17 -21 17q-11 0 -22 -23l-54 34l36 80q51 9 51 30l-1 4h26l24 -10q9 43 26 51l-9 36l9 28q-15 31 -15 65q0 33 15 68l-16 21 l21 82q-7 28 -10 51.5t-3 42.5q0 30 9 45l-20 14q17 26 17 38q0 7 -4 10.5t-9 7t-9 7t-4 10.5l4 13h-5q-14 14 -31 14q-18 0 -44 -17q-35 23 -35 45l2 10l15 6l-18 62l47 18l30 -17q9 10 19 10q13 0 26 -16z" />
<glyph unicode="fl" d="M19 25l13 80q70 9 70 31l50 19l18 101l31 -22l-5 47q-25 12 -25 52l17 84l-16 21l21 82q-27 25 -27 48q0 24 36 41l-33 74q17 26 17 38q0 7 -4 10.5t-9 7t-9 7t-4 10.5l4 13l-80 -13q-44 23 -44 47l1 8l15 6l-15 22l54 58l49 12q38 -15 43 -15h1v1q-2 3 -4 14l22 9 l-30 78l26 16l-7 41q-15 30 -15 58q0 66 84 125q20 -27 24 -27q1 0 1 2v10q0 60 27 60q14 0 40 -20l91 54l-4 -19q0 -9 7 -9q10 0 36 20q11 -59 32 -59q10 0 20 10l71 -53l-28 -72l47 34h35q28 -16 67 -16l27 2l-6 -43q0 -16 4.5 -29t10.5 -23t10.5 -18.5t4.5 -15.5 q0 -9 -7 -15t-7 -20q0 -18 7 -31l-17 -38l-6 -148q28 -24 28 -35q0 -7 -10 -8q-7 -32 -10.5 -60t-3.5 -52q0 -56 10 -75l-8 -46q13 -19 13 -41t-13 -44l17 -8v-67l-17 4v-124l24 -23l-7 -49h4q32 0 43 -33q13 9 23 9q31 0 43 -80l-35 -43l-19 5l-3 -23l-23 26l-56 -8l-6 29 l-41 -24q-13 -7 -51 -7q-36 0 -61 16l-29 -14q-11 15 -21 15q-16 0 -35 -31l-38 44l18 96l53 -14q12 0 12 9l40 19l36 76v33l-14 99q0 81 19 125q-14 26 -14 46q0 18 14 35l-5 76l-18 -10v85l18 -4v14q0 46 -18 57q15 38 18 91l-15 -1l-1 26q0 40 9 87q10 13 10 23 q0 6 -4 11t-9.5 10t-9.5 10.5t-4 12.5l-44 -24q9 -14 9 -25q0 -26 -63 -26h-16q-14 0 -23 8.5t-14.5 20.5t-8 25t-2.5 23q0 33 16 64l-18 18l13 11q-5 36 -28 36q-33 0 -97 -70l32 -16l-52 -47l41 -39l-32 -2l35 -34q-32 -35 -32 -47q0 -8 11 -8l16 2q29 -8 52 -12t42 -5 l49 -58l9 -28q-20 -2 -20 -15q0 -15 19 -40l-46 16l15 -51l-26 25l12 -20l-7 -3l-27 20l-69 19q-21 -20 -21 -38l5 -18l-22 -22l26 -22l-24 -39l20 -25l-17 -35q18 -15 18 -29t-18 -27v-89l17 -8v-67l-17 4l21 -127l-19 -5l15 -44q27 -30 40 -30l5 1q10 21 21 21 q10 0 24 -24l24 -9v-85l-27 -52l-39 38l-10 -27l-73 -11l-51 45q-17 -45 -71 -45l-64 11q-11 17 -25 17q-17 0 -38 -23z" />
<glyph unicode="&#xd;" />
<glyph unicode=" " />
<glyph unicode="!" d="M334 1108q0 60 80 98h56l52 -37q-13 -13 -14 -26q16 0 44 7l-10 -61q24 -15 24 -33t-16 -37l-16 -46l25 7l-29 -35l10 -20q-20 -80 -20 -133q1 -56 6 -67l-17 -1l3 -20l25 14l-27 -77l9 -13l-9 -38l17 -32l-21 4l13 -35q-7 -4 -7 -19l11 -55l-32 -68q-10 10 -23 10 t-28 -18l-24 -2q-42 53 -42 127l10 16l-9 11l3 56l-18 7l2 185q-9 13 -14 37q0 14 10 23q-27 67 -27 147l3 54l20 5q-20 35 -20 65zM603 165q0 -46 -36 -110l15 -27l-27 14l6 -12l-33 -15l-11 7q-20 0 -35 -18l-30 5l-9 -8q-104 0 -126 94q7 1 8 24q0 20 -17 23l9 64l29 52 q40 0 58 29l16 2q9 -2 21 -21l52 8l3 -14q107 -20 107 -97z" />
<glyph unicode="&#x22;" d="M568 1172q87 0 158 -69l-12 -5q14 -53 32 -53l4 -13q0 -26 -24 -41q0 -59 -32 -112q0 -22 14 -27q-9 -13 -15.5 -30.5t-7.5 -31t-1 -22.5t6 -13l-12 -36l19 8q-32 -41 -39 -90q-11 15 -14 15t-3 -8l1 -9l-11 -2q-15 0 -25.5 16t-19.5 35.5t-16.5 35t-31.5 15.5 q9 19 28 31t19 21q0 10 -9 16q-12 4 -21 21l3 22q0 25 -32 57v100q4 14 8 14l6 -1q-9 11 -19 12l-20 -4q-23 -21 -39 -21q-17 0 -24 21l-48 -9q-13 -25 -13 -68q0 -44 13 -69l-12 -3q22 -22 27 -39l-7 -17q-63 -11 -63 -63q0 -28 7 -41q-26 -29 -26 -59l-20 -9l-14 -22 l-17 -4q-27 0 -31 22l3 18q0 7 -7.5 20t-7.5 22l6 51q0 13 -13 43.5t-14 57.5q0 34 -28 68q7 0 8 24q0 11 -18 35t-18 37q0 12 5 19t15.5 23t10.5 29q0 12 11.5 24t29 22.5t38 17.5t38.5 7q51 0 100 -46q-11 -20 -11 -41t9 -43l25 -2q38 0 50 26l36 4l-2 -12q0 -8 18 -8 l-5 39q0 49 17 71.5t38 22.5z" />
<glyph unicode="#" d="M123 100l-4 30q26 7 40 93l10 -2l-2 32q0 39 17 107l-19 2l-19 -8v10l-38 4q-12 -21 -42 -21l-4 18q-22 13 -22 38l4 22l10 -3l-11 42q23 14 42 47q6 -2 10 -2t5 2l32 -12q10 -22 48 -22q30 0 38 4l-6 29q0 14 10 14l14 55l-11 6l24 47q-8 14 -8 25q0 14 12 23 q-35 20 -60 20q-21 0 -34 -12l-48 13l4 -12l-12 -1q-22 0 -53 9l2 25l-8 -2q-4 7 -4 38l2 30l15 -11l-14 29v17h23q22 28 46 28q21 0 45 -24l22 1v10q10 9 25 9q16 0 39 -12l8 8l9 -7q5 29 19 30q3 59 35 115l6 -2l-3 27q0 19 12 64l57 30l8 -12l21 2q45 0 45 -41 q-1 -1 -1 -3q0 -4 7 -11l-19 -65q-1 3 -3 3t-5 -6q-2 -4 -2 -9q0 -9 7 -22q-31 -55 -31 -82l3 -12l-11 -19l33 8q1 -6 11 -6q5 0 11 1q13 0 14 10q32 -27 80 -39q18 28 30 86l8 1l7 68q0 45 -18 60l2 18q28 0 28 48v3l4 6q56 0 115 -35l-3 -27q0 -40 30 -59v-39q-3 4 -5 4 q-1 0 -1 -5v-5l-5 -7q-2 7 -3 7q-2 0 -2 -11l6 -8q-54 -32 -63 -101q19 13 44 13l25 -4h4q20 0 21 9q0 7 12 7q5 -7 10 -7t10 4q13 -31 42 -61l12 -4q-5 -7 -13 -7h-4l1 -7q0 -7 -1 -10q-1 -1 -1 -3q0 -3 2 -8l-49 -47l-20 -5l16 -8l-31 -9q-6 17 -34 17l-3 -11l-58 6l-8 10 h-11q-23 -38 -23 -60l4 -14q-18 -11 -18 -78h-17l-4 -26q8 -5 15 -5q6 0 11 3q5 2 10 2q7 0 13 -5q13 0 27 6q7 2 13 2q8 0 15 -3l83 -22l9 24l18 -32l-4 -60q-3 -72 -52 -72q-23 0 -54 15l4 -14l-62 16l-14 -12l-2 19l-41 4q-11 -17 -11 -33q0 -18 10 -37l-10 1v-35 l-27 -47v-13q2 -2 3 -2q2 0 3 4q7 0 7 -15q0 -9 -3 -15.5t-10 -24.5l-8 -47h-29l3 13l-33 -13h-59l6 21l-29 -21l-13 43l5 18q40 37 40 101v10q2 3 2 5q0 3 -3 5q8 17 14 37t8 45q-24 -10 -55 -10q-20 0 -21 10l-30 -7l-23 16q-16 -25 -16 -38l4 -10l-11 -30l-37 -2l38 -17 v-57l-10 -1q4 -7 4 -33q0 -50 -40 -93l-23 -3l-9 11q-17 -9 -41 -9t-54 9zM375 490q19 -13 34 -13q11 0 19 8q1 -6 9 -6l29 11l-8 32q0 26 26 55l-2 17l8 55l12 -36q15 30 15 48q0 27 -33 27q-22 0 -26 -11q-11 4 -19 4q-10 0 -16 -5q-7 -5 -13 -5q-5 0 -11 5h-13l-5 -31 l11 -14h-14l-5 -50l-13 -5v-21q23 -12 23 -35z" />
<glyph unicode="$" d="M40 127q16 31 16 71l-11 67q4 7 4 34t-9 56q10 13 10 25t-9 23l25 14l-8 19q17 -2 35 -2t38 2q5 -26 36 -32q11 -98 123 -131l-4 47q0 41 18 47v16q-22 22 -27 58h7q25 0 25 13q-2 6 -12 6q-24 0 -25 25q16 7 27 37l-18 4q11 36 11 60l-2 34h-36q-21 62 -96 85l10 18 l-32 7l4 22l-23 -6l-9 16l-7 -15q-5 33 -26 36l10 12l-18 16l6 26q0 23 -26 37l2 100l25 -2q17 23 17 43q0 13 -6 24q52 22 78 66h36q29 45 91 49l-2 23q0 46 43 58q34 -16 34 -55l-2 -18l26 26q3 -24 29 -24q3 -4 9 -4q8 0 22 10l-4 21q0 22 18 40h41l8 -46l-3 -31 q36 -9 54 -49q44 0 68 -37q7 7 16 7q11 0 21 -7l-2 21q0 28 15 40l-4 25q17 0 20 15l53 -15q0 -28 31 -37l-5 -82l-13 -8v-20l14 -2l-4 -44q-16 0 -16 -22l11 -54l-23 -53q-32 20 -41 20q-4 -3 -4 -7t4 -9l-21 -16l-29 24l2 23q0 56 -52 87q-2 50 -64 69q-18 -17 -18 -37 q0 -19 10 -39.5t10 -40.5t-8 -39t-8 -39q0 -29 21 -57q-22 -13 -22 -39l2 -18l20 5q12 0 36 -14q65 -31 89 -32q27 -68 105 -94q0 -43 32 -73l-3 -20q0 -23 21 -41l-5 -30q0 -20 17 -20l-8 -45q-27 0 -27 -69l8 -13q-32 -33 -35 -80q-15 0 -15 -8q0 -9 18 -27 q-79 -1 -90 -38l-17 2q-38 0 -64 -35l-24 4q-23 0 -40 -20l9 -13q-23 -11 -23 -25q0 -11 14 -23q-37 -31 -71 -31l-20 2q6 6 6 12q0 4 -3 8q0 23 -21 49q-56 -12 -59 -73q-11 11 -22 11q-10 0 -24 -11l-24 18l11 1q-5 89 -87 164l-16 -7q-12 0 -25 15q-58 -103 -87 -103 q-15 0 -21 28zM383 772q20 12 26 58q10 -16 10 -35q0 -24 -15 -49l21 -4q15 0 24 12q0 41 -13 70l16 31l-16 5v37h12l-3 65q-12 12 -12 26q0 10 9 24q-11 20 -36 20h-4q-8 0 -15 -12q-9 -15 -15 -17l9 -94l-14 -1l14 -27l-14 -17q10 -10 10 -25t-10 -28zM286 766 q16 33 16 92q0 58 -16 96l4 28q-5 17 -24 17l-21 -4l-14 -21l36 11l15 -5q-81 -29 -81 -76q0 -29 25 -60q-23 -2 -23 -20l1 -9l29 -1q0 -39 53 -48zM413 587q-29 -17 -29 -32q0 -10 13 -19l-2 -18q-14 -14 -14 -25q0 -15 27 -24q43 31 43 63q0 28 -38 55zM554 546 q-33 -53 -33 -85l2 -16h14q-12 -26 -12 -50l11 -46l-14 -2l24 -45q-15 -5 -15 -36q0 -8 4 -15t16 -11q56 4 80 58h7q38 0 38 55l-4 43q9 10 9 19q0 14 -22 21q11 17 11 29q0 26 -45 41q-14 38 -71 40zM377 330l22 -8q-24 -39 -24 -60q0 -25 33 -25q6 -8 12 -8q0 -1 1 -1 q5 0 9 11q-36 9 -36 18q0 8 28 21q2 -1 3 -1q6 0 6 16q0 37 23 66q-15 15 -15 33q0 10 8 15q-3 8 -14 8q-2 3 -5 3q-5 0 -15 -9l6 21l29 14l-8 23q-14 -24 -54 -24l-7 -24q0 -22 16 -31l-6 -21q0 -12 7 -25zM291 424q6 -19 15 -20h2q9 0 9 10v2l-7 12zM549 290q23 -9 23 -20 q0 -9 -23 -23q-10 16 -10 28q0 11 10 15z" />
<glyph unicode="%" d="M71 -25q-6 16 -6 34q0 38 10 57q21 24 31 45.5t17 41t15 36.5t25 33q32 28 49 125q35 34 35 64q0 6 -1 12l8 10q4 -10 10 -10q12 0 30 48l5 -12q0 59 29 79q-11 5 -11 13q0 12 20 35l22 -23q20 83 38 89l4 34l70 106l11 -11q32 47 32 86q4 1 4 5q0 5 -6 14q53 32 53 57h4 q15 0 15 6q0 8 -14 15q3 7 12 7q26 0 26 20q1 4 1 8q0 13 -11 25q-16 0 -16 -8l17 -9l-36 -18l-10 10q-23 0 -23 -44l7 -6l-20 -1q-8 26 -30 26l-13 -2q-61 -61 -61 -151l10 -3q-13 -10 -13 -17q0 -3 4 -6q-52 -64 -52 -85q0 -9 9 -10q-39 -26 -52 -86h-30q-42 -63 -108 -63 q-26 0 -33 4l1 25l-35 -26q-59 18 -70 122l-16 -5l-9 43l17 -21v17q0 177 121 310h2q34 0 62 43v-16q-1 -1 -1 -2q0 -4 12 -4q6 -2 12 -2q8 0 16 4q12 7 23 7q13 0 32 -16q15 -18 21.5 -26t13.5 -8q25 0 76 70l4 -27q59 17 108 106l26 -3q16 0 37 11l15 5q13 19 22 19l19 -3 q17 0 40 23h17q40 -46 43 -119q-58 -58 -84 -177l-5 10q-22 0 -56 -99l17 3l5 -8q0 -9 -44 -35l11 -8l-51 -33l29 2q-57 -39 -57 -68q0 -14 12 -26q-26 -17 -30 -53l77 -4q38 26 103 26q6 4 17 4q13 0 34 -7q33 -59 44 -59v1q11 0 12 1l21 -24q1 -72 19 -72l14 -7 q-17 -8 -17 -23q0 -18 23 -26l-2 -33q-3 1 -5 1q-9 0 -9 -11q0 -51 -44 -86q-26 -128 -170 -189l14 32q-44 -35 -87 -35q-66 0 -130 82l-13 156q20 -30 29 -30h2q0 13 -18 64l23 51q-21 0 -23 50q16 -28 25 -28q8 0 8 24q4 3 4 10q0 9 -7 27q55 0 55 44l-2 18l-30 -7l20 17 l-23 9q-14 0 -28 -14l4 -57l-26 -10q-1 -24 -21 -38q-14 -92 -82 -184q-29 -18 -29 -32q0 -11 16 -18q-46 -40 -65 -115l-13 -2q-17 0 -67 -116q-23 -17 -45 -17q-20 0 -41 12zM238 948q-54 -27 -81 -110l8 -9q-42 -26 -42 -63v-8l-5 -7q14 -14 26 -14t24 13 q-17 -23 -33 -23l-17 6l-1 -9q0 -40 40 -53l21 20l63 -23l-28 24q92 47 92 120l-8 19l41 27h-31v4q0 71 -69 86zM645 504q-67 -34 -79 -143l28 26q-24 -47 -24 -87q0 -58 51 -98q49 37 49 78q0 23 -16 48q43 21 43 46l-6 36q0 14 8 22q6 6 6 23q0 6 -1 14q0 27 -59 35z" />
<glyph unicode="&#x26;" d="M170 -7q-21 72 -76 79l28 29l-28 -19l-12 8v5q0 63 -50 113l-6 61q0 148 146 207q0 22 61 47l-4 17l21 -5l-8 14l6 6l-17 14l20 -6v40q-40 49 -40 105q0 18 14 68l-5 69q3 -2 6 -2q5 0 10 4q2 -2 5 -2t8 6q6 10 17 35q13 21 22 22q18 1 51 31l7 -16l2 25l16 -17q7 5 7 10 q0 6 -10 12h13q102 0 189 -100l-10 -52l20 18l8 -56q0 -29 -11 -31l-16 4l13 -33q-56 -36 -75 -109q-78 -50 -78 -79q0 -13 15 -23l-29 -34l50 18q-13 -15 -13 -26q0 -7 6 -12q3 -3 7 -3q8 0 18 12l11 -16q28 28 28 40q0 2 -1 3q6 3 6 7t-6 9q32 11 33 19v1q0 7 -12 18 q8 5 13 5q2 0 4 -1l15 10l-13 17l21 13q17 -4 25 -6q7 -2 7 -10v-2l16 24q3 16 5 23t10 7l2 -8q22 7 40 26h44q25 -34 74 -54q-7 -6 -7 -15q0 -6 3 -13l-8 -8q5 -2 9 -2q13 0 17 15q7 -11 7 -19q0 -6 -3 -10q0 -62 -74 -116h-22q-20 44 -46 44q-17 0 -33 -13l9 -9 q-6 -3 -6 -11v-2q-18 3 -43 18q-9 -32 -9 -52q0 -22 11 -30q-28 -28 -28 -57q0 -15 7 -28l-41 -46l47 27q34 -111 79 -111q40 0 88 93l44 -5l-9 17q77 -14 77 -81l9 -16l-51 -39l16 -1l-45 -53l-4 14q-16 0 -63 -59q-5 2 -9 2q-11 0 -17 -10q-24 0 -49 24l-5 -17l-65 24 q-29 51 -61 51q-34 0 -71 -51q-2 6 -5 6q-2 0 -4 -3q-20 0 -57 -45l-17 3q0 15 -11 15q-4 1 -7 1q-8 0 -11 -6t-10 -6q-4 0 -9 2q-13 0 -20.5 7.5t-21.5 7.5q-21 0 -55 -19l-18 33zM356 849q-61 -34 -61 -77q0 -23 17 -49q-15 -24 -15 -35v-1q8 0 24 16q14 -50 45 -50 q18 0 43 19q64 31 76 120l-37 11l34 6q-27 35 -90 35q-10 0 -20 -1zM210 411q-45 -31 -46 -80q-2 -39 -13 -43l-18 7l4 -17q-1 -5 -1 -9q0 -20 18 -20l22 8l-21 -20q0 -17 26 -52q-28 0 -33 -14q1 -7 8 -7q5 0 14 4h11q15 -45 61 -45l38 6q6 -19 23 -19q27 0 82 49l-38 33 l49 -15q12 22 12 52q4 3 4 8t-4 12q-8 11 -8 28v4q28 5 29 16q0 5 -4 5t-13 -7q-6 3 -19 3q-8 0 -18 -1q-11 73 -87 80q-8 42 -54 58l-14 -48z" />
<glyph unicode="'" d="M535 1044q16 -33 27 -34q10 1 26 17q-20 -26 -32 -26q-13 0 -25 17q18 -53 18 -100q0 -13 -4 -27q-4 -11 -4 -26v-6l-44 30q33 -30 33 -68q0 -50 -56 -115q16 -16 16 -32q0 -26 -46 -45q17 -2 17 -12t-23 -33l8 21q0 12 -11 12q-3 2 -7 2q-9 0 -23 -7q-39 0 -43 57 l12 -13l8 5q0 11 -29 39q-40 43 -40 163l2 53l-12 -9q-8 0 -8 23l5 50q-13 22 -13 52q0 54 23 85q19 27 44 27q5 0 9 -1l8 5l-3 -16q32 41 67 48l-10 -12q0 -17 42 -35q17 11 29 11q39 0 39 -100z" />
<glyph unicode="(" d="M692 -160q-17 22 -51 24q-14 40 -60 56q-3 29 -37 36l-9 8l8 5q-6 10 -36 15l-5 64l-60 60l-14 28q-3 -1 -5 -1q-9 0 -9 10q-6 9 -9.5 27t-10.5 41.5t-21 50.5q9 1 9 6q0 4 -4 9q0 11 -10 21l-4 56l-28 18l18 14q-12 30 -14.5 57t-5.5 75q-9 42 -26 60v12q11 23 18.5 52 t9.5 64q-9 16 -9 34q0 23 13 42v52q28 10 37 76q34 28 37 76q43 37 70 100q25 16 25 55l16 -3l19 48q33 14 46 44l33 14l4 18l37 32q33 1 33 17l9 15q45 -2 45 -40l-8 -40q-78 -42 -111 -124q-44 -3 -95 -105l-25 13q-36 -89 -36 -154q0 -41 10 -62l-11 -24 q-60 -44 -60 -129l4 -47q-9 -32 -9 -60q0 -66 47 -122l-17 -6l2 -44h5q11 0 13 7q8 0 12 -12t12 -46q12 -37 23 -49q9 -185 199 -312q4 -39 40 -87l-8 -21z" />
<glyph unicode=")" d="M161 -136l-8 21q47 42 47 69q0 11 -7 18l28 45q125 65 125 127q0 18 -12 38q83 49 124 306q28 13 28 38q0 20 -23 52q13 45 13 95q0 81 -50 119l-12 24l5 28q0 73 -115 172l59 3q-51 102 -95 105q-34 82 -112 124l-8 40q0 38 45 40q6 -30 42 -32l75 -64q13 -30 46 -44 v-26l60 -9q-12 -24 -12 -40t12 -25q27 -63 76 -103l-9 -10q0 -21 40 -28l-2 -30q0 -55 37 -55h4v-3q0 -3 3 -3t11 6l-16 -78q13 -19 13 -35q0 -17 -8 -41q2 -35 9.5 -64t18.5 -52l-26 -28q10 -13 10 -43q0 -48 -30 -133l18 -14l-28 -18l-4 -56q-29 -26 -29 -42q0 -20 36 -29 l-68 -93l23 -18l-97 -70l-5 -64q-71 0 -74 -64q-48 -16 -60 -56l-52 -24z" />
<glyph unicode="*" d="M200 814l64 -16l14 2q0 10 -82 53l-45 -16q-3 66 -37 79q-18 1 -18 12v1l14 9q-15 12 -15 28l9 27q27 30 33 30q12 0 20 -20q22 22 39 22q20 0 23 -39l150 46q41 -62 50 -62l4 7q0 22 -33 114q43 -18 65 -18q17 0 17 13q0 14 -6.5 28.5t-6.5 27.5q0 20 25 43q27 10 41 10 h11q11 0 16 5q15 0 21.5 -5.5t6.5 -22.5q0 -13 -5.5 -35t-12.5 -48t-12.5 -52.5t-5.5 -47.5l3 -12q11 0 29 68q55 -54 81 -54q15 0 21 17l83 8q24 0 38.5 -6t29.5 -26l7 -42q-39 -7 -42 -20q4 -8 11 -8q1 0 3 1h3q7 0 15 -6q0 -22 -137 -111l-21 40q-10 -11 -10 -18 q0 -5 4 -8v-4q0 -29 71 -44l25 2q78 0 78 -88l-3 -40q-5 6 -11 6q-5 0 -11 -6l9 -28q0 -5 -4.5 -12.5t-21.5 -23.5q-23 -11 -38 -11q-32 0 -81 37l-46 -22l-50 94v-72l-29 1l30 -47l-50 6l30 -86l-78 -26q-100 24 -100 73q0 14 8.5 32.5t8.5 30.5q0 33 -53 33l-9 -12l-7 11 l73 49l-39 9l-74 -77l-60 23l5 -11q-5 -25 -23 -25q-11 0 -24 7l-20 -12q-6 0 -16.5 16.5t-22.5 17.5l-11 33q0 20 24 29q-13 16 -13 29q0 32 76 39zM452 1193l-16 -57q18 -21 18 -31t-16 -10q-42 0 -85 22l5 9v9q0 60 65 60zM107 910q30 -20 35 -54q-8 -2 -10 -13l-40 15z M405 1011q-56 77 -56 91l4 5l25 -12zM248 971l135 15l-18 27zM703 1128l-45 -37l3 34l-37 9l13 29z" />
<glyph unicode="+" d="M428 240q-31 0 -44 22l-18 -41q-6 19 -6 43q0 30 14 84l-15 71l16 15l-6 59q-3 8 -7 8t-8 -6q-29 5 -32 34q-33 -10 -66 -10q-19 0 -29 5.5t-23 5.5l-21 -6q-15 -7 -24.5 -10t-22.5 -3l-40 4q7 13 7 27q0 23 -22 36q1 14 2.5 20.5t6.5 16.5l-9 43q0 20 30 20l17 -1l21 21 l98 -14l73 10q24 0 31 -16l15 20v62l-23 -3l22 42l-7 80q0 53 20 53q12 0 33 -23l49 22l49 -12q-25 -37 -25 -70q0 -39 43 -63l-24 -31l21 -21l-11 -34q29 -17 59 -17q28 0 57 15q15 -16 22 -16t8 13q28 -24 58 -24q21 0 40 10l40 -11l-10 -7q0 -18 7 -18t19 15l6 -92 l-16 -3l4 -7q-4 -41 -33 -41l-88 21l-43 -9q-26 -11 -37 -15.5t-19 -4.5q-20 0 -24 21l-37 -19l13 -31q-20 -15 -20 -40t20 -60l-20 -17l25 -12q-20 -38 -20 -80l2 -27l-27 8l-21 -20l-13 14zM526 795q-37 26 -37 57q0 25 23 57z" />
<glyph unicode="," d="M434 267h36q17 -23 43 -23l23 2q18 0 18 -14l-2 -14q0 -22 43 -40l-13 -13q12 -2 15 -13l8 11l2 -53q0 -121 -53 -222l-3 34q0 -45 -16 -46q-5 4 -11 4q-3 0 -6 -1l24 -13q-63 -69 -100 -69q-17 0 -29 14l-2 -34q-5 38 -22 38l-1 -8l-27 -2q2 8 2 14q0 9 -5 13 q0 15 12 33l15 12q8 8 8 18q0 5 -3 12l7 -1q0 9 21 30l10 12l-4 12l6 17q0 14 -18 27.5t-55 21.5l-5 -14l-18 43q-28 10 -28 46l5 32l-8 -2q6 59 51 95l13 -12l-5 21l13 -7l7 3l-8 16q30 2 60 20z" />
<glyph unicode="-" d="M365 558q6 -16 23 -16l29 8q29 -17 49 -17q17 0 29.5 9t28.5 9q14 0 25.5 -6.5t27.5 -6.5q19 0 68 20q16 -16 24 -16q7 0 8 13q30 -24 62 -24q23 0 42 10l32 -17q0 -36 32 -68l-12 -2q-5 -108 -103 -108l-26 2q-53 10 -79 10q-23 0 -23 -8v-1q-11 5 -23 5q-9 0 -18 -3 q-18 0 -37 10l3 -14q0 -16 -23 -23l5 8q0 28 -72 30l-5 -20q-9 15 -20 15h-4q-7 0 -7 -11l-33 5q-26 0 -54 -12l3 11q-32 -9 -53 -9q-25 0 -42 10q-15 9 -33 9h-3q-12 0 -20.5 6.5t-19.5 6.5q-13 0 -68 -20q7 13 7 35q0 29 -24 50q1 32 8 32l9 13l-5 13q0 15 18 15l26 -5 l21 44l16 -20l27 12l-3 13q39 -11 60 -11l77 10q27 0 34 -16z" />
<glyph unicode="." d="M441 344l10 10l33 -3q48 -22 110 -63q35 -43 42 -65.5t7 -49.5q0 -40 -8.5 -73.5t-33.5 -58.5q-26 -25 -73 -40t-123 -18q-144 49 -144 146q0 29 11 36q2 5 2 8q0 9 -11 14l9 6q-4 11 -4 25q0 15 5 33q52 54 83 54l4 -7l7 17l-21 13l26 -9q6 0 8 11l12 -9q6 6 6 12v3 q-1 1 -1 2q0 6 11 6l15 7q7 -7 14 -7h4z" />
<glyph unicode="/" d="M56 -16q83 47 86 144q34 9 34 37v3l2 8q31 30 31 76v8q19 3 19 22l-1 10q64 40 81 109q13 55 35 55l11 -4q4 7 4 11q0 6 -7 8q0 16 7 29q68 45 72 124q29 17 32 56l40 36l-28 5q45 25 46 68l32 11l9 16l-14 18l28 2q7 40 40 76v29q31 16 41 35q-7 7 -7 15q0 11 21 13 l18 64q33 49 33 94q0 27 -10 46l11 37l51 19q6 -10 25 -20q17 -8 23.5 -13.5t6.5 -15.5q0 -20 -19 -39v-32q17 -20 17 -61l-3 -39q-26 -8 -32 -64q-32 -8 -35 -55h10l-60 -57q-3 -44 -32 -88l6 -19l-15 -1l8 -12q-20 -24 -46 -33l-3 9q-18 -14 -18 -58q0 -9 1 -18l-4 -6 l-19 10q-16 -16 -16 -27t15 -15q-44 -36 -69 -103l-11 5l-9 -8l8 -9l-29 -18l3 -13l21 -2q-50 -32 -62 -66q11 -8 11 -17q0 -17 -34 -44q-55 -43 -67 -103q-29 -30 -56 -98l-5 12q-14 0 -14 -37l9 2l-29 -43l-9 4q-1 -25 -16 -25l-7 1q-15 -14 -15 -31l6 -22q-18 -5 -46 -25 q-23 -20 -33.5 -27.5t-22.5 -7.5q-26 0 -51 21v28z" />
<glyph unicode="0" d="M264 25l4 18q-8 2 -8 8v2l-20 -7q-26 65 -94 108l8 8q0 22 -26 39q22 16 22 29t-32 21q10 19 10 41q0 25 -18 51q8 3 8 13q0 13 -20 45l2 112l39 -13l-43 38q13 19 13 44q0 20 -9 40l20 46l-22 2v79h2q17 0 17 19q0 27 -7 40l27 9l-29 11l12 30q-10 19 -10 40q0 28 22 49 q-11 38 -11 45q0 6 8 18.5t17.5 26t18.5 29t11 35.5l11 -2q23 0 41 49q13 -7 14 -15l28 17q-16 0 -33 20l16 -2q14 0 59 28q1 -10 12 -10q1 0 3 1q13 1 25 30q28 -18 60 -18q4 6 12 6h4q4 -1 8 -1q9 0 20 3l43 -11l-3 11h6q12 0 23 -7q7 -5 13 -5q5 0 10 4q4 -4 10 -4 q7 0 15 5q10 6 20 6q5 0 11 -2q25 -37 96 -46l-16 -7l53 -63l11 15l-6 -32q0 -39 36 -75l-14 -9l5 -11q-1 -6 -1 -11q0 -37 28 -78l-14 -4l14 -34l9 15l11 -40q-21 -84 -21 -115q0 -20 9 -20l-4 -34l24 -11l-20 -26l20 -25q-33 -6 -33 -20q0 -9 13 -22l2 -40q0 -62 -18 -140 q2 -66 11 -69q0 -73 -48 -140q-34 -13 -34 -21q0 -9 33 -13l-32 -16q-72 -122 -266 -122q-31 8 -62 8q-17 0 -34 -2l-24 21l-38 -8zM272 222q22 -24 60 -29q7 -45 73 -45l27 2q11 -20 47 -20q23 0 58 9q12 -15 19 -15q14 0 14 46q51 29 76 88q24 15 24 46q0 22 -12 52l12 4 q-1 3 -1 7q0 7 6 13q0 21 -21 42q9 18 9 44q0 25 -9 60q2 2 5 2q5 0 11 -8q-1 8 -1 15q0 16 5 29q-16 24 -20 58q23 38 23 78q0 38 -23 82q3 13 3 38t-19 59q-1 5 -1 8q0 5 2 9q4 5 4 6q0 19 -17 39q9 19 9 37q0 51 -68 89l-26 -34l-73 57q-109 0 -109 -32l11 -9 q-44 0 -67 -14.5t-37.5 -38t-20.5 -54.5t-6 -65q-4 -8 -4 -15t5 -13q-18 -28 -18 -36v-1q1 -3 4 -3t8 3l16 -17q-13 -19 -13 -58l2 -43q0 -23 -8 -23t-21 15q1 -54 28 -54l20 6l-30 -49q10 -19 10 -78l-8 -89l28 -46q-5 -4 -5 -6t6 -2h3q1 -66 24 -140z" />
<glyph unicode="1" d="M54 -1l-3 81q21 39 72 39l8 6l17 -8q33 0 65 12l-4 -13q18 18 40 18q23 0 49 -18q-8 28 -18 39l44 -14l18 19l-3 17q10 -10 36 -13q-4 7 -4 30q0 11 5 16.5t7 12.5l6 20q0 26 -26 52q0 30 12 44l-11 12l11 13q-1 9 -12 14l8 11l-4 10q0 5 10 11t10 17q0 18 -23 46 q2 5 24 6q-1 5 -7.5 7t-6.5 8q0 5 6 12l-15 1q14 14 14 26l-4 11q17 32 17 73l-14 80l21 8l-22 -1q16 16 16 37q0 20 -18 46q17 26 17 65q-5 3 -20 102q15 -28 23 -28q6 0 7 13q-12 13 -12 34q0 17 9 40l-12 30l-13 -40q-24 44 -60 44l-23 -4l11 16l-52 -14q-18 0 -31 7 l-12 -9q0 18 -12 18q8 8 8 17l-8 22q-7 -25 -21 -25t-33 25v-33q-9 22 -18 22q-6 0 -12 -8q-36 29 -48 64q11 9 16.5 30.5t14.5 23.5q8 0 22 -6.5t26 -6.5q8 0 32 12.5t30 12.5q5 0 16.5 -11t16.5 -11l19 8q4 0 16 -12.5t16 -12.5q5 0 19 18.5t20 18.5q8 0 18.5 -10.5 t18.5 -10.5q13 0 23 25q2 -8 10 -8q7 0 20 8q21 -18 46 -18q23 0 50 15q24 -12 51 -12q24 0 37 4l13 3q0 -11 35 -11l20 2l9 -6q-15 -2 -15 -8q0 -7 16 -7h22l-18 26q25 -12 52 -12q23 0 30 4v-19q13 7 26 7q28 -3 46 -47q-26 -2 -26 -13l11 -19l-9 -17q-28 -1 -28 -10 l4 -14l-12 -18h-102q-26 6 -54 6l-60 -6l12 -11q-18 -14 -18 -29q0 -16 18 -34q-14 -23 -14 -31t7 -11l-5 -61l-12 41v-41q-9 40 -17 40q-7 0 -13 -21l-6 -82h29l-29 -15l28 -2q-34 -16 -34 -28q0 -4 11.5 -16t11.5 -18q0 -10 -6.5 -19.5t-6.5 -30.5q0 -24 9 -61l-12 -20h11 l-7 -54l4 -31l-5 -24l8 -23l-6 -25l6 -24l9 -2q-1 10 -9 15l23 -7l5 3q0 9 -22 31l18 -6l18 -29q-6 -16 -23 -16l-25 6l6 -83l-11 6l11 -35v-20h18l-12 10l10 -1q10 0 10 7q0 11 -19 30q23 2 29 52v-152l12 -9l-47 -10q42 0 45 -10q0 -8 -8 -19l22 -6v-38l12 9 q15 -18 28 -18l25 7l22 -5q14 0 27 7l-4 -10q10 7 19 7q12 0 25 -10l-4 13q37 -2 66 -19l-2 -4l4 -10l1 3l4 1l5 -4q-7 -10 -7 -23q0 -14 7 -27l-12 -32l-6 15l-16 -15l-13 2l-5 6l-2 -2q0 -10 9 -21q-23 9 -40 9t-29.5 -10.5t-22.5 -10.5l-19 13q-9 0 -21 -16 q-32 18 -60 18q-27 0 -56 -17l-26 -1q-16 19 -30 19q-13 0 -23 -15l-46 8l-68 -14l-13 47v-50l-8 8l-4 -1l-3 2l-5 -7l-15 1l-17 11q-1 12 -7 15q-4 0 -6 -26h-36q-5 12 -13 12t-18 -12q-11 18 -34 18l-63 -12q-17 0 -31 11zM624 1071q6 1 7 5q-1 4 -10 4h-7zM537 1043 l8 -34l3 34h-11zM525 920q14 -3 22 -3l10 -8l-3 10q0 4 -15 14q17 20 17 33l-22 -12l-9 10v-44zM558 687l-3 -6l-5 21l-3 -13q1 -23 8 -23l1 -5q-4 -8 -13 -9v72q4 -13 9 -13l9 13zM550 637h-1q-6 0 -6 10l6 -3l9 9q-3 -16 -8 -16zM543 627h18q-7 -10 -7 -26q0 -15 7 -28 l-18 -19v73zM552 518q-4 0 -9 11l9 -4l9 4q-5 -11 -9 -11zM364 371l6 -5l-6 -7v12zM370 276q15 -20 15 -33q-2 -14 -17 -22zM524 229l10 -4l15 3l-18 13l20 5l-20 5l18 6l-24 3z" />
<glyph unicode="2" d="M540 1196q42 0 59 -36q103 -6 103 -47q0 -13 -12 -31l26 2q88 0 88 -103q0 -32 -14 -99q34 -24 34 -50q0 -28 -43 -58l9 -43q-39 -3 -39 -59v-6q-20 -3 -20 -21l4 -18l-37 -35l-21 13l-9 -9l19 -16l-36 3l-31 -13l8 -21q-79 0 -116 -66q-97 -14 -155 -105h-6 q-59 0 -69 -55l-30 -30l37 -3l-2 -28q21 10 48 10q47 0 86 -40q18 9 33 9q31 0 49 -40q58 -3 58 -28l-1 -6l34 -9l13 28l5 -50h26q8 62 57 62q24 0 47 -10q37 22 84 22h11q0 -36 22 -52l-15 -58l-28 10l15 -53l-11 -20q-10 10 -18 10q-6 0 -6 -9l6 -26l-30 16 q-47 -38 -119 -38q-75 0 -189 47l4 13q0 12 -21 17q-4 -16 -26 -16q-26 0 -61 16v2q0 14 -12 14q-17 0 -57 -27l-26 54q-9 -101 -52 -101l-23 6q-27 -29 -58 -29q-38 0 -81 42q9 13 9 33t-12 49l5 28l9 -1q13 0 13 9t-14 29q31 31 31 78l-1 18q34 22 34 38q0 8 -8 13l5 18 q79 44 86 147q81 7 132 84l31 13l54 -5q-11 14 -11 24q0 18 29 32l23 -16l-2 12l29 27l18 -3q29 0 47 30l28 -11l4 31q51 13 54 67q36 4 36 52l-6 46l12 -2q10 0 10 8t-15 28l3 26q0 37 -25 74q-15 -15 -25 -15q-18 0 -18 49l29 -3q-16 19 -28 19q-14 0 -23 -28 q-41 54 -99 54q-65 0 -151 -68q-26 18 -44 18q-31 0 -35 -52q49 -13 49 -49q0 -16 -7 -29q12 -20 12 -35q0 -18 -19.5 -33.5t-58.5 -15.5q-73 0 -89 75q-16 25 -16 46q0 30 29 54l-2 21q0 56 63 83q24 50 95 52l26 43q11 -11 20 -11q16 0 33 29q30 -21 69 -21z" />
<glyph unicode="3" d="M76 159l-17 -4l8 17q0 6 -9 6l-8 -1v61q11 14 11 31q0 15 -11 35q18 35 56 56q4 -6 10 -6q12 0 19 28q7 -7 20 -7q12 0 22 7q55 -19 60 -74l12 -4l5 -34q0 -25 -17 -28l-14 -19l5 -67q41 -26 72 -26q16 0 29 6.5t26 6.5q12 0 20 -7t16 -15t17.5 -15t23.5 -7q24 0 55 16 l52 -5q52 0 52 31v4l19 5q42 0 46 58q15 12 25 12q12 0 15 -19l5 15q0 15 -32 17l1 47q37 7 54 40q-11 10 -14.5 30t-11 45t-24 52.5t-52.5 53.5q9 7 9 14q0 11 -17 23l-34 -28q-12 39 -38 39l-27 -8q-11 18 -38 18q-22 0 -50 -9q-21 29 -32 29q-7 0 -10 -9q-39 22 -39 68 l1 14h7q37 0 65 37q19 -9 39 -9q38 0 71 36l-19 11h51l33 15q38 74 73 74q12 0 23 -8q-21 58 -21 84q0 21 14 21q10 0 20 -7q0 29 -32 29l-4 24q0 24 11 38q-58 21 -58 48l1 6l-29 6l9 13l-24 -5q-12 0 -12 9l2 9h-29q-26 24 -51 24q-21 0 -43 -16l-26 3q-47 0 -80 -40 q-47 -11 -47 -35q0 -18 26 -47v-25q-35 -18 -47 -57l-21 8l-4 -20q-13 7 -31 7q-22 0 -37 -7q-2 11 -16 11l-24 -4q-16 0 -16 25l1 13l-10 -10l-14 24q3 56 28 109l-1 58l35 -1q57 86 174 86q16 21 47 21l4 12h8q62 0 119 -25l34 13q24 -30 66 -30l24 2q21 -41 67 -50 q16 -46 64 -62q17 -23 17 -46l-5 -27q33 -53 33 -108q0 -80 -67 -159v-7q0 -30 -21 -63l8 -19l-25 6q-26 0 -29 -37l29 12q40 -16 40 -55l-2 -17h22q5 -26 34 -33l-1 -12q0 -32 39 -62l-17 -24v-17l21 9l6 -63q0 -81 -48 -130l1 -17q0 -70 -74 -106q-47 -83 -178 -86l-12 12 q-10 0 -17 -37h-34q-23 14 -53 14q-26 0 -70 -14q-41 29 -97 29l-43 -4q-16 46 -31 46q-7 0 -15 -14l-55 26z" />
<glyph unicode="4" d="M622 1202l-6 -12h4q37 0 48 -38l-6 -34q0 -38 32 -68v-102q-10 -16 -10 -40q0 -17 11 -50q-16 -42 -16 -82q0 -29 10 -50.5t10 -39.5q0 -14 -5.5 -23.5t-5.5 -22.5q0 -17 11 -37l-14 -24l18 -98q23 -62 83 -62l47 8l-2 -16q0 -32 33 -45q-9 -39 -55 -63l-9 15 q-35 -20 -51 -20l-12 5l-16 -2q-12 -35 -12 -72t8 -58.5t25 -21.5l16 4q9 -12 16 -12q13 0 19 42q6 -67 54 -97l6 -36q0 -18 -11 -18v-13q-29 -9 -48 -49l-48 -3q-38 35 -87 35q-33 0 -57 -10l-22 14q-41 -18 -78 -18q-42 0 -79 22l-26 -8q-7 34 -30 61q1 69 62 69l20 -2 q18 19 42 19q22 0 44 -13l1 43q25 15 25 34q0 17 -20 37q7 13 7 24q0 17 -21 29.5t-56 12.5q-41 0 -90 -18l-21 4l-3 17l-68 -16l-32 5l8 16q-31 -11 -51 -11l-39 8l-29 -10l-29 -2l-4 21q-11 -8 -24 -8q-18 0 -37 12l6 46l-14 5l-1 14q0 37 18 73q69 55 100 151 q23 21 34 40.5t17.5 35t12.5 27.5t20 18q24 10 48 74q9 -9 18 -9q30 0 51 112l21 -1q5 59 53 103l-9 16l9 13l17 -10l21 43q26 0 46 62l25 14l14 22l7 -1q14 0 20 18zM554 1010q-16 -68 -74 -120v-6q0 -33 -31 -52l-17 -58l-52 -17q-8 -14 -8 -26q0 -14 12 -23 q-50 -39 -83 -107q-42 -23 -42 -41l5 -11l-50 -99q8 -8 18 -8q16 0 34 21q41 -23 72 -23q32 0 55 23l23 5q38 -17 46 -55l23 -3l21 49l30 -4q33 0 33 27q0 19 -10 38q21 13 21 31q0 21 -35 50q2 35 36 41l2 23q0 28 -16 29l3 23q0 33 -29 62q58 46 58 82q0 22 -19 38l5 17 q0 22 -30 57l30 -8q15 0 15 14q0 13 -7 26z" />
<glyph unicode="5" d="M309 1224q78 0 78 -27l28 13l61 10l14 -13l18 13l14 -13l23 13l13 -16l14 16h14l8 -8q5 0 5 17l94 -19q42 -24 42 -69q0 -13 -10.5 -22.5t-26 -16t-32 -9.5t-28.5 -3l-36 3q-21 -12 -42 -12q-11 0 -21.5 5t-21.5 11t-23 11t-25 5q-34 0 -41 -25h-3q-33 0 -61 22h-6 q-32 0 -44 -39l-17 15l-19 -3q0 27 -29 27h-8q-39 -33 -39 -82q0 -28 7 -45q-19 -19 -19 -35t19 -29l-3 -33q0 -30 17 -76q8 3 12.5 9t9 12.5t11 11t19.5 4.5q20 0 35 -15l36 30l42 3q85 0 168 -47h10q48 0 82 -43q73 -6 82 -91l44 -27l-13 -17h19l-2 -13q0 -19 23 -19l9 1 l-5 -20q0 -17 19 -26l-5 -37q0 -42 16 -73v-13l18 -5l-9 -13l11 -14q-24 -12 -24 -50l2 -23l-21 -61l31 11l-24 -68l-33 3l-6 -15q7 -13 7 -29t-15 -16h-3q-21 0 -21 -24l1 -14q0 -30 -58 -34q7 -7 7 -15q0 -19 -37 -43l-13 4q-12 0 -23 -17l-14 6q-17 0 -32 -31h-41l-82 17 l6 -27q-20 12 -36 12q-11 0 -20 -6l-14 12l-23 -11l-46 20l-6 -20h-80v6q0 25 -54 27q19 13 19 25q0 9 -11 18l-41 -4q-108 85 -108 203q0 51 21 110q35 23 75 23q25 0 43.5 -8t30 -20t17 -26t5.5 -26q0 -39 -57 -73q15 -15 15 -38l-6 -32h8q39 0 56 -48q13 7 27 7 q10 0 22 -6t23 -13.5t20.5 -13.5t14.5 -6q12 0 12 24h32q25 -19 58 -19q28 0 47 10l23 17q86 0 114 79q41 11 41 38l-12 47q0 17 20 17l5 -1q20 0 20 35q0 29 -7 53h4q31 0 31 9q0 8 -30 25l11 39q0 30 -40 30h-8l2 12q0 13 -14 18l5 27q0 42 -57 71l2 13q0 22 -31 22 l-21 -2q-53 71 -81 71q-19 0 -26 -33q-42 24 -75 24q-47 0 -75 -45q-92 -6 -153 -70h-32q-49 55 -49 132l4 47q-20 20 -20 40q0 21 20 47l-8 37q0 26 17 58l-33 1q23 44 33 98l-32 -6q10 19 10 45q0 27 -17 59l9 -1q27 0 27 25l-2 15l26 -4q18 0 29 12q34 -9 66 -9 q47 0 85 23h22z" />
<glyph unicode="6" d="M504 -22q-20 0 -49 17l-36 -9l2 15l-48 3l2 -13l-51 14l-1 13h-45q-33 42 -99 62q-13 46 -55 74l2 12q0 21 -25 34q-4 61 -41 122l5 35l-14 -3q9 22 9 44q0 20 -7 39.5t-7 39.5q0 34 19 68l-12 8l4 26l-16 26v40q22 0 22 81l2 134q24 16 24 52q0 28 -7 43q45 15 45 59 q0 26 -7 40q65 9 69 52l18 -9q5 0 5 7l-5 20q37 26 50 66l50 19l45 -10l51 23l29 -3q15 -20 26 -20q7 0 15 12q10 -18 18 -18q7 0 10 16l19 -3q20 0 40 17l14 -44l14 14q37 -22 90 -23q24 -17 24 -35l-1 -6q41 -23 82 -72v-3q0 -29 -18 -56l6 -18q0 -23 -37 -53l-10 -25 l-20 -1q-49 0 -101 21l-20 -6q-9 33 -45 75v4q0 25 -23 33h-54q-42 17 -63 17q-45 0 -86 -41q-46 -10 -55 -93q-27 -27 -27 -46l3 -18q0 -20 -19 -36l-10 2q-14 0 -14 -23l4 -32l14 -46l24 -3q29 0 41 22l7 -12l52 32q32 29 74 29q31 0 48 -7q22 15 61 15l32 -2l27 -13 q7 -34 28 -34l13 3l54 -9q25 -53 87 -69l3 -43h8q28 0 38 -16l-3 -16q0 -24 26 -71l-12 -19l21 1l9 -32q-18 -3 -18 -8q0 -4 14 -10l7 -29l-9 1q-11 0 -11 -11l5 -19q3 10 8 10q7 0 17 -25q-14 -11 -18 -73l10 -6l-54 -112l12 -9q-51 -19 -63 -73q-40 -1 -55 -41l-30 -13 q-36 0 -61 -37l-26 9l4 -31l-16 3q-13 0 -27.5 -8t-30.5 -8zM464 95q37 57 98 57l25 -2q24 16 24 37l-6 22l22 13l21 -6q20 0 22 30l26 -6v55q15 15 15 27q0 6 -4 10.5t-8.5 10t-8.5 12t-4 15.5q0 14 6.5 28t6.5 32l-2 34q0 49 -55 59q-18 87 -123 97v3q0 15 -42 15l-54 -4 l-1 -15h-90l-27 -19l-5 19q-92 -30 -92 -110l6 -46q-25 -13 -25 -37l3 -18l-8 -39q0 -28 17 -60v-7q0 -26 8.5 -37.5t19 -19t19 -14.5t8.5 -24q0 -26 37 -26h8l54 -63h50q20 -21 59 -23z" />
<glyph unicode="7" d="M53 940q0 12 -14 23q15 34 15 72l-6 55q0 33 34 34l-5 20q0 23 22 45l28 -4q30 0 62 18q31 -16 56 -16q32 0 51 25h56q4 -16 20 -16q13 0 26 7q22 -21 40 -21l21 3q9 0 14.5 -6t12.5 -13t18.5 -13t31.5 -6h10q7 -16 18 -16q14 0 34 30l9 -40l39 17q2 -17 7 -17l14 10 l14 -24q30 5 44 64l7 -1q17 0 33 16l9 -2q16 0 23 25l33 -2q0 -16 36 -17q-11 -17 -11 -27q0 -11 7 -26t7 -31q0 -38 -30 -75v-28q22 -7 22 -24q0 -7 -4.5 -16.5t-10 -21t-10 -25t-4.5 -29.5l2 -23q-26 -19 -28 -93l-7 3q-9 0 -9 -26l1 -20l-40 -73l24 -1l-34 -22l19 -18 l-36 -6l1 -10q0 -14 -7 -18t-17.5 -12.5t-23.5 -27t-25 -61.5q-65 -17 -84 -96l-40 3l17 -36q-42 -47 -42 -91l1 -22q0 -41 -32 -55q8 -6 8 -16q0 -9 -9 -21.5t-9 -28.5q0 -27 24 -45q-22 -22 -23 -92q-56 -15 -92 -15q-77 0 -77 67q0 45 44 142q-18 25 -18 53q0 37 35 81 l-1 16q0 56 40 56l13 21l-27 15q54 40 73 104q11 -23 24 -23q10 0 24 15l-27 29q72 41 88 113l35 7v28q51 31 53 121q30 6 30 26q0 10 -8 24q34 24 37 70l-31 -12q-29 63 -98 63h-6q-53 51 -133 51h-6q-49 66 -176 73l27 -82q-20 14 -33 14q-36 0 -57 -86l-25 2v-32 q17 -11 17 -34l-4 -27l-5 1q-16 0 -16 -47l4 -60q-25 -13 -60 -13l-34 4l1 6q0 17 -24 17v15q0 35 -14 91q13 13 13 37zM275 1094l71 -14q-38 -4 -58 -35z" />
<glyph unicode="8" d="M448 1193q32 0 65 9l12 -17l17 18q28 -31 68 -33l-4 12q0 8 12 8q6 0 13.5 -5.5t16.5 -13t20 -14t25 -8.5q22 -57 55 -57l15 -14l-1 -8q0 -24 40 -61l-1 -20q0 -50 32 -80l-1 -33q-22 -16 -22 -74l1 -27q-28 -13 -31 -78l-73 -44q16 -10 16 -22t-16 -22q23 -16 44 -24.5 t38 -10.5l-6 -15l19 1q0 -48 30 -64l-2 -28q0 -52 33 -101v-37q-35 -33 -35 -100l4 -51q-40 -1 -55 -63l-28 8q-53 -117 -171 -117l-30 2q-29 -26 -63 -26q-23 0 -50 12l-40 -5q-49 0 -96 38q-14 -4 -31 -6.5t-39 -3.5q-1 19 -29 19l-14 -1l-25 24l12 18l-9 26l-22 -21l2 20 q0 16 -6 30l-31 32l-17 -11l1 18q0 49 -32 84q6 21 6 46l-6 56l-14 2q2 92 32 94l4 9l-3 15q0 26 34 45l-11 24q19 10 19 34v2q28 10 40 41l8 -1q22 0 35 28q-5 29 -32 29l-11 -1l1 12q0 31 -23 48l1 12q0 30 -27 56v6q0 38 -29 105l30 -1l-1 75q48 31 48 68q42 16 44 52 q1 18 15 25.5t30.5 10t21.5 7.5q1 1 4 1q8 0 29 -8l-13 17l27 21l38 -2l8 29q5 -23 12 -23q5 0 11 12q30 -9 61 -9zM434 1063l-44 4q-101 0 -136 -89l-33 -1q-20 -45 -20 -71q0 -47 42 -80v-5q0 -30 39 -31l-1 -9q0 -22 28 -22l-1 -18q0 -15 9.5 -22.5t25 -11.5t34.5 -4.5 t38 -0.5l20 -3q0 -10 5 -10q10 0 36 32l-5 -34q0 -13 7 -13l9 4q126 3 210 97q-9 19 -9 43q0 12 4 19t9 12t9 9.5t4 12.5q0 20 -30 49q7 14 7 35q0 36 -44 36h-2q-36 84 -126 84l-23 -1q-15 31 -25 31q-9 0 -14 -26zM315 573q-6 8 -12 8q-14 0 -21 -40q-96 -26 -96 -118 l4 -42q-19 -19 -19 -39q0 -22 24 -44l-4 -38q0 -20 7 -30.5t16.5 -19t19 -19t14.5 -28.5q6 -26 24 -26l19 5l8 -9q13 7 31 7q19 0 39 -11l10 11l30 1l35 -26l17 23q28 -27 66 -27l30 4q44 38 109 41q31 46 31 108v7q26 32 26 80q0 70 -43 159l4 12q0 17 -53 19 q-30 37 -50 37l-13 -5l-18 6q-15 0 -19 -19l-10 6q-6 0 -10 -9l-32 26q-51 -23 -70 -23t-28 12z" />
<glyph unicode="9" d="M390 1222q21 0 50 -17l36 9l-2 -15l48 -3l-2 13l51 -14l1 -13h45q33 -42 99 -62q13 -46 55 -74l-2 -12q0 -21 25 -34q4 -61 41 -122l-5 -35l14 3q-9 -23 -9 -44q0 -20 7 -39.5t7 -39.5q0 -34 -19 -68l12 -8l-20 -42l24 19l-12 -69q-22 0 -22 -81q-16 -28 -16 -65l4 -39 q-37 -26 -38 -69q-42 -47 -54 -109q-27 -24 -32 -68l-18 9q-5 0 -5 -7l5 -20l-8 1q-30 0 -42 -37l-50 -19l-6 10l-34 -13l8 -15h-6q-25 0 -38 -24q-11 18 -18 18t-10 -16l-19 3q-20 0 -40 -17l-14 14l-14 -14q-37 22 -90 23q-24 16 -24 35l1 6q-41 23 -82 72v3q0 29 18 56 l-6 18q0 23 37 53l10 25l20 1q48 0 101 -21l20 6q9 -33 45 -45v-4q0 -25 23 -33l54 1q0 16 59 63q46 10 55 63q16 16 16 33q0 19 -16 35q19 10 23 32l17 -3q21 0 33 26l-14 64q-28 -7 -45 -37l-7 12l-62 -12q-32 -29 -74 -29q-31 0 -48 7q-32 -21 -73 -23l-27 13 q-5 41 -21 41q-10 0 -20 -10l-54 9q-26 52 -87 69l-3 43h-8q-28 0 -38 16l3 16q0 24 -26 71l12 19l-21 -1l-9 32q18 3 18 8l-31 29l9 -1q11 0 11 11l-5 19q-3 -10 -8 -10q-7 0 -17 25q14 11 18 73l-10 6l54 112l-12 9q51 19 63 73q40 1 55 41l30 13q36 0 61 37l26 -9l-4 31 l15 -3q13 0 27.5 8t30.5 8zM431 1105q-38 -57 -98 -57l-25 2q-24 -17 -24 -37l6 -22l-22 -13l-21 6q-21 0 -22 -30l-26 6v-55q-15 -15 -15 -27q0 -5 4 -10t8.5 -10t8.5 -12t4 -16l-9 -41l8 -43q0 -49 55 -59q16 -78 94 -78l19 -2q0 -21 73 -21h13l1 15h90l27 19l5 -19 q83 42 96 136q25 13 25 37l-3 18l8 39q0 28 -17 60v7q0 26 -8.5 38t-19 19.5t-19 14.5t-8.5 24q0 25 -37 25h-8l-54 63h-50q-21 21 -59 23z" />
<glyph unicode=":" d="M464 896q24 0 47 -15l-5 -6h27q3 -6 12 -12t20.5 -19.5t23 -38t18.5 -68.5l6 15l1 -15q0 -42 -40 -63l7 -17q-17 -44 -73 -52l20 -11l-11 1q-15 0 -17 -11l-12 7l-7 -7l-64 -9l-13 17l-4 -14q-130 36 -130 151q0 30 9 66q12 9 17.5 20.5t8.5 21t6 16.5t10 7h3q14 0 25 15 l19 -1q24 0 48.5 11t47.5 11zM435 270q103 0 153 -102l12 1l4 -46q0 -102 -97 -145l-18 20l-5 -28l-36 -5q-41 0 -84 24l-4 -15q-14 35 -43 36l2 13q0 30 -33 56h9q-14 28 -14 53q0 62 73 123q10 -10 18 -10q11 0 12 19z" />
<glyph unicode=";" d="M460 596q-41 0 -84 24l-2 19q-4 -20 -13 -26q-14 3 -14 12v4l5 17l-20 -4l-34 68h9l-1 29q-13 16 -13 38q0 48 73 109q7 15 15 15q9 0 20 -27v23l67 8q60 0 89 -32q41 -47 56 -50l-26 -8l25 -15l4 -46q0 -102 -97 -145l-12 -81l-11 73zM421 -5q-49 0 -67 57l-4 -40 q-44 47 -44 74l3 13l-31 25l38 5l-1 18q0 47 38 79l-3 3q3 10 10 14t30 8q27 3 39 9l19 4q9 0 15 -3.5l18 -10.5q14 -7 25 -7l25 3q32 0 54 -46l28 25l-16 -52l5 -75q0 -105 -44 -152l40 18l-45 -76q-23 -1 -31 -48q-61 -64 -102 -67l-10 4l-21 -13q-11 1 -11 7l11 29 q-16 -10 -25 -10q-6 0 -6 7q0 9 11 29q11 21 18.5 43t13 40t8.5 29.5t5 11.5q3 0 6.5 -9.5t9.5 -9.5q13 6 23 21q9 17 9 26q0 18 -29 18z" />
<glyph unicode="&#x3c;" d="M208 630l32 4q12 49 79 91q66 40 66 75v1q57 16 86 60q19 0 19 12q0 9 -9 23q57 11 73 44l14 -12l44 19q48 -16 59 -83q-53 0 -54 -48q-41 -5 -45 -51q-126 -59 -126 -89q0 -10 13 -17l-23 -16q-65 -15 -65 -45q0 -26 50 -64q5 -42 68 -66q4 -33 17 -33l12 7 q39 -57 120 -115l9 1q14 0 14 -14q0 -13 -7 -26q27 -18 27 -32q0 -22 -55 -37l-37 3l-72 75v19l-31 1l-1 28l-24 -8l-50 30q-11 40 -69 48l18 18l-8 -1q-25 0 -47 21q-11 64 -70 89l3 21q0 25 -26 25l-21 -3z" />
<glyph unicode="=" d="M78 351q7 13 7 31q0 26 -24 46q1 17 3 22t7 10q3 9 3 26l-1 14q0 15 9 15q11 0 35 -26l21 40l16 -18l27 11l-3 11q19 -10 59 -10l78 10q26 0 34 -15l16 18q6 -15 23 -15l29 8q28 -16 49 -16q16 0 29 8.5t29 8.5q14 0 26 -6t27 -6q27 0 68 18q16 -15 36 -15q17 0 33 10 q8 -20 29 -20q19 0 38 10l32 -16q0 -32 32 -61l-12 -2q-5 -86 -49 -86l-27 6l-52 -23l-121 10q-44 0 -51 -10q-20 12 -35 12q-13 0 -22 -9q-26 9 -47 9q-16 0 -28 -6l-28 5q-21 0 -37 -13l-19 12l-53 -8q-20 0 -31.5 6t-27.5 6q-14 0 -29.5 -6t-24.5 -6q-11 0 -11 11v5 q0 8 -12 8zM107 651l-7 30q-30 27 -30 52q0 26 31 48q1 48 39 48q25 0 64 -21l-3 17l163 -11l24 23q16 -22 38 -22l51 12q12 0 16.5 -8t9.5 -8q11 0 27 22l99 -1q16 -12 37 -12l58 11q23 0 29 -24q13 7 32 7q24 0 24 -27l-3 -23q24 -5 24 -22t-12 -33.5t-28 -30.5 t-33.5 -22.5t-30.5 -11.5l-2 5l-23 12l-18 -6l-70 -5q-8 32 -20 32q-14 0 -32 -40q-15 18 -36 18l-30 -8l-26 15l1 -10q0 -17 -13 -17q-12 0 -31 9.5t-37 9.5q-19 0 -38.5 -9t-31.5 -9q-7 0 -11 3q-4 2 -4 6v1q-4 1 -6.5 5t-8.5 4q-9 0 -23.5 -8.5t-37.5 -8.5q-46 0 -97 19z " />
<glyph unicode="&#x3e;" d="M709 585l-28 -11l17 -25q-23 -9 -32.5 -22.5t-18.5 -28.5t-23 -29.5t-46 -24.5v-3q0 -36 -49 -37q-66 -30 -66 -63l1 -8q-71 -17 -96 -73l-14 12l-66 -49q-49 17 -59 83q52 0 54 48q31 3 31 21l-4 15l61 49l32 -5l-4 39q61 6 61 20q0 8 -19 18l23 16q65 15 65 45 q0 26 -50 64q-4 42 -68 66q-5 33 -17 33l-12 -7q-38 56 -120 115l-9 -1q-14 0 -14 14q0 13 7 26q-27 18 -27 32q0 22 55 37l37 -3q31 -38 72 -75v-19l31 -1l1 -28l24 8l50 -30q10 -41 69 -48l-18 -18l8 1q23 0 33.5 -11.5t14.5 -25t6 -25t8 -11.5q5 0 14 11z" />
<glyph unicode="?" d="M459 1207q52 0 70 -32l18 23h30l8 -56l15 34l11 -4q28 -25 68 -25h11q15 -51 59 -92l-2 -53l22 -12v-125l21 -17q-43 -22 -43 -62l3 -9l-25 12l-35 -68l-13 5q-11 0 -11 -21l1 -13l-22 4l-34 -32q-58 -9 -93 -65l-18 -8l-6 -35q0 -37 32 -66v-32l-26 -16q8 -8 8 -18 q0 -16 -16 -33q0 26 -26 26q-13 1 -21 1q-18 0 -19 -4q-30 0 -61 12l4 40q0 33 -16 33l-14 -7l-2 47q0 82 69 96q10 52 54 64l-5 17q27 1 39 6.5t17 12t7 11.5t8 5q2 1 3 1q3 0 5 -2q3 -4 6 -4q13 0 18 69l23 -26q2 32 38 32l11 -1l-15 69h6q17 0 17 5q0 12 -19 16v80h-5 q-36 0 -36 37v8h-41q-17 21 -48 21q-21 0 -74 -21l-4 4q0 19 -9 19q-19 0 -71 -73q-13 61 -22 61q-8 0 -11 -53l-49 -3q0 -4 62 -15q-8 -27 -8 -36t21 -13v-16q-21 -8 -21 -16t23 -19q-3 -65 -63 -65q-28 0 -43 7l20 -20l-56 -22q-3 25 -18 25q-11 0 -31 -17l-1 51l-26 -13 q-5 33 -26 60q4 16 26 41q-7 15 -7 48q0 62 59 89q15 50 67 60q10 31 38 31l18 -3l36 13l-6 16h67l-9 24q25 -13 42 -13q10 0 10 8l-2 9zM455 324q124 -27 124 -109q2 -3 2 -6t-3 -5l33 -20l-24 -18q20 -32 20 -54q0 -9 -4 -15t-9 -11l-9 -9t-4 -8q0 -8 15 -14l-108 -69 q-11 11 -26 11q-18 0 -50 -20q11 17 11 27q0 12 -13 18q-4 -28 -32 -28q-15 0 -20.5 5.5t-10 12.5t-12.5 13q-4 3 -9 3t-12 -3q-6 7 -6 12q0 2 1 4q0 24 -28 37q7 13 7 24q0 14 -12 25l11 89q47 11 47 39l3 4q-4 0 -4 6q0 16 12 16q4 0 10 1q5 0 10 -6q6 0 6 6q-8 9 -8 22 l39 1z" />
<glyph unicode="@" d="M843 903l-38 -92l28 -20q10 -33 10 -71q0 -35 -13 -54l7 -81l-15 -20l18 -26l-23 -8q-12 -40 -52 -62l5 -12l-70 -13l-67 -3q-203 0 -241 113l-1 54l-19 7l-13 26l-2 48l57 151q52 39 120 132l-102 -10l-2 48l-17 -53l-43 10l-46 -32v-23q-2 -8 -14 -12.5t-25.5 -8 t-26.5 -8.5q-10 -4 -13 -4q-1 0 -1 1l-39 -11q-38 -36 -38 -67l27 -159l-9 -36l5 -25l-1 -26l-26 -12l26 -6q11 -262 71 -284v-10l37 -27v-17q79 -18 144 -18q72 0 138 26q40 58 104 90l4 -15l19 27l7 -8l32 33l-15 43q26 26 44.5 29t22.5 3q3 0 9.5 -2.5t14.5 -7.5 t15 -13.5t7 -21.5l17 -17l-7 -27q-37 -56 -60 -64l-17 -31l7 -8l-50 -18l-27 -48l4 -3l27 8l-67 -74q-31 16 -43 16l-13 -5q-14 -5 -25 -17l-31 9q-6 0 -8 -3t-2 -5l6 -8q-34 -19 -71 -19q-28 0 -56 12l-13 11q0 -11 -18 -11q-21 0 -39 7l-14 -2q-11 0 -16.5 7.5t-17.5 7.5 t-12 26q-41 6 -63 15.5t-34 19.5t-19.5 18.5t-18.5 12.5q-18 6 -18 49l-29 20l-4 -27l-11 51q0 3 -5 9t-11.5 15t-11.5 19.5t-5 22.5l3 21l-39 146l-18 42q22 1 27 216q8 27 22 45q0 20 -7 24l20 21l7 -9l27 46l-33 -12l59 42l7 45q55 23 59 46q1 6 10.5 23t26.5 35t40 31.5 t51 13.5l73 -12q16 0 22 12q22 12 39 12h24q10 0 19 -6q7 6 18 6l20 -5l-7 -8l17 -1q9 0 15 12l40 3q36 0 51 -7q0 -63 18 -63q12 0 35 32l-3 -52q0 -22 2.5 -27.5t12.5 -5.5q23 0 53 13q4 -23 39 -48l-14 -40zM673 921l-130 -61l31 -10q-17 -23 -42 -23l-28 -19l8 -9 l-49 -80q21 -27 21 -59l-6 -36q37 -9 50 -46l43 -14l7 -28l83 6l-8 -30q29 60 70 65l10 34l-1 16q0 26 14 46q-13 25 -13 46q0 22 33 22q-28 31 -28 82l-28 4l3 17q0 31 -40 77z" />
<glyph unicode="A" d="M531 1130l-1 -14l34 -43l-1 -6q0 -9 9 -15l-5 -5l5 -4l-11 -24l22 -36q0 -14 11 -25l-6 -5l8 -3l-5 -6l3 -7q-11 -8 -11 -16l5 -14h-6q12 -23 12 -47l-3 -27l45 -48v-19q-8 -14 -8 -25q0 -14 11 -31l-1 -15q0 -32 22 -60l-3 -21q0 -18 11 -38l-1 -12q0 -25 23 -46l-1 -13 q0 -39 33 -73l-7 -3l9 -7q-6 -2 -6 -9l4 -15l-14 -27q9 -20 9 -40l-1 -16l16 -27q0 -14 11 -34l-4 -7l7 -4q-8 -2 -8 -9l11 -10l-2 -10q0 -12 12 -22l8 -43l30 -34l42 10q41 -21 41 -55q0 -11 -3.5 -23t-11 -22t-19 -16.5t-27.5 -6.5l-49 11l-29 -5l-3 -5l-84 -4l-4 4h-91 q-30 22 -37 58l-6 3q11 14 11 32q50 36 50 62q0 11 -7 18q16 16 16 31q0 19 -27 36l1 5q0 8 -9 16q13 16 13 32q0 11 -7.5 22.5t-27.5 11.5h-42q-22 0 -29 -4l-59 24q-25 -22 -59 -22l-24 3l-16 -8q-7 -10 -7 -24l4 -19l-8 -21q-17 -26 -17 -55l1 -17q-10 -16 -10 -36v-7 q26 -21 64 -27q8 -11 26 -21q-6 -35 -32 -64l-24 -13q-19 0 -22 -15l-23 -4h-96l-19 13q-23 -12 -47 -12q-18 0 -27.5 4t-15.5 11t-10 16t-12 19v53l12 9l-12 4l8 11q16 3 29 16l40 5l22 32l10 33h-10l21 16l-8 32l8 18l-3 14q26 20 26 50l-2 19q6 6 6 15l-3 12q17 11 17 28 l3 22l-4 14q22 22 22 53l-6 32l14 -5l-8 21q16 22 16 48v8q12 13 12 32l-2 14q14 17 14 36l-3 20q15 24 16 53l9 13q-2 4 -2 8q0 3 2 5q2 5 2 14q10 7 18 22l-4 5l6 -1l3 20q0 16 -7 29q23 32 23 70l-2 23q11 14 11 34l7 19l3 35q15 18 16 43l8 16h9q-11 3 -11 21l29 38 l-6 7l6 -2l19 11l17 -2q18 0 31 7q84 -14 84 -71zM415 911l2 -14q-11 -14 -18 -27.5t-11 -26.5q3 -19 19 -32l-8 -5l8 -1v-28q0 -7 -4 -12.5t-8.5 -10t-8 -9.5t-3.5 -11l3 -15q0 -5 -4.5 -10t-10 -11.5t-11.5 -14.5t-9 -18q19 -19 19 -28t-5 -17t-11.5 -15.5t-11.5 -15.5 t-5 -17q0 -14 6 -27l-7 -3l7 -6q-7 -33 -22 -37l36 -15l-36 2q40 -30 79 -30q32 0 63 19q55 1 55 32q0 14 -7 27q13 22 13 50l-5 53l3 12l5 2q-11 15 -27 19l-10 20q-3 -4 -5 -4q-1 0 -1 1q-2 3 -2 5q0 1 1 2q0 3 1 8l-16 -6q-17 5 -17 12q0 12 12 23q19 -13 27 -13q7 0 7 5 t-2 14q9 7 9 14q0 2 -2.5 8.5t-7 15t-9.5 16t-11 12.5q11 14 11 25q0 25 -38 55l3 24q0 29 -22 30q-13 -10 -13 -26z" />
<glyph unicode="B" d="M23 129q36 3 40.5 8t16.5 8l35 2l38 21q-1 14 -7 16q10 19 10 68l-6 56l-9 -22l-3 24q20 35 20 73q0 26 -9 55l4 20l-8 -4l12 38q-16 -25 -25 -29q20 32 20 70l-7 47l8 -8l3 77q-13 17 -14 44l9 10q-5 19 -5 37q0 15 4 30q8 32 9 41q-7 4 -10 10l3 11l-6 18l11 5 q0 31 -25 62l9 30l8 -14q10 19 10 43q0 26 -23 34l7 15q-3 27 -15 40q-15 -5 -19 -22l-7 5l-13 34l-17 -10l-44 31l-5 30h-21l11 17l-2 24q10 5 17 17v-15l8 7q22 1 45 13l16 -5l9 17l4 -10l4 10q7 -18 15 -23.5t24 -5.5t22 -7l10 -10l7 25l6 4q26 0 55 5l6 2l8 -10l4 7 l6 -8q30 -1 35 -6l7 3l22 -2l4 -15l3 16l38 4q28 0 35 -13l9 7l21 -11l39 21l22 4q2 -10 35 -12l8 -13l17 1l19 -23l77 -33q1 -15 5.5 -22t10 -10.5t10 -6t5.5 -6.5q10 -5 13 -11l14 1l-2 -18l20 -5l-10 -5q29 -31 29 -111v-20l12 -4l-4 -22l-12 -9l8 1q0 -18 13 -22l-5 -11 l2 -20q0 -8 -8 -28t-28 -29l-5 -25l-4 21q0 -19 -17 -21q11 -14 13 -34q-12 18 -15 18q-1 0 -1 -2t1 -7l-8 -14l-5 3l8 -31l-20 13q-8 -15 -8 -47q0 -10 1 -21q14 0 14 7q0 5 -7 14l48 -5l5 -12l9 9l8 -5q4 -41 15.5 -54t23.5 -13l-13 -15l13 -2l14 -47l6 3q16 -49 37 -49 q-7 -13 -7 -43q0 -20 6 -39q3 28 8 28q7 0 7.5 -16.5t6.5 -22.5h-21l12 -8q-22 -10 -22 -37q0 -4 1 -9l7 11l2 -15q-17 -7 -17 -10q0 -2 9 -2h3l5 -26l-9 -7l-13 7q0 -24 -18 -43l-3 -50q-37 -15 -48 -59q-4 0 -15 -7.5t-50 -51.5q-62 -7 -65 -17q-18 9 -24 9q-4 0 -4 -3 q0 -4 7 -14h-65l-22 17q-22 -21 -51 -22t-31 -16q-39 4 -57 23l-33 -18l21 33q-41 -21 -48 -33l-34 3l-39 5l-30 9l10 -14l-25 4l-2 -9l-13 5l-14 -8l-2 19l-15 -11l-52 5l-56 8q-2 11 -9.5 14.5t-10.5 15.5t-23 16zM315 704l9 20l-1 -20l9 8q22 -13 48 -13l34 5l5 -21l7 18 l6 -14q8 1 10 5t5 8l1 -11l14 2q5 -9 20 -9l5 22l14 -3l11 7q14 -13 33 -13q11 0 24 4l3 -12l5 17q18 7 27 14.5t14 14.5t9.5 11.5t13.5 5.5q16 1 18 29l3 -25q11 35 30 35q6 0 14 -5l-9 13q9 0 13.5 11.5t20.5 25.5l-12 13l10 4l-6 67q7 -8 11 -8q6 0 6 17l-13 -4 q-18 4 -19.5 15.5t-10.5 34.5l9 13l1 15l-33 -21l22 34l-12 -8l-22 10l1 10l-17 8l1 6l-3 13l-3 -3q-6 14 -63 27l4 7l-40 -20l-12 -19q0 17 -22 17l-1 16l-42 -2l-12 19q-34 -1 -81.5 -15.5t-48.5 -30.5l-16 29q-18 -39 -18 -61q0 -23 18 -27l-14 -25l-16 -17l21 -9l9 -29 q-23 -13 -23 -35q0 -11 6 -24l-9 -4q-1 -27 -1 -45q0 -32 4 -32q2 0 6 9q8 -14 25 -16v-59zM323 151l29 3l10 -11l5 13q9 -4 15 -4q10 0 10 12q10 -18 24 -18q7 0 15 5l4 -12l13 22l9 -10l55 5l5 -17l5 25l12 -33l-1 24l18 -7l4 -17l14 30q7 -1 14 -1q30 0 62 17l35 -8v25 l9 -12v12q36 3 55 42l35 13l-28 2q14 4 15 27l11 66q19 6 24 12t5.5 14t1 18.5t9.5 24.5l-8 13l-8 -32q-6 19 -7 19t-1 -4q0 -11 5 -49q-25 80 -66 133l6 6l-16 20l-12 7l9 34l-9 9l-7 -29l-18 -1q-8 12 -52 14v12l-13 -9q-1 17 -16 20q-9 -9 -16 -9q-2 0 -3 1q-9 3 -16 8 t-11 6q-4 0 -6 -13l-26 5l2 25l-13 -23l-45 2q-5 13 -14 13q-5 0 -12 -5l-9 8v-13l-43 -12l-14 7q-15 -4 -16 -16l-21 9q-5 3 -8 3t-3 -4q0 -3 2 -8l-17 -16q-16 -2 -21 -24l-4 28q-7 -21 -7 -32t8 -11q4 0 11 4l5 -37q-10 -19 -10 -39q0 -28 26 -45l-3 -26l-22 -12 q14 -20 14 -36q0 -14 -10 -27l13 3l-3 -33q0 -14 1.5 -28.5t6.5 -30.5l-13 -8l13 -8l-13 -9l12 -6zM763 432l26 -73q-7 -2 -12 -2q-20 0 -20 31q0 17 6 44z" />
<glyph unicode="C" d="M498 1210h15q31 -24 75 -24l24 2q12 0 21 -9t17.5 -20t18.5 -20t25 -9q26 0 58 26l9 1q10 0 21 -4t20.5 -12t16 -20.5t6.5 -28.5q0 -26 -12 -54v-86q12 -54 12 -92q0 -28 -7.5 -46t-19 -28t-25 -14t-25.5 -4q-13 0 -24 6t-19 15t-12.5 20t-4.5 21l3 19q-18 16 -18 25l2 6 l15 5q-22 2 -29 27l-3 22q-44 31 -65 64v4q0 23 -7 36l-65 11h-45q-14 8 -28 8l-39 -8q-70 0 -108 -68q0 -10 -30 -22q0 -27 -15 -61l-31 -18q-16 -28 -16 -63q0 -25 9 -52l2 -2q0 -9 -27 -48l-9 4l7 -26l-15 12l9 -19l-1 -121q-15 -18 -19 -43l19 -36q0 -51 28 -111 l-14 -17l26 -1q13 -67 54 -115q4 -19 11 -30t14 -18t12 -11.5t5 -10.5v-4l49 -12q38 -47 105 -47l17 -1q52 0 79 48l69 29l30 18q2 13 7 26t12 27q38 20 38 65v7q6 10 8 18t6 15.5t13.5 15.5t31.5 18l2 8q84 -14 84 -97q0 -10 -4 -19.5t-8.5 -19.5t-8 -21t-3.5 -24v-9 q-32 -32 -45 -86q-34 -15 -69 -50l-64 -46q-13 -16 -57 -29l-11 -7l-91 9q0 -13 -42 -20q-10 1 -14 2.5t-13.5 3t-30 3t-63.5 2.5l-9 10l-14 -3l-136 97l3 11l-11 -8q-8 26 -38 36q-7 27 -31 54q0 9 -3.5 15.5t-8 12t-8 9.5t-3.5 9l8 33q-44 68 -49 161l-11 18q-8 11 -8 26 l11 56l-3 165l12 28l-13 -12l1 38q23 35 23 80l-1 21q0 19 16 32q58 55 75 143q35 35 57 83q18 10 28 22l-3 3q0 10 73 38l4 -10l7 16l13 -1l-4 7l19 3l7 8l140 1zM673 830l-15 -4q-6 0 -6 4l8 14z" />
<glyph unicode="D" d="M309 1194l79 8l47 -24l-9 24l51 -10q32 -26 60 -26q14 0 30 6t26 6q11 0 15 -6t12 -12.5t24.5 -12.5t52.5 -6h6l-29 -34q101 -18 124 -122l26 5q18 0 18 -15l-15 -49q0 -13 15 -13h9q14 0 14 -23q0 -30 -13 -69l-21 -3l25 -7q20 -80 20 -147q0 -97 -31 -183q3 -7 10 -7 q13 0 36 21q-22 -42 -56 -49l5 -37q0 -17 -5.5 -26.5t-5.5 -25.5q0 -26 13 -52l4 -18q0 -13 -14 -13q-19 0 -44 13l81 -91q-43 40 -63 40q-13 0 -13 -19q0 -14 14 -61l-62 43l35 -59q-8 -61 -124 -95l-7 13l3 -31l-12 6q-14 -27 -43 -27q-19 0 -44 12l-16 -4 q-41 -33 -80 -33t-73 33l-42 -23l-56 23q-53 -30 -87 -30q-21 0 -39.5 10.5t-37.5 10.5t-32 -7l-42 7l-25 57l20 25l-25 -1q14 74 68 88l70 11l43 -18l-25 26l14 25q-10 53 -10 139l1 61q-19 15 -19 31t23 36l1 80l-11 92q0 36 14 36l-20 17q22 40 22 81q0 44 -25 87l66 90 q-44 -8 -63 -66l-14 7l-8 29q0 12 6.5 24.5t15 24t15 21.5t6.5 17l-5 15l-21 3q0 -39 -13 -39q-17 0 -55 62l-28 -4q-38 0 -38 41q0 48 23 72t65 26q57 -12 84 -12q24 0 24 10l26 -19l-7 22q40 -8 66 -8zM371 1071q27 -18 27 -25q0 -6 -15 -6l-46 6l-22 -16l1 -14 q0 -46 -22 -89l29 -9v-276l-22 -7l10 -11l-5 1q-10 0 -10 -13q0 -11 5.5 -28.5t5.5 -35.5q0 -26 -17 -68q19 -22 19 -37q0 -6 -3.5 -10.5t-8 -8.5t-8 -9t-3.5 -12q0 -20 24 -53l-28 -35l30 1l-22 -21q36 -21 36 -50q0 -15 -11 -32l81 -16l-20 -21l41 11l12 -19l10 14 q42 -11 63 -11q62 0 73 59l8 -1q27 0 27 32l-1 10l69 8l-65 5l22 18l8 -2q19 0 43 33q-13 19 -13 41q0 13 6 24.5t13.5 26t14 35.5t6.5 55l-5 76q41 29 41 49q0 7 -7 14t-15 13.5t-15 12.5t-7 12q0 5 6.5 13t14.5 20t15.5 29.5t9.5 42.5l-57 -62l56 112l-64 -64 q-16 226 -142 226l-16 -1l4 19q0 27 -45 27l-65 -8q-19 22 -51 25z" />
<glyph unicode="E" d="M479 1204q43 -15 83 -15l66 11q25 -12 56 -12q39 0 58 10q4 -18 17 -18l33 13l5 -15q8 0 35 15l-8 -35q0 -22 18 -29l-5 -24q0 -11 5 -13.5t5 -14.5l-15 -85q0 -17 10 -17h2q-12 -27 -12 -62q0 -27 20 -102l-19 23l-1 -35h-80l-23 34l8 -37l-17 3l-9 45q0 13 6 16.5 t6 8.5q0 4 -3.5 7.5l-7.5 7.5t-7.5 9t-3.5 13l11 39l-48 46l18 4l-6 46q-10 10 -19 10q-8 0 -14 -6.5t-14 -6.5t-14 4.5t-26 4.5l-75 -7q27 12 27 23l-6 10q-26 -21 -55 -23l1 8q0 10 -11 10t-37 -7t-62 -10l-7 11h-20q-44 0 -44 -7q0 -1 4 -4t9.5 -8.5t9.5 -15t4 -22.5 q0 -15 -6.5 -26.5t-15 -21.5t-15 -18.5t-6.5 -17.5q0 -21 37 -45q-13 -6 -13 -15q0 -10 12 -20q-34 -43 -34 -96q0 -59 38 -59q15 0 36 9q-7 -10 -7 -19q0 -5 7 -5q9 0 32 12q16 -18 24 -18t10 15l10 -13q52 37 52 98q0 19 -20 84q35 29 67 29q34 0 69 -29l-5 -37 q0 -21 6.5 -35t6.5 -28l-9 -38q0 -17 13 -33q-9 -2 -9 -21q0 -45 19 -89l-10 2q-18 0 -36 -26l18 4q17 0 17 -19q0 -16 -5.5 -36t-5.5 -41l5 -53l-10 -27l-79 -15q-1 22 -10 22q-7 0 -17 -15l2 30q0 66 -35 101l6 41q0 25 -15 25q-13 0 -35 -16v4q0 15 -15 15q-16 0 -50 -18 l-43 11l-16 -142q-31 -25 -31 -33l6 -3q15 0 28 7q-7 -13 -7 -39q0 -20 13 -20h7q8 0 8 -4q0 -3 -4.5 -7.5t-10.5 -11.5t-10.5 -16t-4.5 -19q0 -18 12 -43l-11 -45q0 -63 113 -63q26 0 41 8t15 17l-4 10h28l-6 -16q0 -12 22 -12q26 0 80 15q26 -26 46 -26q27 0 45 47l25 -4 q34 0 34 45l-6 47q12 -13 18 -13t6 12q0 15 -5.5 26t-12.5 22t-12.5 23.5t-5.5 29.5v8q42 1 56 58l29 6q39 0 59 -60l5 -87l-28 21l17 -65l19 23q-8 -35 -12.5 -59t-4.5 -38l1 -37q-6 0 -6 -8q0 -26 28 -81l-34 32l5 -27q0 -19 -15 -19l-23 7l-36 -30q-3 18 -14 18 q-9 0 -29 -17l6 79l-41 -57l21 -14l-67 -8q-20 12 -37 12q-13 0 -23 -6.5t-22 -6.5q-11 0 -21.5 5.5t-25.5 5.5l-94 -14q-27 0 -27 11t31 35h-6q-35 0 -49 -41l-70 28h-52l10 -32q-49 34 -92 34q-27 0 -46 -10l6 -13l-39 -3q-26 0 -26 11l11 29q0 6 -4.5 8t-10 4t-10 7 t-4.5 18q0 34 43 52l1 -24q25 42 48 42l17 -6l16 17l-8 83q16 44 16 105q0 49 -20 75q22 21 22 68l-14 120q0 44 24 50l-15 62l15 -4q-9 41 -50 49q39 9 46 39l-6 30l9 39q0 8 -3 15.5t-6 15.5t-6 18t-3 24l7 58l-6 -1q-16 0 -16 23l2 27q0 22 -17 22l-18 -3q-25 0 -49 36 l14 2l-27 24h6q16 0 16 11l-5 17q35 32 72 32q29 0 64 -23q29 23 51 23q18 0 35 -14l-5 22l39 -23q25 13 70 13q49 0 74 -13z" />
<glyph unicode="F" d="M476 1202l40 5q33 0 41 -18q33 12 69 12q46 0 76 -13q-2 -3 -2 -6t2 -6l-1 -6q8 0 39 31q23 -29 49 -29l30 8l1 -81l16 48v-59l19 1q-17 -23 -17 -41q0 -19 13 -32l-4 -34q24 -9 24 -20q0 -10 -14 -23q-9 -1 -9 -11v-10q0 -43 -18 -106l12 -13l-31 -4q-37 0 -71 21l1 13 q0 15 -9 15l-12 -5l6 28q0 24 -18 47q26 5 26 16q0 19 -59 60l12 51q-19 10 -29 10q-11 0 -11 -11l1 -5l-71 14l8 12q0 5 -13 5l-84 -17l-13 5l6 8q0 5 -13 5q-32 0 -78 -13l-39 23l6 -26q0 -20 -24 -23q-24 -50 -24 -105q0 -16 3 -35t8 -42l-15 7q-5 0 -5 -8q0 -13 12 -41 l-21 -73l20 8q6 0 6 -7q0 -11 -17 -43q38 -6 43 -11q11 0 11 7l-5 5l36 -2l11 -47l6 48q25 -22 48 -22l20 4l-2 40l11 -35q18 18 18 41q0 16 -9 36l22 55l-14 26q28 21 57 21t57 -22l-2 -30q0 -24 10 -24l8 3q-7 -18 -7 -60l5 -58q12 -8 12 -13q0 -7 -15 -7q-4 0 -11 1 l-12 -3l29 -11l5 -59l-14 7v-47l-34 -5l43 -8l-24 -90l23 23l-12 -47q4 -4 4 -7t-2 -6q0 -18 -26 -18l-16 1q-14 -14 -28 -14q-19 0 -42 23l-19 68l18 17h-19q-20 35 -20 45l2 11l9 -8q-11 36 -37 36q-18 0 -40 -16q-13 10 -35 10t-35 -7l-18 27l-6 -94q-10 12 -14 12h-1 l7 -20l-4 -68l14 5l-10 -43l9 -26l-9 -13l8 -4l-12 -29q18 -15 18 -42l-6 -35q26 -2 26 -29q2 -3 2 -6q0 -4 -3 -7q-9 19 -14 19q-10 0 -11 -45q10 -12 25 -12t31 10l17 -27l16 3q17 0 33 -16l28 -45q-9 -59 -56 -59q-5 3 -11 3q-3 0 -7 -1l-29 39l18 -43h-10q-25 0 -50 15 l-27 -18l-35 7q-8 26 -12 26l-3 -35l-34 -4l12 13l-59 10l27 -16l-76 -3q0 11 -9.5 14.5t-20.5 5.5t-20.5 6t-9.5 17t20 65l16 -5q8 38 65 38h6l4 -12q4 0 12 51l6 -3q4 0 4 7q-9 13 -14 50q14 48 14 82q0 55 -16 97l23 62q0 7 -5 7l-15 -7l16 39q-15 25 -15 47q0 17 11 37 l-9 13q16 25 16 51q0 28 -21 57l21 -8q7 0 7 7l-14 20q0 40 -8 42q0 7 2 11t5 7t5 7t2 11l-4 30q0 16 10 32l-17 68l14 69q-3 1 -5 1q-3 0 -4 -3q-9 0 -9 38l2 39l-11 -20q-50 2 -84 50q3 25 8 32q0 14 -10 15q27 39 69 39q31 0 75 -23q22 19 51 19l35 -8l-15 25l52 -27 q25 13 70 13t77 -13z" />
<glyph unicode="G" d="M270 44l1 4q0 19 -52 35q-13 72 -76 113q-6 81 -39 81l10 12l-21 85l-17 25q11 2 11 12q0 11 -11 31l-8 -4q-12 0 -22 21v65q13 -25 20 -25q10 0 10 49v16q-32 47 -32 77l11 57l-8 31q0 13 12 34q-7 13 -7 38q0 43 41 81v76q54 21 54 27l-19 2q22 76 96 106l4 22l10 -1 q29 0 41 30l-8 8q0 10 53 21q8 -17 14 -17q9 0 17 26l13 -1l55 14q69 -2 105 -30l-8 -12h60q9 16 22 16q9 0 20 -8q10 7 20 7q15 0 27 -15h8q50 0 93 -43l-6 -21q0 -18 15 -34q-24 -54 -24 -116q0 -16 1.5 -33t5.5 -34l-8 -46l11 -67l-18 4q-19 0 -23 -21q-36 -12 -53 -12 q-15 0 -15 9l4 12l-42 63l16 3l-29 13q15 22 15 29l-3 3q-7 0 -20 -10l-2 55l-21 28l2 10q0 16 -26 21q18 7 18 19l-5 15l-29 -27v7q0 33 -6 33l-9 -13h-24q-24 34 -57 34q-26 0 -57 -21l-38 3q-82 0 -102 -71q-53 -44 -53 -118l2 -30l-8 -48q0 -27 16 -36q-17 -20 -17 -39 q0 -25 22 -50q-25 -46 -25 -94q0 -54 33 -109v-95h21l-21 -20q57 -44 89 -122l23 4q26 0 49 -21q60 2 110 46q13 -7 48 -7q68 0 68 75l-6 51q35 9 35 48q0 29 -18 74q-4 -13 -13 -13q-11 0 -29 23q-29 9 -56 9q-23 0 -42 -6q-26 7 -55 30q10 10 10 20q0 12 -14 26 q17 11 31.5 27.5t27.5 36.5q13 7 62 7q17 0 35 -1.5t35 -5.5q9 -16 17 -16q9 0 17 20h17l25 -13q17 14 30 14q16 0 33 -14q4 9 20 9l42 -8l-4 22q14 -10 28.5 -14.5t26 -10t19 -15t7.5 -28.5q0 -24 -26 -44l13 -16l-24 -1l-2 -9q0 -14 19 -24l-25 2q-44 0 -81 -19 q11 -17 11 -30q0 -24 -28 -42q22 -12 22 -24q0 -14 -30 -27q14 -64 14 -87l-6 -65q21 -18 21 -31q0 -12 -19 -19l-2 -48q-24 -15 -47 -15q-32 0 -63 28h-21q-4 -22 -20 -22l-18 5l-59 -72q-10 -7 -22 -7q-19 0 -42 20q-24 -9 -54 -9l-48 5l1 -5q0 -8 -15 -8q-15 28 -15 47v4 zM571 1005h19q28 0 28 5t-35 19z" />
<glyph unicode="H" d="M274 1186q78 -5 89 -65q-27 -23 -27 -35l4 -9q-13 -13 -34 -13l-17 2v-9q0 -46 -37 -89q18 -8 18 -36l-4 -32l-19 15l22 -41l-8 -62l11 12l-5 -59q0 -93 66 -93q38 0 75 19q31 -15 62 -15q39 0 73 25l-13 -20q58 1 88 27q0 -13 8 -13q11 0 33 22l-13 38q3 8 5 8q1 0 2 -1 q2 -6 6 -10q5 1 20 41q-11 41 -11 62q0 38 15 79q-7 13 -7 51l3 41l-26 -3l18 13q-65 47 -65 84q0 20 23 39t62 19l42 -6l41 8q47 0 85 -45l-10 -29l9 -7q-26 -44 -72 -63l4 -49q0 -29 -9 -29l6 -15l-9 -30l11 -1l-1 -51q-24 -15 -24 -19l22 1l-8 -67l12 -38v-29 q-9 -26 -9 -41q0 -22 16 -26l-3 -21q-33 -1 -37 -28q16 9 25 9q11 0 11 -16q0 -8 -3 -19.5t-7 -24t-7 -25.5t-3 -25q0 -29 12 -57v-85h-15v-61l16 2q-5 -23 -8 -53t-3 -68l1 -46l22 8q8 -47 50 -66v-14q-54 -61 -104 -61q-25 0 -48 14l-13 -20l-5 21q-15 -6 -31 -6 q-36 0 -70 39l4 26q72 34 72 98q0 29 -15 64q22 19 22 54l-6 41q21 52 21 67l-3 5q-9 0 -37 -39q7 60 40 80l-8 46q0 50 19 98l-22 -33q-34 22 -63 22l-46 -10q-9 0 -17 4t-16.5 9t-18 9t-22.5 4q-21 0 -84 -20q-28 16 -71 16l-58 -6q16 -16 16 -27t-19 -14l-2 -42l6 -85 l-22 -28l21 6v-93l-13 -59l30 15l7 -17l-39 -17l23 -11q-13 -9 -13 -42l1 -21q100 -34 100 -95q0 -13 -11.5 -23t-26.5 -16.5t-30 -10t-22 -3.5l-49 11l-51 -1q-20 -12 -37 -12q-20 0 -37 20l-49 5l12 17h-12q-7 10 -7 22q0 15 10 34l38 -4q45 29 55 71q-9 7 -9 17t12 22 q-13 36 -13 78q0 22 5 37.5t5 29.5q0 16 -7 23.5t-7 19.5q0 11 8 26t8 26q0 9 -4 23t-4 41v19q15 37 15 83q0 20 -3.5 44t-10.5 53q12 4 12 16q0 9 -11 26q7 10 7 29q0 31 -7 49l19 -6q-11 33 -11 58l3 43l-13 -13q13 27 13 73l15 36l-24 8q-13 63 -86 72l11 75l19 -4 l-12 28q22 -9 44 -9q26 0 49 15q25 -9 48 -9q30 0 59 15z" />
<glyph unicode="I" d="M54 -1l-3 81q21 39 72 39q4 1 9 1q8 0 16 -3q33 0 65 12l-4 -13q18 18 40 18q23 0 49 -18q-8 28 -18 39l44 -14q18 0 18 19l-3 17q10 -10 36 -13q-4 7 -4 30q0 11 3 16.5t9 12.5l6 20q0 26 -26 52q0 30 12 44l-11 12l11 13q-1 9 -12 14l8 11l-4 10q0 5 10 11t10 17 q0 18 -23 46q2 5 10 5l14 1q-1 5 -7.5 7t-6.5 8q0 5 6 12q5 5 5 8q0 1 -1 2l-19 -9q14 14 14 26l-4 11q17 32 17 73l-14 80l21 8l-22 -1q16 16 16 37q0 20 -18 46q17 26 17 65h-1q-5 0 -7 20q-2 22 -12 82q15 -28 23 -28q6 0 7 13q-12 13 -12 34q0 17 9 40l-12 30l-13 -40 q-24 44 -60 44l-23 -4l11 16l-52 -14q-18 0 -31 7l-12 -9q0 18 -12 18q8 8 8 17l-8 22q-7 -25 -21 -25t-33 25v-33q-9 22 -18 22q-6 0 -12 -8q-36 29 -48 64q11 9 15.5 18.5t6 17.5t3 13t6.5 5q8 0 22 -6.5t26 -6.5q8 0 16.5 4t16.5 8.5t15.5 8.5t13.5 4q5 0 9 -3.5t8 -7.5 l7.5 -7.5t8.5 -3.5l19 8q4 0 8 -4t8 -8.5t8 -8.5t8 -4q5 0 9.5 6t9 12.5t9.5 12.5t11 6q8 0 18.5 -10.5t18.5 -10.5q13 0 23 25q2 -8 10 -8q7 0 20 8q21 -18 46 -18q23 0 50 15q24 -12 51 -12q24 0 37 4q10 3 13 3q0 -11 35 -11l20 2l9 -6q-15 -2 -15 -8q0 -7 16 -7h22 l-18 26q25 -12 52 -12q23 0 30 4v-19q13 7 26 7q29 0 46 -47q-26 -2 -26 -13l11 -19l-9 -17q-28 -1 -28 -10l4 -14l-12 -18h-102q-26 6 -54 6l-60 -6l12 -11q-18 -14 -18 -29q0 -16 18 -34q-14 -23 -14 -31t7 -11l-5 -61l-12 41v-41q-9 40 -17 40q-7 0 -13 -21l-6 -82h29 l-29 -15l28 -2q-34 -16 -34 -28q0 -4 3.5 -7.5t8 -7.5t8 -8.5t3.5 -10.5q0 -10 -6.5 -19.5t-6.5 -30.5q0 -24 9 -61l-12 -20h11l-7 -54l4 -31l-5 -24l8 -23l-6 -25l6 -24l9 -2q1 1 1 2q0 4 -10 13l23 -7l5 3q0 9 -22 31l18 -6l18 -29q-6 -16 -23 -16l-25 6l6 -83l-11 6 l11 -35v-20h18l-12 10l10 -1q10 0 10 7q0 11 -19 30q23 2 29 52v-152l12 -9l-47 -10q42 0 45 -10q0 -8 -8 -19l22 -6v-38l12 9q15 -18 28 -18l25 7l22 -5q14 0 27 7l-4 -10q10 7 19 7q12 0 25 -10l-4 13q37 -2 66 -19v-5q0 -6 2 -6h1q2 1 4 1t5 -1q-7 -13 -7 -26 q0 -14 7 -27l-12 -32l-6 15l-16 -15l-13 6q-3 2 -5 2q-1 0 -1 -1q-1 0 -1 -1q0 -4 9 -21q-23 9 -40 9t-29.5 -10.5t-22.5 -10.5l-19 13q-9 0 -21 -16q-32 18 -60 18q-27 0 -56 -17l-26 -1q-16 19 -30 19q-13 0 -23 -15l-46 8l-68 -14l-13 47v-50q-4 8 -8 8q-2 0 -4 -1 q-1 2 -3 2t-5 -7l-15 1l-17 11q-1 12 -7 15q-4 0 -6 -26h-36q-5 12 -13 12t-18 -12q-11 18 -34 18l-63 -12q-17 0 -31 11zM624 1071q6 1 7 5q0 4 -10 4h-7zM537 1043l8 -34l3 34h-11zM525 920q14 -3 22 -3q2 0 5 1q2 0 2 1q0 4 -15 14q17 20 17 31v2l-22 -12l-9 10v-44z M364 371l6 -5l-6 -7v12zM370 276q15 -20 15 -33q-2 -14 -17 -22zM524 229l10 -4l15 3l-18 13l20 5l-20 5l18 6l-24 3z" />
<glyph unicode="J" d="M392 1197l-7 13h110l-7 -13h16l19 32l13 -32h44q37 -12 60 -12q22 0 28 12l38 15h20l10 -15l14 12l38 -12l28 10q11 -41 52 -48v-14q0 -18 -4 -42t-12 -45.5t-21.5 -36t-32.5 -14.5l-18 2q-20 0 -42 -16h-16q-26 18 -36 18q-6 0 -6 -6l6 -21l-8 -64l12 1l-12 -43v-34 l12 1v-92l-12 1l-1 -8q0 -13 13 -17l-12 -68v-85l14 1l-14 -31l15 4v-61l-15 10l-4 -17l13 -9q-13 -10 -13 -24q0 -12 9 -25l-5 -65l13 1v-94h-16l3 -35l-36 21l24 -51q-42 -11 -42 -58l5 -39l-17 1q-51 0 -51 -33l2 -14q-20 9 -35 9q-20 0 -32 -15l-24 -17l-4 -13l-11 1 q-37 0 -53 -39h-10q-31 0 -62 21l-24 -1q-31 0 -84 14l-60 51l-13 -2q-23 0 -35 28l-11 -9q-24 34 -24 58l3 15q-32 47 -32 114q-23 2 -24 47q29 20 29 56q0 25 -7 42q34 19 42 55q45 33 91 33t93 -33q22 -45 22 -85q0 -64 -81 -64l-49 5l-12 -9l8 -42l-4 -34 q16 -73 90 -100l-2 -24l40 -3q32 0 32 13l28 3q17 -7 43 -7q98 0 149 169q-21 6 -21 88v7q21 13 21 42q0 30 -19 67q17 23 17 43q0 18 -14 38q9 13 9 24q0 12 -13 18l4 115l12 30q-33 7 -33 17q0 4 4 6t9 5t9 8.5t4 14.5q0 19 -4 25q-1 -8 -9 -8v34q-10 20 -10 50 q0 18 8 37.5t8 29.5t-11 10l-22 -5l-5 27l-60 -6q-26 0 -49.5 7t-41.5 20t-29 30.5t-11 37.5q0 40 51 90h48z" />
<glyph unicode="K" d="M140 305l10 -37l-11 4zM59 125l12 -3v13l37 24l1 -22l13 3l-8 5l19 25l-13 -5l6 11q-63 -27 -67 -51zM308 563l3 -24l9 36l3 -95l-10 35l4 -49l17 19l-8 2l39 33q-3 50 -9 58l-38 5zM325 802l2 7q24 -6 24 -26q1 -10 16 -10q67 42 90 108q7 59 53 59q40 17 64 95 q1 5 4 39l-7 26l7 12v26l-20 -23l13 25v16q0 3 7 8h19q27 13 51 17l-15 9l38 -6q18 4 24 21l11 -22l10 22q34 -4 43 -24q33 -2 33 -5l12 3l2 24l3 -24q43 0 43 -23q6 -1 6 -13l-6 -22l6 1q0 -25 -52 -25q-2 -8 -29 -17l-22 -24l5 23l-14 -28l-27 5l17 -9l-20 -17l-2 8 l-27 -16l-2 8q-20 0 -50 -77q0 -18 -4 -36q2 -5 2 -11l-18 -25l22 8q-4 -29 -25 -29h-26q-22 -4 -22 -23q0 -27 3 -33q0 -23 -29 -59q-5 -11 -5 -29l26 -6l-26 1q0 -31 22 -69l-20 -5l20 -8q0 -5 -10 -31q28 -67 41 -67q47 -18 47 -90q0 -41 26 -59q10 -59 26 -59 q16 -43 64 -90q22 -18 22 -64q0 -26 80 -26q43 -28 43 -77v-28q0 -13 -36 -13l-30 12l9 -12q-70 5 -76 5l4 18l-11 -18q-51 0 -78 -26q-23 -10 -33 -10q-95 0 -95 23l20 9l-20 4q7 57 9 105q8 13 45 13l51 -41l-27 39q24 4 24 20q0 18 -55 62q-8 11 -14 85q-34 61 -45 61 q-45 0 -45 18q-7 46 -43 126q-47 59 -62 59q-12 0 -14 -59l-55 -64q0 -9 -2 -13q7 -25 7 -41v-8q-7 -33 -7 -36v-7q0 -35 2 -93q-23 -40 -23 -49q0 -20 69 -59q54 0 54 -38q0 -13 24 -41v-24q0 -33 -52 -33q-42 -36 -62 -36h-5l-50 18h-4q-108 -3 -152 -3q-101 0 -101 26 q-1 15 -6 16q0 64 43 92q4 24 41 40.5t42 28.5q7 13 7 39l-7 37l17 -6l-10 38v24q0 25 21 54q5 20 5 43l-4 -1l-2 69h6v33l4 -4l2 24l-6 -3v17l6 38l-14 21l17 -3l3 19l-14 -9l2 69v30l-14 59l14 -29q0 59 24 84q-24 33 -24 72v29l-7 18l7 -4v15l22 21l-22 8v29q0 41 -59 41 q-36 0 -36 36l35 6l-35 4q0 23 26 54q7 49 33 49h8q7 0 49 -21q53 -2 57 -5q34 23 41 23q14 3 28 3l3 -20l4 20q12 0 38 -34q21 0 33 -17v-21q-18 -25 -28 -57q-19 -23 -40 -23l-24 3q-22 -5 -22 -21q0 -43 6 -90l-1 -14l32 -47l-34 32l-4 -29l13 12q-2 -30 -8 -69l-5 3 l2 -22l-3 -20q0 -17 20 -26q10 34 25 34l-2 -7q-4 -1 -8 -5q-3 -11 -3 -18q-1 -21 -7 -60l14 51q4 -2 8 -2q7 0 12 1.5t5 15.5q0 7 -5 12t-11 5zM578 853l20 3l-13 -29q-5 -12 -14 -26q-3 17 -3 29q0 20 10 23zM296 1226l-50 -32l-56 5l-24 11l85 -3z" />
<glyph unicode="L" d="M162 1189q17 0 22 6.5t10 6.5q7 0 18 -17l23 17l15 -15q39 14 75 14q60 0 125 -25v-13q0 -77 -34 -89l-20 5q-17 0 -31 -14l-20 4q-18 0 -35 -17l8 -64q-17 -5 -17 -16l8 -30l-7 -26q0 -18 22 -55l-23 12v-150l13 -2l-8 -104l10 -12l-10 -18q12 -8 12 -17q0 -7 -5.5 -14 t-5.5 -18q0 -18 7 -33l-8 -62q0 -42 17 -74v-35q-6 -6 -6 -21q0 -32 22 -83l-35 9l36 -71v-34l29 -5q18 0 38 9q31 -18 51 -18q8 0 13.5 3t10.5 6t11 6t14 3q12 0 25 -4.5t36 -4.5q20 0 46 4.5t60 12.5l6 -16l36 11l2 14q0 23 -23 43q28 13 51 47q-17 26 -17 42q0 7 4 12.5 t9 10.5t9 10t4 12l-8 30q0 19 42 28q32 -1 34 -38q36 -23 36 -98l-3 -48q12 -35 12 -70q0 -70 -48 -142q-31 22 -42 22q-5 0 -5 -6l3 -13q-20 10 -46 10q-32 0 -64 -23h-51q-16 22 -38 22t-47 -22h-13l1 25q-41 -18 -83 -18q-32 0 -74 14q-36 -12 -62 -12q-12 0 -21 2.5 t-18 6t-19.5 6t-26.5 2.5q-19 0 -45.5 -3.5t-61.5 -10.5l-13 18l-10 -4q-7 0 -11 12l2 17q0 22 -7 39l47 30l-1 10l20 -4q30 0 30 54v14l15 3q-9 24 -9 49q0 37 21 75l-17 25l4 29q0 15 -6.5 27t-6.5 21t4.5 17.5t4.5 23.5v6q20 8 20 17q0 6 -8.5 13t-8.5 25q0 22 14 27 l-17 29l3 39q7 0 7 14l-9 50l12 14l-13 3l1 36q10 0 10 9q0 10 -15 36l-2 87q16 6 16 27q0 25 -22 68l1 24q9 3 9 28q0 20 -8 35t-21 25t-30 15.5t-36 7.5l1 4q0 11 -35 13v55q33 12 64 43q25 -13 55 -13z" />
<glyph unicode="M" d="M15 45q0 23 9 58l-9 9l17 17l11 -1q29 0 57 37v-36q28 28 28 67q0 32 -16 63v6q0 20 20 25q-5 32 -8 58.5t-3 46.5l2 69l17 13q-13 22 -18 49l11 10l-5 101q10 13 10 25q0 14 -10 24q13 19 13 49q0 42 -13 67l13 5v68l-13 -2l5 37l-9 65l12 -1v40q-29 33 -69 33h-7 l-20 22l-1 17q0 45 25 45q-11 21 -32 23v31q18 -9 36 -9q33 0 64 31q26 -14 57 -14l15 -2q0 -13 38 -13h5l1 26l24 -9q43 -49 43 -103l-3 -27q22 -19 22 -40l-3 -23q0 -8 3 -13.5t7 -11t7 -12t3 -16.5q0 -32 -7 -45q9 -14 12.5 -25t6 -21t6 -21t12.5 -25t9 -41l-6 -54 q4 -14 7 -34.5t7 -40t10 -33.5t15 -14h9q0 -53 46 -53q15 0 21.5 5t6.5 21t-10 29q13 19 13 40q0 16 -9 36l4 13l6 -2q16 0 29 52l-15 35q27 22 27 60l-3 24q19 22 19 56q0 29 -7 42l28 27q-9 22 -9 45q0 32 21 62q0 31 -35 31h-5v13q82 61 143 61q36 0 65 -21q21 12 40 12 q34 0 63 -36q-4 -70 -50 -70l-9 1q-28 -10 -28 -71l2 -34l-14 -6q13 -16 13 -35t-13 -41q9 -23 9 -44q0 -27 -17 -59l-1 -22h24l5 -16q0 -15 -20 -24q22 -43 22 -85q0 -19 -10 -26v-14l13 4l-13 -93h15v-125l-15 18v-17l11 -19l-11 -97l12 2l-12 -122q30 -45 73 -45l-3 -15 q0 -7 12 -7h6l-3 -24q0 -20 11 -34q-20 -2 -24 -27l-41 6q-26 0 -27 -15h-16q-18 12 -41 12q-25 0 -55 -15l-28 3l-40 23v62q60 19 60 71l8 32q0 17 -12 35q12 42 12 62q0 16 -8 18v27q15 22 15 46q0 21 -7 34q10 19 10 40q0 33 -30 62q16 22 16 50q0 24 -4 31l6 23 q0 11 -7 24t-18 13q-10 0 -21 -20q6 -5 6 -15l-24 -72l6 -29h-4q-18 0 -18 -55l2 -48q-21 -2 -29.5 -15t-8.5 -35q0 -28 10 -47q-20 -35 -20 -53q0 -15 11 -23l-13 -34l-21 9q0 -8 21 -36l-18 -6q4 -7 4 -36q0 -16 -2.5 -36t-7.5 -43l-10 -10l-12 4q-14 0 -20 -30l-17 6 q-15 0 -27 -20q-6 30 -32 36l2 20q0 41 -34 69l-6 22q0 16 18 27v31q-23 29 -42 29q-11 0 -18 -7l-20 23l24 13l20 -5q8 0 8 6q0 4 -4 12.5t-8.5 18.5t-8.5 21t-4 21l12 56q0 14 -14 14l-25 -6l-20 18q7 35 52 49q-8 44 -34 44h-6v40q-13 16 -13 38q0 19 12 40l-4 19l-7 -1 q-15 0 -28 16v-54l-13 11v-12q0 -61 30 -62l-17 -17v-27q-23 -32 -23 -79l3 -36l8 4q13 0 25 -43q-8 -5 -8 -23q0 -44 16 -75l-11 4q-16 0 -22 -32q21 -29 21 -67l-1 -22q75 -12 80 -98l-36 -45l-43 8q-36 0 -73 -21q-43 22 -113 22h-11l-12 -16q-10 34 -33 34zM668 788 l1 -22q4 0 15 18zM248 744q1 -15 7 -15q5 0 9 10zM648 704l14 3l-10 10zM469 707l14 2q8 0 8 -4q0 -6 -10 -16l2 -12q0 -8 -5 -8t-22 17zM462 452q12 0 14 5t2 13q0 23 -25 23l-21 -3q5 -38 30 -38z" />
<glyph unicode="N" d="M25 7l7 22q0 11 -10 15q10 79 91 95l12 21v133l-12 2v41l12 13l4 27q0 21 -14 21l6 49l-8 57q21 28 21 73l-1 18l-14 -2v30q0 106 19 119l-26 41l34 10q-18 28 -18 49q0 18 18 29l-23 56q11 20 11 42q0 19 -9 39v69l-9 -2q-12 0 -16 15l-16 -2q-24 0 -41 23q6 10 6 24 l-6 28q20 11 33 34l37 -13q4 22 22 22l79 -22q31 19 69 19q30 0 62 -12v-43q-34 -52 -34 -105q0 -55 41 -108l-1 -12q0 -51 51 -70l-1 -15q0 -46 42 -71l15 -61l26 -25l-2 -21q0 -44 44 -65q7 -97 95 -159q12 27 12 61l-4 42q10 29 10 79l-2 38l-8 -1q-20 0 -25 26 q31 40 31 91q0 37 -18 81q21 7 21 27q0 12 -5.5 26t-5.5 31q0 32 10 58q-21 25 -21 64l1 18l-34 -8q-34 0 -41 42h-4q-20 0 -29 22q24 10 24 42l-2 20l47 -6q37 0 63 17h25q1 -13 20 -13l30 4l-5 11h65l-2 -11l29 -8l24 15q3 -33 35 -47q-9 -18 -9 -36q0 -20 11 -40 q-21 -21 -47 -21l-35 8q-3 -27 -29 -47q4 -22 21 -22l12 3l-17 -37q18 -23 18 -35q0 -13 -20 -15q-12 -29 -12 -57q0 -22 14 -56l-15 -25l15 -23q0 -32 -20 -43l7 -8l5 -72l-12 3l-4 -22q0 -18 19 -19v-23l-19 -13l16 -13q-9 -33 -9 -58q0 -39 22 -58v-26q-15 -26 -15 -55 q0 -30 15 -61q-14 -8 -14 -18t14 -21q-11 -33 -11 -55l6 -48l95 -17q17 -26 17 -49q0 -15 -8 -29l12 -34l-21 -13q-13 10 -26 10q-17 0 -31 -23l-46 22q-8 -17 -20 -17l-21 8h-46l12 14h-54l5 -14h-45q-6 14 -13 14t-14 -24l-10 14l-31 -12l-12 9l6 21q0 14 -13 21v30h4 q15 0 15 15l-4 21q66 0 66 73l-2 30l-11 -2q-22 0 -35 31l3 22q0 38 -36 55l1 9q0 35 -34 47l4 12q0 13 -20 24l17 43l-32 -8q-6 53 -60 58q22 12 22 37l-1 10l-29 5l8 18q0 6 -4.5 10t-9.5 8t-9.5 9t-4.5 13l3 22q0 14 -15 14l-9 -1l-13 26l13 14q-15 9 -15 23l2 11l-41 -6 q0 26 -29 28l-12 -22l35 -28q-21 -27 -21 -49q0 -19 15 -35v-34q-16 -13 -16 -35q0 -18 12 -43l-14 -1l1 -50q18 -17 18 -49q0 -30 -10 -54q13 -16 13 -36l-11 -45q0 -12 15 -12l16 3l14 -24l-19 -19l-13 5q-15 0 -15 -40v-4q21 -43 46 -43q11 0 25 9q1 -15 21 -15h7 q-9 -9 -9 -19q0 -11 14 -22l4 -52q-11 0 -19 -4t-14 -9.5t-12.5 -9.5t-14.5 -4q-53 0 -53 31l1 9q-18 -11 -18 -20q0 -8 15 -15l-39 -20l-77 20q-14 -12 -22 -12q-10 0 -14 12l-18 1l-30 -22l1 22zM620 482l1 -20q0 -14 -4 -14q-8 0 -24 30z" />
<glyph unicode="O" d="M409 1187q22 0 26 16h65q9 -15 45 -15l46 4q21 -43 73 -62l-10 -21l29 2q1 -20 27 -34h10q0 -48 28 -61v-4q0 -23 32 -31l3 -22q-8 -11 -8 -24q0 -24 23 -65l-1 -16q0 -35 28 -60v-81q21 -5 21 -15t-13 -23l14 -14l-18 -13l4 -38l19 -15l5 -38q-26 -44 -26 -93l2 -30 q-31 -49 -31 -118v-16h-5q-27 0 -27 -58l1 -19l36 1l-55 -35l-8 -54l-42 -26q-66 -115 -204 -115l-73 -5q-54 0 -86 16l-19 -3q-32 0 -32 46l-30 -3q-27 0 -27 24l1 9q-115 69 -127 210q-29 24 -29 65q0 32 7 46l-24 4v88l-21 13q9 22 9 75l-3 72l15 9l-5 73q24 6 24 23 q0 12 -7 22l18 64l17 -5q7 0 7 6q0 8 -15 31q27 12 27 100v7q28 4 28 22l-3 16q25 0 25 20l-1 9q0 22 47 39l-8 13q17 41 61 57l-10 21l23 -6q37 0 59 31q31 -16 63 -16zM469 1073q-20 -23 -40 -23t-42 21q-34 -16 -34 -32q0 -9 9 -16q-80 -11 -96 -92q-29 -32 -29 -89 l3 -38l-24 -18l20 -12q-15 -23 -15 -54l1 -16q0 -35 -29 -41l20 -57l-8 -35l8 -38q-4 -8 -4 -42q0 -63 38 -122q4 -86 52 -155q1 -21 13 -21t28 16l-6 -24q0 -9 7 -9l21 9v-7q0 -42 46 -43q9 -21 34 -21q24 0 65 21h5q34 0 45 62l13 -2q15 0 23.5 11t16.5 27.5t19 34.5 t31 32l-2 17q0 22 18 40l12 -17l6 40q0 31 -22 35q17 52 23 99l19 16l5 31q0 23 -19 23l-9 -1v23q24 7 24 26q0 14 -9.5 33t-9.5 33q0 12 6 23q-28 22 -28 57l5 31q-23 26 -23 63q0 26 4 33q-24 21 -24 57l1 11l-39 19q13 10 13 24t-14 31l-12 -39q-12 29 -26 29l-13 -6 l-4 19l-11 -2q-21 0 -31 25h-31z" />
<glyph unicode="P" d="M34 2l8 35q0 21 -13 31v7q0 20 12 36.5t32 16.5q13 0 23 -13q66 4 66 40l-6 45q16 25 16 42q0 7 -4 13t-8.5 10.5t-8.5 9t-4 9.5q0 11 14 22l-4 115q-21 7 -21 15q0 4 4.5 8t9.5 8t9.5 8t4.5 9q0 8 -11 16q23 14 23 23q0 10 -20 16l13 27l-11 4l-5 26q0 15 10 18l-1 33 l-21 -4l7 73q-4 17 -5.5 44t-1.5 63v17l32 16q-41 8 -41 23q0 9 16 21q9 33 9 61q0 20 -11 58v30q-37 1 -37 27l2 15q-19 -4 -19 -19v-2q-49 18 -49 76q0 15 8.5 26t19 18.5t20.5 11t12 3.5l12 -3l34 21h39q13 -12 27 -12q12 0 26 12h123l-5 -32l40 31h20q19 -16 39 -16 q7 0 15.5 3.5t16 8t14 8t9.5 3.5q6 0 6 -7v-2q0 -16 17 -18l17 -14l55 8l29 -3v-5q0 -11 9 -11l25 9q33 -38 64 -38l20 4l20 -19l-9 -33l13 -18l32 19l-20 -36l49 -64l-7 -76q0 -18 8.5 -30t8.5 -23t-14 -19l19 -38l-42 -115q-15 -5 -15 -10l8 -9l-28 -38l20 -15 q-48 -26 -66 -69q-38 -12 -38 -33l2 -12l-29 -1q-30 15 -46 15q-17 0 -17 -18l-56 7l2 -9q0 -11 -20 -11l-43 6l-39 -7q-20 30 -34 30q-16 0 -26 -37l-55 7l2 -26l-21 10q-13 -27 -13 -66l8 -51q0 -14 -5.5 -23.5t-5.5 -22.5q0 -16 9 -38q-12 -15 -12 -37q0 -26 16 -57 l-3 -26q0 -22 14 -22q9 0 26 11l5 -14h30l31 -18q11 0 11 -45v-13l-11 3l2 -44q-32 9 -57 9q-20 0 -36 -6.5t-31 -6.5q-24 0 -43 15l-8 -13h-24l1 11l-29 -2l4 -9h-47l-1 12q-10 -7 -21 -7q-8 0 -12.5 5.5t-12.5 5.5q-10 0 -30 -11zM468 630q17 -7 45 -7q24 0 24 14l76 27 l8 -17l5 25l10 -38v38q47 36 65 89l-23 -3l37 53l-4 26l-13 -7l-1 24q14 12 14 24q0 20 -37 36l-4 48l-15 -4l-6 28l4 15q0 7 -7 7q-10 0 -39 -17q-50 38 -86 38q-16 0 -30 -8q-2 30 -12 30q-8 0 -23 -17l-57 11q0 17 -15 17q-18 0 -58 -24l1 13q0 12 -7 12l-10 -4l4 -51 q-19 -4 -19 -24v-6q17 -6 17 -27l-14 -61q0 -11 8 -11l4 1l8 -72l-14 3q-13 -32 -13 -80q0 -46 19 -80l27 17l-7 -30l26 1q57 0 100 -22z" />
<glyph unicode="Q" d="M409 1187q22 0 26 16h65q9 -15 45 -15l46 4q21 -43 73 -62l-10 -21l29 2q2 -21 27 -34v13l22 -8l-12 -5q0 -48 28 -61v-4q0 -23 32 -31l3 -22q-8 -11 -8 -24q0 -24 23 -65l-1 -16q0 -35 28 -60v-81q21 -5 21 -15t-13 -23l14 -14l-18 -13l4 -38l19 -15l5 -38 q-26 -44 -26 -93l2 -30q-31 -49 -31 -118v-16h-5q-27 0 -27 -58l1 -19l36 1l-55 -35l-8 -54l-42 -26l-36 -63l-39 16l-2 -20q0 -41 28 -69l-47 -23q10 -87 49 -87q31 0 80 61l4 29l29 7l20 -37l6 38l28 -11l-12 -95q-12 -93 -158 -122l-106 30l-15 40l-38 2l3 46 q0 64 -16 95l13 53l-71 -8q-29 0 -83 14l-19 -3q-32 0 -32 46l-30 -3q-27 0 -27 24l1 9q-115 69 -127 210q-29 24 -29 65q0 33 7 46l-24 4v88l-21 13q9 22 9 75l-3 72l15 9l-5 73q24 6 24 23q0 12 -7 22l18 64l17 -5q7 0 7 6q0 8 -15 31q27 12 27 100v7q28 4 28 22l-3 16 q25 0 25 20l-1 9q0 22 47 39l-8 13q16 40 61 57l-10 21l23 -6q37 0 59 31q31 -16 63 -16zM469 1073q-20 -23 -40 -23t-42 21q-34 -16 -34 -32q0 -9 9 -16q-79 -10 -96 -92q-29 -32 -29 -89l3 -38l-24 -18l20 -12q-15 -23 -15 -54l1 -16q0 -35 -29 -41l20 -57l-8 -35l8 -38 q-4 -7 -4 -42q0 -63 38 -122q2 -33 11.5 -69.5t27 -69t43.5 -56.5t62 -33q-69 51 -69 106l-10 53q0 29 28 36l-18 30l25 26q34 40 73 40q18 0 38 -9l36 24l2 -25q13 7 38 7q37 0 52 -36l10 -50l-6 -27q11 -17 11 -46q0 -45 -7 -60l10 -3q7 0 9.5 9.5t6.5 23.5t12.5 30 t27.5 30l-2 17q0 22 18 40l12 -17l6 40q0 31 -22 35l23 99l19 16l5 31q0 23 -19 23l-9 -1v23q24 7 24 26q0 14 -9.5 33t-9.5 33q0 12 6 23q-28 22 -28 57l5 31q-23 26 -23 63q0 26 4 33q-24 21 -24 57l1 11l-39 19q13 10 13 24t-14 31l-12 -39q-12 29 -26 29l-13 -6l-4 19 l-11 -2q-21 0 -31 25h-31zM448 231l52 -46q-10 29 -10 81q0 35 11 52l-24 6q-5 27 -22 27t-46 -26l6 -55l-3 -37q20 -38 42 -38h4z" />
<glyph unicode="R" d="M34 2l8 35q0 21 -13 31v7q0 20 12 36.5t32 16.5q13 0 23 -13q66 4 66 40l-6 45q16 25 16 42q0 7 -4 13t-8.5 10.5t-8.5 9t-4 9.5q0 11 14 22l-7 67q-21 37 -21 54q0 7 3.5 10t8 6t8 7.5t3.5 13.5l-3 21q17 5 17 16q0 9 -14 23l13 27l-27 12q2 44 20 50v19l-21 -4l7 73 q-15 13 -15 53l8 71l19 -2q-30 16 -30 47q0 22 18 52q-14 17 -14 37q0 19 12 45v30q-37 1 -37 27l2 15q-19 -4 -19 -19v-2q-49 18 -49 76q0 15 8.5 26t19 18.5t20.5 11t12 3.5l12 -3l34 21h39q13 -12 27 -12q12 0 26 12h123l-5 -32l40 31h20q22 -18 37 -18q11 0 19.5 9.5 t16.5 9.5t19.5 -10t24.5 -11l17 -14l55 8l29 -3v-5q0 -11 9 -11l25 9q33 -38 64 -38l20 4l20 -19l-9 -33l13 -18l32 19l-20 -36l49 -64l-7 -76q0 -18 8.5 -30t8.5 -23t-14 -19l19 -38l-42 -115q-15 -5 -15 -10l8 -9l-28 -38l20 -15q-48 -26 -66 -69q-38 -12 -38 -33l2 -12 l-29 -1q-30 15 -46 15q-17 0 -17 -18l-56 -16l41 -19q0 -31 45 -34l-12 -28q56 -5 56 -43q0 -18 -7 -31l32 -3l-6 -28q0 -26 28 -33q-9 -14 -9 -29q0 -30 37 -61l21 16l15 -21l29 2q59 0 59 -38l-8 -34l18 1l-13 -88l-39 16v-25l-32 -8q-19 10 -40 10q-25 0 -47 -13 q-13 25 -30 25q-12 0 -22 -10l-37 27l5 23q0 26 -29 44l1 16q0 36 -29 41l-17 25l17 38q-46 0 -46 34l2 15l-36 -8l-4 66l-22 -18q-13 75 -62 82l-1 43l-32 1l-7 29l-26 7l-6 -13l-21 10q-13 -25 -13 -66l8 -51q0 -14 -5.5 -23.5t-5.5 -22.5q0 -16 9 -38q-12 -15 -12 -37 q0 -26 16 -57l-3 -26q0 -22 14 -22q9 0 26 11l5 -14h30l31 -18q11 0 11 -45v-13l-11 3l2 -44q-32 9 -57 9q-20 0 -36 -6.5t-31 -6.5q-24 0 -43 15l-8 -13h-24l1 11l-29 -2l4 -9h-47l-1 12q-10 -7 -21 -7q-8 0 -12.5 5.5t-12.5 5.5q-10 0 -30 -11zM468 630q13 -7 45 -7 q24 0 24 14l32 10l25 -9l15 22l22 -6q30 19 30 30l-8 9q30 15 48 68l-23 -3l37 53l-4 26l-13 -7l-1 24q14 12 14 24q0 20 -37 36l-4 48l-15 -4l-6 28l4 15q0 7 -7 7q-10 0 -39 -17q-50 38 -86 38q-16 0 -30 -8q-2 30 -12 30q-8 0 -23 -17l-57 11q0 17 -15 17q-18 0 -58 -24 l1 13q0 12 -7 12l-10 -4l4 -51q-19 -4 -19 -24v-6q17 -6 17 -27l-14 -61q0 -11 8 -11l4 1l8 -72l-14 3q-13 -25 -13 -80q0 -46 19 -80l27 17l-7 -30l26 1q57 0 100 -22z" />
<glyph unicode="S" d="M69 -4q-2 38 -26 62q9 30 9 63q0 14 -1.5 29.5t-5.5 31.5q12 13 12 27q0 12 -7 22q13 4 13 25l-2 21l-22 -13q15 31 15 62l-11 55l21 4q17 0 29 -12q13 15 30 15q7 0 11 -5.5t8.5 -12t11.5 -12.5t21 -7q13 -85 106 -124q24 -48 55 -48q4 0 8 1l2 -7q15 0 26 -6t21 -13.5 t21.5 -13.5t28.5 -6q26 0 64 12q15 -12 23 -12q9 0 9 15l-3 20h11q105 0 167 129q-9 12 -9 26q0 20 19 45l-29 17q12 16 12 30q0 30 -56 47l1 30q-8 -2 -16 -2q-22 0 -42 15l-25 12l-16 -11l-6 4q0 18 -28 18h-5v-4q0 -9 -6 -9q-7 0 -30 17l-14 -5l-15 27l-73 13l13 -26 l-50 22l-15 -12l-7 22q-13 3 -13 7l1 5h-39q-31 64 -105 76l-5 35l-16 -20l-9 38l-22 -12l3 39l-15 -16l2 13q0 21 -26 24q8 5 8 12q0 8 -12 20l-15 47l10 2q-12 27 -12 62l5 31q9 0 9 7q0 9 -16 28l33 18l-4 20q0 15 9 33q50 15 82 71h39q6 33 43 36l-9 10l20 16l61 -8v16 l53 -16q10 4 10 11q0 6 -10 15l24 -3q22 0 39 12q23 -38 74 -38l32 3q4 -17 19.5 -23t34.5 -11t37 -13.5t27 -29.5q18 -38 45 -48q16 31 16 81q13 3 13 9q0 7 -14 17q22 19 52 19l15 -1q4 -37 34 -40v-23q-25 -46 -25 -101q0 -49 21 -103v-26l-35 -58l-52 25q5 3 5 17 q0 51 -39 78q-2 74 -87 89q-58 34 -132 34l-46 -3q-14 27 -39 27l-19 -9q29 0 44 -19l-44 -8q-31 0 -63 17l5 -35q-24 -2 -24 -8l9 -17q0 -6 -9.5 -8.5t-21 -6t-21 -10t-9.5 -20.5l4 -19q-44 -27 -44 -82q0 -39 10 -60q43 -17 77 -66l34 8q22 0 48 -12l-1 -15l-33 3 q-13 0 -13 -4l17 -14q42 12 78 12q68 0 121 -41h86l-3 -19l31 4q55 0 69 -51l11 2q19 0 19 -24l-1 -9q27 -30 67 -31q10 -10 10 -27q-4 -14 -5 -22q39 -54 39 -98q0 -25 -14 -48l2 -63h25q-48 -68 -48 -134l6 -1l-5 -18l-15 -19l-18 7q-15 0 -15 -31v-8q-24 -3 -36 -13.5 t-23 -21.5t-26 -20.5t-45 -10.5l-1 -19q-62 24 -133 24q-15 0 -26.5 -4t-23 -8.5t-24.5 -8.5t-29 -4q-35 0 -81 15q0 29 -32 29l-36 -6q-9 41 -67 57q-15 -78 -68 -78l-9 1l-4 -16h-49zM323 1078l14 -9q3 10 17 21z" />
<glyph unicode="T" d="M230 -2q-4 27 -41 34q-7 13 -7 43q0 37 20 72q4 -4 9 -4q6 0 14 6q4 -1 9 -1q12 0 28 8h55l3 -9l31 13l-4 7q4 13 30 33l-4 34q11 20 11 35q0 16 -11 36l21 73q-21 22 -21 63l8 56l12 -9l2 17q0 26 -16 42l17 70q-16 1 -16 41v8q-3 3 -3 7t2 8l7 -10q7 5 12 31 q-14 5 -14 33q0 43 13 83l-16 -10l5 39q15 15 17 47q-13 1 -13 43v10q-4 2 -4 5t5 8l-10 19q13 22 13 50v14l-13 -3l13 24l-4 13l-90 8l-8 -8q-12 19 -47 21q-12 -29 -64 -42q22 -18 22 -47q0 -8 -5 -14.5t-11 -8.5t-12 -17q-3 -7 -3 -12q0 -6 4 -10q-1 -3 -1 -8 q0 -11 10 -28q-12 -20 -12 -42q0 -27 16 -52l-77 -34l-14 8l1 -21h-42l-26 43l-1 15q0 34 22 53l-10 21q-12 1 -12 13q0 9 3 15t6 11.5t6 12.5t3 18q0 20 -15 20l-2 34q16 31 16 60q0 27 -16 46v46l7 9l2 -6q9 0 9 16v5h17q10 -21 24 -21t31 24l44 4q31 0 37 -13h47 q34 15 69 15q29 0 84 -20q27 15 48 15q19 0 33 -11l7 9q22 -16 34 -16q8 0 8 10l-1 7h89q7 -15 19 -15l28 6l2 11l28 -11l29 14l5 -14h17q12 -12 25 -12t27 11l38 -11q9 -20 9 -40t-9 -41l21 -22v-76l-11 -2l11 -28l-4 -30l10 -3l-6 -27l14 3l-5 -33l8 -13q-33 -26 -33 -60 q6 -3 6 -6q0 -2 -1 -3q-3 -5 -3 -9v-2l-19 -29l-22 -2l-34 22v10q-1 1 -1 2q0 3 3 6q0 43 -53 63q7 10 7 24t-7 27q14 20 25 20l12 -3q3 4 3 7q0 4 -5 5q0 18 -11 18q-2 0 -5 -1l-3 4q9 24 9 47l-4 27q7 10 7 21q3 2 3 4q0 4 -6 9q-16 -16 -25 -16t-16 18l7 6q-30 31 -61 31 q-33 0 -71 -35l-31 15l-29 -2q-10 -26 -10 -62q0 -27 10 -37v-17h-16l16 -17v-33l17 -9q-12 -34 -38 -43q24 -5 24 -23q0 -13 -12 -32l7 -8q-5 -22 -19 -39l10 -51l14 3l-14 -89l14 -15l-14 -14l14 -12l-14 -17q0 -8 7 -8q4 6 15 6h3q-19 -28 -19 -57q0 -26 16 -48 q-20 -32 -20 -47q0 -8 5.5 -12.5t5.5 -12.5q0 -13 -4 -15.5t-4 -10.5t-9 -13q-5 -3 -5 -6t5 -7q-2 -6 -2 -12q0 -18 17 -35q-4 -7 -4 -30q0 -30 21 -51l-4 -30q10 -21 28 -21q11 0 25 9h36q8 -50 55 -50l22 2q18 -20 18 -68h-2q-24 0 -38 -51l-35 -10l-89 12l-12 10l-11 -25 q-17 27 -41 27q-5 -9 -14 -9h-6q-9 0 -17 -3q-10 -5 -21 -9q-4 -2 -9 -2q-6 0 -12 4q-6 -4 -12 -4q-4 0 -7 1q-10 3 -20 7q-7 2 -15 2h-6q-2 -1 -3 -1q-8 0 -11 8q-19 0 -24 -17h-80z" />
<glyph unicode="U" d="M423 -21q-20 18 -37 18q-10 0 -24 -8q-18 4 -18 16l3 10l-10 1q-33 0 -46 -24l-33 15l-10 36q-9 11 -21 11q-13 0 -26 -12l9 45l-11 20l8 16q0 10 -22 10q-28 0 -35 -4l11 53q0 16 -6.5 24.5t-14 15.5t-13.5 15.5t-6 25.5q0 22 12 58l-18 1l13 49q-13 7 -13 17 q0 12 18 29l-18 55q25 3 25 20q0 14 -16 36v18q13 25 13 76l-4 44l-14 -15l14 112l-15 12v57h19l2 10q0 16 -20 24q16 13 16 30q0 16 -18 36v55q18 1 18 19l-2 16l-24 -7l6 37q0 21 -14 21q-9 0 -19 -7l-40 14l-18 -6l4 27q0 21 -12 35q27 12 27 43l-1 12h56l7 29l19 -29 l30 9l69 -8l113 8l-1 5q0 9 14 9l60 -46q-10 -115 -95 -115l-17 -14v-92q-26 -9 -26 -17q0 -7 13 -11l-9 -73l8 -44l-8 -49l15 -26l-28 -15v-60q21 -20 21 -48l-8 -39l9 -10l-3 -19q-19 -4 -19 -28q0 -18 12 -49q22 -10 22 -37q0 -14 -7 -26t-7 -25q0 -21 14 -44 q-20 -23 -20 -37t19 -20l-4 -27q0 -28 26 -28l8 1l24 -38l-6 -25q0 -15 16 -15l26 5l13 -23l15 23q42 -30 62 -30q18 0 18 25l31 14l16 16q16 7 16 23q0 12 -7 25q45 4 45 27q0 10 -8 24q19 25 19 46q0 14 -9 28l24 49q-9 7 -9 21l11 36l-3 32q0 41 19 72q-24 19 -24 39 l2 11l17 4v17q0 55 -18 76l4 59q11 5 11 14q0 14 -21 41l-5 66l24 53l-19 13l-9 47l25 20l-23 17l23 20q-18 37 -50 37l-29 -6q-6 25 -32 25l-10 -1l4 20q0 17 -17 31v14q40 37 92 37l38 -5q28 15 65 15l17 -1l13 -14h56l4 16q46 -10 74 -34h17l-1 -9q0 -12 14 -14l3 -49 q-23 -39 -55 -39l-8 -21l-16 1q-22 0 -28 -9l8 -22l-27 -6v-6q0 -39 24 -43l-16 -50l12 -50q-22 -4 -22 -28q0 -9 3 -20.5t7 -24t7 -25.5t3 -23q0 -12 -3.5 -22.5t-7 -20.5t-7 -22t-3.5 -27q0 -16 23 -110q-17 -23 -17 -44q0 -18 10 -37l-23 -22l18 -15q-12 -23 -12 -44 q0 -23 12 -45q-18 -26 -18 -61l4 1q6 0 6 -10q0 -14 -12 -50l-38 -30l31 -11l-9 -17q-24 -2 -24 -45v-4l-18 2q-33 0 -33 -31l3 -19l-35 -21l-21 6q-9 0 -15 -8t-12.5 -17t-15 -17t-23.5 -8q-16 0 -29 12h-52z" />
<glyph unicode="V" d="M435 -5l-56 -8l-8 44l-42 -14q-2 69 -36 114l14 51q0 10 -4 18t-8.5 15t-8 13.5t-3.5 14.5l6 27q0 15 -29 96l25 9q-28 22 -40 62l3 33q0 48 -27 95l11 72q0 67 -37 131q15 1 15 9q0 7 -15 24q4 7 4 39q0 54 -28 106v10q0 23 -20 77l12 11q-18 44 -52 44q-17 0 -36 -10 q-33 27 -33 54q0 33 49 66q22 -13 47 -13q28 0 53 13h93l-10 -12l37 12l-4 -19l72 19l44 -46q-2 -53 -43 -65l-23 1q-61 0 -61 -38q0 -15 7 -28q22 -45 22 -108l-2 -30l14 2l10 -52q-9 -2 -9 -7q0 -10 18 -31l-22 -43l23 -42v-29l-14 -4l18 -25l-34 -33q45 0 45 -131l-8 -20 q0 -14 20 -31v-25l-8 3q-10 0 -12 -32q13 -23 22 -47t18 -43t18.5 -31t24.5 -12q22 0 42 50l22 -7q5 0 5 5q0 9 -17 32q40 67 41 231q4 -30 8 -30t6 92q17 2 17 20q0 11 -6 17t-6 8q0 6 20 14l-3 20l14 1l1 9q0 7 -3 11t-7 7t-7 6t-3 8q0 15 21 29l-5 57l6 44q15 0 15 20 l-6 34q25 37 25 65l-5 22l12 33q-22 28 -111 28h-12l19 46q-19 15 -19 31t22 32l66 -2q24 18 68 18q35 0 83 -12q19 10 54 10l40 -6l-1 -11q0 -20 21 -26l-2 -18q8 -5 8 -25l-2 -26l-20 -17q-80 -3 -80 -34l2 -9q-19 -31 -19 -69l3 -30l-4 -23q-8 0 -15.5 -13t-13.5 -32 t-9.5 -40.5t-3.5 -39.5q0 -16 4 -20q-10 -7 -10 -28l3 -27l-13 -3l8 -20l-24 -117l-9 3v-77l-7 16l-4 -13l4 -24q-15 -10 -20 -67l-27 -17l19 -3l-12 -29l-27 -23l23 5l3 -20l-11 -41l-12 -2l2 -85l9 -6q-17 -20 -17 -35q0 -16 15 -29l-28 -29q-12 -17 -12 -43l1 -31 q-21 0 -22 -39q-15 16 -37 16l-28 -6z" />
<glyph unicode="W" d="M184 62q1 4 1 7q0 4 -1 8v3q0 5 2 9q0 61 -22 118l14 6q-20 20 -20 42q0 18 10 34q-19 31 -19 64l8 61h-24l-5 16q0 15 20 24q-22 43 -22 85q0 19 10 26l-10 14l-3 -4v93h-12l-7 104l22 3v17l-21 19l-13 87l24 44l-23 4l4 126q0 37 -39 37l-38 -6l6 15q0 7 -12 7h-6l3 18 q0 16 -11 30q19 1 24 27l41 -6q25 0 27 15h16q37 -12 70 -12q36 0 66 15l28 -3l40 -23v-52l-18 2q-44 0 -53 -52q-35 -14 -35 -47q0 -22 10 -41v-20q0 -87 16 -90v-27q-13 -16 -13 -37t15 -43q-10 -19 -10 -40q0 -34 30 -62q-16 -22 -16 -50q0 -24 10 -30q-7 -2 -7 -12 q0 -5 2.5 -25t6.5 -42.5t9 -40.5t10 -18q13 0 23 97q-7 6 -7 18q0 13 8 33t8 33l-7 32h4q19 0 19 55l-3 48q33 4 33 26l-15 71q20 23 20 37q0 11 -11 19l13 34l21 -9q0 7 -21 36l18 6q-4 7 -4 36q0 16 2.5 36t7.5 43l10 10l12 -4q14 0 20 30l17 -6q15 0 27 20q6 -30 32 -36 l-2 -20q0 -41 34 -69l6 -22q0 -17 -18 -27v-31q31 -7 31 -18q0 -5 -5 -9.5t-5 -12.5q0 -7 5 -17t10.5 -21.5t10.5 -23.5t5 -22q0 -9 -3.5 -18t-8 -17.5t-8 -15.5t-3.5 -12q0 -6 4 -8.5t8.5 -4t8.5 -4t4 -8.5q0 -12 -16 -31q8 -44 34 -44h6v-40q13 -16 13 -38q0 -19 -12 -40 l15 -64q-15 -38 -15 -57q0 -26 18 -34q8 8 12 8.5t9 1.5v165l13 -11v12q0 60 -30 62l17 17v27q23 32 23 79l-3 36l-7 -4q-7 0 -7 24q0 11 4.5 18t4.5 24q0 39 -16 75l11 -3q16 0 22 31q-13 16 -13 46q0 20 17 86q-106 12 -106 58l3 15l36 45l43 -8q35 0 73 21 q43 -22 105 -22h9l12 16q10 -34 33 -34l6 -16q0 -20 -18 -47l9 -9l-17 -17q-15 12 -25 12q-20 0 -23 -48l-21 28q-13 -25 -13 -71q0 -48 22 -91v-6q0 -20 -20 -25l5 -42q0 -71 -16 -132l-17 -13q14 -23 18 -49l-11 -10l5 -101q-13 -16 -13 -33l3 -16q-12 -20 -12 -49 q0 -30 12 -67l-23 -5v-68l13 2q-18 -38 -18 -80l-20 -130l-12 48l-20 -40q11 -14 11 -30q0 -33 -47 -89v3q0 13 -38 13h-5q-42 12 -42 43q0 15 9 33q-28 37 -28 67l3 26q0 12 -6 19.5t-13 12.5t-13 10.5t-6 14.5q0 20 19 48q-36 15 -36 31q0 8 9.5 20t9.5 24q0 10 -5 20.5 t-5 30.5l7 61q-4 13 -6 34t-4 40.5t-4 33.5q-2 7 -4 7q-3 0 -6 -6q1 4 1 6q0 5 -3 5h-2v3q0 64 -40 74q0 -24 -3 -39.5t-6.5 -27t-6.5 -20.5t-3 -19l11 -47l-4 -13l-6 2q-16 0 -29 -52l15 -35q-22 -19 -22 -47l8 -37q-9 -17 -9 -36q0 -14 17 -62l-28 -27l2 -29 q0 -68 -57 -120q-17 -62 -52 -62q-19 0 -45 20zM473 678q0 101 -16 101q-6 0 -9.5 -7.5t-6 -17.5t-3.5 -20t-1 -15q0 -46 36 -50v9z" />
<glyph unicode="X" d="M20 39q0 14 1.5 29.5t5.5 31.5h2q13 0 15 -44l4 25q0 30 -30 36l9 44l88 -3l18 18l19 -4q5 44 35 44l-1 21q0 31 6 42t13.5 14.5t14.5 7t8 19.5q3 27 57 54q11 29 14 75q11 9 24 23.5t24 34t18.5 43t7.5 50.5l-8 78l7 4q8 0 22 -23v3q0 27 -34 58q-16 67 -61 128 q-19 93 -82 171q7 4 7 11q0 13 -29 34l-6 -6q-12 0 -37 28q-15 -3 -22 -22q-14 9 -27 9l-20 -4l-22 28q3 73 43 110q22 -13 38 -13q13 0 24 9l42 -12q13 13 35 13l17 -2v-11l48 11q28 -11 41 -11q18 0 29 12l31 -6l24 -34q-18 -84 -88 -84l-11 1q7 -44 45 -109l-1 -17 q0 -37 16 -68q20 -5 20 -17q0 -11 -15 -27q49 -31 49 -52l-2 -9l9 -5l30 11l-8 27l21 17l-1 17q0 42 29 80q34 46 34 162h-2q-69 0 -73 84l39 28q32 -8 55 -8l62 8l49 -11q20 0 29 12l16 -2q7 -21 70 -21v-2q0 -18 25 -18l15 1l-8 -15q0 -6 7 -10q-27 -17 -27 -47v-6 q11 41 19 41t13 -44q-38 -20 -82 -20l-44 4l-13 -6l4 -15q0 -9 -6 -19t-13 -20.5t-13 -22t-6 -23.5v-5q-59 -45 -65 -139q-23 -11 -24 -57q-40 -20 -50 -81q10 -6 10 -14q0 -15 -31 -36l30 -19v-10q0 -49 34 -76v-50l13 6q17 -59 35 -59l5 1l-1 -8q0 -26 29 -41l-5 -30 q0 -22 7 -35l21 18v-12q0 -49 21 -56l13 -30q-12 -3 -12 -16q0 -17 22 -54q17 -7 38 -7q20 0 26 13q10 -10 31 -10l26 4v-4q0 -20 26 -34l-16 -17l20 6q0 -14 -3 -32.5t-9.5 -35t-18 -28t-28.5 -11.5q-24 0 -49 18q-21 -32 -47 -32q-9 0 -19.5 3.5t-21 8t-20.5 8t-18 3.5 q-13 0 -23 -5.5t-18 -5.5q-9 0 -11 14q-23 -14 -43 -14q-27 0 -56 20q-13 35 -13 69q0 86 112 86q-8 33 -35 33l-1 29q0 57 -41 104q-3 153 -60 153l-23 -5l7 25l18 -4l4 3l-16 16q-19 -19 -19 -57l2 -26l-43 -22v-12q0 -102 -65 -176v-50q22 -16 50 -16l32 5q30 -39 30 -86 q0 -33 -15 -70q-26 -10 -55 -10q-33 0 -55 16q-31 -10 -31 -22l1 -5q-38 0 -39 22q-7 -3 -7 -12l4 -15q-24 4 -41 21q-19 -13 -44 -13q-24 0 -50 14q-17 -15 -41 -15l-37 6zM529 395q0 -50 38 -79l3 26q0 45 -41 63v-10zM558 356l-1 -14q-25 18 -25 45l1 11q25 -7 25 -42z M295 183q13 0 13 5l-9 12z" />
<glyph unicode="Y" d="M194 56q0 36 26 99l21 -3q27 0 48 23q23 -17 39 -17q24 0 37 37h18l-4 116q15 12 21 35q-18 49 -18 90q0 40 18 70l-10 47l10 3q-16 70 -77 125q-3 33 -44 77q11 14 11 27l-6 16q-6 -18 -13 -18q-6 0 -12 13l-26 126q-17 8 -25 24t-15.5 31.5t-18 27.5t-31.5 12 q-6 41 -103 50q-9 24 -9 47q0 38 26 73q22 -12 38 -12q12 0 20 5.5t20 5.5q11 0 22 -6t28 -6q22 0 74 23q29 -17 54 -17q24 0 47 15l27 -7q9 -32 9 -52q0 -22 -9 -34l26 -20q-17 -20 -42 -20l-37 6q0 -21 -14 -21l-15 4q5 -41 27 -59q-10 -19 -10 -37q0 -32 36 -53 q13 -110 89 -151h22l1 31q57 18 68 89h1q27 0 32 60l14 3l-9 23q19 28 19 51q0 38 -66 49l-26 25q-1 28 -3.5 48.5t-7.5 34.5l25 15q13 -9 28 -9q23 0 48 16q20 -14 44 -14q28 0 59 19l63 -10q27 0 44 7q19 -18 45 -18l12 1v-6q0 -33 21 -69q-41 -7 -77 -35l-5 8 q-8 0 -26 -38l-21 20l-8 -35q-41 -16 -43 -70h-2q-19 0 -20 -40l17 -10q-36 -26 -36 -58l6 -28q-18 -45 -47 -45h-4q-60 -65 -60 -118l4 -27l-13 -25l9 -5l-43 -50q19 -7 19 -43l-6 -48l13 -5v-25l-17 -5l-18 -74q16 -16 16 -40q0 -15 -11 -46q13 -22 13 -58l-1 -17 q22 0 22 -28l47 -7q40 0 73 10q21 -33 64 -55v-45l-19 -30q-17 0 -28 -20l-46 8q-37 0 -74 -18q-20 23 -39 23q-20 0 -43 -23l-94 -5q-14 29 -24 29t-19 -24h-17q-10 25 -30 25q-15 0 -34 -15q-22 29 -65 40v11z" />
<glyph unicode="Z" d="M38 34q27 40 27 71l-2 18q58 42 58 82v7q34 13 48 60l23 5l-13 21q21 13 21 35v7q0 10 9 19t20 16.5t20 15t9 15.5t-8 16q57 59 83 154l16 25l9 -6q18 0 41 81q38 21 42 70q62 27 62 97v7l17 -8l4 25q40 10 46 82l5 15h5q15 0 15 11t-17 37h6q12 0 12 7q0 8 -10 18 q-1 -13 -24 -13q-42 0 -67 13q-25 -22 -48 -22q-16 0 -28 15l-25 -12l-7 15q-30 -24 -70 -24q-33 0 -46 7q-36 -30 -36 -75l2 -20q-29 -35 -29 -60q0 -15 9 -29t9 -22q0 -3 -2.5 -5l-5 -4t-5 -5t-2.5 -9l1 -8q-34 -1 -54 -37l-10 -1q-28 0 -44 22l4 15q0 18 -20 47 q4 34 12 34q5 0 11 -11q0 30 -14 30l-9 -2q10 19 10 66q0 20 -8 31l23 -1q0 22 -21 48q13 25 13 74v18q21 0 21 58l-1 20q7 -4 31 -4q25 0 32 4l42 -11l36 6q14 0 29 -6.5t29 -6.5q25 0 60 29l28 6q12 -9 26 -9l24 5q21 -21 45 -21q20 0 46 17q17 -11 36 -11q28 0 69 21 q4 -28 13 -28q6 0 15 14q34 -12 76 -12l40 3q0 -31 32 -48q-14 -12 -14 -17l24 -1q-7 -13 -7 -27t7 -27l-9 -21l-10 5q-13 0 -19 -46l-16 2q-16 0 -16 -9l7 -16l-12 -15l-25 -4l2 -18q0 -14 -6 -26t-13 -23.5t-13 -23.5t-6 -26l1 -14l-19 -14l20 -8q-25 -43 -41 -43 q-10 0 -16 17q-10 -7 -10 -18q0 -9 10 -19l-38 -4l1 -11q0 -23 -26 -31v-3q0 -55 -35 -55h-2q-24 -97 -60 -97l-11 2l-16 -21q7 -3 7 -10q0 -14 -28 -48h-29l-2 -10q0 -14 23 -14h9q-34 -15 -34 -48v-7l-22 -32q-3 43 -11 43q-5 0 -13 -23q10 -1 10 -19l-3 -23 q-45 -20 -69 -112h-2q-18 0 -29 -38q-9 18 -14 18q-4 0 -4 -16q-40 -1 -43 -51l21 -9q-7 10 -7 22q0 17 24 28l21 -8v-8q0 -52 59 -52l24 4q0 20 77 22l14 17q36 -56 78 -56q23 0 47 15h58l45 50l-13 11l34 5q-11 17 -11 31l2 14q39 22 39 76q0 25 -9 58l21 16 q-17 20 -17 48v6l37 46q10 -7 23 -7q18 0 36 15l20 -8l16 -58q-11 0 -11 -13q0 -9 6.5 -25t6.5 -32q0 -35 -34 -75l2 -17q18 0 20 -38l-15 -7l18 -34q-5 -14 -16 -14l-9 2l5 -23q0 -13 -9 -23q3 -15 12 -15l11 5l2 -14q0 -18 -13 -22q7 -10 7 -25q0 -16 -7 -29l-21 -4l3 11 q0 12 -15 14q-32 -36 -74 -36q-29 0 -67 20q-39 -5 -39 -28l3 -14l-17 -2q-21 0 -39 19q-13 -7 -32 -7q-28 0 -61 18v-27q-21 18 -36 18q-14 0 -24 -15q-22 16 -48 16q-28 0 -56 -16q-67 4 -67 26l-11 4q-33 0 -73 -27l-32 18q-20 -17 -43 -17z" />
<glyph unicode="[" d="M380 -60q-17 39 -17 80l2 30l24 -1q-18 22 -18 42l4 19l-16 -6q4 20 6 40.5t2 42.5q0 26 -3 52t-8 53l6 -3q10 0 10 46l-3 58l-17 12q8 48 12.5 87t4.5 71q0 39 -6 72t-6 60l11 87q0 43 -16 97l12 1q-9 36 -9 61q0 38 20 52v7q0 20 -7 20q-5 0 -15 -12q11 38 11 58 t-6 32.5t-6 30.5q0 29 13 59v47l15 -4l-13 84l100 22q19 -10 45 -10q23 0 54 14l30 -2q44 0 110 20l4 -27q0 -22 -13 -35l28 -54q-12 -31 -28 -31q-18 0 -44 41l-17 -27h-57l-6 -51l-54 13l10 -92q-21 -87 -21 -145l2 -32l14 -17q-13 -7 -13 -27q0 -16 9 -40l-20 -24l21 3 v-40l-8 -57q9 -11 9 -32q0 -22 -7 -43l9 -20l-9 -70l10 -31l-14 -45l16 -63l2 -94q-15 -29 -15 -64q0 -26 11 -68q-10 -33 -10 -58q0 -15 5 -21t11 -9t11 -6.5t5 -12.5l-7 -36q0 -9 3 -18t8.5 -17t12 -13t13.5 -5l16 3q15 0 35 -30l76 38l1 -21q0 -78 -38 -78h-7l-22 -45 q-11 21 -23 21q-9 0 -18 -11q-38 15 -76 15q-48 0 -87 -19l-64 15z" />
<glyph unicode="\" d="M161 1272q14 -30 44 -56v-72l16 -1l-20 -39h5q24 0 39 -40h-4q-20 0 -20 -24v-4l8 1q22 0 44 -49v-56l40 -36q0 -39 20 -96q84 -69 116 -188l44 -24v-6q0 -59 52 -98v-6q0 -38 40 -62v-7q0 -15 4.5 -25t10 -17t10 -13.5t4.5 -15.5v-9q0 -18 31 -45q3 -53 25 -53l7 1 l-3 -17q0 -21 23 -35q-13 -4 -13 -16q0 -19 41 -60l-1 -12q0 -30 31 -37l8 -14l-3 -12q0 -13 17 -21q5 -23 13.5 -34t16.5 -18.5t14 -17t6 -30.5q0 -17 -6.5 -25t-25.5 -8q-46 0 -110 73q-21 116 -120 208l3 18q0 22 -23 42q-1 60 -52 104v4q0 35 -32 52l-8 -11q0 29 -20 35 l1 10q0 30 -28 55l7 31l-20 1l12 19h-20v5q0 18 -20 27q-15 58 -64 104l2 16q0 33 -30 60l1 12q0 31 -33 52l1 11q0 32 -41 49q-3 52 -40 92q0 59 -40 108l-8 56l-12 4q-7 27 -7 59q0 63 39 101h28z" />
<glyph unicode="]" d="M600 1260q17 -39 17 -80l-2 -30l-24 1q18 -22 18 -42l-4 -19l16 6q-4 -20 -6 -40.5t-2 -42.5q0 -26 3 -52t8 -53l-6 3q-10 0 -10 -46l3 -58l17 -12q-8 -48 -12.5 -87t-4.5 -71q0 -39 6 -72t6 -60l-11 -87q0 -43 16 -97l-12 -1q9 -36 9 -61q0 -38 -20 -52v-7q0 -20 7 -20 q5 0 15 12q-11 -38 -11 -58t6 -32.5t6 -30.5q0 -29 -13 -59v-47l-15 4l13 -84l-100 -22q-19 10 -45 10q-23 0 -54 -14l-30 2q-44 0 -110 -20l-4 27q0 22 13 35l-28 54q12 31 28 31q18 0 44 -41l17 27h57l6 51l54 -13l-10 92q21 87 21 145l-2 32l-14 17q13 7 13 27 q0 16 -9 40l20 24l-21 -3v40l8 57q-9 11 -9 32q0 22 7 43l-9 20l9 70l-10 31l14 45l-16 63l-2 94q15 29 15 64q0 26 -11 68q10 33 10 58q0 15 -5 21t-11 9t-11 6.5t-5 12.5l7 36q0 9 -3 18t-8.5 17t-12 13t-13.5 5l-16 -3q-15 0 -35 30l-76 -38l-1 21q0 78 38 78h7l22 45 q11 -21 23 -21q9 0 18 11q38 -15 76 -15q48 0 87 19l64 -15z" />
<glyph unicode="^" d="M499 1281l21 -30q142 -70 142 -126l-1 -10q43 -28 60 -86q27 -33 50 -33l14 3q-7 -10 -7 -19q0 -6 7 -6l17 4l-14 -46l19 -44q-16 -48 -83 -59q0 52 -48 54q-5 40 -51 45q-69 147 -139 147l-19 -3l-16 23q15 27 15 36l-3 4q-10 0 -69 -56q-5 -86 -76 -86l-15 1v20 q50 47 50 60q0 7 -10 7l-60 -17q29 -3 29 -16q0 -16 -40 -44q16 -10 16 -26q0 -41 -101 -116l1 -12q0 -27 -26 -38q-22 36 -69 44l3 37q39 33 61 90h19l1 31l28 1l-8 24l30 50q40 10 48 69l18 -18l-1 8q0 24 21 47q64 11 89 70l34 -5q29 0 43 21h20z" />
<glyph unicode="_" d="M329 -160q47 -16 102 -16q27 0 48 6t40 6q17 0 28 -6t28 -6q31 0 62 16l1 -12q22 9 39 9q25 0 34 -20h4q14 0 14 7l-8 15q19 -10 38 -10q12 0 21 5.5t20 5.5q16 0 38 -13h21l-3 -15l15 19l10 -12q0 18 9 18l20 -4l-2 -44q-4 -8 -4 -14q0 -3 1 -6q4 -8 4 -18l-5 -32 q0 -11 9 -26l-22 -26q-20 14 -42 14q-13 0 -38 -13l8 37l-25 -31l-48 -6l-13 11l-35 -10l1 6q0 10 -17 10l-19 -3l-11 -14q-4 13 -28 13q-18 0 -48 -9q-12 20 -16 20l2 -21h-26l-4 8q-8 -8 -21 -8l-28 6l-13 -9l-13 9l-20 -10l-6 14h-13l4 -15q-17 12 -33 12q-14 0 -28 -8 q-29 9 -50 9q-14 0 -25 -4.5t-18 -4.5q-6 0 -6 4l1 2q0 6 -12 6l-73 -11l-52 8l-70 -10l-16 9l-18 -9q-6 0 -6 8l4 19l-20 2q6 7 6 20q0 11 -5 28q2 11 2 22q0 12 -3 23l7 35l17 -4l53 8l31 -3l-5 -7l21 5q12 0 23 -8l-4 16q13 -7 54 -7q37 0 58 10q2 -2 2 -3q0 -2 -4 -2 q0 -10 30 -10l38 2z" />
<glyph unicode="`" d="M172 1324l-6 18l10 21q0 5 -9 7q19 18 48 18q20 0 29.5 -5.5t14 -12t8 -12t11.5 -5.5l14 6q25 -58 46 -58l9 4v-36l28 -32l4 25q12 -14 12 -28l-1 -9l12 1l14 -13l-16 -17l20 7l23 -27q4 -28 9 -28l6 15l42 -42q25 -4 25 -30l-2 -14h-33l27 -24q-8 -23 -28 -23 q-17 0 -36 10l-5 20l-21 -4q-6 0 -6 4l5 10l-18 17l-8 -26q-1 25 -6.5 34.5t-11.5 12.5t-11 3.5t-5 8.5v2q0 4 -4 11.5t-10 15t-14.5 13.5t-17.5 6l-12 -2l-17 26l-13 -1q-26 0 -26 13l2 12q0 14 -23 25l23 21l-48 -18l-1 11l7 8q0 8 -23 19l-12 -4l-13 37q8 3 8 9z" />
<glyph unicode="a" d="M414 901q16 -10 37 -11l61 4q14 -8 26 -8l14 2q21 -36 79 -39q15 -17 27 -26.5t21 -21.5t16.5 -31t13.5 -55l16 -144l-3 -43l7 -66l-28 2l24 -15l6 -48l-9 -52l7 -75l-4 -20l7 -94l13 5q18 0 20 -57q23 8 23 29l-1 8l14 22l14 -11l14 2q29 0 29 -50q0 -16 -5 -26 t-11 -18.5t-11 -18.5t-5 -26l-25 1q-26 -14 -55 -14l-61 14l-21 -3q-5 29 -26 49l-38 4q-7 -22 -42 -22h-6q3 -10 49 -17q-88 -8 -143 -21l-29 4l-25 -11l-19 4l-28 -11h-44q-13 7 -36 7l-38 -3q0 -10 53 -16l-66 -6q-9 44 -68 46q-9 34 -54 39l-18 13l5 16q-16 13 -16 34v2 q-9 25 -9 51q0 28 12 57l4 21q-19 19 -19 49q0 12 9 18t21 10l-1 8q0 24 24 24l9 -1q16 13 16 34l-1 8q8 6 18.5 9t20 6.5t16 10t6.5 19.5v7q25 18 62 18q28 15 68 17l8 32h83q-1 -2 -1 -4t3 -2t5 0.5t7 1.5l11 -13l-37 1l41 -12q7 4 7 12l-4 12h6q21 0 37 10l24 -3 q26 0 45 10l-3 151q0 44 -33 65l-22 14l-83 14l-18 -11q-9 6 -19 6q-14 0 -24 -9t-16 -23l-41 -20q-12 -8 -12 -22l4 -19l-11 -79q-18 -26 -18 -57l-7 -10l-9 1q-21 0 -42 -12q-14 15 -37 15l-6 28l-33 7q-7 13 -7 46l-4 12q-14 -3 -21 -10q-4 7 -4 32l5 67l19 -10 q-9 -8 -9 -21l3 -19l11 10l-1 13q0 46 30 91l9 32q41 0 70 35l14 -2q19 0 19 19l7 11l54 4l44 9l5 -8l2 12h32zM624 372q-10 -7 -33 -7q-45 0 -80 9t-48 17l-27 -9q-1 34 -43 35q24 -20 24 -26l-5 -3l-41 12l-4 -14q-17 -4 -32 -17h-9q-45 0 -60 -39l-12 5q-21 0 -71 -29 l-9 3l-6 -46q0 -10 14 -24q-9 -26 -9 -40q0 -19 16 -19l9 1v-8q0 -56 56 -56l16 1l3 -45q19 -10 64 -10h23q20 0 38 8t24 33q19 13 31 13l18 -3l26 4q1 38 26 66l-4 28h4q50 0 50 50v6q16 7 16 24l-11 65q19 -12 30 -12q13 0 16 27zM213 250l-15 -3q-24 0 -24 33 q0 8 1.5 14.5t12.5 6.5q20 0 25 -51zM279 132l-32 -5q-41 0 -41 45v8zM364 93l18 1q27 0 27 -7q0 -6 -28 -18zM384 -6q20 -11 20 -15h-44zM352 -13l-7 -7q-5 0 -9 7h16zM322 517l-7 -7q-5 0 -9 7h16z" />
<glyph unicode="b" d="M96 1253l33 6q8 0 9 -5.5t6 -5.5l21 8q4 0 5 -3t1.5 -6.5t3.5 -6.5t12 -3l64 14l-24 -23l19 -4q21 0 29 23l29 -9l14 13h11q27 -17 27 -34l-10 -35q0 -8 5 -9.5t5 -10.5q0 -34 -45 -53v3q0 14 -11 14l-13 -3q10 -3 10 -11l-7 -19l7 -2l-11 -39l10 -35q0 -6 -4 -10.5 t-8.5 -9t-8.5 -9t-4 -11.5q0 -17 24 -45q-12 -26 -12 -53q0 -20 4.5 -28t29.5 -8q21 0 41 9l3 -30l13 33l12 -1q11 0 16 3.5t9.5 7.5t10 7.5t17.5 3.5l54 -3q-8 11 -8 21q0 16 17 33q-8 -11 -8 -22q0 -17 17 -32q17 8 39 12t49 5q9 -12 23 -12l27 8l-2 -15q0 -11 6 -11l10 5 q88 -21 119 -82q-6 0 -6 -5q0 -8 20 -34q1 -55 40 -121l-7 4l-3 -5l9 -36q12 -17 12 -34q0 -19 -12 -38q10 -1 10 -5q0 -6 -10 -13l17 -18l1 -28q0 -27 -8 -29q0 -14 18 -39v-25q-12 -18 -12 -44l1 -14l-19 -46l20 6q-35 -23 -46 -56l4 -34q0 -17 -6.5 -23t-15 -11.5 t-17.5 -15.5t-14 -35q-27 -8 -27 -14l11 -8q-56 -11 -100 -49l-12 6q-5 0 -7 -7t-7 -7l-19 13q-4 0 -6.5 -4t-5 -9t-6.5 -9t-11 -4q-8 0 -17.5 4.5t-22.5 4.5q-37 0 -62 -13q-27 36 -64 36q-23 0 -49 -14v24l-26 2q-49 0 -76 -34l1 11q-26 -14 -50 -14q-23 0 -46 14l-28 -8 l3 10q0 8 -13 8l-3 -3q0 -10 -50 -15q-5 33 -16 33l2 79q23 20 55 20q22 0 49 -9l-9 19q0 12 14 20l3 29l-14 64q7 -7 15 -7q7 0 13 7l-21 2l15 48v112l-11 4l3 13l9 -8v69l-5 -9l4 63l10 10l-12 22l-1 24q0 23 4.5 37t4.5 24q0 6 -1.5 9t-3 8t-3 16t-1.5 34l3 95q9 7 9 16 q0 12 -13 25q7 10 7 19q0 8 -5 14.5t-5 11.5q0 9 17 14q0 17 -6 17q-9 0 -25 -25l-1 13q0 31 22 38q-20 31 -21 54l10 59q0 36 -7 49l15 -7l1 15l-23 -2q-39 0 -60 29q-18 -8 -18 -15l8 -10l-12 -3q-10 0 -20 7q3 15 18 18q-12 25 -12 46q0 24 19 40zM318 1145q23 5 23 14 l-4 8zM499 799l-5 -33q-2 12 -15 12q-23 0 -30 -6.5t-12.5 -15.5t-15.5 -18.5t-38 -15.5q-46 -10 -64 -109q-24 -5 -24 -36q0 -34 13 -59q-36 -66 -36 -151q6 -11 13 -11t18 15q-4 -7 -4 -37q0 -36 19 -49q-11 -14 -11 -24q0 -16 25 -26l6 -18l-10 1q-16 0 -16 -11 q0 -10 10 -26q18 6 18 15l-8 14q16 1 16 13l-2 8l14 4q1 -9 12 -22.5t24 -26t25.5 -21.5t16.5 -9h10q9 0 19 -6t21 -12.5t23.5 -12.5t26.5 -6q35 0 97 33l11 -5q5 0 8 8t5.5 18.5t5.5 19.5t9 11q15 4 15 61l13 -41l3 57q41 32 41 77q0 36 -26 80q16 7 16 30l-1 9 q-12 -23 -29 -23l-8 1q33 15 33 42l-4 37l5 30q0 14 -14 34q0 -16 -11 -16l4 19q0 6 -3.5 9.5t-8 7.5t-8 9.5t-3.5 14.5l1 16q0 26 -51 53q6 1 6 8q0 15 -26 56q-24 -9 -49 -9q-29 0 -60 12zM508 765l-1 -8q-6 9 -6 21v7q7 -7 7 -20zM346 252l-7 -1q-14 0 -14 10l4 13z M364 200v-3q0 -21 8 -21q6 0 17 12z" />
<glyph unicode="c" d="M405 926h7q54 0 80 -29l50 5q55 0 81 -30q37 -42 84 -42l2 1q49 0 67 -92q23 -8 23 -46l-2 -25l17 16l-17 -98l-16 15l7 -42q-47 -39 -109 -39l-37 3q-5 20 -34 32v5q0 28 -40 35l12 7l-14 27l5 21l10 -1q41 0 41 58v11q0 12 -18 20.5t-42.5 13t-51 6.5t-43.5 2l-81 -5 l-37 -31l-9 -39l-4 43q-15 -47 -32 -53l7 31q-43 -46 -43 -69q0 -11 14 -16l-9 -19q-46 -21 -46 -45l12 -43q0 -14 -8.5 -21.5t-8.5 -21.5l14 -46q-13 -25 -13 -44q0 -10 4.5 -19t10.5 -17.5t11 -17t6 -17.5q1 -22 44 -22h8l-9 -20q0 -7 8 -7l13 3l-1 -18q0 -52 38 -52l8 4 q17 -4 28 -10.5t16 -14.5t9 -14.5t10 -6.5t20 2q7 0 11 -3t11 -9t14 -6l25 6l-5 -11q0 -9 21 -9l13 1q-9 6 -9 11q0 8 22 12l21 -4q15 0 28 9.5t24.5 21t21.5 21t20 9.5q13 0 26 -16l18 30q1 20 7.5 40.5t17.5 42.5l23 2q58 0 90 -57l-18 -47q-34 -6 -41 -40l-21 4l8 -23 q-25 0 -25 -33l-16 -19l-12 2q-11 0 -18 -6.5t-13.5 -14t-13.5 -14t-16 -6.5q-14 0 -32 12q-17 -33 -62 -33q-41 0 -68 13l-58 -35q-25 1 -25 12q0 6 12 17q-1 9 -3 9q-1 0 -2 -2q-4 -8 -12 -14q-3 6 -5 6t-2 -8l2 -15q-53 47 -116 50l-21 24l-3 -15l-34 34v19l-13 -18 l-25 23l15 25l-32 -13q-18 50 -67 90l24 13l-27 9l6 50q0 67 -49 112v7q0 33 25 64v79q15 36 15 61q0 14 -6 25q19 13 19 27l-3 14q0 5 3.5 8t8 6.5t9 8.5t5.5 13q1 9 8 12.5t14.5 5.5t13.5 4.5t6 8.5q0 15 -19 43l31 -29q39 91 142 91l25 -1q15 32 67 36h40q-4 12 -63 29z " />
<glyph unicode="d" d="M671 1255l15 1q16 0 61 -14l5 7q5 -5 19 -5l30 3l-1 -12q0 -15 10 -15l-4 -11l10 -21q0 -3 -4 -6t-9 -8.5t-10 -14.5t-7 -25l-11 4l9 -21l-17 -17l9 -9l-11 1v-34q11 -20 11 -37q0 -24 -18 -46q1 -5 4 -8t6.5 -5.5t6 -6t2.5 -9.5q0 -21 -10 -21l-17 -61v-72l26 -11 l-22 -3v-20h50l-50 -13v-76l-11 -10q17 -29 17 -55q0 -27 -17 -53q7 -37 24 -37l5 1q-20 -26 -20 -56q0 -21 9 -45q-12 -33 -12 -64q0 -52 34 -98l-8 1q-21 0 -21 -45l4 -51q23 -2 23 -19l-2 -12h16q79 0 79 -46l-5 -26q14 -14 14 -23q0 -6 -10 -16.5t-11 -24.5l-21 -3 q-18 0 -31 10l-2 16l-11 -5v-18l-23 10q-27 -9 -52 -9q-44 0 -83 27l-7 -19l-18 1v4q0 12 -18 14q-35 -24 -59 -24l-42 8q-9 0 -15 -3.5t-11.5 -8t-11.5 -8t-15 -3.5q-20 0 -51 16q-42 0 -51 -27q-6 25 -19 25l-20 -11q-36 28 -90 33l9 15q-68 19 -85 86q-30 16 -46 53 l37 -4q0 2 -8 5.5t-19 13t-21.5 27t-15.5 49.5q16 16 16 22l-22 -5l-5 92q10 4 10 8l-12 8q0 6 21 18h-21q7 7 7 28l-3 27l15 -2l-12 23v25l6 -4l4 21q0 12 -9 12h-1q24 43 25 104l18 15l-12 11q11 9 11 20l-2 14q0 6 3.5 9.5l8.5 8.5t11 15t11 30q9 40 45 50l2 -8 q10 30 38 30q1 -1 3 -1q3 0 8 4l-8 4l58 25l6 -5q8 0 21.5 10t38.5 10q39 0 47 -12l2 8l53 -14l40 7q8 0 14.5 -3.5t14.5 -9t19 -12t28 -12.5h55l-5 25l18 -25q20 20 20 44l-4 34q0 14 6 23t6 21q0 20 -28 48q8 5 8 23l-14 71l18 -13l12 4q-13 9 -17 26h-25q-13 19 -32 19 l-36 -6l-30 6l5 16q-14 -17 -29 -17h-4q-1 12 -6 18.5t-10.5 11t-10 7.5t-4.5 7q0 5 4.5 12.5t4.5 20.5l-3 27l11 18q22 -6 53 -6l54 4l-6 -7l49 1l1 -13q38 11 53 11h5zM362 760l-54 -8l7 -39l-29 30q-14 -51 -57 -81v-46q-42 -47 -42 -106l6 -49q-9 -14 -9 -29 q0 -18 10 -34l-33 -21l36 -21q-15 -20 -15 -39q0 -25 25 -50v-5q0 -21 22 -21l-3 -21q0 -11 4.5 -17.5t9.5 -13t10 -14.5t6 -21q0 -25 27 -25h10q30 0 58 -19q9 -6 22 -6q30 0 79 37l28 -11q5 0 7.5 3.5t4.5 7t5.5 7t10.5 3.5l7 -1q15 0 41 27q22 -16 37 -16q17 0 17 25 q0 28 -7 41q31 3 31 9q0 5 -22 12l11 44q0 19 -9 39q27 19 27 47q0 19 -10 38q4 7 4 32q0 10 -3 18t-6.5 14.5t-6.5 12.5t-3 13q0 9 6.5 19.5t6.5 22.5q0 22 -26 57l5 10q0 15 -35 47l23 -5l-61 45l2 15l-15 -4q-24 0 -58 31l14 13l-69 -8l-5 10l-17 1l-4 -14z" />
<glyph unicode="e" d="M206 95q-2 18 -9.5 27t-17 15.5t-18.5 13.5t-14 21q-5 12 -13.5 22t-17 18t-15 14t-6.5 10l-3 37l5 30l-8 44l3 6l23 2l-23 3q7 22 16 22q-5 9 -11 15.5t-11.5 14t-9.5 17.5t-4 25l6 35q13 0 13 8q0 6 -7.5 18.5t-7.5 21.5q0 12 9.5 18.5t9.5 17.5l-3 12q7 28 17 56.5 t23 57.5l6 -7l3 6l-5 16q26 9 44 38h13l6 13l-3 3l-12 -4q26 26 34 49h27l6 16q2 8 11 8l11 -2l-3 11q32 4 52 27l14 -5l3 11h60l11 16l8 -5l8 11l33 5v11l11 1q11 -14 26 -14l15 2l6 -16l16 2l6 -11l20 3l29 -5l8 5l1 -27l8 27q11 -11 27 -16q9 -21 33 -22q11 -18 33 -22 q15 -25 44 -33l20 -25q10 -3 10 -10l-3 -9l22 -8l-1 -6q0 -6 5 -6l13 4l-6 -9l33 -57l-5 -11l8 -6q5 -16 19 -33l-4 -20l4 -23l-5 -3l4 -9l-4 -8l5 -35l-5 -41l-11 -6l3 -53l-9 26l-16 -17q-43 -1 -66 -41q-12 19 -18 19q-5 0 -5 -15v-9l-14 -6v3q0 10 -14 10t-29 -16 q-5 12 -17 12l-5 -1q-4 13 -13 13l-9 -2q-12 16 -28 16l-18 -5h-30l-18 5l-21 -5l-12 2q-16 0 -32 -13h-8q-19 13 -36 13l-11 -2q-8 14 -18 14l-21 -8q-18 0 -29 -17h-25q-16 13 -36 13q-19 0 -38 -13l6 -13q-7 -10 -7 -20q0 -12 7 -22l-3 -17q0 -30 36 -46l-6 -2 q8 -14 12.5 -25.5t10 -22t14 -19.5t23.5 -18l-5 -19q0 -14 17 -14h5l-1 -9q0 -10 6 -10l6 2l3 -11v25q13 19 43 19l-5 6q12 2 19 11l33 -36q-19 -13 -22 -25l21 -4l23 4q12 -15 31 -15l21 4l-23 10q41 3 41 26l-1 8l12 -2q14 0 26 13q13 -10 24 -10q20 0 32 34q23 8 23 18 l-1 4q12 1 12 10l-1 6q15 9 27 28h5q23 0 23 27l31 -20l-7 14l28 12l-5 -36l7 1q2 0 9.5 -2t15.5 -6t14.5 -9t6.5 -12q0 -8 -6 -14t-6 -14l2 -10l-22 -11l-5 -27q-8 -2 -19.5 -8.5t-11.5 -17.5l3 -12q-16 -3 -16 -18l-1 -12q-26 -9 -44 -38q-18 -2 -28 -17h-8q-13 22 -41 22 q-4 -4 -8 -10.5t-8.5 -13t-9 -11t-8.5 -4.5l-13 1q-11 0 -21.5 -9t-27.5 -9l-16 1l-28 11q-16 -13 -39 -13l-32 6l-6 -9l-28 19q-2 9 -6 9l-4 -1q-10 13 -27 13l-14 -2q-37 8 -63 28q-5 17 -17 17l-5 -1l-6 28l-22 5q-12 0 -17 -11zM399 552l12 3l29 -5q23 -14 44 -14 q38 0 77 39l10 -39l6 5l3 34q5 -20 10 -20q6 0 12 20q15 -17 34 -17l10 1l11 -9q18 9 18 23q0 11 -7 21l-11 -3l7 12l-8 3q-1 16 -3.5 23t-6.5 9.5t-10 3.5t-15 7q-10 -5 -11 -16q-7 4 -26 5l-5 -4l-2 13q-7 5 -7.5 11.5t-7 17t-14.5 21t-17 18.5l-25 5l11 -15l-22 10 l-5 -11q-12 0 -15 -12l-6 4q-5 0 -5 -16q-4 13 -8 13t-5 -6l-30 6l5 16q0 10 -13 14v-14q-22 -4 -22 -18v-4q-18 -3 -18 -19l4 -10q-8 -2 -8 -14q-53 -17 -53 -37q0 -9 9 -16l5 8q21 -29 48 -36l6 -15zM289 586l18 6l-12 8zM821 416l9 -10q-12 -14 -26 -14q-10 0 -21 8 q10 12 38 16zM586 394q10 7 19 7q12 0 20 -17zM71 333l9 6q4 0 7 -16q1 -7 1 -12q0 -8 -4 -13q-4 0 -9 28zM355 191l5 -11l-10 -3zM512 149h19q0 -5 -30 -18q-14 5 -14 11t20 14zM142 79l-4 -10l-8 7zM646 38h8l-2 -8q0 -7 8 -12l-11 -11h-14l-3 20z" />
<glyph unicode="f" d="M39 25l13 80q70 9 70 31l66 3l24 -10q31 31 59 31l21 -5l18 101l31 -22l-5 47q-25 12 -25 52q0 27 17 84l-16 21l21 82q-27 25 -27 48q0 24 36 41l-33 74q17 26 17 38q0 7 -4 10.5t-9 7t-9 7t-4 10.5l4 13h-65q-20 12 -41 12q-30 0 -64 -25q-44 23 -44 47l1 8l15 6 l-15 22l54 58l53 -18q15 18 44 18q20 0 62 -14q5 -17 9 -17q7 0 11 43l22 9l-30 78l26 16l-7 41q-15 30 -15 58q0 66 84 125l26 -34l-1 19q0 60 27 60q14 0 40 -20l91 54l-4 -19q0 -9 7 -9q10 0 36 20q86 -83 148 -86l12 -53l37 -16l-31 -11l6 -27q-26 -26 -26 -33l3 -3 l27 10l18 -43q-43 -73 -82 -73q-19 0 -35 15l-20 -24q-65 32 -65 69q0 33 50 71l-18 18l13 11q-35 36 -74 36q-57 0 -121 -70l32 -16l-52 -47l41 -39l-32 -2l35 -34q-31 -31 -31 -57q0 -24 32 -39q43 22 82 22q37 0 65 -22l11 26l49 -58l9 -28q-20 -2 -20 -15q0 -15 19 -40 l-46 16q-29 -23 -47 -23q-15 0 -21 18l-72 -16l-32 11q-21 -20 -21 -38l5 -18l-22 -22l26 -22l-24 -39l20 -25l-17 -35q18 -15 18 -29t-18 -27v-89l17 -8v-67l-17 4l21 -127l-19 -5l15 -44h4q47 0 47 -19l-4 -14l125 25l6 -34l67 13q10 21 21 21q10 0 24 -24l24 -9l-20 -49 l39 -13l-46 -75l-39 38l-10 -27q-21 -7 -53 -7q-59 0 -123 36l5 -44l-47 24l-55 -20l-51 45q-15 -40 -54 -40q-29 0 -66 19l-64 -18l-71 5q-11 17 -25 17q-17 0 -38 -23z" />
<glyph unicode="g" d="M126 -352l-19 6q-16 52 -64 72l-2 21q0 27 17 35q-9 61 -30 61l-4 -1l15 68l-2 32q0 70 50 96v7q0 32 37 32l2 17q-88 73 -88 133q0 29 21 55l-18 31q50 38 86 38q17 0 31 -8l46 34q-5 14 -17 14l-12 -3l5 27q-54 79 -54 158q0 38 10 67l-4 17q0 28 33 78l10 -5l34 41 l8 -1q17 0 17 22l-1 13l29 11l-5 19q0 18 20 36q20 -14 38 -14q34 0 73 42h83q16 -25 53 -25h8l-7 -42q21 28 41 28q25 0 51 -44q36 122 83 122l18 -4l-1 17l21 -9l27 14l-8 -17l18 3q43 0 80 -70l13 11q16 -58 16 -102q0 -61 -37 -68l3 -13q-76 1 -76 38l-14 7l3 54 q0 48 -14 48q-12 0 -36 -40q7 -10 7 -24q0 -24 -24 -49q6 -35 21 -35l8 2l33 -103l-22 -7l21 -34v-15q0 -110 -54 -156q-13 -87 -118 -89q-49 -46 -116 -46q-71 0 -163 59q-11 -26 -52 -26l-23 2q21 -20 21 -32q0 -8 -6 -12.5t-13 -8.5t-13 -7.5t-6 -8.5q0 -6 9 -13l-23 -2 l-3 17q0 21 24 35q-13 13 -25 13q-25 0 -36 -74q57 -10 68 -72l64 12l9 -12q36 65 98 65q29 0 53 -10q33 11 55 11q56 0 105 -49q37 17 62 17q58 0 98 -67h32l-1 -20q0 -47 28 -75l-4 -26q0 -19 9 -35q12 14 20 14q15 0 15 -46v-5q-24 -30 -24 -65q0 -31 18 -65 q-17 -11 -17 -32l2 -18l-12 6q-6 0 -12 -9t-14.5 -20.5t-21.5 -23.5t-32 -18q-45 -15 -49 -45q-12 9 -25 9q-29 0 -62 -43q-24 8 -39 8q-32 0 -63 -19q-21 9 -43 9q-28 0 -59 -15l-93 6q-41 35 -111 44q-12 27 -40 27q-20 0 -39 -10zM301 438l11 -1q30 0 42 28h15 q0 -23 34 -33q-20 -8 -20 -22l1 -8l29 11q14 -50 32 -50q8 0 16 8l66 3q39 9 44 50q35 9 55.5 34t20.5 59q0 15 -7 29.5t-15.5 30.5t-15.5 34t-7 41l1 22q-23 -27 -50 -27l-13 2q0 50 19 89q-25 16 -67 16l-50 -5l3 12q0 13 -18 16l-5 -28q-25 13 -54 13q-63 0 -121 -72 l17 7q14 0 16 -30l-31 -23l19 -11q-16 -28 -16 -51q0 -10 4.5 -18t10.5 -15.5t10.5 -14t4.5 -12.5q0 -12 -21 -16q15 -18 28 -18l9 2zM244 158l33 6q26 0 26 -23v-5q-8 8 -21 8q-18 0 -44 -14zM176 -139q18 -5 18 -40v-11q19 -4 34.5 -15.5t29.5 -24t28 -22t31 -9.5l28 4 l-3 -21l26 -4q38 0 40 47q22 -43 45 -43q16 0 33 21l18 -4q18 0 30 21l42 -4q98 0 162 109v4q0 49 -43 49l-20 -3q-31 70 -85 70l-17 -2q-12 21 -26 21t-27 -16l-44 44q-41 -9 -64 -51q-31 1 -31 18l13 28q-26 0 -26 -37l1 -16q-23 23 -44 23q-20 0 -40 -17q-18 12 -34 12 q-45 0 -76 -82zM714 -97q16 -19 16 -31q0 -10 -15 -10l-22 3z" />
<glyph unicode="h" d="M121 -13q-46 0 -67 44q0 102 38 102q12 0 22 -7l6 8q-1 3 -1 5q0 14 36 27q-7 24 -7 54q0 23 7 29l4 -6q9 0 9 13q-5 6 -5 12v6q0 5 -2 13q-3 9 -5 18.5t-2 15.5q0 19 18 19l-29 35q20 57 20 77q0 26 -18 31v47q14 42 14 65q0 39 -26 71l47 12l-5 72l-8 -64l-27 2 q12 51 12 95q0 64 -25 113l24 55l3 20q0 30 -22 55q23 2 23 19q0 13 -7 26l-21 -11q-17 26 -42 26l-19 -4l-29 14l-4 39l37 30l-18 15q12 45 53 45l24 -3l37 9l34 -19q14 14 37 14l35 -6l4 -37l22 8l22 -39l-16 -23q30 -18 30 -46q0 -31 -33 -73l28 -20l-24 -76l21 -20v-36 h30l33 -23l6 16l50 42l21 -33l14 36l54 -14q7 15 19 15q7 0 16 -7t18.5 -16t18 -16t15.5 -7l24 8q18 0 42 -36q16 16 28 16q14 0 23 -20l28 -73l-17 -41q37 -7 37 -117l-23 -25q16 -16 16 -30q0 -16 -21 -29l4 -27l7 2q9 0 9 -17q0 -16 -17 -79v-38q13 -1 13 -16 q0 -13 -9 -37v-28l29 -46l-28 -21q9 -75 74 -95l9 -47l-22 -43q-13 -7 -32 -7t-32 7q-29 -12 -60 -12q-32 0 -66 12l-32 -21l-11 -2q-2 14 -12 14.5t-23 7t-24 20t-11 40.5q0 30 10 50q80 2 80 46q2 5 2 9q0 8 -6 14q20 26 20 44t-21 32l-9 46q25 49 25 83q0 32 -22 45 l30 25l-30 37l-1 49q3 1 5 1q7 0 10 -6q14 0 18 25q-5 3 -9 3q-5 0 -7 -6q-22 0 -22 27l20 80l-35 5l4 26q0 35 -36 35l-25 -3l-3 -19q-23 5 -42 8t-34 3q-32 0 -71 -14l-38 14l-8 -34q-29 -20 -29 -61l5 -38q-14 -6 -17 -20q3 1 5 1q5 0 5 -3q0 -4 6.5 -5.5t11.5 -4.5 t5 -10q0 -9 -7 -23t-7 -27q0 -24 22 -52q-35 -33 -35 -54t30 -31v-149q-17 14 -26 14q-11 0 -11 -20l6 -40l37 20l10 -71l31 6q37 0 37 -51l-4 -41q-26 -18 -48 -48q-26 8 -46 8q-17 0 -37 -2.5t-42 -7.5l-27 26l-49 -25h-34z" />
<glyph unicode="i" d="M498 898q3 -32 95 -44q-35 -29 -35 -53q0 -7 3.5 -15t8 -15.5t8 -14.5t3.5 -12t-2 -8l-5 -7.5t-5 -12t-2 -20.5l7 -67l-17 11v-84q18 -15 18 -29t-18 -27v-89l17 -8v-67l-17 4l21 -127l-19 -5l15 -44h4q47 0 47 -19l-4 -14l111 -9l29 5q59 0 103 -87l-23 -54l-39 38 l-10 -27q-20 -7 -51 -7q-54 0 -105 36l5 -44l-47 24l-55 -20l6 40q-47 -36 -99 -36q-32 0 -78 20l-64 -18l-111 5q-11 17 -25 17q-17 0 -38 -23l-31 34l13 60q70 9 70 31l106 23l24 -10q31 31 59 31l21 -5l36 56v33q-15 52 -15 95t15 78l-16 21l21 82q-7 28 -10 51.5 t-3 42.5q0 30 9 45l-20 14q17 26 17 38q0 7 -4 10.5t-9 7t-9 7t-4 10.5l4 13h-65q-20 12 -43 12q-35 0 -72 -25q-44 23 -44 47l1 8l15 6l-15 22l54 58l21 -17l42 -1q15 18 44 18q18 0 62 -14q5 -17 9 -17q7 0 11 43zM489 1198l13 -1q31 -15 51.5 -29t32.5 -28t17 -30t5 -34 q0 -23 -5.5 -45t-17 -39t-29.5 -27.5t-43 -11.5l-67 -42l15 41q-107 33 -107 98l4 27q-9 6 -9 17q0 16 9 29.5t20 23.5t20.5 15t11.5 5l5 -1q6 0 6 10l-1 8q0 10 12 10q11 0 19.5 -7t10.5 -7t3.5 3t4 6t7 6t12.5 3z" />
<glyph unicode="j" d="M617 898q3 -32 95 -44q-35 -29 -35 -53q0 -7 3.5 -15t8 -15.5t8 -14.5t3.5 -12t-2 -8l-5 -7.5t-5 -12t-2 -20.5l7 -67l-17 11v-84q18 -15 18 -29t-18 -27v-89l17 -8v-67l-17 4l21 -127l-19 -5l15 -44q25 -11 27 -45l-29 -49q16 -1 16 -18q0 -22 -27 -71l23 5l-9 -37 l27 -32q-21 -21 -21 -36t22 -25l-15 -44l-29 -13l-12 -85l-24 7l-1 -29q-50 -50 -121 -50q-44 0 -93 18l-12 -17l-16 13l-16 -14l-73 22l11 14q-103 5 -161 119l17 11q-24 22 -24 49q0 25 24 54l-24 -1l28 85l22 -3q26 0 26 26v4l22 7l8 -27q19 24 32 24q16 0 25 -32l4 31 q70 -7 99 -49l-21 6q12 -32 12 -56q0 -45 -40 -63l-58 14l2 -27q53 -27 53 -58l24 -13q31 31 69 31l31 -5l30 21l-4 27l42 -37l-28 66q17 8 17 24q0 15 -15 38q18 27 18 53t-18 50q26 24 26 48q0 23 -22 45l15 10l-23 64l18 -3l-5 126l5 80l-16 21l17 51q-25 10 -25 37 q0 22 18 54l-23 69l-20 14q17 26 17 38q0 7 -4 10.5t-9 7t-9 7t-4 10.5l4 13l-42 5l6 17q-25 -13 -63 -13q-32 0 -51 10l-10 -16l-31 12l-24 -15l-7 20l-19 2q-31 0 -59 -25q-44 23 -44 47l1 8l15 6l-15 22l32 56l43 5l42 -21l36 10q13 27 29 27q15 0 28 -22l35 16l39 -18 l7 18q16 -10 32 -10t32 10l3 -19h8q25 0 27 18zM575 1221q30 0 53.5 -12.5t31.5 -25.5l8 -39l24 -12l4 -27q0 -19 -9 -35l-4 -50l-18 4q-2 -45 -66 -48l-23 22l-29 -23l-66 19l1 23q-45 0 -45 42q0 26 7 41q-9 6 -9 17q0 16 9 29.5t20 23.5t20.5 15t11.5 5l5 -1q6 0 6 10 l-1 8q0 10 12 10q11 0 19.5 -7t10.5 -7t3.5 3t4 6t7 6t12.5 3z" />
<glyph unicode="k" d="M28 87q0 30 7 48l35 -13l39 23l15 -3q18 0 18 20l-14 49q18 33 18 80q0 38 -12 86q-20 8 -20 24q0 12 15 32l-1 95q7 22 7 51q0 31 -14 43l17 3l7 71l-22 -6l-1 58q15 4 15 29q0 29 -10 56h18l-4 47h-20l-4 24q53 44 53 58q0 7 -12 7l-5 -1q-21 0 -21 25l14 56l-9 40 l-31 -6l-15 23q-16 -10 -32 -10q-38 0 -38 83v18l29 26q9 -18 17 -18t14 20q36 -14 56 -14q42 0 80 35l-5 -31l22 3q30 0 41 -32h3q31 0 31 -49l-4 -43l-26 -56l21 3l6 -71q0 -54 -20 -106l29 -72l-18 -19l26 -65q-28 -22 -28 -31q0 -3 3.5 -4.5t7.5 -2.5t7.5 -2.5t3.5 -4.5 q0 -5 -8 -11t-8 -20l11 -43l31 9q17 -11 28 -11q7 0 12 5t9 11.5t8 11.5t10 5q10 0 27 -17q5 32 23 32l11 -1q11 0 11 12l-4 21q0 25 47 63l-12 22q12 19 20 37t14 32t11.5 22.5t11.5 8.5l12 -4l1 29l29 -3l32 13l19 -19l14 19h20q13 -15 39 -15q25 0 60 15l36 -18l-3 -16 l12 7l16 -53l-7 -37l-44 -1l50 -22q-6 -34 -42 -34l-51 11l-29 -10q-28 16 -49 16q-32 0 -34 -41q-5 -66 -47 -91l13 -11l-25 -21l1 -38l-56 -26l-4 -22q96 -45 96 -87l-24 -30l33 13l-6 -50q0 -76 64 -107q-11 -2 -11 -18q0 -20 7 -35l32 6q39 0 56 -44l73 3q13 0 13 -25 q0 -23 -12 -71l-45 -48l-99 22q-42 -11 -60 -11q-41 0 -63 27l-4 42l-59 14l-17 114q0 13 8.5 26t8.5 24q0 8 -6.5 13.5t-14 11t-13.5 12.5t-6 18l2 21q0 1 -4.5 18t-12.5 37t-20.5 36.5t-28.5 16.5l-3 -2q0 -6 15 -22q-71 30 -130 30h-8l21 -48l-47 -54q33 -38 33 -62 q0 -16 -16 -25l4 -106l24 5q23 0 23 -31l21 16l31 -18l4 -27l-3 -70q-13 7 -25 7q-18 0 -28 -18l-42 -4l-29 18l-7 -31q-63 20 -109 20q-27 0 -55 -5t-42 -5q-17 0 -17 6l16 27q0 3 -3.5 7t-8 10.5t-8 16t-3.5 23.5z" />
<glyph unicode="l" d="M463 1167q28 -16 67 -16l27 2l-6 -43q0 -16 4.5 -29t10.5 -23t10.5 -18.5t4.5 -15.5q0 -9 -7 -15t-7 -20q0 -18 7 -31l-17 -38l-6 -148q28 -24 28 -35q0 -7 -10 -8q-7 -32 -10.5 -60t-3.5 -52q0 -49 10 -75l-8 -46q13 -19 13 -41t-13 -44l17 -8v-67l-17 4v-124l24 -23 l-7 -49h4q32 0 43 -33q48 9 85 9q109 0 121 -80l-35 -43h-159l-3 -18l-23 26l-56 -8l-6 29l-41 -24q-21 -7 -51 -7q-36 0 -61 16l-88 -19q-29 9 -63 9l-48 -4q-15 23 -46 23q-24 0 -39 -7l-9 12q5 37 35 67q49 3 49 22l-1 5q21 -7 57 -7l65 8l8 -11q31 31 59 31l21 -5l36 76 v33q-14 56 -14 99q0 68 19 125q-14 26 -14 46q0 18 14 35l-5 76l-18 -10v85l18 -4v14q0 46 -18 57q15 37 18 91l-15 -1l-1 26q0 40 9 87l-30 23q36 1 36 10q0 1 -3.5 5t-8 8.5t-8 10t-3.5 10.5v2q-15 6 -31 6l-34 -6q-21 29 -44 29q-13 0 -25.5 -6.5t-24.5 -6.5 q-14 0 -25.5 7.5t-35.5 7.5q-28 0 -74 -12l11 31q0 11 -11 11l-29 -9v28l54 49l13 -19l80 13l14 14l15 -19l13 16h18l10 -16q15 7 45 7q22 0 61 -11q4 -19 11 -19q5 0 13 33h35z" />
<glyph unicode="m" d="M30 22q-16 31 -16 63q0 35 33 47q1 30 45 30l18 -1q16 31 16 80q0 25 -7 45t-7 41q0 12 2.5 22.5t5 20.5t5 21t2.5 26q0 17 -4.5 42.5t-12.5 60.5q23 12 23 28t-23 37l32 19q-42 25 -42 53q0 21 27 44q-10 37 -25 37q-9 0 -20 -11q0 37 -16 37l-8 -2q-19 25 -19 81l1 25 l33 7q16 49 47 49q29 0 70 -44l37 31q0 -65 15 -65q7 0 18.5 10.5t18.5 10.5t11.5 -5.5t9.5 -5.5q11 0 22 36l6 -1q9 0 13.5 6t8.5 13.5t11.5 14t22.5 6.5q33 0 34 -34l31 14q17 -5 34 -13.5t33 -21.5l-2 -25l48 -14q16 6 16 15t-18 23l62 -7q10 23 32 39q26 -29 66 -29 l46 8q11 -44 58 -72l-8 -39q0 -29 18 -54l-8 -81l17 -8l-20 -64q0 -23 16 -36q-20 -55 -20 -88q0 -32 20 -100q-14 -50 -14 -69t14 -67l-18 -45q13 -27 28 -27q10 0 19 12v-6q0 -31 27 -46v-5q0 -54 -41 -95q-15 9 -32 9q-23 0 -50 -15l-9 18l-27 -18l3 13q0 13 -17 16 q0 -16 -45 -23l-52 25l-20 -10l-10 14q19 12 19 37l-5 28q-18 -5 -18 -25l3 -21l-11 2q-11 0 -11 -9q0 -10 14 -33q-24 9 -46 9q-34 0 -63 -23q-29 24 -65 24l-8 -2q0 -17 -20 -17l-13 1l-22 29l5 27q0 18 -9 38l23 30l8 -4q20 0 49 80l-29 54l19 8q-16 28 -16 75 q0 53 21 128h-2q-22 0 -22 26l3 22q17 -11 27 -34l13 8q-4 19 -37 49q2 48 27 100l-50 10q20 35 20 54q0 15 -12 20l-15 -8v19q-37 -3 -37 -19l1 -5l-25 -1q15 -12 15 -28l-4 -18l-8 1q-34 0 -34 -47l1 -19q-30 -41 -30 -99q0 -38 12 -84q-15 -30 -15 -62q0 -33 15 -67 l-14 -65q0 -69 73 -100l3 -18q0 -20 -17 -31l23 -39l-49 -14l-8 -21l-21 15q-10 -16 -39 -16q-31 0 -83 18q-25 -13 -57 -13q-34 0 -47 7zM590 155q11 -23 37 -24q11 14 25 14l11 -2q1 22 18 24l3 34q0 36 -16 42v5q0 34 36 54l1 18q0 23 -11 23l-13 -5q17 56 17 76 q0 29 -12 53l13 8l2 41q0 40 -13 40l4 70l10 12q-32 24 -32 55q0 20 12 43l-17 5q-17 0 -20 -26q-6 21 -23 27q-5 -23 -22 -23l-20 5l1 -50q-32 -20 -32 -72l6 -50l-16 -26l17 -17q-5 -24 -23 -24q22 -31 23 -77h-5q-18 0 -18 -37v-4q20 -20 20 -41q0 -19 -15 -41 q12 -17 12 -37q0 -22 -15 -44q22 -4 22 -45l-1 -22zM629 115q0 -59 8 -59t26 67zM100 150l-15 1q-27 0 -27 -16z" />
<glyph unicode="n" d="M121 -13q-46 0 -67 44q3 95 54 95l7 -4l6 8l-9 3q0 17 43 33l8 61q0 14 -3 25.5t-6 22t-6 21.5t-3 25q0 22 8.5 49.5t8.5 50.5q0 33 -17 62v47q18 43 18 91q0 34 -14 85l15 21q-10 19 -19 19t-17 -20l-72 19v65l19 -2l-23 42q12 45 53 45l24 -3l37 9l34 -19q10 12 31 12 q19 0 48 -12q18 -63 31 -63q8 0 16 39h30l33 -23l6 16l50 42l21 -33l14 36l54 -14q7 15 19 15q7 0 16 -7t18.5 -16t18 -16t15.5 -7l29 10q18 0 37 -19q42 -2 70 -39l9 -57l-17 -41q37 -7 37 -117l-23 -25q17 -17 17 -26q0 -11 -19 -12l1 -48l7 2q9 0 9 -17q0 -16 -17 -79 v-38q13 -1 13 -16q0 -13 -9 -37v-28l24 2l-23 -69q9 -75 74 -95l9 -47l-22 -43q-13 -7 -32 -7t-32 7q-29 -12 -60 -12q-32 0 -66 12l-43 -23q0 7 -11 11t-24 10.5t-24 20t-11 40.5q0 30 10 50q80 2 80 46l-4 23q20 26 20 44t-21 32l-9 46q21 42 21 69q0 34 -37 40l46 81h-27 l-1 99q13 -10 22 -10q10 0 10 10v3q5 4 5 9q0 4 -4 8l-16 -3q-22 0 -22 27l3 23q-17 64 -60 64h-7l-8 6l-3 -19q-17 7 -46 7q-56 0 -96 -45l-38 14l-8 -34q-31 -19 -31 -48l2 -16q-22 -40 -22 -58h12q-3 -6 -3 -9q0 -2 2 -3q3 -2 6.5 -5t3.5 -10q3 -5 3 -9q0 -3 -2 -5 q-5 -4 -5 -11q0 -26 18 -66q-23 -52 -23 -69q0 -21 14 -21q3 0 8 1l10 -7l-22 -28q11 -14 11 -36q0 -25 -23 -88l32 -15l-25 -33l10 3q2 -4 4 -4t5 3q60 0 85 -91q-26 -18 -48 -48q-26 8 -46 8q-17 0 -37 -2.5t-42 -7.5l-27 26l-49 -25h-34z" />
<glyph unicode="o" d="M356 916l40 3q37 0 55 -7l26 9q13 -13 31 -13q17 0 40 15v-6q0 -33 29 -33l10 1q17 0 27.5 -6.5t18.5 -15.5t15.5 -18.5t17.5 -15.5q20 -9 34 -56l44 -20v-5q0 -15 3.5 -23t8 -13.5t8 -10.5t3.5 -15l-1 -10q0 -22 28 -56l-7 -23l1 -40l24 -40l3 -28q0 -34 -15 -68v-52 q13 -25 13 -56l-1 -16q-56 -36 -62 -100t-138 -160h-68q-32 -35 -69 -35q-11 0 -22 3.5t-24 7.5t-28 7.5t-34 3.5l-73 -7l-90 59l8 29l-47 9l4 14q0 7 -7 7l-10 -2q-6 26 -30 49l17 29l-23 2v6q0 27 -6 46.5t-12.5 33t-12.5 24t-6 19.5l1 8q0 21 -22 64l18 16l-20 3 q14 26 14 46l-9 39q0 3 2 5.5t4 9.5t4.5 20.5t3.5 39.5q2 50 7 50l8 -8q2 0 6 10t4 24l-8 36q3 13 8.5 28t12 28t14.5 21.5t17 8.5q8 0 16 -8v22l82 36v24l22 -12q40 55 92 63zM476 765l-16 -12q-24 7 -57 7q-55 0 -61 -36q-6 -29 -21 -39.5t-30.5 -16t-27.5 -13.5t-12 -31 l1 -1q0 -18 -3 -32t-7 -25.5t-7 -21.5t-3 -20l8 -49l-6 -34l6 -42l-8 -89q0 -58 53 -88q24 -5 35.5 -17t18 -24.5t12 -22t19.5 -9.5l74 17q11 0 20 -3.5t17 -8t15.5 -8t15.5 -3.5q10 0 22 5.5t22 13.5t16.5 16t6.5 13q0 6 -7 10q81 38 88 140l15 -10l-19 64l2 28l33 -14 q-9 22 -31 28q19 22 19 46t-19 46l2 18q0 17 -7.5 27t-7.5 30l1 20q0 15 -10.5 23.5t-24 15.5t-25 15.5t-13.5 24.5q-4 30 -63 38l1 -9q0 -39 -66 -39h-3q24 12 24 23q0 7 -9 13q37 1 37 8q0 6 -20 14v14z" />
<glyph unicode="p" d="M98 -388q0 10 -4 10q-1 -1 -2 -1q-4 0 -6 3q-4 2 -6.5 6t-2.5 12q0 7 3.5 11.5t7 8t7 7.5t3.5 10v5q27 16 30 28l-5 12q3 13 21 22q0 34 -21 72v37l35 79q-11 27 -14 51q5 36 5 56t-5 24v119l8 22q-12 0 -12 37l4 53l12 -1q-10 17 -10 30q0 3 1 6v48q0 43 -10 76l7 22 l-3 109q-4 11 -18 25l11 62v43q0 24 -15 29l-89 18l-7 7l-3 80q30 18 78 18h14q25 22 101 22h6q27 -35 64 -35q23 0 25 10l39 -1q56 0 96 37q33 -11 51 -11q31 0 66 18h7l28 -18q46 -46 118 -62q8 -3 15.5 -14.5t15.5 -27t18.5 -31.5t24.5 -28v-9q0 -48 36 -85l13 -82 l-3 -37l11 14v-25q-15 -29 -15 -62l4 -36l-21 -26q15 -23 15 -43q0 -22 -15 -43v-3q0 -57 -35 -113l7 -4q-7 -36 -22 -76h-2q-7 0 -25 -19q-18 -25 -26 -28.5t-8 -4.5l7 -4q-7 -6 -18 -6l-9 1l-8 -8q-26 -4 -56 -25q-14 -1 -26 -9t-29 -8l-59 6q-29 12 -60 12l-43 -5 q-13 11 -28.5 20.5t-35.5 16.5l-75 -4q-6 -23 -6 -47l3 -40q-14 -17 -14 -33q0 -21 25 -39l-5 -42q0 -92 111 -92l32 -4q29 -32 29 -57q0 -38 -61 -66q-44 23 -95 23l-15 8l-4 -9q-9 6 -39 11q-8 8 -21 17t-32 19q-14 -9 -27 -9t-23 9l-5 -18q0 -19 23 -37zM514 763 q-37 -4 -71 -32l-12 1q-36 0 -59 -41q-41 -23 -57 -76q-17 -7 -32 -22l-4 -61q-19 0 -32 -15v-14q0 -69 36 -138q-11 -30 -11 -43q0 -30 21 -58q13 -87 107 -120q20 -38 71 -51l25 11l103 15q14 23 18 50q47 23 47 73l-1 14q55 40 55 90q0 41 -34 84l22 45q14 8 14 22 q0 10 -6 21t-6 19l6 22q0 7 -7.5 12t-16.5 10t-16.5 11.5t-7.5 15.5l2 19q0 35 -26 64q-8 72 -128 72zM282 614q7 13 15 13q3 0 6 -2l-17 19zM150 -67q-7 -17 -18 -24l-5 14q8 11 13 37zM126 -339q15 0 21 -2h1q6 0 16 9q17 -5 17 -14q0 -11 -37 -20z" />
<glyph unicode="q" d="M562 -382q-20 0 -32.5 7t-16.5 17l4 8q0 14 -9 26q17 23 22 48l42 6q10 30 41 45l-6 85q13 16 46 30l-29 -3l-4 45q0 26 6 49l-11 59l12 22l-5 7q-7 -16 -18 -16l-11 5l4 -25q-2 1 -4 1q-7 0 -7 -9v-2l-13 3q-52 0 -98 -34h-92q-13 -13 -46 -13l-40 4l-2 -12 q-25 18 -42.5 24t-39.5 12l12 8l-18 -1v15q-8 -11 -15 -11l-11 4l10 6l-20 9q6 4 6 8t-6 9q-87 41 -100 148l-22 25l16 6q-3 5 -9 5q-4 0 -11 -3v51l-10 -9l-14 26l3 39q0 37 -4 48l7 10q-10 19 -10 44l6 37l-11 21q0 18 11 38v8q0 70 48 135q0 24 4.5 36t12 21.5t16.5 23 t18 40.5q20 5 26 26q76 16 147 81q43 -17 71 -17q40 0 61 10q14 -7 25 -16.5t19 -20.5l15 22q42 -14 66 -14q35 0 52 7l115 -8q1 13 11 19l11 -9l-6 -9q0 -23 7.5 -35t7.5 -21q0 -7 -3 -11q-2 -1 -2 -3q0 -3 4 -7q-2 -3 -2 -6q0 -6 9 -9v-2q0 -13 11 -16q-8 -4 -8 -12 q0 -5 3 -11q-14 -26 -15 -63l11 -81l-9 23l-9 -41l13 2l-3 -23l7 -69l-6 -75q7 -15 7 -43q0 -18 -6 -18q-5 0 -7 16q-8 0 -8 -11q0 -28 -12 -58q11 -33 11 -49l-11 -54q16 -31 16 -84l-9 -107q9 -73 34 -107l-8 -11l8 -7l-19 -11q7 -13 7 -45q0 -36 -11 -75q-8 -2 -8 -9 q0 -23 27 -33l-4 15q28 0 63 -26q-8 -3 -8 -18l9 -35q0 -15 -11.5 -24t-28.5 -14q-11 -3 -25 -3q-9 0 -18 1q-6 1 -11 1q-16 0 -21 -7q-67 0 -118 22zM471 136q92 26 111 121q22 22 22 55l-11 48q25 34 25 84v4q15 22 15 40q0 30 -40 48l-8 74q12 3 18 9.5t7 14.5q1 3 1 7 q0 3 -1 6t-6 3q-3 0 -7 -1l1 14q-9 0 -22 -48q-9 16 -9 33q0 22 15 43q-25 31 -81 62q-26 -9 -81 -9l10 -18q-44 35 -85 35h-6l-11 3q-100 -10 -107 -73q-20 -16 -22 -45q-34 -18 -36 -62q-34 -33 -34 -60q0 -17 9.5 -34t9.5 -25v-7q0 -16 7 -28l-11 -22h28q-31 -30 -31 -69 v-9l11 -11q2 -42 44 -62l-1 -14q0 -54 52 -82l1 -11q0 -25 -12 -55l14 -2q18 0 34 13h22q33 -16 80 -16q46 0 78 27zM262 136l11 -19q0 -12 -26 -14zM596 86l-1 -11l10 -8q7 5 7 13l-5 15zM589 -258h4q10 0 22 15l-13 -2z" />
<glyph unicode="r" d="M39 25l13 60q41 9 41 29l-1 5l66 20l24 -10q16 31 36 31l14 -5l36 56v33q-15 52 -15 95t15 78l-16 21l21 82q-7 28 -10 51.5t-3 42.5q0 30 9 45l-20 14q17 26 17 38q0 7 -4 10.5t-9 7t-9 7t-4 10.5l4 13h-55q-14 14 -31 14q-18 0 -44 -17q-44 23 -44 47l1 8l15 6l-15 22 l54 58l43 -28q15 18 35 18q18 0 41 -14q5 -17 9 -17q7 0 11 43l74 -1q3 -32 95 -44q-35 -29 -35 -53q0 -7 3.5 -15t8 -15.5t8 -14.5t3.5 -12q0 -8 -5.5 -12t-5.5 -9q0 -10 33 -19l13 17l38 9l-23 17l64 36l-7 27l22 -6q21 0 30 32l28 21l24 -2q45 0 71 29l24 -4l14 -12 q10 9 20 9q5 0 10 -4t11 -9t14 -10t18 -7l23 -35l18 22l-7 -39l12 -17l-10 -19q12 -21 12 -43q0 -42 -40 -85l-7 15l-17 -9l13 -20l-33 6q-19 0 -29 -10l-28 1l-1 19l-10 -1q-33 0 -49 39q16 22 16 34q0 13 -20 13l-18 -2l-2 31q-33 -12 -33 -26l3 -10l-16 -9l9 -47l-25 38 q-22 -64 -54 -64q-11 0 -21 7l-35 -17l-2 -22l-43 1l-23 -42q18 -15 18 -29t-18 -27v-89l17 -8v-67l-17 4l21 -127l-19 -5l15 -44h4q57 0 57 -21l-4 -12q19 10 44 10q21 0 41 -11l33 19l41 -1l12 -26l26 5q52 0 96 -87l-23 -36l-39 20l-10 -27l-38 2q-39 0 -72 -9l-58 19 l-28 4l-5 -31l-57 24l-55 -20l-57 32q-11 -30 -43 -30q-28 0 -71 22l-34 -18l-71 5q-11 17 -19 17q-9 0 -14 -23z" />
<glyph unicode="s" d="M73 14q-12 47 -12 91q0 49 10 78l-8 15l10 8l1 24q0 38 -14 40v12q13 7 13 57v7q14 0 22 12q17 -11 37 -11q23 0 36 7q20 -26 20 -77l-2 -35l12 -4l-12 -20q34 0 69 -23l11 9l15 -10l-3 -12q0 -14 12 -32l78 16l42 -11l24 3q14 0 24.5 -9.5t24.5 -9.5q15 0 36 15 q13 -7 29 -7q22 0 28 23l69 24v5q0 30 30 51l-5 34q0 23 15 23l8 -1q-20 77 -113 92q-24 24 -58 24q-22 0 -29 -4l-21 20q-22 -16 -52 -16l-31 4l5 -22q-45 36 -92 36l-25 -2l-18 25l-9 -30q-26 42 -70 42l-12 -1l-17 16l8 16l-38 8q-20 20 -25 63l-14 -11l1 26q0 48 -19 54 l1 56q22 0 34 48l12 -5l18 49l8 -2q6 0 6 9l-1 9l39 8q4 28 39 36l-3 11l10 -3q8 0 8 10l-1 7l32 -3q18 0 31 4.5t23.5 10.5t19 10.5t17.5 4.5q11 0 21.5 -6t30.5 -6l37 4q38 -23 56 -23q12 0 17 8l22 -12q0 -22 91 -44l-3 -11q0 -15 29 -18q30 89 130 89q17 0 18.5 -8.5 t1.5 -19.5q0 -30 -7 -45q13 -19 13 -37q0 -13 -7 -23l25 2q-40 -52 -40 -110q21 0 21 -37l-3 -31l-13 2q-11 -12 -34 -12l-23 2q-24 61 -44 61l-8 -3v5q0 15 -17 17l2 13q0 9 -5 9l-6 -2l-4 24q-31 28 -76 28h-6q-19 37 -63 37l-11 -1q-23 23 -35 23t-13 -18q-47 24 -85 24 q-56 0 -95 -50h-7q-34 0 -55 -39q14 -20 14 -34q0 -21 -23 -38l43 -52l47 11l-25 -23q22 -13 45 -13q17 0 37 9q89 -23 112 -23q22 0 24 11l20 -8q14 -32 32 -32l17 32l3 -32q13 7 40 7q45 0 83 -19l25 8q25 -45 80 -45l13 1l-23 -24l32 7q0 -36 36 -63v-5q0 -22 22 -35v-44 l-15 -15l-4 -29l20 -11q-31 -19 -31 -62v-3q-61 -5 -74 -52l14 -12q-36 -5 -37 -48l-20 4l6 -19l-19 3l-10 -55l-8 35l-28 3q-46 0 -84 -35l-15 2q-24 0 -50 -23l4 14q0 8 -9 8l-4 -1l2 -6q0 -14 -37 -14h-4q-5 31 -39 36q-6 -16 -40 -16h-8q-9 42 -73 52l3 -15 q0 -14 -16 -14l-22 4l7 25l-33 -20q-6 21 -18 21q-9 0 -19 -9l-11 16q-25 -19 -39 -56z" />
<glyph unicode="t" d="M339 175l-36 35l37 24l-31 35l-3 49q0 60 21 99l-16 21l21 82q-27 25 -27 48q0 24 36 41l-33 74q17 26 17 38q0 7 -4 10.5t-9 7t-9 7t-4 10.5l4 13h-65q-24 12 -47 12q-34 0 -68 -25q-44 23 -44 47l1 8l15 6l-9 45l48 35l41 -17l42 2q4 19 32 19l63 -15q12 0 12 14l-1 9 l22 9l-30 78l43 -4l-41 52q14 26 14 70l-11 99l55 -11q4 45 46 45q22 0 54 -12v-15q0 -23 4.5 -38t4.5 -29q0 -12 -17 -55l32 -16l-52 -47l41 -39l-32 -2l35 -34q-30 -32 -30 -42q0 -6 9 -6q14 0 27 7l-5 -55l31 -4l7 27l41 -15q22 12 50 12q17 0 59 -11q10 16 27 16 q21 0 52 -25l11 26l49 -58l9 -28q-20 -2 -20 -15q0 -15 19 -40l-46 16q-29 -23 -47 -23q-15 0 -21 18l-24 -17q-21 12 -43 12l-41 -11q-23 17 -42 17t-42 -17l-32 11q-21 -20 -21 -38l5 -18l-22 -22l26 -22l-24 -39l20 -25l-17 -35q18 -15 18 -29t-18 -27v-89l17 -8v-67 l-17 4l21 -127l-19 -5l15 -44h4q47 0 47 -19l-4 -14l39 -11v22h77l15 -20l36 17q18 62 72 83l-1 33q10 21 21 21q10 0 24 -24l24 -9l-20 -49l39 -13l-29 -55l-47 -2l-19 -24l59 13q-72 -110 -209 -110h-12q-22 -13 -46 -13q-25 0 -50 16l-20 -4q-46 0 -89 72l-18 -3 q-38 0 -45 63z" />
<glyph unicode="u" d="M771 764h-5l2 -10q0 -15 -23 -30l-8 -61q0 -15 3 -26t6 -21.5t6 -21.5t3 -26q0 -20 -8 -45.5t-8 -47.5q0 -36 26 -68v-47q-29 -47 -29 -82q0 -32 21 -59l-11 -62l30 42l72 -50l-12 -69l-21 2l23 -42q-12 -45 -53 -45l-24 3l-37 -9l-34 19q-11 -11 -31 -11l-48 11 q-18 63 -31 63q-9 0 -16 -39l-40 -20l-33 23l-6 -16l-50 -42l-21 33l-14 -36l-54 14q-8 -14 -19 -14q-7 0 -16 7t-18.5 15.5t-18.5 15.5t-16 7l-29 -10q-17 0 -36 19q-42 2 -70 39l-9 57l17 41q-29 6 -29 87l2 50l23 25q-17 17 -17 26q0 11 19 12l-1 48l-11 -2q-5 0 -5 20 q0 18 17 86v38q-13 1 -13 16q0 13 9 37v28l-24 -2l23 69q-9 75 -84 95l-9 47l22 43l35 8l39 -8q28 12 61 12q30 0 65 -12l43 23q0 -14 32 -28q18 -29 18 -59q0 -26 -10 -45q-61 -1 -61 -42l5 -27q-20 -26 -20 -44q0 -19 21 -32l9 -46q-21 -42 -21 -69q0 -34 37 -40l-46 -91 h27l1 -99q-13 10 -22 10q-12 0 -12 -20l1 -10l13 2q19 0 19 -26q0 -25 -7 -43q19 -70 70 -70h5l3 19q17 -7 46 -7q55 0 96 45l38 -14l18 54q31 19 31 48l-2 16q31 43 31 61q0 4 -3 6t-7 4t-7 5t-3 10l4 24q0 25 -18 66q23 52 23 69q0 27 -30 27l20 28q-14 17 -14 44 q0 26 12 62l-26 23l-6 33l-25 -3q-61 0 -61 84q0 9 5 17t12.5 15.5t16 15.5t15.5 18l61 -8q48 0 84 10l27 -26q41 26 68 26q37 0 52 -45q-3 -95 -45 -95z" />
<glyph unicode="v" d="M157 924q13 0 29 -9t30 -9q24 0 51 24l35 -20q13 22 27 22q6 0 11.5 -5t11.5 -10.5t11.5 -10.5t10.5 -5q13 0 25 21q29 -50 29 -79q0 -21 -11.5 -29.5t-25 -12.5t-25 -7t-11.5 -12l-37 11q-12 0 -12 -12q0 -20 32 -73l-8 -54q0 -16 5 -28.5t11 -22.5t11 -18t5 -15 q0 -5 -2.5 -8.5t-5 -8t-5 -11t-2.5 -16.5l10 -68l24 17l-15 -60l9 -43l-5 -39q0 -18 6 -32.5t13 -29t13 -30t6 -36.5l-1 -20q0 -15 6 -15q7 0 27 32l11 -68q46 82 46 161v12l12 -4q7 0 7 12l-5 41q0 36 25 82l-23 1l38 50l15 51q17 0 17 14q0 15 -16 40l10 43l25 2l-15 41 q17 9 17 23q0 11 -7 21l24 15l-15 28q23 11 23 21q0 8 -17 16l-45 -3q-55 0 -55 22q0 9 9 21l-32 25l24 57l94 -20q21 25 46 25q30 0 65 -36q28 22 44 22q11 0 11 -16l-1 -11l27 11l-1 4q0 10 22 10l18 -1l35 -43q-9 -84 -52 -84l-21 4q-41 -9 -41 -79l-2 -51l-20 -1 q11 -17 11 -30q0 -9 -5 -18.5t-11.5 -19.5t-11.5 -21.5t-5 -25.5l1 -13l-32 -12l23 -24q-40 -39 -40 -100l2 -28l-12 6q-6 0 -8.5 -13t-3.5 -33t-1.5 -43t-1.5 -44l-39 -3l24 -19l-6 -30q-39 -17 -39 -35q0 -11 17 -25l-43 -48l14 -26l-21 -21l1 -6q0 -29 -111 -45l-48 1 q-13 37 -85 40l15 33q-34 18 -34 40q0 12 12 26l-15 13l5 42q0 21 -7 33t-15 21.5t-15 20.5t-7 31l6 41q-37 28 -37 53q0 17 13 30l-10 22l4 22q0 35 -41 76l18 53l-25 21l5 56q0 57 -29 89l11 21q-27 28 -52 28q-19 0 -37 -15l-33 34l13 17q-15 9 -15 30q0 27 19 64 q31 -25 53 -25q8 0 13.5 3.5t11 8t11 8t13.5 3.5z" />
<glyph unicode="w" d="M640 11q-20 0 -29 -7t-12 -7q-4 0 -7.5 6.5t-7.5 14.5t-8 14.5t-8 6.5q-7 0 -13.5 -9t-13.5 -9q-8 0 -17 13l-70 51l70 -7l-35 33l-6 66l19 8q-38 26 -38 42q0 4 4 9.5t9.5 11t9.5 10.5t4 9v3q0 6 -3.5 13.5t-8 15.5t-8 17.5t-3.5 20.5l2 22q0 29 -28 57q-14 -14 -14 -25 q0 -16 24 -26l-42 -14l-1 -35q-23 -17 -23 -33q0 -12 12 -22l17 -43l-37 -4l25 -37q-30 -8 -34.5 -31t-4.5 -57v-16q0 -39 -96 -75l-60 33q32 8 32 15q0 8 -34 15l-19 78l-27 14q18 19 24 48l-16 10q14 20 14 39q0 13 -8 24t-17.5 21.5t-17.5 21t-8 22.5q0 23 22 45l-33 86 l21 25q-42 0 -42 41l1 15l37 -5q-23 23 -23 42q0 10 8 21l-23 33l-8 45q0 14 4.5 22.5t4.5 18.5t-12.5 14t-28 8.5t-28 13.5t-12.5 30q0 11 3.5 17t7 9.5l7 7t3.5 9.5q0 15 -22 40l61 24q29 -20 43 -20q6 0 9.5 4.5t10.5 10t21 10t41 4.5h17q4 -21 72 -27q25 -37 25 -92v-12 q-32 -26 -78 -29l-8 16l-3 -24q0 -38 28 -84l-1 -37l27 -87q-14 -48 -14 -65q0 -56 61 -65l-23 75l43 -17q-5 28 -8 49.5t-3 38.5q0 21 5 33.5t10.5 21t10.5 15.5t5 17l-4 19l11 49l28 9l2 28q0 15 -2.5 21.5t-6 10.5t-9 8.5t-11.5 14.5l-2 9q0 14 22 30l11 34q7 -16 12 -16 l2 22q10 -15 22 -15q15 0 32 24q33 -20 33 -41l-8 -31q0 -12 14 -15l-3 -27q0 -15 4.5 -24t9.5 -17t9.5 -16.5t4.5 -21.5l-4 -36q0 -12 6 -23.5t13 -22t13 -21t6 -20.5l-5 -28q0 -14 8.5 -31.5t21 -34.5t27 -30t27.5 -18q-17 29 -17 55t13 48l-11 48q32 50 32 68 q0 11 -10 11q-11 0 -24 -7l23 80q12 -16 18 -16q5 0 5 12l-2 22q-105 28 -105 107v10l40 -46l5 23l-16 32q22 24 58 24q28 0 63 -15q37 15 69 15q12 0 27 -2.5t28 -8.5t22 -16.5t9 -25.5q0 -45 -36 -45l-22 3l-6 -66q20 0 20 -25q0 -21 -12 -55q-31 -9 -31 -38l5 -26 l-38 -36l13 -49q-9 -33 -9 -77l1 -36l-33 -18l1 -12q0 -25 -10.5 -46.5t-10.5 -38.5l6 -29q0 -25 -36 -82l-14 -90l-9 -10l13 1l2 -24q0 -35 -24 -35h-11z" />
<glyph unicode="x" d="M150 917l34 -4q29 -17 62 -17q27 0 34 4q50 -6 52 -92l16 -3l-9 -13l1 -41h7q20 0 20 -13l-2 -9q-11 14 -17 14q-8 0 -8 -20l1 -14q59 -24 82 -92h26q17 48 61 83q-9 34 -9 53l2 20q0 19 -19 53q13 66 61 66l44 -4q45 0 86 29l65 -22l24 2q48 0 85 -19q26 -41 26 -86 q0 -28 -4 -36l-12 2q-23 0 -49 -32l-103 -9l9 -15q-34 -18 -51.5 -36t-27.5 -33t-16.5 -26t-18.5 -15t-16 -13t-6.5 -19t-6 -20t-14.5 -16q-21 -11 -27 -58q23 -20 23 -65v-7l9 8q14 0 37 -84q38 -8 70 -43q6 -71 74 -113l8 -65l15 1q57 0 107 -41q-32 -87 -79 -87 q-22 0 -43.5 6.5t-40.5 6.5l-65 -8q-12 0 -20.5 3.5t-19 8.5t-26.5 10t-44 8l8 -17q-33 33 -44 33l-5 -5l-6 33q0 52 72 61l2 22q0 16 -6.5 25t-14.5 15t-15 11.5t-9 14.5t-7.5 14t-11 9t-10 9.5t-4.5 15.5l3 24q0 28 -57 57l-43 -26q0 -58 -53 -105l-3 -8q0 -5 8 -5l13 2 q-44 -23 -44 -56q0 -13 10 -22.5t38 -22.5l-17 -48q-56 -48 -97 -48q-22 0 -43.5 6.5t-41.5 6.5l-36 -3q-26 0 -42.5 18.5t-16.5 56.5l3 37q11 11 31 17.5t44 13.5l-9 10q31 31 47.5 57t25.5 45t14.5 31t16.5 16t16 11.5t11.5 18.5t19 26.5t38.5 35.5q19 13 19 38 q0 39 -48 105l-11 49l3 14l-20 -11l-33 30q-12 64 -78 105l-39 47l-30 -8q-13 28 -53 43l17 10l-21 -1l-1 13q0 36 10 56q18 3 27 10t21 7l49 9l7 -4z" />
<glyph unicode="y" d="M175 904q14 0 33.5 -10.5t40.5 -10.5q17 0 36 8.5t34 8.5q31 0 47 -40q21 -53 92 -53h5l5 -20q0 -15 -14 -32l-15 1q-61 0 -75 -38l-20 4l-5 -3q0 -9 25 -31q-9 -24 -9 -41q0 -12 4.5 -20t10.5 -15t10.5 -14t4.5 -16l-4 -27q0 -26 19 -63v-5q0 -28 6.5 -44t14.5 -26.5 t14.5 -19.5t6.5 -23v-9q0 -30 48 -91q42 64 42 140v13l12 -4q15 0 15 32l-1 7q0 46 49 80q37 25 37 113l-5 71l14 -10q4 0 4 11l-1 14q-49 49 -49 76l5 15l-13 12q52 42 96 42q38 0 69 -31q26 17 42 17q30 0 39 -50h14l-4 25q0 28 27 28l8 -1v-33q-28 -27 -28 -46l1 -10 q0 -11 -7.5 -17.5t-17 -15.5t-18.5 -23.5t-12 -41.5q-53 -42 -53 -144l1 -31l-56 -4l52 -12q-50 -47 -58 -126l-13 6q-5 0 -8 -13t-6 -31.5t-6.5 -38.5t-9.5 -34l-31 -11l37 3l-14 -60q-83 -74 -83 -140l1 -20q0 -24 -5.5 -39t-13.5 -26.5t-17.5 -23t-18 -28t-14.5 -40.5 t-7 -61l-15 7q0 -81 -52 -136l-25 17l16 -27l-9 -22q-16 10 -34 10q-11 0 -20.5 -6.5t-18.5 -15t-16 -15t-13 -6.5l-12 3q-14 0 -30 -24q-28 16 -75 16l-33 -6q-16 0 -20 48l-16 -29q-14 19 -28 27.5t-26 13.5t-19.5 8.5t-7.5 12.5v7q0 18 -19 40q12 55 12 84q0 27 -11 27 q40 144 122 144q46 0 104 -46q-21 -9 -21 -18l6 -9q16 6 34 6q28 0 47 -10q-17 -36 -28 -36q-10 0 -15 32h-22l3 -34q0 -26 -14 -77l-26 4q-22 0 -22 -17q0 -13 12 -35l40 -8q11 0 27 4.5t30.5 13t24.5 19.5t10 25l-5 19q0 6 3.5 12t7.5 15.5t7.5 23.5t3.5 37l-1 21 q48 22 48 41q0 13 -24 22l26 8q4 7 4 31q0 47 -41 88q16 32 16 71q0 33 -20 50q-36 28 -36 72v9q-26 2 -26 20l4 18q-3 115 -81 220l32 38l-41 -19l1 14q0 48 -37 91l11 21q-41 42 -97 42l-18 -1l-13 6l-1 22q0 41 23 73l13 -1q18 0 30.5 5.5t22.5 12t19 12t19 5.5z" />
<glyph unicode="z" d="M44 18l-3 16q0 13 8 24q-7 13 -7 42q0 36 16 67q40 3 50 52q73 31 139 118l7 -1q19 0 25 45l36 8l9 35l12 -3q24 0 48 52q28 62 84 94q38 20 38 37q0 8 -8 16l26 22q47 0 61 53q25 18 39 18q8 0 11 -5q12 16 12 31l-3 16l-33 4l10 14q-13 10 -46 10q-29 0 -71 -9l-13 22 l-23 -22q-17 7 -47 7q-36 0 -49 -22l-17 2q-25 22 -43 22q-11 0 -20 -9h-27q-13 -25 -13 -71l11 -73l-7 -22q-22 -3 -22 -28l4 -25q-43 -9 -65 -76q-20 14 -35 14l-17 -3v9q0 30 -18 65q18 31 18 70q0 27 -9 59q8 8 8 26t-8 47.5t-8 68.5q0 12 -1 25v4q0 10 3 19 q4 10 15.5 16.5t35.5 6.5q17 0 59 -11l9 23h49q23 -20 50 -20q28 0 63 20q37 -1 37 -19l-1 -7h59l-4 15l52 -18l33 16q9 -15 18 -15t18 11h77q54 -19 110 -21q7 12 19 12q10 0 24 -9q-6 -11 -6 -23t7.5 -24t7.5 -24q0 -18 -32 -29q-13 -84 -103 -131v-27l-11 -3 q-12 0 -16 12q-11 -6 -11 -18l8 -25h-5q-16 0 -20 -18q-24 1 -24 19l2 12l-18 -5l-3 -11q0 -19 33 -32q-75 -29 -107 -101q-55 -8 -56 -65l-12 -16q-12 15 -24 15q-18 0 -34 -39l-18 9q-13 -13 -13 -36l1 -13q-38 -23 -38 -48l2 -15q0 -25 -24 -41q12 -11 12 -26l-3 -18 l32 -8l36 8q19 -10 51 -10q37 0 57 10l49 -13q6 9 13 9q9 0 23 -17q33 15 72 15l32 -2q1 18 30 33l-25 6q8 59 45 83q3 88 72 166q56 -39 56 -154l-2 -47q-35 -33 -35 -59q0 -21 21 -37q-13 -13 -13 -35q0 -26 13 -51q-29 -6 -29 -31l2 -15l-23 -11q-17 11 -29 11 q-17 0 -29 -17q-20 11 -41 11l-35 -6q-14 15 -28 15q-15 0 -31 -15q-51 14 -94 14q-23 0 -48.5 -2.5t-51.5 -7.5l2 -28l-24 32h-19l-66 -23l-29 6q-8 26 -15 26q-6 0 -11 -26l-64 31v-32q-14 8 -33 8q-29 0 -43 -7zM302 244l4 -15q14 8 14 14q0 7 -16 11z" />
<glyph unicode="{" d="M520 -99q-99 7 -155 129l24 -1q-18 22 -18 42l4 19l-16 -6q4 20 6 40.5t2 42.5q0 26 -3 52t-8 53l6 -3q10 0 10 35l-3 49l-17 12l6 63q0 84 -59 101l-11 31l-18 -14l-63 48l-1 38q126 99 126 141q0 9 -6 15l38 52q-9 36 -9 65q0 42 20 68v6q0 35 -22 35h-6q16 19 16 46 q0 15 -5.5 31t-5.5 34q0 31 13 63l25 3v23l28 12l1 48q45 49 92 49l30 -5q2 26 37 26q24 0 65 -12q24 -30 24 -49q0 -12 -7 -19l32 -60l-49 5q-87 0 -107 -80l-43 -21l26 -11l5 -71l-31 -20l10 -73l-9 8q-6 0 -6 -24l2 -38l14 -17q-13 -7 -13 -42q0 -29 9 -75l-12 1 q-24 0 -24 -17q0 -14 10 -30l-55 -29l5 -13q0 -15 -22 -25l9 -20l54 -31l40 -50l-14 -9v-20l15 6q-12 -24 -12 -50q0 -17 8 -43q-9 -44 -9 -71q0 -21 5 -33.5t5 -20.5q0 -7 -5 -7h-2q-4 0 -4 -9l31 -172l33 -44l-37 17v-7q0 -50 113 -91l-1 -21l42 -6l-21 -26q16 -19 16 -31 q0 -11 -16 -11l-12 1l-22 -45q-11 21 -23 21q-9 0 -18 -11l-67 30z" />
<glyph unicode="|" d="M370 -79l-8 82l3 47l24 -1q-18 22 -18 42l4 19l-16 -6q4 20 6 40.5t2 42.5q0 26 -3 52t-8 53l6 -3q10 0 10 46l-3 58l-17 12q8 48 12.5 87t4.5 71q0 39 -6 72t-6 60l11 87q0 42 -16 97l12 1q-9 36 -9 61q0 38 20 52v7q0 20 -7 20q-5 0 -15 -12q11 36 11 58q0 20 -6 32.5 t-6 30.5q0 27 13 59v47l15 -4l-19 23l15 15l-5 22q0 19 20 27q2 43 89 47q24 -30 24 -49q0 -12 -7 -19l28 -12q-13 -26 -13 -65q0 -34 12 -74l-37 13l31 -39l6 -74l-11 -20l10 -53l-5 1q-10 0 -10 -25l2 -30l14 -17q-13 -7 -13 -42q0 -29 9 -75l-20 -24l21 3v-40l-8 -7 q9 -11 9 -32t-7 -43l9 -20l-9 -20l10 -31l-14 -9v-20l15 6q-12 -24 -12 -50q0 -17 8 -43q-9 -44 -9 -74q0 -25 5 -42t5 -27q0 -9 -5 -9h-2q-5 0 -5 -20l11 -129l-8 -79q0 -38 9 -105l-21 -26q16 -19 16 -31q0 -11 -16 -11l-12 1l-22 -45q-11 21 -23 21q-9 0 -18 -11l-67 30z " />
<glyph unicode="}" d="M208 -4l49 -5q87 0 107 80l43 21l-26 11l-5 51l31 70l-7 52q12 0 12 46l-2 49l-14 17q13 7 13 42q0 28 -9 75l12 -1q24 0 24 17q0 14 -10 30l55 29l-5 13q0 15 22 25l-9 20l-54 31l-40 50l14 9v20l-15 -6q12 24 12 50q0 17 -8 43q9 43 9 77q0 22 -5 39.5t-5 26.5t5 9l6 3 q0 3 -5 12.5t-11 21.5t-11 24t-5 21l1 9l-33 44l37 -17v7q0 50 -113 91l1 21l-42 6l21 26q-16 19 -16 32q0 10 16 10l12 -1l22 45q11 -20 23 -20q9 0 18 10l67 -30l-10 -23q99 -7 155 -129l-24 1q18 -23 18 -42l-4 -19l16 6q-8 -19 -8 -40q0 -23 11 -58l-6 3q-10 0 -10 -46 l3 -58l17 -12l-6 -63q0 -84 59 -101l11 -31l18 14l63 -48l1 -38q-126 -99 -126 -141q0 -9 6 -15l-38 -52q9 -53 9 -87q0 -52 -20 -66v-14q0 -38 6 -38t16 37l-11 -100q0 -14 2 -23.5t4 -17t4 -14.5t2 -16q0 -27 -13 -59l-25 -3v-23l-28 -12l-1 -48q-45 -49 -92 -49l-30 5 q-1 -25 -37 -25q-21 0 -65 11q-24 30 -24 50q0 11 7 18z" />
<glyph unicode="~" d="M349 668q33 -24 84 -24h8q25 -18 25 -47l-1 -13q40 -7 46 -57l25 -4q33 0 45 33q31 1 31 15q0 7 -11 21l4 16q38 5 44 40q96 -1 101 -53l-41 -7l40 -12q-13 -81 -106 -116l1 17q0 15 -4 15q-5 0 -23 -56l-27 4q-33 0 -65 -16h-12l8 12l-27 -4l-41 8l-18 42l4 -36 q-10 22 -22 22l-10 -4q-10 61 -58 96l-28 -4l11 18l-21 -4v-14l-22 8q-16 -19 -16 -43l3 -22l18 17l-21 -37l1 -5q0 -21 -68 -32l21 -9q-14 -8 -25 -8q-7 0 -16 4.5t-16.5 12.5t-13 18.5t-5.5 23.5q0 32 36 76l31 -22l-21 30l8 36l12 -1q18 0 27 8t14 17t8.5 17t11.5 8 l10 -2q11 0 25 17h36z" />
<glyph unicode="&#xa0;" />
<glyph unicode="&#xa1;" d="M566 -208q0 -60 -80 -98h-56l-52 37q13 13 14 26q-16 0 -44 -7l10 61q-24 15 -24 33t16 37l16 46l-25 -7l29 35l-10 20q20 80 20 133q-1 56 -6 67l17 1l-3 20l-25 -14l27 77l-9 13l9 38l-17 32l21 -4l-13 35q7 4 7 19l-11 55l32 68q10 -10 23 -10t28 18l24 2 q42 -53 42 -127l-10 -16l9 -11l-3 -56l18 -7l-2 -185q9 -13 14 -37q0 -14 -10 -23q27 -67 27 -147l-3 -54l-20 -5q20 -35 20 -65zM297 735q0 46 36 110l-15 27l27 -14l-6 12l33 15l11 -7q20 0 35 18l30 -5l9 8q104 0 126 -94q-7 -1 -8 -24q0 -20 17 -23l-9 -64l-29 -52 q-40 0 -58 -29l-16 -2q-9 2 -21 21l-52 -8l-3 14q-107 20 -107 97z" />
<glyph unicode="&#xa2;" d="M394 -118q-15 21 -15 37q0 18 18 32l11 24q-43 18 -43 77v5q-38 38 -93 40l-45 39l-16 -4l-36 27q-16 39 -58 71l-18 48q14 20 14 37q0 29 -36 59v4q0 26 22 51v62q13 26 13 47l-5 20q6 20 12 29t10.5 13t8 7t4.5 12q2 14 47 35q38 80 128 95l48 29l-7 90l20 22 q-11 17 -11 25q0 11 15 11l8 -1l-1 7q0 29 48 29q12 0 19.5 -4.5t12 -10.5t6.5 -12t2 -10q0 -8 -6 -14l21 -9q-10 -19 -10 -46q0 -26 9 -54l-13 -37l10 -14l24 5q13 0 26.5 -8.5t28 -18.5t30 -18.5t32.5 -8.5h3q42 0 57 -72q20 -8 20 -36l-2 -20l25 -35l-32 -50 q-41 -30 -94 -30l-32 2l1 9q0 17 -19 17l-11 -1q-18 40 -18 58q0 13 10 13l5 -1q16 0 16 36l-2 31l-88 8l-38 -3l-9 -31l-56 30l-32 -51l-27 2q-31 0 -31 -18q0 -11 11 -28l-8 -15q-39 -17 -39 -35l10 -33q0 -11 -7.5 -16.5t-7.5 -17.5q0 -14 12 -36q-11 -20 -11 -34 q0 -8 3.5 -13.5t7 -10l7 -9t3.5 -9.5l-6 -17q0 -9 27 -9h9l-7 -16q0 -5 6 -5l12 2l-1 -13q0 -32 22 -32l45 8q9 0 13 -4t7 -8.5t6 -8.5t10 -4l15 2q11 0 15.5 -7t15.5 -7l21 4l25 -14l11 18l13 13t17.5 16t19 14t16.5 6q13 0 27 -15l16 23q0 7 4 15.5t12.5 16t20 13 t26.5 5.5q67 0 76 -56l-15 -37q-25 -3 -25 -40l1 -14l-19 2q-25 0 -25 -21l-23 -37q-9 17 -18 17q-4 0 -7.5 -4t-7.5 -8.5t-9 -8t-12 -3.5q-12 0 -27 9l9 -41l-45 6l-2 -35q-18 -20 -18 -63l4 -47l-16 -19q13 -13 13 -23q0 -7 -13 -7h-9l-17 -32q-9 15 -18 15l-14 -8l-51 22 z" />
<glyph unicode="&#xa3;" d="M52 180l-4 42q-18 4 -18 19q0 17 26 49l-21 17l35 21l23 36l12 -14q34 33 80 33q47 0 102 -31l11 14q4 -6 12 -6q10 0 22 13l-5 19q12 48 12 82t-12 54l-13 -18l7 61l-6 24l-25 -5l-78 18l1 -9h-84l3 9h-23l-12 -12l-28 33l-2 24q0 62 62 62l16 -1l-2 16l21 -5l25 -17 l-3 13h71l-35 29l10 27l-32 20l24 19l-6 40l6 14q-23 29 -23 76l5 27q33 22 33 84v7l13 17q32 0 52 50l21 -23l-8 27l23 2q25 0 61 42l18 -3q19 0 39 17q27 -17 69 -21l10 -8l22 21l-11 -29q21 -17 76 -18l18 -7q28 -57 85 -82l-9 -13q28 -35 30 -66l-13 -10l15 -21 q-11 -25 -11 -46l6 -37l-13 -16l7 -11l-17 -28l5 -18l-23 22q-25 -25 -44 -25q-29 0 -29 70l-18 -28q-17 29 -17 57q0 45 34 94l-34 -14q22 28 22 36l-11 -1q-15 18 -35 18l-22 -5q-11 17 -26 17l-14 -3q-14 35 -35 35l-9 -2l-12 -19v19q-60 -9 -60 -51l1 -9 q-48 -20 -48 -67l8 -43l-1 -32l-7 -2l7 -34q20 -86 60 -86q15 0 32 11l60 -17l-3 16h58l46 -28l2 27l27 -48v-9q0 -36 -23 -57l11 -17h-36l-11 14l-9 -12q-8 9 -19 9q-17 0 -39 -24q-11 9 -21 9q-13 0 -25 -14l-11 5q0 -67 28 -130q-11 -2 -11 -18q0 -29 28 -92 q-14 -42 -14 -68l3 -26l32 -21l-12 -15l37 -24l6 18q28 -58 59 -58q24 0 50 38l33 -36l-4 11l28 6l6 34q41 14 41 28q0 10 -24 21l1 20q0 34 -24 34l-14 -2l-22 -17l-4 20q-63 10 -63 67l6 40l28 6l-9 21l37 -14q31 28 58 28q40 0 67 -64l7 13l8 -36l-9 -11l24 -12 q53 -26 53 -69q0 -34 -30 -77l9 -13l-26 -65l-15 -1l2 -27q0 -87 -82 -87q-26 0 -70 11l1 -10q-14 -8 -26 -8q-13 0 -24 8t-22 8q-8 0 -19 -8l-19 15l-24 -11q-19 106 -67 106q-24 0 -55 -27l14 27h-4q-34 0 -34 -27l1 -12q-52 -15 -66 -44h-2q-33 0 -61 -34l-50 -6 q-127 0 -179 157zM203 117l24 4l22 -12l-10 14l27 -2q43 0 44 106l-9 11h-8q-36 0 -76 30l-12 -11l12 -4l-21 -13l-23 4q-25 0 -25 -29q0 -36 39 -118zM431 104q24 18 41 18q28 0 42 -41l-22 3l22 -40q-29 23 -38 45l-14 -10v23z" />
<glyph unicode="&#xa4;" d="M89 225l5 33l-2 28q41 19 85 63q-12 58 -59 99q-17 53 -17 72q0 15 9 17l3 27l-23 -6l19 35l-17 3l-4 78q35 9 43 92q32 11 32 17q0 4 -16 5l-4 19q15 4 15 21v4q-24 1 -37 59l-15 -3l-13 27q13 7 25 55q5 -19 25 -20q8 24 41 41h2q66 0 109 -55q30 1 55 37l19 -5 q13 0 25 12h56l-4 12l44 -12l7 18q5 -23 26 -30l6 16l49 -7l1 -27h6q31 0 64 -18q27 56 65 56q18 0 38 -12l-1 -4q0 -17 56 -40l3 -14q0 -23 -28 -38l5 -11q0 -8 -15 -14q-17 15 -23 15q-4 0 -4 -7l4 -17l-8 -21q41 -21 41 -76v-5q27 -21 27 -58l-2 -20l20 -1l-12 -32 l11 -61l-15 10l11 -33q-15 -12 -15 -33v-5l15 -1q-9 -12 -9 -28q0 -13 8 -32l-10 -12q-37 -4 -52 -45q26 -54 68 -69l-1 -9q0 -20 22 -21q-16 -35 -16 -61l1 -9q-4 -10 -15 -10l-18 6q-1 -19 -13 -19q-8 0 -19 8l-17 -6q-10 0 -10 16v8q-11 -8 -24 -8l-28 8l4 19 q0 20 -22 33q-15 -39 -52 -52q-9 15 -30 15q-27 0 -80 -29l-55 19l-4 -19q-20 10 -48 10q-25 0 -45 -7q-22 13 -32 13q-6 0 -8 -5q-35 14 -37 29q-40 -2 -59 -48q-32 -2 -48 -33q-37 10 -48 52l-19 -16zM324 403l30 5q35 0 59 -29l25 11q15 -21 34 -21q17 0 40 21l25 -3 q44 0 64 47q12 -14 17 -14q6 0 6 14l-3 28l24 5v41q27 30 27 53q0 14 -12 28l-4 81q11 11 11 17q0 13 -38 15l-2 34q-27 1 -27 14l5 12l-37 11l-4 19h-59l-22 -17l3 24q-13 7 -30 7q-21 0 -43 -12v16q-35 -6 -35 -21l1 -5q-64 -10 -77 -62l-15 -4l11 -22q-24 -5 -24 -29 l2 -15l42 3l-49 -22q12 -18 18 -61l-18 2q12 -35 12 -81l-1 -26l22 -31l11 9z" />
<glyph unicode="&#xa5;" d="M218 44l-4 41q0 40 13 78l19 -2q31 0 56 22q25 -15 59 -15h8q3 25 26 39l-3 42q0 56 21 112l-5 64l6 77l-18 3l5 20l-30 -6q-16 0 -32 8t-29 8q-15 0 -25 -15q-16 13 -37 13q-19 0 -40 -12h-38q-40 43 -40 113v10l16 -5q14 0 28 20h13q9 -20 30 -20q19 0 46 15l9 -15 l8 10h50l8 -11l9 31q-24 13 -24 37l1 7l-35 4q-31 0 -75 -14q-9 20 -18 20q-12 0 -22 -25q-15 20 -28 20q-11 0 -21 -15h-17l-14 10l-13 -5v4q0 10 -3.5 14t-8 8t-8 9.5t-3.5 18.5q0 76 55 76q36 0 101 -36q-17 20 -18 40q32 -32 52 -32q15 0 23 17l-26 12l4 28q0 35 -26 64 q-16 63 -76 85v1q0 27 -115 58l5 27q0 19 -9 42q20 11 31 40q19 -8 34 -8q24 0 46 13q28 -12 57 -12q32 0 71 17q29 -17 56 -17q24 0 47 14l25 -12q10 -19 10 -44l-5 -35l26 -20l-14 1q-18 0 -18 -12l6 -19l-21 8q-12 0 -13 -19q-37 -7 -37 -27q0 -13 13 -26q-9 -17 -9 -33 q0 -33 38 -62v-2q0 -54 49 -81v-2q0 -53 62 -53h2q11 49 48 59q19 99 57 99l9 20l-12 26l23 -3l8 27q-5 68 -71 74l-27 25q7 17 7 33t-7 26q23 17 55 17l25 -2l4 31q27 -12 57 -12q37 0 72 16q28 -11 52 -11l32 4q8 -17 17 -17q8 0 18 13l22 -14l7 24l10 -74l-12 -34h-9 q-42 0 -75 -35l-18 5l-9 -34q-42 -16 -44 -70l-5 1q-14 0 -17 -41l17 -9q-26 -19 -31 -60q42 -14 73 -14q33 0 64 14l31 -5q2 -20 27 -20q-21 -26 -21 -45q0 -11 8 -19l-18 -30q-15 9 -33 9q-21 0 -47 -14q-37 14 -73 14q-51 0 -112 -29l-5 -29l21 -16q28 18 54 18 q23 0 49 -17q16 9 42 9q30 0 67 -10q-15 -17 -15 -40q0 -21 12 -49l-17 -20l-46 -4q-39 0 -52 15l-31 -10l-16 11l-46 -16l-13 25l-13 -25l-15 18h-22l-4 -38l5 -40q-7 -10 -7 -21q0 -13 7 -23l-17 -15l-5 -56q0 -65 34 -66l-21 -106q27 -5 27 -35l48 -5q39 0 76 10 q17 -38 62 -55l4 -25q0 -20 -9 -39q-8 2 -16 2q-9 0 -23 -32q-20 7 -46 7q-34 0 -74 -17l-18 20l-20 1q-46 0 -46 -21l-26 -6l-5 16q-19 -8 -32 -8q-16 0 -30 10.5t-25 10.5q-16 0 -28 -23h-18q-11 21 -32 21q-13 0 -38 -11z" />
<glyph unicode="&#xa6;" d="M440 718q-38 0 -38 24l6 24l-27 40l-7 82q0 58 21 75v5q0 45 -32 53q20 14 20 35q0 12 -5.5 24.5t-5.5 29.5q0 28 13 64v50l15 -4l-19 25l15 16l-5 24q0 20 20 29q1 46 89 51q24 -32 24 -54q0 -12 -7 -20l28 -13q-13 -30 -13 -69q0 -38 12 -81l-37 14l31 -42l6 -80 l-11 -22l10 -57l-5 2q-10 0 -10 -28l2 -32l14 -19q-13 -9 -13 -46q0 -31 9 -80q-68 -20 -100 -20zM390 -73l-8 89l3 51l24 -1q-18 24 -18 46l4 21l-16 -7q8 46 8 91q0 53 -11 114l5 -3q6 0 6 24l-11 107l47 79l55 7q52 0 64 -36q-9 -48 -9 -81q0 -28 5 -46t5 -29 q0 -10 -5 -10h-2q-5 0 -5 -22l11 -140l-8 -86q0 -42 9 -115l-21 -28q16 -22 16 -34t-15 -12l-13 1l-22 -49q-11 23 -23 23q-9 0 -18 -12l-67 33z" />
<glyph unicode="&#xa7;" d="M333 3q-25 43 -91 48l4 12q0 9 -14 9l-8 46q0 66 59 119l17 -7q28 19 52 19q30 0 47 -36q45 0 78 -66q16 -10 35 -10t35 10l4 62q-14 59 -86 89l1 11q0 27 -26 62l-19 -6q-23 63 -79 63l2 9q0 11 -19 12q-5 36 -23 36l-10 -1q-16 0 -25 20l-24 -38l7 49l-8 10l-20 3 q-13 41 -54 79v138l6 -1q18 0 19 37q0 43 70 70q0 32 29 55q-15 15 -15 30l1 14q0 7 -6 14.5t-12.5 15.5t-12.5 15.5t-6 13.5q0 18 34 34q-9 10 -9 24l5 24q38 18 50 59l23 -2q32 0 42 19l35 14l2 -14l21 24h46l10 6q9 -11 22 -11q14 0 33 13q10 -19 31 -19l26 6 q7 -18 38 -22v-35l11 1q21 0 21 -14l-3 -16q0 -9 8 -9l5 1q6 0 13 -14.5t7 -42.5q0 -21 -12 -21q-9 0 -25 12l25 -35h-5q-35 0 -43 -38q-132 1 -132 69l6 32q8 -2 17 -2q8 0 30 31l-22 4l-4 18l-37 -20l-28 2q-46 0 -87 -16l4 -38q-20 -15 -20 -34q0 -14 11 -31l-4 -27 q0 -20 9 -38l28 6q9 0 9 -6l-5 -11q43 -41 120 -75l10 15q19 -45 60 -63l4 -55q22 -12 51 -12l13 1q1 -21 12 -21l6 1l13 -17l-13 -48l5 -11q8 2 18 2t31 -39v-42l14 15l-14 -83l7 -10q-39 -42 -52 -93l-14 3q-15 0 -32 -14q13 -10 13 -21q0 -5 -4 -10.5t-9.5 -11t-9.5 -12 t-4 -14.5l2 -13l25 -17l4 -42q0 -96 -91 -181h-2q-43 0 -84 -38l-22 -1q-33 0 -52 15l-5 -12l-34 -4l-7 19l-8 -8zM576 388q47 56 47 110q0 71 -84 137l1 7q0 18 -30 24q-14 65 -95 68q-10 31 -24 31q-8 0 -15 -10l-27 3q-8 9 -16 9t-17 -9q7 -20 7 -36t-11 -18v-28l12 -8 l-12 -13l58 -41q1 -15 14 -15l11 2l20 -18q-8 -2 -8 -6q0 -5 13 -12l17 5v-5q0 -16 4 -16l8 9l1 -11q0 -16 -10 -32q16 -15 42 -15l11 1q6 -50 46 -72l-3 -7q0 -12 24 -34h16z" />
<glyph unicode="&#xa8;" d="M352 1102l6 -35q0 -17 -8.5 -25.5t-19 -15.5t-20 -14.5t-11.5 -21.5l-35 15l-11 -20q-23 3 -43 13t-35.5 25t-24.5 34t-9 40l39 10q-35 8 -35 28q0 12 8.5 24.5t20.5 23t24.5 17t20.5 6.5q11 0 20 -6l30 12l-18 -31q18 15 37 15q32 0 68 -39l-4 -23l30 -2zM735 1107 q17 -12 17 -26q0 -19 -31 -41l-32 28l15 -68q-25 16 -40 16q-17 0 -17 -23l2 -16q-11 21 -30 21q-15 0 -31 -10l-6 26l-27 -24l-2 43q-41 6 -41 41q0 17 14 51l29 5q-37 16 -37 28q0 3 8 8.5t18.5 13t20 14.5t13.5 13q6 10 21 10q17 0 49 -15l22 2q35 0 35 -22l2 -8 q41 0 46 -62z" />
<glyph unicode="&#xa9;" d="M193 119l9 26l-40 -11q0 36 -24 36h-1q-6 24 -32 44l18 26l-24 2q0 30 -20 68.5t-20 47.5v2q0 25 -23 62l-2 17q15 22 15 42q0 10 -5 20t-5 15q11 3 11 13q0 3 -1 7q-2 5 -2 9q0 11 9 20q5 6 5 10q0 5 -7 8q2 44 8 44q20 10 20 22q0 17 -9 34q10 5 19 38t42 45 q-3 -6 -3 -9q0 -5 7 -5q3 0 8 1v20l88 32l-26 25l50 -14q44 49 99 56q11 -8 21 -8q12 0 23 11h7q27 0 51 -6l28 8v-2q0 -10 23 -10h11q7 -1 13 -1q21 0 30 14l21 -9q-8 -10 -8 -16q0 -9 19 -9l-1 12q49 -11 68 -42q14 -23 22 -23q4 0 6 3q21 -8 36 -50l48 -18 q0 -18 12.5 -28t12.5 -31v-2q0 -27 32 -73l-11 -6l1 -36l26 -36q-2 -85 -13 -86v-46q8 -14 8 -28q0 -19 -12 -41q-43 -28 -50 -86q-6 -58 -148 -143h-74q-34 -31 -75 -31q-53 0 -60.5 9.5t-54.5 9.5q0 -8 -37 -8q-17 0 -42 2zM304 171q8 -26 36 -26q38 0 53 8.5t39 8.5 q13 0 44.5 -12t42.5 -12q31 0 68 28q6 21 17 23l-9 10q101 39 111 148l19 -11l-24 68l22 17l-17 27q25 25 25 49q0 25 -25 49q9 4 9 9t-7 10q1 6 1 10q0 12 -8 19q-12 9 -12 31q1 11 17 25l-15 -4q0 16 -20 35q-17 15 -33 15q-4 0 -8 -1q-29 18 -31 35q-5 32 -119 42l-7 23 l-20 -13q-35 7 -72 7q-71 0 -78 -37q-7 -31 -45 -48t-53 -25t-15 -33l10 -9q-10 -10 -10 -22q0 -1 1 -1v-1q0 -14 -18 -40l-8 -32l10 -54l-8 -34q0 -11 4 -18t4 -26q0 -15 -5 -40t-5 -55q0 -62 67 -93q61 -10 72 -50zM283 271q-11 66 -45 66l-3 -14l-7 40q7 17 7 35 q0 30 -24 53q0 15 14 35v42q9 19 9 32q5 3 5 5q0 4 -9 9q7 5 7 10q0 4 -3 7h12q7 9 14 30q5 18 21 18h3q22 49 88 59q-4 -7 -4 -11q0 -2 3 -2q2 0 7 2q1 16 36 30l50 -17l30 6q12 0 40 -18q26 -17 39 -17h2q27 0 37 -49l22 -29l4 -35l-19 -32q-26 -20 -62 -20l-10 -7l-15 12 l6 4q-10 3 -10 9v2l-10 -2l-28 21l9 41l4 -11q23 0 23 31q0 20 -86 27q0 -5 -17 -5q-12 0 -30 2l-9 -21l-20 7l-14 -31q-22 -12 -22 -22q0 -6 11 -14q-26 -11 -26 -23l7 -23q0 -8 -5 -11.5t-5 -14.5v-4q0 -14 7 -24q8 -12 8 -36l-6 -9q1 -22 20 -22l17 -12q5 -38 17 -38 l22 8h2q14 0 19 -15q5 -17 22 -17q11 0 23 15l24 2q3 -11 8 -11q3 0 8 8q19 0 34 16t21 47l36 -5q1 6 10 6q5 0 12 -2q25 0 38 -25l-10 -25q-14 -2 -14 -18l12 -3l-41 -42q-5 -2 -8 -2q-6 0 -9 5q-2 1 -4 1q-5 0 -9 -8q-5 -12 -29 -17l-11 11q-14 -28 -106 -29q-30 1 -35 12 q-3 6 -10 6q-6 0 -16 -5q-5 11 -15 11q-6 0 -14 -5z" />
<glyph unicode="&#xaa;" d="M440 1193l27 4l32 -9q16 -11 34 -16t33.5 -10t25.5 -13t10 -24l-2 -18q29 -20 29 -178l-10 -18l12 -18l-9 -17l12 -62l-7 -10q4 -48 46 -52l1 -13l14 3q18 0 18 -28v-9q0 -9 -6.5 -14.5t-6.5 -13.5l3 -15l-23 2q-19 -8 -33 -8q-15 0 -37 8l-11 -7q-23 20 -37 20 q-7 0 -11.5 -4.5t-9 -10.5t-11.5 -10.5t-19 -4.5q-23 0 -55 13q-26 -13 -60 -13q-28 0 -52 7l-17 -8v4q0 12 -11 12l-12 -2q-7 0 -9.5 3.5t-4 8t-4 8t-9.5 3.5l-12 -2l-14 17l3 9q-24 34 -24 65l7 70l18 10v5q0 14 14 14h5l11 47q52 20 72 20l45 30l63 -3q15 0 31 19l17 51 q0 28 -19 47l-55 -1l-2 10q-10 10 -17 10q-10 0 -12 -29l-25 2q-13 0 -13 -4l8 -7l-2 -54q-17 -5 -17 -17l2 -12q-27 -11 -43 -11t-29 7l3 19l-24 3l8 32h-16l3 29l13 4l-5 26q0 24 23 36l6 20q24 0 41 21l9 -1q11 0 11 10zM423 863l-17 -12q-19 0 -25 -16l-7 3 q-5 0 -13.5 -3.5t-8.5 -9.5l4 -7q-10 -7 -10 -14l-2 -21q0 -7 6 -7l4 -2q0 -22 22 -22h7l1 -18q13 10 28 10t25 -10l6 12l10 4l10 -6q10 22 28 26l-8 19q20 0 20 20l6 13q0 4 -7 5l1 32l-37 6l-17 -9z" />
<glyph unicode="&#xab;" d="M321 475l28 11l-17 25q23 9 32.5 22.5t18.5 28.5t23 29.5t46 24.5v3q0 36 49 37q66 30 66 63l-1 8q71 17 96 73l14 -12l66 49q49 -17 59 -83q-52 0 -54 -48q-31 -3 -31 -21l4 -15l-61 -49l-32 5l4 -39q-61 -6 -61 -20q0 -8 19 -18l-23 -16q-65 -15 -65 -45q0 -26 50 -64 q4 -42 68 -66q5 -33 17 -33l12 7q38 -56 120 -115l9 1q14 0 14 -14q0 -13 -7 -26q27 -18 27 -32q0 -22 -55 -37l-37 3q-31 38 -72 75v19l-31 1l-1 28l-24 -8l-50 30q-10 41 -69 48l18 18l-8 -1q-23 0 -33.5 11.5t-14.5 25t-6 25t-8 11.5q-5 0 -14 -11zM70 532l32 4 q12 49 79 91q66 40 66 75v1q57 16 86 60q19 0 19 12q0 9 -9 23q57 11 73 44l14 -12l44 19q48 -16 59 -83q-53 0 -54 -48q-41 -5 -45 -51q-126 -59 -126 -89q0 -10 13 -17l-23 -16q-65 -15 -65 -45q0 -26 50 -64q5 -42 68 -66q4 -33 17 -33l12 7q39 -57 120 -115l9 1 q14 0 14 -14q0 -13 -7 -26q27 -18 27 -32q0 -22 -55 -37l-37 3l-72 75v19l-31 1l-1 28l-24 -8l-50 30q-11 40 -69 48l18 18l-8 -1q-25 0 -47 21q-11 64 -70 89l3 21q0 25 -26 25l-21 -3z" />
<glyph unicode="&#xac;" d="M646 226l20 16l-12 27l-13 -3q11 33 11 56l-10 55q0 23 21 38l-25 58q16 6 16 23l-8 29q-23 -1 -35.5 -3.5t-20 -4.5t-11.5 -4t-8 -2q-14 0 -37 10l2 -9q0 -21 -37 -22v2q0 28 -72 30l-5 -20q-17 15 -24 15t-7 -11l-21 4q-24 0 -36 -23l-27 23l-55 5q-26 0 -41.5 -6.5 t-29.5 -6.5q-12 0 -20 6t-20 6l-40 -8q-23 0 -40 41q11 8 11 18q0 15 -21 33q1 13 8 13v-1q5 0 5 18l-1 8q0 15 18 15l26 -5l21 44l16 -20l27 12l-3 13q33 -11 60 -11l77 10q27 0 34 -16l16 20q6 -16 23 -16l29 8q29 -17 49 -17q17 0 29.5 9t28.5 9q14 0 25.5 -6.5 t27.5 -6.5q25 0 68 20q16 -16 24 -16q7 0 8 13q30 -24 62 -24q22 0 42 10l32 -17q0 -36 32 -68l-12 -2l11 -74q-15 -17 -15 -24t11 -7l-5 -33q0 -26 12 -54l-11 3q9 -32 9 -54q0 -24 -10 -41t-10 -31l1 -2q0 -14 -6.5 -23.5t-6.5 -20.5q0 -18 20 -67q-17 7 -32 7 q-26 0 -33 -24q-32 2 -32 7v1q0 5 -18 5l-8 -1q-15 0 -15 19l5 25z" />
<glyph unicode="&#xad;" d="M365 558q6 -16 23 -16l29 8q29 -17 49 -17q17 0 29.5 9t28.5 9q14 0 25.5 -6.5t27.5 -6.5q19 0 68 20q16 -16 24 -16q7 0 8 13q30 -24 62 -24q23 0 42 10l32 -17q0 -36 32 -68l-12 -2q-5 -108 -103 -108l-26 2q-53 10 -79 10q-23 0 -23 -8v-1q-11 5 -23 5q-9 0 -18 -3 q-18 0 -37 10l3 -14q0 -16 -23 -23l5 8q0 28 -72 30l-5 -20q-9 15 -20 15h-4q-7 0 -7 -11l-33 5q-26 0 -54 -12l3 11q-32 -9 -53 -9q-25 0 -42 10q-15 9 -33 9h-3q-12 0 -20.5 6.5t-19.5 6.5q-13 0 -68 -20q7 13 7 35q0 29 -24 50q1 32 8 32l9 13l-5 13q0 15 18 15l26 -5 l21 44l16 -20l27 12l-3 13q39 -11 60 -11l77 10q27 0 34 -16z" />
<glyph unicode="&#xae;" d="M193 499l9 26l-40 -11l-5 6q1 7 1 12q0 20 -14 25l-7 -7q-6 24 -32 44l18 26l-24 2q0 30 -20 62.5t-20 53.5v2q0 25 -23 62l-2 17q15 22 15 42l-10 35q0 11 6 14.5t9 52.5q2 44 8 44l9 -7q11 17 11 29q0 17 -9 34q7 30 24 53.5t31 23.5q11 0 18 -7v20l88 32v21l24 -10 q44 49 99 56q32 2 54 2q36 0 48 -5l28 8q15 -12 34 -12q21 0 43 13l4 -8v-4q0 -22 38 -22q3 1 5 1q18 0 42 -22q27 -25 38 -29q21 -8 36 -50l48 -18q0 -18 12 -30t13 -29v-2q0 -27 28 -58l-7 -21l1 -36l26 -36q-3 -7 -3 -13q0 -8 6 -13q0 -29 -16 -60v-46q8 -14 8 -30 q0 -17 -12 -39q-43 -28 -50 -86q-6 -58 -148 -143h-74q-34 -31 -75 -31q-26 0 -60.5 9.5t-54.5 9.5l-79 -6zM304 551q8 -26 36 -26h6q26 0 42 9q15 8 39 8h5q26 0 42.5 -12t44.5 -12q10 14 49 28q36 12 36 22v1l-9 10q101 39 111 148l19 -11l-24 68l22 17l-17 27 q25 25 25 49q0 25 -25 49q9 5 9 10t-7 9q0 20 -9.5 35t-9.5 25l2 21q0 16 -51.5 36t-51.5 37l16 9l-15 1q0 33 -109 43l-7 23l-20 -31l-57 -7q-1 8 -13 8q-5 0 -12 -2q-34 0 -68 -40l-42 -4q-62 -2 -66 -60v-4q0 -34 -14 -68q-16 -36 -16 -46l10 -54l-8 -34q0 -11 4 -18 t4 -26q0 -15 -5 -40t-5 -55q0 -62 67 -93q61 -10 72 -50zM224 631q26 50 26 71q0 15 -11 20l-6 -12l-5 33q10 23 10 53q0 35 -13 70v42q18 4 18 17t-13 29q12 47 12 90q0 9 -1 18q47 19 74 19q21 0 24 -14q23 17 44 17q17 0 31 -7l50 -17l30 6q23 0 39 -17q15 -16 38 -16h3 q3 -6 6 -6t5 7l6 -5q3 1 5 1q19 0 24 -35l-8 -13l22 -29l4 -35l-19 -12l5 -16q-3 -55 -60 -79q-23 12 -31 12q-4 0 -5 -2l-26 -2q56 -20 56 -45t-6 -38l19 17l31 -40q11 9 19 9q4 0 8 -3q15 0 15 -14q0 -21 -41 -83q-16 8 -26 8q-5 0 -8 -3q-5 4 -8 4t-4 -4q-3 -7 -14 -8 q-12 0 -39 31q-1 55 -22 55l-4 -15l-25 68l-55 1q-8 27 -21 27q-14 0 -35 -24l5 -32q-8 -10 -8 -16t6 -8q-1 -3 -1 -7q0 -18 31 -23l5 -62h-65q-6 9 -16 9q-4 0 -9 -2q-5 5 -11 5t-12 -4zM368 883h32l30 25l16 -19l56 4q37 16 37 35q0 15 -27 32l-24 6q-18 31 -33 31 q-11 0 -20 -18l-43 -4q-16 16 -25 16q-5 0 -8 -5l-14 1l3 -20l16 -24l-23 -37z" />
<glyph unicode="&#xaf;" d="M351 1201q37 -21 64 -21l42 7q8 0 14 -3.5t10 -7.5t7 -7.5t6 -3.5q10 0 20 28l93 -1l33 -8l55 8q22 0 28 -18l14 1q41 0 49 -39q9 -12 9 -23q0 -31 -69 -47l25 -4q-31 -19 -70 -19l-41 5l28 15l-77 -8q-4 -13 -28 -13l-39 6l14 20q-2 0 -10 -4t-19.5 -8.5t-23.5 -8 t-22 -3.5q-23 0 -45 12l-7 -21q-20 23 -27 23q-2 0 -2.5 -2t-1.5 -5t-3.5 -5t-8.5 -2l-70 17q-8 0 -13.5 -2.5t-10.5 -5t-12 -5t-18 -2.5l-66 11l-34 -18l15 23q-55 34 -55 60q0 35 103 53l-2 13l108 -8z" />
<glyph unicode="&#xb0;" d="M333 1478l66 -3l18 6q9 -8 25 -11.5t33 -6.5t31.5 -6.5t19.5 -10.5q6 -8 12.5 -12t12.5 -8t11.5 -11t10.5 -21l31 -11v-4q0 -9 2.5 -13.5t5.5 -7.5t5.5 -6.5t2.5 -9.5l-1 -5q0 -9 20 -32l-5 -14l1 -23l16 -24l2 -17q0 -19 -10 -38v-32q9 -14 9 -32l-1 -10 q-16 -8 -23 -16.5t-11.5 -18.5t-8.5 -21.5t-14.5 -26t-29.5 -31.5t-53 -38h-47q-23 -20 -48 -20q-16 0 -33 7t-43 7l-51 -5l-63 35l5 16l-32 5l-31 40l12 18l-16 1v5q0 16 -4 26.5t-9 18l-9 13.5t-4 12l1 4q0 12 -15 38l12 9l-13 11v12q0 13 1 20t2.5 10.5t2.5 5.5t1 7 l-3 32q0 9 3.5 16t8 13t8 11.5t3.5 11.5l-3 11l48 59l40 13l17 22l28 4q17 21 53 26zM320 1075q5 -17 27 -17l25 2q20 0 33.5 -8t27.5 -8q12 0 26 7.5t14 18.5l-6 15q62 9 66 64l20 15l-23 13l3 22q13 12 13 24t-13 24q-4 35 -13 50t-18.5 20.5t-17.5 8t-10 13.5 q-3 16 -43 20q-11 -15 -19 -15q-10 0 -16 20l-41 4q-21 0 -30 -7t-13.5 -16t-10.5 -16.5t-21 -8.5q-14 -1 -19.5 -7.5t-7.5 -15t-3 -18t-6 -17.5l-5 -17l6 -68l-3 -33q0 -17 11 -26t25 -15t26.5 -12t15.5 -16z" />
<glyph unicode="&#xb1;" d="M366 318q40 -20 51 -20l4 3l-6 11l65 3q18 0 30.5 -2t21.5 -4.5t16.5 -4.5t16.5 -2q26 0 64 16q15 -12 22 -12t8 10q28 -19 58 -19q21 0 40 8l30 -15q0 -14 7 -14t19 12l6 -82l-16 -2v-3q0 -47 -67 -47q-18 0 -38 2t-38 4t-33.5 4t-25.5 2q-15 0 -22.5 -2t-12 -4t-8.5 -4 t-11 -2l-31 7v-14l-35 -4q-33 0 -47 19l-5 -16q-14 11 -24 11q-13 0 -20 -13l-67 -1l3 9q-29 -7 -49 -7q-19 0 -28.5 4.5t-22.5 4.5t-23 -6t-29 -6q-17 0 -73 14q7 10 7 28q0 23 -22 38q1 12 2.5 17t3 7.5t2.5 3t1 2.5q0 3 -4.5 13t-4.5 21q0 16 30 16h17l21 16l98 -11l73 8 q24 0 31 -13zM428 340q-31 0 -44 22l-18 -41q-6 19 -6 43q0 30 14 84l-15 71l16 15l-6 59q-3 8 -7 8t-8 -6q-29 5 -32 34q-33 -10 -66 -10q-19 0 -29 5.5t-23 5.5l-21 -6q-15 -7 -24.5 -10t-22.5 -3l-40 4q7 13 7 27q0 23 -22 36q1 14 2.5 20.5t6.5 16.5l-9 43q0 20 30 20 l17 -1l21 21l98 -14l73 10q24 0 31 -16l15 20v62l-23 -3l22 42l-7 80q0 53 20 53q12 0 33 -23l49 22l49 -12q-25 -37 -25 -70q0 -39 43 -63l-24 -31l21 -21l-11 -34q29 -17 59 -17q28 0 57 15q15 -16 22 -16t8 13q28 -24 58 -24q21 0 40 10l40 -11l-10 -7q0 -18 7 -18t19 15 l6 -92l-16 -3l4 -7q-4 -41 -33 -41l-88 21l-43 -9q-26 -11 -37 -15.5t-19 -4.5q-20 0 -24 21l-37 -19l13 -31q-20 -15 -20 -40t20 -60l-20 -17l25 -12q-20 -38 -20 -80l2 -27l-27 8l-21 -20l-13 14zM526 895q-37 26 -37 57q0 25 23 57z" />
<glyph unicode="&#xb2;" d="M495 1203q19 0 27 -17q55 -3 55 -24l-1 -7h6q35 0 35 -44q0 -23 -7 -51q16 -10 16 -23q0 -12 -20 -26l6 -34l-4 -32l-12 4q-16 0 -18 -38l-68 -55q-4 19 -8 19q-8 0 -18 -55q-23 26 -31 26q-5 0 -5 -9l3 -19l-32 -26l11 1q16 0 16 -9l-2 -8q0 -6 6 -6l34 8q18 0 35 -14 l21 22l14 -22q4 28 26 28q10 0 15.5 -4t8.5 -8.5t5 -8.5t7 -4q8 0 16 7l10 -43l-7 -27l-13 5l7 -24h-6q-17 0 -21 -13q-19 -16 -47 -16q-42 0 -103 33q-1 -7 -12 -7l-28 8q0 6 -6 6t-13 -5.5t-14.5 -11.5t-14.5 -11.5t-14 -5.5l-17 4q-8 -14 -20 -14q-14 0 -34 20 q10 14 10 24t-11 13l4 43q20 2 20 15l-8 21l16 17l-2 12q0 4 9.5 16.5t23.5 25.5t30 24t30 13l-14 11l63 29l29 39q7 -12 14 -12q6 0 10 7l3 45l28 14l-18 13q21 16 21 35q0 12 -10 25q-15 -9 -24 -9q-11 0 -11 15l1 9q-13 8 -22 8q-20 0 -36 -28q-12 9 -21 9q-18 0 -28 -31 q34 -1 34 -19l-3 -10l5 -18q0 -6 -3 -14.5t-10 -16.5t-17.5 -13.5t-26.5 -5.5q-59 0 -59 80v53q0 46 42 46h2q4 31 35 31l26 -4l-5 16l24 8q13 -9 32 -9z" />
<glyph unicode="&#xb3;" d="M276 724l-8 -2l4 8l-8 2v28l5 13l-5 16l27 45l26 -6q14 0 17 11h20q28 -9 29 -34l6 -2l2 -14q0 -11 -8 -13l-7 -9q8 -23 21 -23l24 6q12 0 18.5 -9.5t17.5 -9.5l17 5l16 -5q13 0 15 23l37 4l-14 20l28 33q0 7 -22 17l6 18q0 7 -9 9l-23 -2q-11 18 -25 18l-14 -4 q-5 8 -18 8l-24 -4q-10 13 -15 13l-5 -4q-11 8 -11 25q0 15 9 41h4q17 0 31 17l16 -4q16 0 27 21l-5 15l16 6v14q9 1 9 6l-9 10q21 19 21 29q0 5 -4 8.5t-4 11.5l2 13l-20 -8q-11 0 -11 16l2 16l-20 -12q-5 14 -13 14l-16 -6q-1 8 -4 8q-2 0 -3 -1q-5 -5 -11.5 -10.5 t-12 -10.5t-5.5 -7q0 -8 12 -21v-11q-17 -8 -22 -25l-10 3l-20 -13q-43 0 -44 33h-18l7 92h16q21 30 41 30l10 -2q11 23 35 23l20 -3l1 5h5q25 0 56 -11l16 6q12 -14 31 -14l12 1q10 -18 32 -22q3 -8 9.5 -13.5t12.5 -10.5t11 -10.5t5 -14.5l-2 -12q16 -23 16 -49 q0 -34 -32 -72l2 -13q0 -9 -4 -14.5t-9 -10t-9 -8.5t-4 -10q0 -10 12 -25l8 14q17 -26 38 -27l-4 -13q0 -11 14 -22l-8 -11v-23l15 1l1 -13q0 -29 -26 -55l1 -8q0 -31 -35 -48q-22 -36 -85 -38l-6 5q-5 0 -8 -17l-41 7q-16 0 -34 -7q-20 14 -47 14l-19 -2q-8 20 -15 20 l-7 -6l-26 12z" />
<glyph unicode="&#xb4;" d="M734 1352l9 -4l1 4q24 -17 24 -48q0 -16 -5.5 -24.5t-11.5 -13.5t-11.5 -9t-5.5 -10l6 -14q-62 -44 -73 -59l-17 4l-32 -28l25 -4q-14 -12 -28 -12l-9 1l1 -12l-13 -14l-17 16l7 -20l-27 -23q-28 -4 -28 -9l15 -6l-42 -42q-4 -25 -30 -25l-14 2v33l-24 -27q-23 8 -23 28 q0 17 10 36l20 5l-4 21q0 6 4 6l10 -5l17 18l-26 8q25 1 34.5 6.5t12.5 12t4 11.5t10 5l1 -1q3 0 10.5 4t15 10.5t13.5 14.5t6 17l-2 12l26 17l-1 13q0 26 13 26l12 -2q14 0 25 23l21 -23l-18 48l11 1l8 -7q8 0 19 23l-4 12l37 13q24 0 38 -9z" />
<glyph unicode="&#xb5;" d="M786 834q0 -17 -20 -40q20 -11 20 -32q0 -13 -11 -38l-8 -61q0 -15 3 -26t6 -21.5t6 -21.5t3 -26q0 -20 -8 -45.5t-8 -47.5q0 -36 26 -68v-47q-29 -47 -29 -82q0 -32 21 -59l-11 -62l40 20l62 -28l-12 -69l-21 2l23 -42q-12 -45 -53 -45l-24 3l-37 -9l-34 19 q-11 -11 -31 -11q-17 0 -48 11q-18 63 -31 63q-9 0 -16 -39l-40 -20l-33 23l-6 -16l-50 -42l-21 33l-14 -36h-6q-72 0 -127 48l29 -64l-11 -100l30 -31l-30 2l6 -63q22 -31 22 -59q0 -33 -34 -55l-55 -10l-9 -23l-48 4q-36 55 -66 55q-10 0 -21 -8l-32 99l49 -4l-11 29 q-17 14 -17 28q0 9 10 19t22.5 19.5t22.5 17t10 12.5q0 4 -4 6t-8.5 3.5t-8.5 4t-4 7.5q0 13 20 36q-25 19 -25 52q0 30 19 68l-9 57l17 41q-29 6 -29 87l2 50l23 25q-17 17 -17 26q0 11 19 12l-1 48l-11 -2q-5 0 -5 20q0 23 17 86v38q-29 23 -29 50q0 18 13 37l-18 62v61 l9 13q-6 14 -21 14l-52 -14q-19 0 -31 20l-9 47l22 43q19 8 35 8q15 0 39 -8q28 12 61 12q30 0 65 -12l43 23q0 -14 32 -28q18 -29 18 -59q0 -17 -5 -27.5t-11.5 -18.5t-11.5 -16t-5 -19q0 -16 7 -33q-20 -26 -20 -44q0 -19 21 -32l9 -46q-21 -42 -21 -69q0 -34 37 -40 l-46 -91h27l1 -99q-13 10 -22 10q-12 0 -12 -20l1 -10l13 2q19 0 19 -26q0 -21 -7 -43q19 -70 70 -70h5l3 19q21 -7 46 -7q55 0 96 45l38 -14l18 54q31 19 31 48l-2 16q31 43 31 61q0 4 -3 6t-7 4t-7 5t-3 10l4 24q0 25 -18 66q23 48 23 69q0 27 -30 27l20 28q-14 17 -14 44 q0 26 12 62l-26 23l-6 33l-25 -3q-71 0 -90 102q25 18 48 48l67 -8q29 0 38 10l27 -26q41 26 68 26q37 0 52 -45q10 -10 10 -25z" />
<glyph unicode="&#xb6;" d="M275 -30q-8 35 -41 42q-17 54 -17 71q0 13 7 13l3 -1l29 62q23 -20 42 -20q30 0 48 51l8 -1q10 0 10 6l-8 15l45 8v250h-8q-8 0 -13.5 11t-10 24t-8 24t-6.5 11q-6 0 -14 -20l-60 43q-35 -12 -66 -12q-52 0 -88 37l-9 75l23 -7l-25 71l-12 -4q-20 65 -20 117q0 67 28 123 l17 -5l41 142l31 -2q75 0 117 63q40 5 78 8t76 3q102 0 200 -21l135 16q71 -32 71 -83l-1 -12l-35 -38q0 19 -15 19q-14 0 -49 -20l8 -11l-44 -8l-64 19q-15 -12 -15 -40q0 -26 12 -66l-10 -14l10 -28v-131l-4 1q-5 0 -5 -8l16 -77q0 -17 -11 -20l-6 -80q31 -31 31 -64 q0 -28 -23 -57l-4 -78q0 -62 15 -62l10 5l-16 -118q65 -23 65 -47l-1 -7l123 -23q13 -19 13 -43q0 -23 -13 -42l-9 1q-37 0 -72 -38l13 -14h-91l7 6h-318l-50 33zM440 653q35 -26 54 -26q24 0 30 34q13 -15 21 -15q6 0 6 12q0 21 -21 86l22 33l-16 130l13 -4q6 0 6 8l-22 76 q0 14 10 15l-19 27l-20 1q-33 0 -33 -23v-5l-38 -9l26 -8l5 -81q-57 -42 -57 -62q0 -19 52 -19h10v-162zM509 171l43 52l-16 128l15 -1q-5 31 -8 56.5t-3 47.5q0 34 6 60l-55 19v-69l-23 -199l13 20l6 -53q-16 -22 -16 -32q0 -5 5 -5l18 7l7 -31h8z" />
<glyph unicode="&#xb7;" d="M456 521q-144 49 -144 146q0 29 9 34q5 7 5 12q0 6 -8 7v11q8 13 8 35q0 10 -2 23q52 54 83 54l7 -1q4 1 4 11l9 7q1 -4 4 -4q2 0 4 2q4 2 4 5q0 1 -1 3q6 0 7.5 8t13.5 8q2 1 4 1q5 0 14 -4q11 0 11 6q0 1 -1 3q1 4 15 4q14 -4 24 -4q5 0 9 1q48 -22 110 -63 q35 -43 42 -65.5t7 -49.5q-9 -11 -11 -63t-57 -94q-94 -30 -132 -31l-37 8z" />
<glyph unicode="&#xb8;" d="M414 -191l2 8q0 17 -42 26l-2 14q34 7 34 45l-1 12l13 -12l4 38l-16 6l24 17l20 37v-50l20 8l18 -26l-10 -2l-5 -16l3 -18l17 -4l14 -20l14 2q33 0 44 -30l45 -2l-29 -11q18 -12 18 -37l-3 -22l-13 3l12 -33q0 -16 -6 -16l-7 3l-1 -16l-23 -14l1 -10l-14 6q-14 0 -21 -24 l-19 5q-23 0 -53 -21q-13 10 -20 10l-36 -16l1 13l-26 2l5 -11l-22 19l-23 1q-9 19 -54 29l-9 15l11 8q0 2 -1.5 3t-4 2t-4 4t-1.5 10l7 38l7 -4q9 0 27 15l30 -5l-8 -11l53 -8l-1 -4q0 -13 39 -13h10l-5 -15l14 -1q17 0 26 12q-17 9 -17 21q0 9 9 20q16 -21 28 -21l8 2 l-8 10l3 11q0 5 -5 6t-11.5 2t-11.5 3.5t-5 10.5v4z" />
<glyph unicode="&#xb9;" d="M285 680l13 63l17 -6q8 0 8 11l-1 7l44 -2q16 0 29 7l-9 41l17 28l-19 16q15 13 15 36q0 19 -10 42l14 24l-13 14l17 29q-11 17 -11 32l9 33q0 11 -8 11q-10 0 -15 -6t-16 -14t-33 -15.5t-67 -9.5l44 28l-33 -1l64 53l-12 21q38 8 57 62q10 -22 16 -22q7 0 11 25l49 20 q2 -11 20 -11q19 0 49 10q-20 -35 -20 -57q0 -8 3.5 -14.5t7 -12t7 -10.5t3.5 -9q0 -7 -5 -10.5t-5 -12.5q0 -12 11 -39l-21 -10v-16q14 -11 14 -18q0 -9 -19 -15l5 -39l15 -5v-46l-15 3l18 -87l-16 -4l16 -30q24 0 24 -10l-5 -12l18 -6q19 8 32 8q39 0 46 -64l-19 -37 l-33 26l-9 -18l-23 -7q-16 0 -23 18l-71 -5l-24 -7l-17 20q-18 -20 -31 -20q-11 0 -19 11l-45 -10q-9 11 -14 11t-5 -13z" />
<glyph unicode="&#xba;" d="M353 1192l66 -3l18 6q9 -8 25.5 -12t33.5 -7t31 -6.5t19 -10.5q6 -8 12.5 -12t12.5 -8.5t11.5 -11.5t10.5 -21l31 -12v-4q0 -9 2.5 -13.5t5.5 -7.5t5.5 -6.5t2.5 -10.5l-1 -5q0 -10 20 -33l-5 -14l1 -24l16 -24l2 -18q0 -20 -10 -39v-32q9 -14 9 -33l-1 -10 q-16 -9 -23 -18t-11 -19t-8 -22t-14.5 -26.5t-30 -32t-53.5 -38.5h-47q-23 -21 -48 -21q-16 0 -33 7t-43 7l-51 -5l-63 36l5 17l-32 5l-31 41l12 18l-16 1v5q0 16 -4 27t-9 19t-9 14.5t-4 12.5l1 4q0 12 -15 38l12 10l-13 11v12q0 13 1 20t2.5 10.5t2.5 6t1 7.5l-3 33 q0 9 3.5 16t8 13.5t8 12t3.5 11.5l-3 12l48 60l40 14l17 22l28 4q17 23 53 27zM360 802q3 -14 20 -14l19 1q15 0 25 -6.5t21 -6.5q8 0 18.5 6t10.5 16l-4 12q45 8 49 54l15 12l-17 11l2 19q10 10 10 20t-10 20q-2 28 -8.5 40t-14 17t-14 7.5t-7.5 11.5q-2 14 -32 17 q-8 -12 -14 -12q-7 0 -12 17l-30 3q-17 0 -23.5 -6t-10 -13t-7.5 -13.5t-16 -7.5q-10 -1 -14 -6.5t-5.5 -13t-2.5 -15.5t-4 -14l-4 -13l2 -86q0 -13 8.5 -20.5t19 -13t19.5 -10.5t11 -13z" />
<glyph unicode="&#xbb;" d="M542 440l-32 -4q-12 -49 -79 -91q-66 -40 -66 -75v-1q-57 -16 -86 -60q-19 0 -19 -12q0 -9 9 -23q-57 -11 -73 -44l-14 12l-44 -19q-48 16 -59 83q53 0 54 48q41 5 45 51q126 59 126 89q0 10 -13 17l23 16q65 15 65 45q0 26 -50 64q-5 42 -68 66q-4 33 -17 33l-12 -7 q-39 57 -120 115l-9 -1q-14 0 -14 14q0 13 7 26q-27 18 -27 32q0 22 55 37l37 -3l72 -75v-19l31 -1l1 -28l24 8l50 -30q11 -40 69 -48l-18 -18l8 1q25 0 47 -21q11 -64 70 -89l-3 -21q0 -25 26 -25l21 3zM829 487l-28 -11l17 -25q-23 -9 -32.5 -22.5t-18.5 -28.5t-23 -29.5 t-46 -24.5v-3q0 -36 -49 -37q-66 -30 -66 -63l1 -8q-71 -17 -96 -73l-14 12l-66 -49q-49 17 -59 83q52 0 54 48q31 3 31 21l-4 15l61 49l32 -5l-4 39q61 6 61 20q0 8 -19 18l23 16q65 15 65 45q0 26 -50 64q-4 42 -68 66q-5 33 -17 33l-12 -7q-38 56 -120 115l-9 -1 q-14 0 -14 14q0 13 7 26q-27 18 -27 32q0 22 55 37l37 -3q31 -38 72 -75v-19l31 -1l1 -28l24 8l50 -30q10 -41 69 -48l-18 -18l8 1q23 0 33.5 -11.5t14.5 -25t6 -25t8 -11.5q5 0 14 11z" />
<glyph unicode="&#xbc;" d="M725 550q16 0 31 -17l-4 -19q0 -16 14 -33v-47l-5 -18l6 -23l-8 -39q0 -12 5 -22.5t5 -17.5l-6 -21l10 -35l-2 -45l44 -18l-1 -6q0 -14 17 -22q-4 -18 -28 -29l-4 7q-8 -17 -24 -17l-12 2q-9 -12 -9 -24q0 -6 4.5 -14.5t11 -16t13.5 -12.5t12 -5l11 5q4 0 12 -11t8 -30 l-6 -15q-13 -4 -24 -22l-24 -1q-16 16 -43 16l-29 -5l-11 6l-38 -8q-21 0 -40 10l-14 -3q-4 15 -14 28q0 31 29 31l11 -1q17 17 34 22l1 19l11 -1q9 0 9 4l-9 12l4 11q0 8 -11 13t-28 5q-31 0 -45 -7l-12 9l-34 -7l-12 10q-18 -12 -30 -12q-10 0 -14 10l-32 4l-12 -4l-18 6 l3 21l-7 3v7q0 13 7 24.5t16 23t19 24.5t16 30q11 9 16.5 17.5t9 16t7 13t9.5 8.5q12 5 24 35l10 -4q14 0 25 51l11 -1q2 28 11 40l23 16l11 20q12 0 23 29l20 16zM667 414q-6 -26 -28 -42v-2q0 -12 -12 -18l-6 -20l-20 -6v-4q0 -14 11 -28h-3q-24 0 -24 -30v-2 q-28 0 -28 -5l-18 -36l7 -2q11 0 33 13q6 -13 16 -13q9 0 20 8q14 -6 17 -19l17 16l11 -1q12 0 12 8l-4 14q7 4 7 9q0 8 -21 22l23 11q-11 11 -11 18l5 13q0 8 -9 16q21 16 21 28q0 7 -7 13l11 16l-6 21zM41 256l8 55q43 19 58 69l7 -1q18 0 21 25q73 15 114 74q27 41 45 41 q9 0 15 -8q2 26 20 43q79 19 110 92q33 6 49 42q66 13 92 83l34 -1l40 29l20 -12q21 36 64 58l9 27q35 4 88 45q37 -13 37 -46q0 -25 -21 -59l-69 -31q-18 -41 -60 -72l-1 -20l-14 5l3 -14q-16 -10 -33 -10l-21 4q-27 -9 -48 -70l-14 16q-25 -13 -25 -25q0 -7 9 -14 q-53 -20 -69 -60l-39 -5l-7 -16l-25 -16l15 -14l-24 -17l-13 1q-31 0 -50 -24l6 -14q0 -9 -18.5 -19.5t-45.5 -22t-57.5 -22.5t-54.5 -22q-39 -19 -81 -64l-9 4q-13 0 -25 -37l-38 -5zM87 680l13 63l17 -6q8 0 8 11l-1 7l44 -2q16 0 29 7l-9 41l17 28l-19 16q15 13 15 36 q0 19 -10 42l14 24l-13 14l17 29q-11 17 -11 32l9 33q0 11 -8 11q-10 0 -15 -6t-16 -14t-33 -15.5t-67 -9.5l44 28l-33 -1l64 53l-12 21q38 8 57 62q10 -22 16 -22q7 0 11 25l49 20q2 -11 20 -11q19 0 49 10q-20 -35 -20 -57q0 -8 3.5 -14.5t7 -12t7 -10.5t3.5 -9 q0 -7 -5 -10.5t-5 -12.5q0 -12 11 -39l-21 -10v-16q14 -11 14 -18q0 -9 -19 -15l5 -39l15 -5v-46l-15 3l18 -87l-16 -4l16 -30q24 0 24 -10l-5 -12l18 -6q19 8 32 8q39 0 46 -64l-19 -37l-33 26l-9 -18l-23 -7q-16 0 -23 18l-71 -5l-24 -7l-17 20q-18 -20 -31 -20 q-11 0 -19 11l-45 -10q-9 11 -14 11t-5 -13z" />
<glyph unicode="&#xbd;" d="M695 543q19 0 27 -17q55 -3 55 -24l-1 -7h6q35 0 35 -44q0 -31 -7 -51q16 -10 16 -23q0 -12 -20 -26l6 -34q0 -25 -4 -32l-12 4q-16 0 -18 -38l-68 -55q-4 19 -8 19q-8 0 -18 -55q-23 26 -31 26q-5 0 -5 -9l3 -19l-29 -18l8 -7q16 0 16 -9l-2 -8q0 -6 6 -6l34 8 q18 0 35 -14l21 22l14 -22q4 28 26 28q10 0 15.5 -4t8.5 -8.5t5 -8.5t7 -4q9 0 16 7l10 -43l-7 -27l-13 5l7 -24h-6q-17 0 -21 -13q-20 -15 -47 -15q-41 0 -103 32q-1 -7 -12 -7q-15 0 -28 7v1q0 6 -6 6t-13 -5.5t-14.5 -11.5t-14.5 -11.5t-14 -5.5l-17 4q-7 -13 -20 -13 q-15 0 -34 19q10 13 10 24q0 10 -11 13l4 43q20 2 20 15l-8 21l16 17l-2 12q0 4 9.5 16.5t23.5 25.5t30 24t30 13l-14 11l63 29l29 39q7 -12 14 -12q6 0 10 7l3 45l28 14l-18 13q21 16 21 35q0 12 -10 25q-15 -9 -24 -9q-11 0 -11 15l1 9l-22 8q-20 0 -36 -28q-12 9 -21 9 q-18 0 -28 -31q34 -1 34 -19l-3 -10l5 -18q0 -6 -3 -14.5t-10 -16.5t-17.5 -13.5t-26.5 -5.5q-59 0 -59 80v53q0 46 42 46h2q4 31 35 31l26 -4l-5 16l24 8q13 -9 32 -9zM41 256l8 55q43 19 58 69l7 -1q18 0 21 25q73 15 114 74q27 41 45 41q9 0 15 -8q2 26 20 43 q79 19 110 92q33 6 49 42q66 13 92 83l34 -1l40 29l20 -12q21 36 64 58l9 27q35 4 88 45q37 -13 37 -46q0 -25 -21 -59l-69 -31q-18 -41 -60 -72l-1 -20l-14 5l3 -14q-16 -10 -33 -10l-21 4q-27 -9 -48 -70l-14 16q-25 -13 -25 -25q0 -7 9 -14q-53 -20 -69 -60l-39 -5 l-7 -16l-25 -16l15 -14l-24 -17l-13 1q-31 0 -50 -24l6 -14q0 -9 -18.5 -19.5t-45.5 -22t-57.5 -22.5t-54.5 -22q-39 -19 -81 -64l-9 4q-13 0 -25 -37l-38 -5zM87 680l13 63l17 -6q8 0 8 11l-1 7l44 -2q16 0 29 7l-9 41l17 28l-19 16q15 13 15 36q0 19 -10 42l14 24l-13 14 l17 29q-11 17 -11 32l9 33q0 11 -8 11q-10 0 -15 -6t-16 -14t-33 -15.5t-67 -9.5l44 28l-33 -1l64 53l-12 21q38 8 57 62q10 -22 16 -22q7 0 11 25l49 20q2 -11 20 -11q19 0 49 10q-20 -35 -20 -57q0 -8 3.5 -14.5t7 -12t7 -10.5t3.5 -9q0 -7 -5 -10.5t-5 -12.5 q0 -12 11 -39l-21 -10v-16q14 -11 14 -18q0 -9 -19 -15l5 -39l15 -5v-46l-15 3l18 -87l-16 -4l16 -30q24 0 24 -10l-5 -12l18 -6q19 8 32 8q39 0 46 -64l-19 -37l-33 26l-9 -18l-23 -7q-16 0 -23 18l-71 -5l-24 -7l-17 20q-18 -20 -31 -20q-11 0 -19 11l-45 -10 q-9 11 -14 11t-5 -13z" />
<glyph unicode="&#xbe;" d="M725 550q16 0 31 -17l-4 -19q0 -16 14 -33v-47l-5 -18l6 -23l-8 -39q0 -12 5 -22.5t5 -17.5l-6 -21l10 -35l-2 -45l44 -18l-1 -6q0 -14 17 -22q-4 -18 -28 -29l-4 7q-8 -17 -24 -17l-12 2q-9 -12 -9 -24q0 -6 4.5 -14.5t11 -16t13.5 -12.5t12 -5l11 5q4 0 12 -11t8 -30 l-6 -15q-13 -4 -24 -22l-24 -1q-16 16 -43 16l-29 -5l-11 6l-38 -8q-21 0 -40 10l-14 -3q-4 15 -14 28q0 31 29 31l11 -1q17 17 34 22l1 19l11 -1q9 0 9 4l-9 12l4 11q0 8 -11 13t-28 5q-31 0 -45 -7l-12 9l-34 -7l-12 10q-18 -12 -30 -12q-10 0 -14 10l-32 4l-12 -4l-18 6 l3 21l-7 3v7q0 13 7 24.5t16 23t19 24.5t16 30q11 9 16.5 17.5t9 16t7 13t9.5 8.5q12 5 24 35l10 -4q14 0 25 51l11 -1q2 28 11 40l23 16l11 20q12 0 23 29l20 16zM667 414q-6 -26 -28 -42v-2q0 -12 -12 -18l-6 -20l-20 -6v-4q0 -14 11 -28h-3q-24 0 -24 -30v-2 q-28 0 -28 -5l-18 -36l7 -2q11 0 33 13q6 -13 16 -13q9 0 20 8q14 -6 17 -19l17 16l11 -1q12 0 12 8l-4 14q7 4 7 9q0 8 -21 22l23 11q-11 11 -11 18l5 13q0 8 -9 16q21 16 21 28q0 7 -7 13l11 16l-6 21zM41 256l8 55q43 19 58 69l7 -1q18 0 21 25q73 15 114 74q27 41 45 41 q9 0 15 -8q2 26 20 43q79 19 110 92q33 6 49 42q66 13 92 83l34 -1l40 29l20 -12q21 36 64 58l9 27q35 4 88 45q37 -13 37 -46q0 -25 -21 -59l-69 -31q-18 -41 -60 -72l-1 -20l-14 5l3 -14q-16 -10 -33 -10l-21 4q-27 -9 -48 -70l-14 16q-25 -13 -25 -25q0 -7 9 -14 q-53 -20 -69 -60l-39 -5l-7 -16l-25 -16l15 -14l-24 -17l-13 1q-31 0 -50 -24l6 -14q0 -9 -18.5 -19.5t-45.5 -22t-57.5 -22.5t-54.5 -22q-39 -19 -81 -64l-9 4q-13 0 -25 -37l-38 -5zM78 724l-8 -2l4 8l-8 2v28l5 13l-5 16l27 45l26 -6q14 0 17 11h20q28 -9 29 -34l6 -2 l2 -14q0 -11 -8 -13l-7 -9q8 -23 21 -23l24 6q12 0 18.5 -9.5t17.5 -9.5l17 5l16 -5q13 0 15 23l37 4l-14 20l28 33q0 7 -22 17l6 18q0 7 -9 9l-23 -2q-11 18 -25 18l-14 -4q-5 8 -18 8l-24 -4q-10 13 -15 13l-5 -4q-11 8 -11 25q0 15 9 41h4q17 0 31 17l16 -4q16 0 27 21 l-5 15l16 6v14q9 1 9 6l-9 10q21 19 21 29q0 5 -4 8.5t-4 11.5l2 13l-20 -8q-11 0 -11 16l2 16l-20 -12q-5 14 -13 14l-16 -6q-1 8 -4 8q-2 0 -3 -1q-5 -5 -11.5 -10.5t-12 -10.5t-5.5 -7q0 -8 12 -21v-11q-17 -8 -22 -25l-10 3l-20 -13q-43 0 -44 33h-18l7 92h16 q21 30 41 30l10 -2q11 23 35 23l20 -3l1 5h5q25 0 56 -11l16 6q12 -14 31 -14l12 1q10 -18 32 -22q3 -8 9.5 -13.5t12.5 -10.5t11 -10.5t5 -14.5l-2 -12q16 -23 16 -49q0 -34 -32 -72l2 -13q0 -9 -4 -14.5t-9 -10t-9 -8.5t-4 -10q0 -10 12 -25l8 14q17 -26 38 -27l-4 -13 q0 -11 14 -22l-8 -11v-23l15 1l1 -13q0 -29 -26 -55l1 -8q0 -31 -35 -48q-22 -36 -85 -38l-6 5q-5 0 -8 -17l-41 7q-16 0 -34 -7q-20 14 -47 14l-19 -2q-8 20 -15 20l-7 -6l-26 12z" />
<glyph unicode="&#xbf;" d="M441 -307q-52 0 -70 32l-18 -23h-30l-8 56l-15 -34l-11 4q-28 25 -68 25h-11q-15 51 -59 92l2 53l-22 12v125l-21 17q43 22 43 62l-3 9l25 -12l35 68l13 -5q11 0 11 21l-1 13l22 -4l34 32q58 9 93 65l18 8l6 35q0 37 -32 66v32l26 16q-8 8 -8 18q0 16 16 33q0 -26 26 -26 q13 -1 21 -1q18 0 19 4q30 0 61 -12l-4 -40q0 -33 16 -33l14 7l2 -47q0 -82 -69 -96q-10 -52 -54 -64l5 -17q-27 -1 -39 -6.5t-17 -12t-7 -11.5t-8 -5q-2 -1 -3 -1q-3 0 -5 2q-3 4 -6 4q-13 0 -18 -69l-23 26q-2 -32 -38 -32l-11 1l15 -69h-6q-17 0 -17 -5q0 -12 19 -16v-80 h5q36 0 36 -37v-8h41q17 -21 48 -21q21 0 74 21l4 -4q0 -19 9 -19q19 0 71 73q13 -61 22 -61q8 0 11 53l49 3q0 4 -62 15q8 27 8 36t-21 13v16q21 8 21 16t-23 19q3 65 63 65q28 0 43 -7l-20 20l56 22q3 -25 18 -25q11 0 31 17l1 -51l26 13q5 -33 26 -60q-4 -16 -26 -41 q7 -15 7 -48q0 -62 -59 -89q-15 -50 -67 -60q-10 -31 -38 -31l-18 3l-36 -13l6 -16h-67l9 -24q-25 13 -42 13q-10 0 -10 -8l2 -9zM445 576q-124 27 -124 109q-2 3 -2 6t3 5l-33 20l24 18q-20 32 -20 54q0 9 4 15t9 11l9 9t4 8q0 8 -15 14l108 69q11 -11 26 -11q18 0 50 20 q-11 -17 -11 -27q0 -12 13 -18q4 28 32 28q15 0 20.5 -5.5t10 -12.5t12.5 -13q4 -3 9 -3t12 3q6 -7 6 -12q0 -2 -1 -4q0 -24 28 -37q-7 -13 -7 -24q0 -14 12 -25l-11 -89q-47 -11 -47 -39l-3 -4q4 0 4 -6q0 -16 -12 -16q-4 0 -10 -1q-5 0 -10 6q-6 0 -6 -6q8 -9 8 -22 l-39 -1z" />
<glyph unicode="&#xc0;" d="M101 1591l-6 18l10 21q0 5 -9 7q19 18 48 18q20 0 29.5 -5.5t14 -12t8 -12t11.5 -5.5l14 6q25 -58 46 -58l9 4v-36l28 -32l4 25q12 -14 12 -28l-1 -9l12 1l14 -13l-16 -17l20 7l23 -27q4 -28 9 -28l6 15l42 -42q25 -4 25 -30l-2 -14h-33l27 -24q-8 -23 -28 -23 q-17 0 -36 10l-5 20l-21 -4q-6 0 -6 4l5 10l-18 17l-8 -26q-1 25 -6.5 34.5t-11.5 12.5t-11 3.5t-5 8.5v2q0 4 -4 11.5t-10 15t-14.5 13.5t-17.5 6l-12 -2l-17 26l-13 -1q-26 0 -26 13l2 12q0 14 -23 25l23 21l-48 -18l-1 11l7 8q0 8 -23 19l-12 -4l-13 37q8 3 8 9z M531 1130l-1 -14l34 -43l-1 -6q0 -9 9 -15l-5 -5l5 -4l-11 -24l22 -36q0 -14 11 -25l-6 -5l8 -3l-5 -6l3 -7q-11 -8 -11 -16l5 -14h-6q12 -23 12 -47l-3 -27l45 -48v-19q-8 -14 -8 -25q0 -14 11 -31l-1 -15q0 -32 22 -60l-3 -21q0 -18 11 -38l-1 -12q0 -25 23 -46l-1 -13 q0 -39 33 -73l-7 -3l9 -7q-6 -2 -6 -9l4 -15l-14 -27q9 -20 9 -40l-1 -16l16 -27q0 -14 11 -34l-4 -7l7 -4q-8 -2 -8 -9l11 -10l-2 -10q0 -12 12 -22l8 -43l30 -34l42 10q41 -21 41 -55q0 -11 -3.5 -23t-11 -22t-19 -16.5t-27.5 -6.5l-49 11l-29 -5l-3 -5l-84 -4l-4 4h-91 q-30 22 -37 58l-6 3q11 14 11 32q50 36 50 62q0 11 -7 18q16 16 16 31q0 19 -27 36l1 5q0 8 -9 16q13 16 13 32q0 11 -7.5 22.5t-27.5 11.5h-42q-22 0 -29 -4l-59 24q-25 -22 -59 -22l-24 3l-16 -8q-7 -10 -7 -24l4 -19l-8 -21q-17 -26 -17 -55l1 -17q-10 -16 -10 -36v-7 q26 -21 64 -27q8 -11 26 -21q-6 -35 -32 -64l-24 -13q-19 0 -22 -15l-23 -4h-96l-19 13q-23 -12 -47 -12q-18 0 -27.5 4t-15.5 11t-10 16t-12 19v53l12 9l-12 4l8 11q16 3 29 16l40 5l22 32l10 33h-10l21 16l-8 32l8 18l-3 14q26 20 26 50l-2 19q6 6 6 15l-3 12q17 11 17 28 l3 22l-4 14q22 22 22 53l-6 32l14 -5l-8 21q16 22 16 48v8q12 13 12 32l-2 14q14 17 14 36l-3 20q15 24 16 53l9 13q-2 4 -2 8q0 3 2 5q2 5 2 14q10 7 18 22l-4 5l6 -1l3 20q0 16 -7 29q23 32 23 70l-2 23q11 14 11 34l7 19l3 35q15 18 16 43l8 16h9q-11 3 -11 21l29 38 l-6 7l6 -2l19 11l17 -2q18 0 31 7q84 -14 84 -71zM415 911l2 -14q-11 -14 -18 -27.5t-11 -26.5q3 -19 19 -32l-8 -5l8 -1v-28q0 -7 -4 -12.5t-8.5 -10t-8 -9.5t-3.5 -11l3 -15q0 -5 -4.5 -10t-10 -11.5t-11.5 -14.5t-9 -18q19 -19 19 -28t-5 -17t-11.5 -15.5t-11.5 -15.5 t-5 -17q0 -14 6 -27l-7 -3l7 -6q-7 -33 -22 -37l36 -15l-36 2q40 -30 79 -30q32 0 63 19q55 1 55 32q0 14 -7 27q13 22 13 50l-5 53l3 12l5 2q-11 15 -27 19l-10 20q-3 -4 -5 -4q-1 0 -1 1q-2 3 -2 5q0 1 1 2q0 3 1 8l-16 -6q-17 5 -17 12q0 12 12 23q19 -13 27 -13q7 0 7 5 t-2 14q9 7 9 14q0 2 -2.5 8.5t-7 15t-9.5 16t-11 12.5q11 14 11 25q0 25 -38 55l3 24q0 29 -22 30q-13 -10 -13 -26z" />
<glyph unicode="&#xc1;" d="M734 1602l9 -4l1 4q24 -17 24 -48q0 -16 -5.5 -24.5t-11.5 -13.5t-11.5 -9t-5.5 -10l6 -14q-62 -44 -73 -59l-17 4l-32 -28l25 -4q-14 -12 -28 -12l-9 1l1 -12l-13 -14l-17 16l7 -20l-27 -23q-28 -4 -28 -9l15 -6l-42 -42q-4 -25 -30 -25l-14 2v33l-24 -27q-23 8 -23 28 q0 17 10 36l20 5l-4 21q0 6 4 6l10 -5l17 18l-26 8q25 1 34.5 6.5t12.5 12t4 11.5t10 5l1 -1q3 0 10.5 4t15 10.5t13.5 14.5t6 17l-2 12l26 17l-1 13q0 26 13 26l12 -2q14 0 25 23l21 -23l-18 48l11 1l8 -7q8 0 19 23l-4 12l37 13q24 0 38 -9zM531 1130l-1 -14l34 -43l-1 -6 q0 -9 9 -15l-5 -5l5 -4l-11 -24l22 -36q0 -14 11 -25l-6 -5l8 -3l-5 -6l3 -7q-11 -8 -11 -16l5 -14h-6q12 -23 12 -47l-3 -27l45 -48v-19q-8 -14 -8 -25q0 -14 11 -31l-1 -15q0 -32 22 -60l-3 -21q0 -18 11 -38l-1 -12q0 -25 23 -46l-1 -13q0 -39 33 -73l-7 -3l9 -7 q-6 -2 -6 -9l4 -15l-14 -27q9 -20 9 -40l-1 -16l16 -27q0 -14 11 -34l-4 -7l7 -4q-8 -2 -8 -9l11 -10l-2 -10q0 -12 12 -22l8 -43l30 -34l42 10q41 -21 41 -55q0 -11 -3.5 -23t-11 -22t-19 -16.5t-27.5 -6.5l-49 11l-29 -5l-3 -5l-84 -4l-4 4h-91q-30 22 -37 58l-6 3 q11 14 11 32q50 36 50 62q0 11 -7 18q16 16 16 31q0 19 -27 36l1 5q0 8 -9 16q13 16 13 32q0 11 -7.5 22.5t-27.5 11.5h-42q-22 0 -29 -4l-59 24q-25 -22 -59 -22l-24 3l-16 -8q-7 -10 -7 -24l4 -19l-8 -21q-17 -26 -17 -55l1 -17q-10 -16 -10 -36v-7q26 -21 64 -27 q8 -11 26 -21q-6 -35 -32 -64l-24 -13q-19 0 -22 -15l-23 -4h-96l-19 13q-23 -12 -47 -12q-18 0 -27.5 4t-15.5 11t-10 16t-12 19v53l12 9l-12 4l8 11q16 3 29 16l40 5l22 32l10 33h-10l21 16l-8 32l8 18l-3 14q26 20 26 50l-2 19q6 6 6 15l-3 12q17 11 17 28l3 22l-4 14 q22 22 22 53l-6 32l14 -5l-8 21q16 22 16 48v8q12 13 12 32l-2 14q14 17 14 36l-3 20q15 24 16 53l9 13q-2 4 -2 8q0 3 2 5q2 5 2 14q10 7 18 22l-4 5l6 -1l3 20q0 16 -7 29q23 32 23 70l-2 23q11 14 11 34l7 19l3 35q15 18 16 43l8 16h9q-11 3 -11 21l29 38l-6 7l6 -2 l19 11l17 -2q18 0 31 7q84 -14 84 -71zM415 911l2 -14q-11 -14 -18 -27.5t-11 -26.5q3 -19 19 -32l-8 -5l8 -1v-28q0 -7 -4 -12.5t-8.5 -10t-8 -9.5t-3.5 -11l3 -15q0 -5 -4.5 -10t-10 -11.5t-11.5 -14.5t-9 -18q19 -19 19 -28t-5 -17t-11.5 -15.5t-11.5 -15.5t-5 -17 q0 -14 6 -27l-7 -3l7 -6q-7 -33 -22 -37l36 -15l-36 2q40 -30 79 -30q32 0 63 19q55 1 55 32q0 14 -7 27q13 22 13 50l-5 53l3 12l5 2q-11 15 -27 19l-10 20q-3 -4 -5 -4q-1 0 -1 1q-2 3 -2 5q0 1 1 2q0 3 1 8l-16 -6q-17 5 -17 12q0 12 12 23q19 -13 27 -13q7 0 7 5t-2 14 q9 7 9 14q0 2 -2.5 8.5t-7 15t-9.5 16t-11 12.5q11 14 11 25q0 25 -38 55l3 24q0 29 -22 30q-13 -10 -13 -26z" />
<glyph unicode="&#xc2;" d="M445 1559h17l50 -53q81 -18 103 -81q41 -35 41 -44q0 -4 -7 -4l-8 1q7 -21 21 -21l14 4q3 -26 58 -50l-15 -15l20 -33q-12 -31 -56 -31l-24 2l2 8q0 15 -33 17q-3 33 -49 46l9 17l-35 33l-58 29l41 -2q-14 21 -52 21l-22 -1l-13 19l7 20l-3 4q-12 0 -65 -49 q-3 -65 -77 -76l-9 23q33 27 33 38q0 7 -14 7l-27 -4q28 -3 28 -11q0 -11 -37 -27q16 -10 16 -24q0 -25 -56 -60l1 -7q0 -23 -41 -32q-9 21 -35 21q-17 0 -37 -7l3 30q31 25 51 62h16l1 15l24 1l-7 19l26 40q33 9 40 55l15 -14v6q0 20 18 38h10q50 0 69 43q44 1 46 27z M531 1130l-1 -14l34 -43l-1 -6q0 -9 9 -15l-5 -5l5 -4l-11 -24l22 -36q0 -14 11 -25l-6 -5l8 -3l-5 -6l3 -7q-11 -8 -11 -16l5 -14h-6q12 -23 12 -47l-3 -27l45 -48v-19q-8 -14 -8 -25q0 -14 11 -31l-1 -15q0 -32 22 -60l-3 -21q0 -18 11 -38l-1 -12q0 -25 23 -46l-1 -13 q0 -39 33 -73l-7 -3l9 -7q-6 -2 -6 -9l4 -15l-14 -27q9 -20 9 -40l-1 -16l16 -27q0 -14 11 -34l-4 -7l7 -4q-8 -2 -8 -9l11 -10l-2 -10q0 -12 12 -22l8 -43l30 -34l42 10q41 -21 41 -55q0 -11 -3.5 -23t-11 -22t-19 -16.5t-27.5 -6.5l-49 11l-29 -5l-3 -5l-84 -4l-4 4h-91 q-30 22 -37 58l-6 3q11 14 11 32q50 36 50 62q0 11 -7 18q16 16 16 31q0 19 -27 36l1 5q0 8 -9 16q13 16 13 32q0 11 -7.5 22.5t-27.5 11.5h-42q-22 0 -29 -4l-59 24q-25 -22 -59 -22l-24 3l-16 -8q-7 -10 -7 -24l4 -19l-8 -21q-17 -26 -17 -55l1 -17q-10 -16 -10 -36v-7 q26 -21 64 -27q8 -11 26 -21q-6 -35 -32 -64l-24 -13q-19 0 -22 -15l-23 -4h-96l-19 13q-23 -12 -47 -12q-18 0 -27.5 4t-15.5 11t-10 16t-12 19v53l12 9l-12 4l8 11q16 3 29 16l40 5l22 32l10 33h-10l21 16l-8 32l8 18l-3 14q26 20 26 50l-2 19q6 6 6 15l-3 12q17 11 17 28 l3 22l-4 14q22 22 22 53l-6 32l14 -5l-8 21q16 22 16 48v8q12 13 12 32l-2 14q14 17 14 36l-3 20q15 24 16 53l9 13q-2 4 -2 8q0 3 2 5q2 5 2 14q10 7 18 22l-4 5l6 -1l3 20q0 16 -7 29q23 32 23 70l-2 23q11 14 11 34l7 19l3 35q15 18 16 43l8 16h9q-11 3 -11 21l29 38 l-6 7l6 -2l19 11l17 -2q18 0 31 7q84 -14 84 -71zM415 911l2 -14q-11 -14 -18 -27.5t-11 -26.5q3 -19 19 -32l-8 -5l8 -1v-28q0 -7 -4 -12.5t-8.5 -10t-8 -9.5t-3.5 -11l3 -15q0 -5 -4.5 -10t-10 -11.5t-11.5 -14.5t-9 -18q19 -19 19 -28t-5 -17t-11.5 -15.5t-11.5 -15.5 t-5 -17q0 -14 6 -27l-7 -3l7 -6q-7 -33 -22 -37l36 -15l-36 2q40 -30 79 -30q32 0 63 19q55 1 55 32q0 14 -7 27q13 22 13 50l-5 53l3 12l5 2q-11 15 -27 19l-10 20q-3 -4 -5 -4q-1 0 -1 1q-2 3 -2 5q0 1 1 2q0 3 1 8l-16 -6q-17 5 -17 12q0 12 12 23q19 -13 27 -13q7 0 7 5 t-2 14q9 7 9 14q0 2 -2.5 8.5t-7 15t-9.5 16t-11 12.5q11 14 11 25q0 25 -38 55l3 24q0 29 -22 30q-13 -10 -13 -26z" />
<glyph unicode="&#xc3;" d="M313 1478h36q33 -24 84 -24h8q25 -18 25 -47l-1 -13q40 -7 46 -57l25 -4q33 0 45 33q31 1 31 15q0 7 -11 21l4 16q38 5 44 40q97 -2 101 -53l-41 -7l40 -12q-14 -82 -106 -116l1 17q0 15 -4 15q-5 0 -23 -56l-27 4q-32 0 -65 -16h-12l8 12l-27 -4l-41 8l-18 42l4 -36 q-10 22 -22 22l-10 -4q-11 62 -58 96l-28 -4l11 18l-21 -4v-14l-22 8q-16 -19 -16 -43l3 -22l18 17l-21 -37l1 -5q0 -21 -68 -32l21 -9q-14 -8 -25 -8q-7 0 -16 4.5t-16.5 12.5t-13 18.5t-5.5 23.5q0 32 36 76l31 -22l-21 30l8 36l12 -1q18 0 27 8t14 17t8.5 17t11.5 8 l10 -2q11 0 25 17zM531 1130l-1 -14l34 -43l-1 -6q0 -9 9 -15l-5 -5l5 -4l-11 -24l22 -36q0 -14 11 -25l-6 -5l8 -3l-5 -6l3 -7q-11 -8 -11 -16l5 -14h-6q12 -23 12 -47l-3 -27l45 -48v-19q-8 -14 -8 -25q0 -14 11 -31l-1 -15q0 -32 22 -60l-3 -21q0 -18 11 -38l-1 -12 q0 -25 23 -46l-1 -13q0 -39 33 -73l-7 -3l9 -7q-6 -2 -6 -9l4 -15l-14 -27q9 -20 9 -40l-1 -16l16 -27q0 -14 11 -34l-4 -7l7 -4q-8 -2 -8 -9l11 -10l-2 -10q0 -12 12 -22l8 -43l30 -34l42 10q41 -21 41 -55q0 -11 -3.5 -23t-11 -22t-19 -16.5t-27.5 -6.5l-49 11l-29 -5 l-3 -5l-84 -4l-4 4h-91q-30 22 -37 58l-6 3q11 14 11 32q50 36 50 62q0 11 -7 18q16 16 16 31q0 19 -27 36l1 5q0 8 -9 16q13 16 13 32q0 11 -7.5 22.5t-27.5 11.5h-42q-22 0 -29 -4l-59 24q-25 -22 -59 -22l-24 3l-16 -8q-7 -10 -7 -24l4 -19l-8 -21q-17 -26 -17 -55l1 -17 q-10 -16 -10 -36v-7q26 -21 64 -27q8 -11 26 -21q-6 -35 -32 -64l-24 -13q-19 0 -22 -15l-23 -4h-96l-19 13q-23 -12 -47 -12q-18 0 -27.5 4t-15.5 11t-10 16t-12 19v53l12 9l-12 4l8 11q16 3 29 16l40 5l22 32l10 33h-10l21 16l-8 32l8 18l-3 14q26 20 26 50l-2 19 q6 6 6 15l-3 12q17 11 17 28l3 22l-4 14q22 22 22 53l-6 32l14 -5l-8 21q16 22 16 48v8q12 13 12 32l-2 14q14 17 14 36l-3 20q15 24 16 53l9 13q-2 4 -2 8q0 3 2 5q2 5 2 14q10 7 18 22l-4 5l6 -1l3 20q0 16 -7 29q23 32 23 70l-2 23q11 14 11 34l7 19l3 35q15 18 16 43 l8 16h9q-11 3 -11 21l29 38l-6 7l6 -2l19 11l17 -2q18 0 31 7q84 -14 84 -71zM415 911l2 -14q-11 -14 -18 -27.5t-11 -26.5q3 -19 19 -32l-8 -5l8 -1v-28q0 -7 -4 -12.5t-8.5 -10t-8 -9.5t-3.5 -11l3 -15q0 -5 -4.5 -10t-10 -11.5t-11.5 -14.5t-9 -18q19 -19 19 -28t-5 -17 t-11.5 -15.5t-11.5 -15.5t-5 -17q0 -14 6 -27l-7 -3l7 -6q-7 -33 -22 -37l36 -15l-36 2q40 -30 79 -30q32 0 63 19q55 1 55 32q0 14 -7 27q13 22 13 50l-5 53l3 12l5 2q-11 15 -27 19l-10 20q-3 -4 -5 -4q-1 0 -1 1q-2 3 -2 5q0 1 1 2q0 3 1 8l-16 -6q-17 5 -17 12 q0 12 12 23q19 -13 27 -13q7 0 7 5t-2 14q9 7 9 14q0 2 -2.5 8.5t-7 15t-9.5 16t-11 12.5q11 14 11 25q0 25 -38 55l3 24q0 29 -22 30q-13 -10 -13 -26z" />
<glyph unicode="&#xc4;" d="M352 1352l6 -35q0 -17 -8.5 -25.5t-19 -15.5t-20 -14.5t-11.5 -21.5l-35 15l-11 -20q-23 3 -43 13t-35.5 25t-24.5 34t-9 40l39 10q-35 8 -35 28q0 12 8.5 24.5t20.5 23t24.5 17t20.5 6.5q11 0 20 -6l30 12l-18 -31q18 15 37 15q32 0 68 -39l-4 -23l30 -2zM735 1357 q17 -12 17 -26q0 -19 -31 -41l-32 28l15 -68q-25 16 -40 16q-17 0 -17 -23l2 -16q-11 21 -30 21q-15 0 -31 -10l-6 26l-27 -24l-2 43q-41 6 -41 41q0 17 14 51l29 5q-37 16 -37 28q0 3 8 8.5t18.5 13t20 14.5t13.5 13q6 10 21 10q17 0 49 -15l22 2q35 0 35 -22l2 -8 q41 0 46 -62zM531 1130l-1 -14l34 -43l-1 -6q0 -9 9 -15l-5 -5l5 -4l-11 -24l22 -36q0 -14 11 -25l-6 -5l8 -3l-5 -6l3 -7q-11 -8 -11 -16l5 -14h-6q12 -23 12 -47l-3 -27l45 -48v-19q-8 -14 -8 -25q0 -14 11 -31l-1 -15q0 -32 22 -60l-3 -21q0 -18 11 -38l-1 -12 q0 -25 23 -46l-1 -13q0 -39 33 -73l-7 -3l9 -7q-6 -2 -6 -9l4 -15l-14 -27q9 -20 9 -40l-1 -16l16 -27q0 -14 11 -34l-4 -7l7 -4q-8 -2 -8 -9l11 -10l-2 -10q0 -12 12 -22l8 -43l30 -34l42 10q41 -21 41 -55q0 -11 -3.5 -23t-11 -22t-19 -16.5t-27.5 -6.5l-49 11l-29 -5 l-3 -5l-84 -4l-4 4h-91q-30 22 -37 58l-6 3q11 14 11 32q50 36 50 62q0 11 -7 18q16 16 16 31q0 19 -27 36l1 5q0 8 -9 16q13 16 13 32q0 11 -7.5 22.5t-27.5 11.5h-42q-22 0 -29 -4l-59 24q-25 -22 -59 -22l-24 3l-16 -8q-7 -10 -7 -24l4 -19l-8 -21q-17 -26 -17 -55l1 -17 q-10 -16 -10 -36v-7q26 -21 64 -27q8 -11 26 -21q-6 -35 -32 -64l-24 -13q-19 0 -22 -15l-23 -4h-96l-19 13q-23 -12 -47 -12q-18 0 -27.5 4t-15.5 11t-10 16t-12 19v53l12 9l-12 4l8 11q16 3 29 16l40 5l22 32l10 33h-10l21 16l-8 32l8 18l-3 14q26 20 26 50l-2 19 q6 6 6 15l-3 12q17 11 17 28l3 22l-4 14q22 22 22 53l-6 32l14 -5l-8 21q16 22 16 48v8q12 13 12 32l-2 14q14 17 14 36l-3 20q15 24 16 53l9 13q-2 4 -2 8q0 3 2 5q2 5 2 14q10 7 18 22l-4 5l6 -1l3 20q0 16 -7 29q23 32 23 70l-2 23q11 14 11 34l7 19l3 35q15 18 16 43 l8 16h9q-11 3 -11 21l29 38l-6 7l6 -2l19 11l17 -2q18 0 31 7q84 -14 84 -71zM415 911l2 -14q-11 -14 -18 -27.5t-11 -26.5q3 -19 19 -32l-8 -5l8 -1v-28q0 -7 -4 -12.5t-8.5 -10t-8 -9.5t-3.5 -11l3 -15q0 -5 -4.5 -10t-10 -11.5t-11.5 -14.5t-9 -18q19 -19 19 -28t-5 -17 t-11.5 -15.5t-11.5 -15.5t-5 -17q0 -14 6 -27l-7 -3l7 -6q-7 -33 -22 -37l36 -15l-36 2q40 -30 79 -30q32 0 63 19q55 1 55 32q0 14 -7 27q13 22 13 50l-5 53l3 12l5 2q-11 15 -27 19l-10 20q-3 -4 -5 -4q-1 0 -1 1q-2 3 -2 5q0 1 1 2q0 3 1 8l-16 -6q-17 5 -17 12 q0 12 12 23q19 -13 27 -13q7 0 7 5t-2 14q9 7 9 14q0 2 -2.5 8.5t-7 15t-9.5 16t-11 12.5q11 14 11 25q0 25 -38 55l3 24q0 29 -22 30q-13 -10 -13 -26z" />
<glyph unicode="&#xc5;" d="M494 1437l34 19q0 2 -6.5 14.5t-16 26.5t-21.5 25.5t-23 11.5q-14 0 -19 -29l-9 23l-10 -19q-15 20 -27 20q-16 0 -29 -31l-28 -5l43 -31q-26 15 -39 15q-12 0 -12 -14l3 -17l13 -20l-16 6l-2 -21q0 -36 22 -58l39 8l-31 -17q34 -12 52 -12q16 0 16 10l-3 10l23 2v-5 q0 -16 10 -16q13 0 25.5 9t23 23.5t17 31.5t6.5 32l-1 11zM440 1603q0 4 5 4q11 0 41 -12q91 -47 111 -108l38 8l-33 -19l5 -35q0 -29 -6.5 -58.5t-22 -53.5t-40 -39t-60.5 -15h-9l-6 -11l-77 1q-11 20 -71 20h-6l17 12q-76 18 -76 88l14 126q45 47 60 47l10 -5l3 16 q0 16 12 16l14 -2q15 0 23 24q34 -12 47 -12q7 0 7 4v4zM531 1130l-1 -14l34 -43l-1 -6q0 -9 9 -15l-5 -5l5 -4l-11 -24l22 -36q0 -14 11 -25l-6 -5l8 -3l-5 -6l3 -7q-11 -8 -11 -16l5 -14h-6q12 -23 12 -47l-3 -27l45 -48v-19q-8 -14 -8 -25q0 -14 11 -31l-1 -15 q0 -32 22 -60l-3 -21q0 -18 11 -38l-1 -12q0 -25 23 -46l-1 -13q0 -39 33 -73l-7 -3l9 -7q-6 -2 -6 -9l4 -15l-14 -27q9 -20 9 -40l-1 -16l16 -27q0 -14 11 -34l-4 -7l7 -4q-8 -2 -8 -9l11 -10l-2 -10q0 -12 12 -22l8 -43l30 -34l42 10q41 -21 41 -55q0 -11 -3.5 -23 t-11 -22t-19 -16.5t-27.5 -6.5l-49 11l-29 -5l-3 -5l-84 -4l-4 4h-91q-30 22 -37 58l-6 3q11 14 11 32q50 36 50 62q0 11 -7 18q16 16 16 31q0 19 -27 36l1 5q0 8 -9 16q13 16 13 32q0 11 -7.5 22.5t-27.5 11.5h-42q-22 0 -29 -4l-59 24q-25 -22 -59 -22l-24 3l-16 -8 q-7 -10 -7 -24l4 -19l-8 -21q-17 -26 -17 -55l1 -17q-10 -16 -10 -36v-7q26 -21 64 -27q8 -11 26 -21q-6 -35 -32 -64l-24 -13q-19 0 -22 -15l-23 -4h-96l-19 13q-23 -12 -47 -12q-18 0 -27.5 4t-15.5 11t-10 16t-12 19v53l12 9l-12 4l8 11q16 3 29 16l40 5l22 32l10 33h-10 l21 16l-8 32l8 18l-3 14q26 20 26 50l-2 19q6 6 6 15l-3 12q17 11 17 28l3 22l-4 14q22 22 22 53l-6 32l14 -5l-8 21q16 22 16 48v8q12 13 12 32l-2 14q14 17 14 36l-3 20q15 24 16 53l9 13q-2 4 -2 8q0 3 2 5q2 5 2 14q10 7 18 22l-4 5l6 -1l3 20q0 16 -7 29q23 32 23 70 l-2 23q11 14 11 34l7 19l3 35q15 18 16 43l8 16h9q-11 3 -11 21l29 38l-6 7l6 -2l19 11l17 -2q18 0 31 7q84 -14 84 -71zM415 911l2 -14q-11 -14 -18 -27.5t-11 -26.5q3 -19 19 -32l-8 -5l8 -1v-28q0 -7 -4 -12.5t-8.5 -10t-8 -9.5t-3.5 -11l3 -15q0 -5 -4.5 -10t-10 -11.5 t-11.5 -14.5t-9 -18q19 -19 19 -28t-5 -17t-11.5 -15.5t-11.5 -15.5t-5 -17q0 -14 6 -27l-7 -3l7 -6q-7 -33 -22 -37l36 -15l-36 2q40 -30 79 -30q32 0 63 19q55 1 55 32q0 14 -7 27q13 22 13 50l-5 53l3 12l5 2q-11 15 -27 19l-10 20q-3 -4 -5 -4q-1 0 -1 1q-2 3 -2 5 q0 1 1 2q0 3 1 8l-16 -6q-17 5 -17 12q0 12 12 23q19 -13 27 -13q7 0 7 5t-2 14q9 7 9 14q0 2 -2.5 8.5t-7 15t-9.5 16t-11 12.5q11 14 11 25q0 25 -38 55l3 24q0 29 -22 30q-13 -10 -13 -26z" />
<glyph unicode="&#xc6;" d="M271 486q22 -30 33 -30q8 0 9 19q46 -9 75 -9q41 0 41 20q0 17 -28 48q32 26 32 63l-1 12l-8 -3q-8 0 -8 14l4 27l17 4q0 19 -27 19q27 25 27 52q0 17 -9 42.5t-24 38.5q24 16 24 35q0 21 -31 45q20 20 20 33q0 18 -39 21q-13 -10 -13 -26l2 -14q-11 -14 -18 -27.5 t-11 -26.5q3 -19 19 -32l-9 -7q0 -4 8 -7l1 -20l-5 1q-8 0 -8 -10l2 -13q-13 -9 -13 -21l2 -11q-10 -4 -10 -11l7 -13q-25 0 -25 -9l7 -20l-8 -24q0 -8 13 -11q-2 -9 -7.5 -17t-11 -15.5t-10 -16t-4.5 -18.5l6 -38zM15 51v53l-5 6l16 31l26 8l22 32l6 -3l5 18v9l-11 9l21 16 l2 13q0 13 -10 19q10 7 10 18l-5 14q26 20 26 50l-2 19l6 15l-3 12q17 11 17 28l3 22l-4 14q22 22 22 53l-6 32l25 -2l-19 18q16 22 16 48l-6 2q15 27 16 52q14 17 14 36l-3 20q14 23 16 53l17 -13l-14 21l13 4l4 15h-15l9 21q11 4 15 14l-10 14l15 -2l-7 41q23 32 23 70 l-2 23q11 14 11 34l-7 6q29 10 29 15t-17 7l5 26q19 10 19 28v27l14 4l-11 21l24 26l-1 19l11 9l47 -7l13 8l49 -16q28 15 49 15q18 0 29 -14l11 20l46 2q43 -15 65 -15l24 11q25 -12 56 -12q29 0 58 10q4 -18 12 -18l14 14l19 1l-10 -17l35 15l-8 -35q0 -22 18 -29l-5 -24 q0 -11 5 -13.5t5 -14.5l-15 -85q0 -17 12 -17q-12 -27 -12 -62q11 -7 20 -102l-26 4l6 -16h-60l-13 19l-2 -22l-17 3l-9 9l-15 -12l2 148l-34 47l33 -1l-21 33l10 25q0 12 -17 12t-57 -14l5 13q0 13 -22 14q-26 -21 -55 -23l6 8q-5 13 -28 13q-30 0 -30 -9q0 -4 16.5 -16 t16.5 -25q0 -44 -27 -72q-12 -12 -12 -25q0 -23 39 -48l-13 -15q0 -10 12 -20q-34 -43 -34 -96q0 -33 10 -50t26 -17l5 8l19 -19q43 40 43 59q0 8 -11 13q22 28 53 28q33 0 73 -31l-8 -30l19 10q11 0 12 -25q-2 -20 -6 -23l-15 10l-1 -21l14 -77l-3 -12l-10 2q-18 0 -36 -26 l32 7q-8 -30 -8 -52l5 -40l-20 -37l-69 -5q-3 37 -25 37q11 17 11 31q0 24 -26 50l7 25l-6 7q-10 0 -36 -20q-3 20 -11 20l-16 -10l-16 -142l-31 -33l6 -3l28 7q-7 -22 -7 -39q0 -20 13 -20q15 0 15 -4q0 -3 -15 -23.5t-15 -30.5q0 -18 12 -43q-12 -36 -12 -60q0 -50 50 -50 q19 0 57 11q5 -17 12 -17q12 0 32 51q25 -12 41 -12q28 0 28 37l-6 43q12 -13 18 -13t6 12t-15.5 49t-15.5 58l3 38q13 -13 23 -13q7 0 21.5 20.5t27.5 20.5q34 0 54 -60l5 -87l-12 7l-2 -28h22q-14 -48 -14 -78q0 -26 9 -45q-14 -2 -14 -20q0 -27 25 -80l-27 18l7 -14 q-5 -19 -20 -19l-27 8l-26 -30q-4 40 -47 40q-23 0 -49 -6t-42 -6t-39 9l-3 -3l6 -13l-125 -12l2 13l-27 -5l-33 26q-22 -16 -35 -16q-9 0 -11 11l-16 -8q-27 19 -27 43l-16 18q11 14 11 32q50 36 50 62q0 11 -7 18q16 16 16 31q0 19 -27 36l1 5l-9 16q13 16 13 32 q0 17 -16 32q-4 -10 -17 -10l-14 2l1 7l-4 5l-16 -6l-15 22q-1 -19 -21 -19q-13 0 -35 9l12 -24l-15 -22q0 -8 13 -12l-1 -23q-27 -20 -27 -47l4 -23q-13 -1 -13 -19l3 -24l31 -17l-2 -12q0 -18 21 -19q-4 -66 -32 -101l-11 14l-78 -12q0 19 -13 19q-15 0 -43 -21l1 18 l-48 -5z" />
<glyph unicode="&#xc7;" d="M414 -204l2 8q0 17 -42 26l-2 14q34 7 34 45l-1 12l13 -12l4 38l-16 6l24 17l20 37v-50l20 8l18 -26l-10 -2l-5 -16l3 -18l17 -4l14 -20l14 2q33 0 44 -30l45 -2l-29 -11q18 -12 18 -37l-3 -22l-13 3l12 -33q0 -16 -6 -16l-7 3l-1 -16l-23 -14l1 -10l-14 6q-14 0 -21 -24 l-19 5q-23 0 -53 -21q-13 10 -20 10l-36 -16l1 13l-26 2l5 -11l-22 19l-23 1q-9 19 -54 29l-9 15l11 8q0 2 -1.5 3t-4 2t-4 4t-1.5 10l7 38l7 -4q9 0 27 15l30 -5l-8 -11l53 -8l-1 -4q0 -13 39 -13h10l-5 -15l14 -1q17 0 26 12q-17 9 -17 21q0 9 9 20q16 -21 28 -21l8 2 l-8 10l3 11q0 5 -5 6t-11.5 2t-11.5 3.5t-5 10.5v4zM498 1210h15q31 -24 75 -24l24 2q12 0 21 -9t17.5 -20t18.5 -20t25 -9q26 0 58 26l9 1q10 0 21 -4t20.5 -12t16 -20.5t6.5 -28.5q0 -26 -12 -54v-86q12 -54 12 -92q0 -28 -7.5 -46t-19 -28t-25 -14t-25.5 -4q-13 0 -24 6 t-19 15t-12.5 20t-4.5 21l3 19q-18 16 -18 25l2 6l15 5q-22 2 -29 27l-3 22q-44 31 -65 64v4q0 23 -7 36l-65 11h-45q-14 8 -28 8l-39 -8q-70 0 -108 -68q0 -10 -30 -22q0 -27 -15 -61l-31 -18q-16 -28 -16 -63q0 -25 9 -52l2 -2q0 -9 -27 -48l-9 4l7 -26l-15 12l9 -19 l-1 -121q-15 -18 -19 -43l19 -36q0 -51 28 -111l-14 -17l26 -1q13 -67 54 -115q4 -19 11 -30t14 -18t12 -11.5t5 -10.5v-4l49 -12q38 -47 105 -47l17 -1q52 0 79 48l69 29l30 18q2 13 7 26t12 27q38 20 38 65v7q6 10 8 18t6 15.5t13.5 15.5t31.5 18l2 8q84 -14 84 -97 q0 -10 -4 -19.5t-8.5 -19.5t-8 -21t-3.5 -24v-9q-32 -32 -45 -86q-34 -15 -69 -50l-64 -46q-13 -16 -57 -29l-11 -7l-91 9q0 -13 -42 -20q-10 1 -14 2.5t-13.5 3t-30 3t-63.5 2.5l-9 10l-14 -3l-136 97l3 11l-11 -8q-8 26 -38 36q-7 27 -31 54q0 9 -3.5 15.5t-8 12t-8 9.5 t-3.5 9l8 33q-44 68 -49 161l-11 18q-8 11 -8 26l11 56l-3 165l12 28l-13 -12l1 38q23 35 23 80l-1 21q0 19 16 32q58 55 75 143q35 35 57 83q18 10 28 22l-3 3q0 10 73 38l4 -10l7 16l13 -1l-4 7l19 3l7 8l140 1zM673 830l-15 -4q-6 0 -6 4l8 14z" />
<glyph unicode="&#xc8;" d="M172 1574l-6 18l10 21q0 5 -9 7q19 18 48 18q20 0 29.5 -5.5t14 -12t8 -12t11.5 -5.5l14 6q25 -58 46 -58l9 4v-36l28 -32l4 25q12 -14 12 -28l-1 -9l12 1l14 -13l-16 -17l20 7l23 -27q4 -28 9 -28l6 15l42 -42q25 -4 25 -30l-2 -14h-33l27 -24q-8 -23 -28 -23 q-17 0 -36 10l-5 20l-21 -4q-6 0 -6 4l5 10l-18 17l-8 -26q-1 25 -6.5 34.5t-11.5 12.5t-11 3.5t-5 8.5v2q0 4 -4 11.5t-10 15t-14.5 13.5t-17.5 6l-12 -2l-17 26l-13 -1q-26 0 -26 13l2 12q0 14 -23 25l23 21l-48 -18l-1 11l7 8q0 8 -23 19l-12 -4l-13 37q8 3 8 9z M479 1204q43 -15 83 -15l66 11q25 -12 56 -12q39 0 58 10q4 -18 17 -18l33 13l5 -15q8 0 35 15l-8 -35q0 -22 18 -29l-5 -24q0 -11 5 -13.5t5 -14.5l-15 -85q0 -17 10 -17h2q-12 -27 -12 -62q0 -27 20 -102l-19 23l-1 -35h-80l-23 34l8 -37l-17 3l-9 45q0 13 6 16.5t6 8.5 q0 4 -3.5 7.5l-7.5 7.5t-7.5 9t-3.5 13l11 39l-48 46l18 4l-6 46q-10 10 -19 10q-8 0 -14 -6.5t-14 -6.5t-14 4.5t-26 4.5l-75 -7q27 12 27 23l-6 10q-26 -21 -55 -23l1 8q0 10 -11 10t-37 -7t-62 -10l-7 11h-20q-44 0 -44 -7q0 -1 4 -4t9.5 -8.5t9.5 -15t4 -22.5 q0 -15 -6.5 -26.5t-15 -21.5t-15 -18.5t-6.5 -17.5q0 -21 37 -45q-13 -6 -13 -15q0 -10 12 -20q-34 -43 -34 -96q0 -59 38 -59q15 0 36 9q-7 -10 -7 -19q0 -5 7 -5q9 0 32 12q16 -18 24 -18t10 15l10 -13q52 37 52 98q0 19 -20 84q35 29 67 29q34 0 69 -29l-5 -37 q0 -21 6.5 -35t6.5 -28l-9 -38q0 -17 13 -33q-9 -2 -9 -21q0 -45 19 -89l-10 2q-18 0 -36 -26l18 4q17 0 17 -19q0 -16 -5.5 -36t-5.5 -41l5 -53l-10 -27l-79 -15q-1 22 -10 22q-7 0 -17 -15l2 30q0 66 -35 101l6 41q0 25 -15 25q-13 0 -35 -16v4q0 15 -15 15q-16 0 -50 -18 l-43 11l-16 -142q-31 -25 -31 -33l6 -3q15 0 28 7q-7 -13 -7 -39q0 -20 13 -20h7q8 0 8 -4q0 -3 -4.5 -7.5t-10.5 -11.5t-10.5 -16t-4.5 -19q0 -18 12 -43l-11 -45q0 -63 113 -63q26 0 41 8t15 17l-4 10h28l-6 -16q0 -12 22 -12q26 0 80 15q26 -26 46 -26q27 0 45 47l25 -4 q34 0 34 45l-6 47q12 -13 18 -13t6 12q0 15 -5.5 26t-12.5 22t-12.5 23.5t-5.5 29.5v8q42 1 56 58l29 6q39 0 59 -60l5 -87l-28 21l17 -65l19 23q-8 -35 -12.5 -59t-4.5 -38l1 -37q-6 0 -6 -8q0 -26 28 -81l-34 32l5 -27q0 -19 -15 -19l-23 7l-36 -30q-3 18 -14 18 q-9 0 -29 -17l6 79l-41 -57l21 -14l-67 -8q-20 12 -37 12q-13 0 -23 -6.5t-22 -6.5q-11 0 -21.5 5.5t-25.5 5.5l-94 -14q-27 0 -27 11t31 35h-6q-35 0 -49 -41l-70 28h-52l10 -32q-49 34 -92 34q-27 0 -46 -10l6 -13l-39 -3q-26 0 -26 11l11 29q0 6 -4.5 8t-10 4t-10 7 t-4.5 18q0 34 43 52l1 -24q25 42 48 42l17 -6l16 17l-8 83q16 44 16 105q0 49 -20 75q22 21 22 68l-14 120q0 44 24 50l-15 62l15 -4q-9 41 -50 49q39 9 46 39l-6 30l9 39q0 8 -3 15.5t-6 15.5t-6 18t-3 24l7 58l-6 -1q-16 0 -16 23l2 27q0 22 -17 22l-18 -3q-25 0 -49 36 l14 2l-27 24h6q16 0 16 11l-5 17q35 32 72 32q29 0 64 -23q29 23 51 23q18 0 35 -14l-5 22l39 -23q25 13 70 13q49 0 74 -13z" />
<glyph unicode="&#xc9;" d="M734 1602l9 -4l1 4q24 -17 24 -48q0 -16 -5.5 -24.5t-11.5 -13.5t-11.5 -9t-5.5 -10l6 -14q-62 -44 -73 -59l-17 4l-32 -28l25 -4q-14 -12 -28 -12l-9 1l1 -12l-13 -14l-17 16l7 -20l-27 -23q-28 -4 -28 -9l15 -6l-42 -42q-4 -25 -30 -25l-14 2v33l-24 -27q-23 8 -23 28 q0 17 10 36l20 5l-4 21q0 6 4 6l10 -5l17 18l-26 8q25 1 34.5 6.5t12.5 12t4 11.5t10 5l1 -1q3 0 10.5 4t15 10.5t13.5 14.5t6 17l-2 12l26 17l-1 13q0 26 13 26l12 -2q14 0 25 23l21 -23l-18 48l11 1l8 -7q8 0 19 23l-4 12l37 13q24 0 38 -9zM479 1204q43 -15 83 -15l66 11 q25 -12 56 -12q39 0 58 10q4 -18 17 -18l33 13l5 -15q8 0 35 15l-8 -35q0 -22 18 -29l-5 -24q0 -11 5 -13.5t5 -14.5l-15 -85q0 -17 10 -17h2q-12 -27 -12 -62q0 -27 20 -102l-19 23l-1 -35h-80l-23 34l8 -37l-17 3l-9 45q0 13 6 16.5t6 8.5q0 4 -3.5 7.5l-7.5 7.5t-7.5 9 t-3.5 13l11 39l-48 46l18 4l-6 46q-10 10 -19 10q-8 0 -14 -6.5t-14 -6.5t-14 4.5t-26 4.5l-75 -7q27 12 27 23l-6 10q-26 -21 -55 -23l1 8q0 10 -11 10t-37 -7t-62 -10l-7 11h-20q-44 0 -44 -7q0 -1 4 -4t9.5 -8.5t9.5 -15t4 -22.5q0 -15 -6.5 -26.5t-15 -21.5t-15 -18.5 t-6.5 -17.5q0 -21 37 -45q-13 -6 -13 -15q0 -10 12 -20q-34 -43 -34 -96q0 -59 38 -59q15 0 36 9q-7 -10 -7 -19q0 -5 7 -5q9 0 32 12q16 -18 24 -18t10 15l10 -13q52 37 52 98q0 19 -20 84q35 29 67 29q34 0 69 -29l-5 -37q0 -21 6.5 -35t6.5 -28l-9 -38q0 -17 13 -33 q-9 -2 -9 -21q0 -45 19 -89l-10 2q-18 0 -36 -26l18 4q17 0 17 -19q0 -16 -5.5 -36t-5.5 -41l5 -53l-10 -27l-79 -15q-1 22 -10 22q-7 0 -17 -15l2 30q0 66 -35 101l6 41q0 25 -15 25q-13 0 -35 -16v4q0 15 -15 15q-16 0 -50 -18l-43 11l-16 -142q-31 -25 -31 -33l6 -3 q15 0 28 7q-7 -13 -7 -39q0 -20 13 -20h7q8 0 8 -4q0 -3 -4.5 -7.5t-10.5 -11.5t-10.5 -16t-4.5 -19q0 -18 12 -43l-11 -45q0 -63 113 -63q26 0 41 8t15 17l-4 10h28l-6 -16q0 -12 22 -12q26 0 80 15q26 -26 46 -26q27 0 45 47l25 -4q34 0 34 45l-6 47q12 -13 18 -13t6 12 q0 15 -5.5 26t-12.5 22t-12.5 23.5t-5.5 29.5v8q42 1 56 58l29 6q39 0 59 -60l5 -87l-28 21l17 -65l19 23q-8 -35 -12.5 -59t-4.5 -38l1 -37q-6 0 -6 -8q0 -26 28 -81l-34 32l5 -27q0 -19 -15 -19l-23 7l-36 -30q-3 18 -14 18q-9 0 -29 -17l6 79l-41 -57l21 -14l-67 -8 q-20 12 -37 12q-13 0 -23 -6.5t-22 -6.5q-11 0 -21.5 5.5t-25.5 5.5l-94 -14q-27 0 -27 11t31 35h-6q-35 0 -49 -41l-70 28h-52l10 -32q-49 34 -92 34q-27 0 -46 -10l6 -13l-39 -3q-26 0 -26 11l11 29q0 6 -4.5 8t-10 4t-10 7t-4.5 18q0 34 43 52l1 -24q25 42 48 42l17 -6 l16 17l-8 83q16 44 16 105q0 49 -20 75q22 21 22 68l-14 120q0 44 24 50l-15 62l15 -4q-9 41 -50 49q39 9 46 39l-6 30l9 39q0 8 -3 15.5t-6 15.5t-6 18t-3 24l7 58l-6 -1q-16 0 -16 23l2 27q0 22 -17 22l-18 -3q-25 0 -49 36l14 2l-27 24h6q16 0 16 11l-5 17q35 32 72 32 q29 0 64 -23q29 23 51 23q18 0 35 -14l-5 22l39 -23q25 13 70 13q49 0 74 -13z" />
<glyph unicode="&#xca;" d="M445 1559h17l50 -53q81 -18 103 -81q41 -35 41 -44q0 -4 -7 -4l-8 1q7 -21 21 -21l14 4q3 -26 58 -50l-15 -15l20 -33q-12 -31 -56 -31l-24 2l2 8q0 15 -33 17q-3 33 -49 46l9 17l-35 33l-58 29l41 -2q-14 21 -52 21l-22 -1l-13 19l7 20l-3 4q-12 0 -65 -49 q-3 -65 -77 -76l-9 23q33 27 33 38q0 7 -14 7l-27 -4q28 -3 28 -11q0 -11 -37 -27q16 -10 16 -24q0 -25 -56 -60l1 -7q0 -23 -41 -32q-9 21 -35 21q-17 0 -37 -7l3 30q31 25 51 62h16l1 15l24 1l-7 19l26 40q33 9 40 55l15 -14v6q0 20 18 38h10q50 0 69 43q44 1 46 27z M479 1204q43 -15 83 -15l66 11q25 -12 56 -12q39 0 58 10q4 -18 17 -18l33 13l5 -15q8 0 35 15l-8 -35q0 -22 18 -29l-5 -24q0 -11 5 -13.5t5 -14.5l-15 -85q0 -17 10 -17h2q-12 -27 -12 -62q0 -27 20 -102l-19 23l-1 -35h-80l-23 34l8 -37l-17 3l-9 45q0 13 6 16.5t6 8.5 q0 4 -3.5 7.5l-7.5 7.5t-7.5 9t-3.5 13l11 39l-48 46l18 4l-6 46q-10 10 -19 10q-8 0 -14 -6.5t-14 -6.5t-14 4.5t-26 4.5l-75 -7q27 12 27 23l-6 10q-26 -21 -55 -23l1 8q0 10 -11 10t-37 -7t-62 -10l-7 11h-20q-44 0 -44 -7q0 -1 4 -4t9.5 -8.5t9.5 -15t4 -22.5 q0 -15 -6.5 -26.5t-15 -21.5t-15 -18.5t-6.5 -17.5q0 -21 37 -45q-13 -6 -13 -15q0 -10 12 -20q-34 -43 -34 -96q0 -59 38 -59q15 0 36 9q-7 -10 -7 -19q0 -5 7 -5q9 0 32 12q16 -18 24 -18t10 15l10 -13q52 37 52 98q0 19 -20 84q35 29 67 29q34 0 69 -29l-5 -37 q0 -21 6.5 -35t6.5 -28l-9 -38q0 -17 13 -33q-9 -2 -9 -21q0 -45 19 -89l-10 2q-18 0 -36 -26l18 4q17 0 17 -19q0 -16 -5.5 -36t-5.5 -41l5 -53l-10 -27l-79 -15q-1 22 -10 22q-7 0 -17 -15l2 30q0 66 -35 101l6 41q0 25 -15 25q-13 0 -35 -16v4q0 15 -15 15q-16 0 -50 -18 l-43 11l-16 -142q-31 -25 -31 -33l6 -3q15 0 28 7q-7 -13 -7 -39q0 -20 13 -20h7q8 0 8 -4q0 -3 -4.5 -7.5t-10.5 -11.5t-10.5 -16t-4.5 -19q0 -18 12 -43l-11 -45q0 -63 113 -63q26 0 41 8t15 17l-4 10h28l-6 -16q0 -12 22 -12q26 0 80 15q26 -26 46 -26q27 0 45 47l25 -4 q34 0 34 45l-6 47q12 -13 18 -13t6 12q0 15 -5.5 26t-12.5 22t-12.5 23.5t-5.5 29.5v8q42 1 56 58l29 6q39 0 59 -60l5 -87l-28 21l17 -65l19 23q-8 -35 -12.5 -59t-4.5 -38l1 -37q-6 0 -6 -8q0 -26 28 -81l-34 32l5 -27q0 -19 -15 -19l-23 7l-36 -30q-3 18 -14 18 q-9 0 -29 -17l6 79l-41 -57l21 -14l-67 -8q-20 12 -37 12q-13 0 -23 -6.5t-22 -6.5q-11 0 -21.5 5.5t-25.5 5.5l-94 -14q-27 0 -27 11t31 35h-6q-35 0 -49 -41l-70 28h-52l10 -32q-49 34 -92 34q-27 0 -46 -10l6 -13l-39 -3q-26 0 -26 11l11 29q0 6 -4.5 8t-10 4t-10 7 t-4.5 18q0 34 43 52l1 -24q25 42 48 42l17 -6l16 17l-8 83q16 44 16 105q0 49 -20 75q22 21 22 68l-14 120q0 44 24 50l-15 62l15 -4q-9 41 -50 49q39 9 46 39l-6 30l9 39q0 8 -3 15.5t-6 15.5t-6 18t-3 24l7 58l-6 -1q-16 0 -16 23l2 27q0 22 -17 22l-18 -3q-25 0 -49 36 l14 2l-27 24h6q16 0 16 11l-5 17q35 32 72 32q29 0 64 -23q29 23 51 23q18 0 35 -14l-5 22l39 -23q25 13 70 13q49 0 74 -13z" />
<glyph unicode="&#xcb;" d="M352 1352l6 -35q0 -17 -8.5 -25.5t-19 -15.5t-20 -14.5t-11.5 -21.5l-35 15l-11 -20q-23 3 -43 13t-35.5 25t-24.5 34t-9 40l39 10q-35 8 -35 28q0 12 8.5 24.5t20.5 23t24.5 17t20.5 6.5q11 0 20 -6l30 12l-18 -31q18 15 37 15q32 0 68 -39l-4 -23l30 -2zM735 1357 q17 -12 17 -26q0 -19 -31 -41l-32 28l15 -68q-25 16 -40 16q-17 0 -17 -23l2 -16q-11 21 -30 21q-15 0 -31 -10l-6 26l-27 -24l-2 43q-41 6 -41 41q0 17 14 51l29 5q-37 16 -37 28q0 3 8 8.5t18.5 13t20 14.5t13.5 13q6 10 21 10q17 0 49 -15l22 2q35 0 35 -22l2 -8 q41 0 46 -62zM479 1204q43 -15 83 -15l66 11q25 -12 56 -12q39 0 58 10q4 -18 17 -18l33 13l5 -15q8 0 35 15l-8 -35q0 -22 18 -29l-5 -24q0 -11 5 -13.5t5 -14.5l-15 -85q0 -17 10 -17h2q-12 -27 -12 -62q0 -27 20 -102l-19 23l-1 -35h-80l-23 34l8 -37l-17 3l-9 45 q0 13 6 16.5t6 8.5q0 4 -3.5 7.5l-7.5 7.5t-7.5 9t-3.5 13l11 39l-48 46l18 4l-6 46q-10 10 -19 10q-8 0 -14 -6.5t-14 -6.5t-14 4.5t-26 4.5l-75 -7q27 12 27 23l-6 10q-26 -21 -55 -23l1 8q0 10 -11 10t-37 -7t-62 -10l-7 11h-20q-44 0 -44 -7q0 -1 4 -4t9.5 -8.5t9.5 -15 t4 -22.5q0 -15 -6.5 -26.5t-15 -21.5t-15 -18.5t-6.5 -17.5q0 -21 37 -45q-13 -6 -13 -15q0 -10 12 -20q-34 -43 -34 -96q0 -59 38 -59q15 0 36 9q-7 -10 -7 -19q0 -5 7 -5q9 0 32 12q16 -18 24 -18t10 15l10 -13q52 37 52 98q0 19 -20 84q35 29 67 29q34 0 69 -29l-5 -37 q0 -21 6.5 -35t6.5 -28l-9 -38q0 -17 13 -33q-9 -2 -9 -21q0 -45 19 -89l-10 2q-18 0 -36 -26l18 4q17 0 17 -19q0 -16 -5.5 -36t-5.5 -41l5 -53l-10 -27l-79 -15q-1 22 -10 22q-7 0 -17 -15l2 30q0 66 -35 101l6 41q0 25 -15 25q-13 0 -35 -16v4q0 15 -15 15q-16 0 -50 -18 l-43 11l-16 -142q-31 -25 -31 -33l6 -3q15 0 28 7q-7 -13 -7 -39q0 -20 13 -20h7q8 0 8 -4q0 -3 -4.5 -7.5t-10.5 -11.5t-10.5 -16t-4.5 -19q0 -18 12 -43l-11 -45q0 -63 113 -63q26 0 41 8t15 17l-4 10h28l-6 -16q0 -12 22 -12q26 0 80 15q26 -26 46 -26q27 0 45 47l25 -4 q34 0 34 45l-6 47q12 -13 18 -13t6 12q0 15 -5.5 26t-12.5 22t-12.5 23.5t-5.5 29.5v8q42 1 56 58l29 6q39 0 59 -60l5 -87l-28 21l17 -65l19 23q-8 -35 -12.5 -59t-4.5 -38l1 -37q-6 0 -6 -8q0 -26 28 -81l-34 32l5 -27q0 -19 -15 -19l-23 7l-36 -30q-3 18 -14 18 q-9 0 -29 -17l6 79l-41 -57l21 -14l-67 -8q-20 12 -37 12q-13 0 -23 -6.5t-22 -6.5q-11 0 -21.5 5.5t-25.5 5.5l-94 -14q-27 0 -27 11t31 35h-6q-35 0 -49 -41l-70 28h-52l10 -32q-49 34 -92 34q-27 0 -46 -10l6 -13l-39 -3q-26 0 -26 11l11 29q0 6 -4.5 8t-10 4t-10 7 t-4.5 18q0 34 43 52l1 -24q25 42 48 42l17 -6l16 17l-8 83q16 44 16 105q0 49 -20 75q22 21 22 68l-14 120q0 44 24 50l-15 62l15 -4q-9 41 -50 49q39 9 46 39l-6 30l9 39q0 8 -3 15.5t-6 15.5t-6 18t-3 24l7 58l-6 -1q-16 0 -16 23l2 27q0 22 -17 22l-18 -3q-25 0 -49 36 l14 2l-27 24h6q16 0 16 11l-5 17q35 32 72 32q29 0 64 -23q29 23 51 23q18 0 35 -14l-5 22l39 -23q25 13 70 13q49 0 74 -13z" />
<glyph unicode="&#xcc;" d="M172 1574l-6 18l10 21q0 5 -9 7q19 18 48 18q20 0 29.5 -5.5t14 -12t8 -12t11.5 -5.5l14 6q25 -58 46 -58l9 4v-36l28 -32l4 25q12 -14 12 -28l-1 -9l12 1l14 -13l-16 -17l20 7l23 -27q4 -28 9 -28l6 15l42 -42q25 -4 25 -30l-2 -14h-33l27 -24q-8 -23 -28 -23 q-17 0 -36 10l-5 20l-21 -4q-6 0 -6 4l5 10l-18 17l-8 -26q-1 25 -6.5 34.5t-11.5 12.5t-11 3.5t-5 8.5v2q0 4 -4 11.5t-10 15t-14.5 13.5t-17.5 6l-12 -2l-17 26l-13 -1q-26 0 -26 13l2 12q0 14 -23 25l23 21l-48 -18l-1 11l7 8q0 8 -23 19l-12 -4l-13 37q8 3 8 9zM54 -1 l-3 81q21 39 72 39q4 1 9 1q8 0 16 -3q33 0 65 12l-4 -13q18 18 40 18q23 0 49 -18q-8 28 -18 39l44 -14q18 0 18 19l-3 17q10 -10 36 -13q-4 7 -4 30q0 11 3 16.5t9 12.5l6 20q0 26 -26 52q0 30 12 44l-11 12l11 13q-1 9 -12 14l8 11l-4 10q0 5 10 11t10 17q0 18 -23 46 q2 5 10 5l14 1q-1 5 -7.5 7t-6.5 8q0 5 6 12q5 5 5 8q0 1 -1 2l-19 -9q14 14 14 26l-4 11q17 32 17 73l-14 80l21 8l-22 -1q16 16 16 37q0 20 -18 46q17 26 17 65h-1q-5 0 -7 20q-2 22 -12 82q15 -28 23 -28q6 0 7 13q-12 13 -12 34q0 17 9 40l-12 30l-13 -40q-24 44 -60 44 l-23 -4l11 16l-52 -14q-18 0 -31 7l-12 -9q0 18 -12 18q8 8 8 17l-8 22q-7 -25 -21 -25t-33 25v-33q-9 22 -18 22q-6 0 -12 -8q-36 29 -48 64q11 9 15.5 18.5t6 17.5t3 13t6.5 5q8 0 22 -6.5t26 -6.5q8 0 16.5 4t16.5 8.5t15.5 8.5t13.5 4q5 0 9 -3.5t8 -7.5l7.5 -7.5 t8.5 -3.5l19 8q4 0 8 -4t8 -8.5t8 -8.5t8 -4q5 0 9.5 6t9 12.5t9.5 12.5t11 6q8 0 18.5 -10.5t18.5 -10.5q13 0 23 25q2 -8 10 -8q7 0 20 8q21 -18 46 -18q23 0 50 15q24 -12 51 -12q24 0 37 4q10 3 13 3q0 -11 35 -11l20 2l9 -6q-15 -2 -15 -8q0 -7 16 -7h22l-18 26 q25 -12 52 -12q23 0 30 4v-19q13 7 26 7q29 0 46 -47q-26 -2 -26 -13l11 -19l-9 -17q-28 -1 -28 -10l4 -14l-12 -18h-102q-26 6 -54 6l-60 -6l12 -11q-18 -14 -18 -29q0 -16 18 -34q-14 -23 -14 -31t7 -11l-5 -61l-12 41v-41q-9 40 -17 40q-7 0 -13 -21l-6 -82h29l-29 -15 l28 -2q-34 -16 -34 -28q0 -4 3.5 -7.5t8 -7.5t8 -8.5t3.5 -10.5q0 -10 -6.5 -19.5t-6.5 -30.5q0 -24 9 -61l-12 -20h11l-7 -54l4 -31l-5 -24l8 -23l-6 -25l6 -24l9 -2q1 1 1 2q0 4 -10 13l23 -7l5 3q0 9 -22 31l18 -6l18 -29q-6 -16 -23 -16l-25 6l6 -83l-11 6l11 -35v-20 h18l-12 10l10 -1q10 0 10 7q0 11 -19 30q23 2 29 52v-152l12 -9l-47 -10q42 0 45 -10q0 -8 -8 -19l22 -6v-38l12 9q15 -18 28 -18l25 7l22 -5q14 0 27 7l-4 -10q10 7 19 7q12 0 25 -10l-4 13q37 -2 66 -19v-5q0 -6 2 -6h1q2 1 4 1t5 -1q-7 -13 -7 -26q0 -14 7 -27l-12 -32 l-6 15l-16 -15l-13 6q-3 2 -5 2q-1 0 -1 -1q-1 0 -1 -1q0 -4 9 -21q-23 9 -40 9t-29.5 -10.5t-22.5 -10.5l-19 13q-9 0 -21 -16q-32 18 -60 18q-27 0 -56 -17l-26 -1q-16 19 -30 19q-13 0 -23 -15l-46 8l-68 -14l-13 47v-50q-4 8 -8 8q-2 0 -4 -1q-1 2 -3 2t-5 -7l-15 1 l-17 11q-1 12 -7 15q-4 0 -6 -26h-36q-5 12 -13 12t-18 -12q-11 18 -34 18l-63 -12q-17 0 -31 11zM624 1071q6 1 7 5q0 4 -10 4h-7zM537 1043l8 -34l3 34h-11zM525 920q14 -3 22 -3q2 0 5 1q2 0 2 1q0 4 -15 14q17 20 17 31v2l-22 -12l-9 10v-44zM364 371l6 -5l-6 -7v12z M370 276q15 -20 15 -33q-2 -14 -17 -22zM524 229l10 -4l15 3l-18 13l20 5l-20 5l18 6l-24 3z" />
</font>
</defs>
</svg>
