<svg xmlns="http://www.w3.org/2000/svg" width="21" height="20"><path fill="#fff" d="M17.92 3.065l-1.669-2.302c-.336-.464-.87-.75-1.479-.755l-7.119-.008v5.6c0 .096-.047.185-.127.237-.081.052-.181.06-.268.02l-1.413-.64c-.072-.034-.155-.034-.228-.002l-1.489.65c-.087.038-.19.029-.271-.023-.079-.052-.13-.141-.13-.235v-5.607h-1.536c-.536 0-.958.434-.958.97 0 0 .025 15.952.031 15.993.084.509.379.962.811 1.242l2.334 1.528c.262.172.565.267.877.267h10.307c1.452 0 2.634-1.189 2.634-2.64v-13.353c0-.341-.107-.668-.307-.942zm-1.5 14.295c0 .464-.361.833-.827.833h-10.252l-1.675-1.089h10.341c.537 0 .953-.44.953-.979v-14.086l1.459 2.027v13.294h.001z"/></svg>