<svg width="20pt" height="20pt" viewBox="0 0 20 20" xmlns="http://www.w3.org/2000/svg"><path d="M0 0h55v55h-55v-55z"/><path fill="#e9e9e9" d="M16.99 4.95c6.59-5.53 17.54-4.62 23.04 2.05 1.31 1.98 3.72 2.31 5.65 3.38 1.86 1.69 2.27 4.81.82 6.88-1.01.68-2.09 1.23-3.14 1.84-.44-4.5-1.58-9.24-5.05-12.41-5.47-5.73-15.39-6-21.14-.54-3.83 3.17-5.17 8.17-5.61 12.92-1.37-.93-3.52-1.28-3.81-3.22-.81-2.68.69-5.89 3.56-6.42 2.52-.58 3.79-2.96 5.68-4.48z"/><path fill="#e9e9e9" d="M17.29 7.14c5.38-5.48 15.08-5.44 20.42.07 3.4 3.14 4.49 7.88 4.47 12.35 2.86.06 6.19-.37 8.46 1.78 2.78 2.26 2.76 6.98-.07 9.19-2.33 2.1-5.69 1.63-8.58 1.78 0 5.53.21 11.07-.09 16.58-.8 5.19-7.7 5.87-11.51 3.77-3.01-1.74-2.28-5.57-2.8-8.45-.57 3.08-.23 7.2-3.62 8.77-3.26 1.18-7.91 1.29-10.12-1.88-1.26-1.74-.94-4.01-1.03-6.02.06-4.26-.03-8.51.06-12.76-3.06-.13-6.74.31-9.01-2.23-2.39-2.34-2.19-6.64.41-8.74 2.25-2.17 5.6-1.7 8.46-1.81-.03-4.5 1.09-9.28 4.55-12.4z"/><path d="M20.33 11.11c4.42-.86 9.07-.54 13.54-.24 5.18 1.06 5.72 9.14.79 10.96-4.4.93-9.06.54-13.53.28-5.29-1-5.87-9.23-.8-11z"/><path fill="#e9e9e9" d="M22.17 15.26c1.61-.6 2.31 2.17.69 2.48-1.61.58-2.33-2.18-.69-2.48z"/><path fill="#e9e9e9" d="M32.08 15.25c1.63-.56 2.37 2.17.69 2.48-1.6.62-2.26-2.17-.69-2.48z"/></svg>