<svg xmlns="http://www.w3.org/2000/svg" width="21" height="20"><path fill="#fff" d="M19.998 6.766l-5.759-.544c-.362-.032-.676-.264-.822-.61l-2.064-4.999c-.329-.825-1.5-.825-1.83 0l-2.047 4.998c-.132.346-.462.578-.824.61l-5.758.545c-.859.082-1.206 1.155-.561 1.733l4.338 3.811c.279.246.395.609.314.975l-1.304 5.345c-.199.842.708 1.534 1.468 1.089l4.801-2.822c.313-.181.695-.181 1.006 0l4.803 2.822c.759.445 1.666-.23 1.468-1.089l-1.288-5.345c-.081-.365.035-.729.313-.975l4.34-3.811c.627-.578.263-1.651-.594-1.733z"/></svg>