<?xml version="1.0" standalone="no"?>
<!DOCTYPE svg PUBLIC "-//W3C//DTD SVG 1.1//EN" "http://www.w3.org/Graphics/SVG/1.1/DTD/svg11.dtd" >
<svg xmlns="http://www.w3.org/2000/svg">
<metadata></metadata>
<defs>
<font id="gfs_artemisiabold_italic" horiz-adv-x="1277" >
<font-face units-per-em="2048" ascent="1638" descent="-410" />
<missing-glyph horiz-adv-x="655" />
<glyph unicode="ff" horiz-adv-x="1429" d="M-289 -338q0 63 51 92q36 19 103 19q46 0 110 -11q-16 -50 -16 -92q0 -69 45 -69q7 0 27 4q77 23 112 188l213 1041h-184l18 84h187q41 196 96 282q125 186 395 186q135 0 189 -28q25 -18 35 -41q126 129 335 129q135 0 187.5 -30.5t52.5 -104.5q0 -66 -51 -92 q-34 -21 -103 -21q-57 0 -110 12q16 50 16 93q0 69 -45 69q-8 0 -24 -4q-73 -25 -107 -186l-55 -264h278l-20 -84h-279q-21 -100 -79 -367t-89 -414q-48 -227 -106 -315q-126 -211 -397 -211q-138 0 -191 29q-36 22 -47 71q-118 -100 -305 -100q-138 0 -190 29.5t-52 105.5z M371 -227q63 5 147 -11q-18 -46 -18 -92q0 -69 47 -69q6 0 26 4q79 28 113 188l213 1043l-272 -2l-170 -781l-29 -125q-21 -87 -57 -155zM643 918l279 2q11 62 59 223q-72 -3 -135 8q14 43 14 92q0 70 -45 70q-4 0 -24 -4q-70 -21 -105 -187z" />
<glyph unicode="fi" horiz-adv-x="1472" d="M-283.5 -326.5q10.5 44.5 50.5 68.5q51 20 110.5 19.5t114.5 -11.5q-8 -21 -13 -47.5t-5.5 -55.5t11 -48t35.5 -19q32 -1 58.5 20t43.5 56t27.5 65.5t16.5 61.5q225 1089 225 1091h-190l22 93h189q57 269 151 385q125 156 381 170q266 16 346 -31q29 -18 45 -59.5 t5.5 -87t-50.5 -68.5q-37 -22 -107.5 -22.5t-109.5 14.5q16 44 -18.5 106.5t-102.5 61.5q-45 -1 -82 -21.5t-59.5 -52.5t-35 -61.5t-17.5 -57.5l-60 -276l322 12q172 7 319 55q-100 -265 -188 -608q-17 -64 -25 -111t-9 -92t16.5 -68t52.5 -22q38 1 90.5 57t105.5 150 l58 -25q-45 -88 -92.5 -153.5t-82 -98.5t-75.5 -55.5t-59 -27.5t-46 -11q-22 -8 -59 -3.5t-73.5 15t-65 41t-33.5 72.5q-16 151 64 441q48 181 79 342q-122 2 -317 0q1 1 -44 -203t-91 -409t-47 -210q-28 -133 -43 -178q-121 -374 -488 -375h-2q-145 0 -198 31 q-29 17 -45 56.5t-5.5 84z" />
<glyph unicode="fl" horiz-adv-x="1452" d="M-289 -338q0 63 51 92q36 19 103 19q46 0 110 -11q-16 -50 -16 -92q0 -69 45 -69q7 0 27 4q77 24 112 188l219 1041h-186l17 84h186q48 220 104 311q132 217 400 217q85 0 121 -4q85 -12 133 -60q75 9 290 70q-29 -80 -159 -627q-120 -503 -129 -569q-15 -89 -15 -100 q0 -42 52 -45q63 -9 182 172l47 -31q-164 -286 -375 -283q-160 3 -145 150q9 120 112 569q106 477 119 578q-27 -68 -145 -68q-59 0 -111 12q17 53 17 93q0 69 -46 69q-8 0 -24 -4q-73 -25 -107 -186l-55 -264h279l-21 -84h-274l-172 -781q-47 -222 -105 -315 q-129 -211 -399 -211q-138 0 -190 29.5t-52 105.5z" />
<glyph unicode="ffi" horiz-adv-x="2160" d="M-283.5 -326.5q10.5 44.5 50.5 68.5q64 36 223 8q-8 -23 -13 -52.5t-3.5 -59.5t17.5 -46.5t46 -9.5q25 6 46 23t36.5 46.5t27 58t21.5 72t16 73.5t14.5 78t12.5 71q25 122 91.5 441.5t90.5 431.5h-194l20 90h195q36 165 68.5 249t99.5 158q72 78 174 113.5t248 34.5 q3 0 33.5 0.5t43 0t43.5 -3t50.5 -8.5t47 -15.5t51.5 -26t46 -37.5q72 45 135.5 64.5t177.5 25.5q273 12 346 -31q29 -18 45 -59.5t5.5 -87t-50.5 -68.5q-37 -22 -107.5 -22.5t-109.5 14.5q16 44 -18.5 106.5t-102.5 61.5q-45 -1 -82 -21.5t-59.5 -52.5t-35 -61.5 t-17.5 -57.5l-60 -276l322 12q173 7 320 55q-103 -274 -189 -608q-17 -64 -25 -111t-9 -92t16.5 -68t52.5 -22q38 1 91 57.5t106 149.5l57 -25q-45 -88 -92.5 -153.5t-82 -98.5t-75 -55.5t-58.5 -28t-46 -10.5q-22 -8 -59.5 -3.5t-73.5 15t-65 41t-34 72.5q-16 151 64 441 q52 196 80 342q-123 2 -318 0q1 1 -44 -203t-91 -409t-47 -210q-28 -133 -43 -178q-121 -374 -488 -375h-2q-145 0 -198 31q-29 17 -45 56.5t-5.5 84t50.5 68.5q51 20 110.5 19.5t114.5 -11.5q-8 -21 -12.5 -47.5t-5 -55t11 -48t35.5 -19.5q26 -1 48.5 14t37.5 36.5 t27.5 51.5t19.5 53.5t12 47.5q227 1092 227 1094q-46 0 -129.5 -0.5t-151.5 -0.5t-128 1q-17 -74 -92.5 -439t-100.5 -471q-98 -431 -448 -461q-74 -8 -153 0t-111 27q-29 17 -45 56.5t-5.5 84zM690 967h406q49 203 116 350q-35 44 -60 67t-67.5 40t-97.5 14 q-93 -6 -144 -56t-81 -137q-36 -102 -72 -278z" />
<glyph unicode="ffl" horiz-adv-x="2217" d="M-283.5 -326.5q10.5 44.5 50.5 68.5q64 36 223 8q-8 -23 -13 -52.5t-3.5 -59.5t17.5 -46.5t46 -9.5q25 6 46 23t36.5 46.5t27 58t21.5 72t16 73.5t14.5 78t12.5 71q25 122 91.5 441.5t90.5 431.5h-194l20 90h195q36 165 68.5 249t99.5 158q147 159 422 156 q62 0 149.5 -34.5t144.5 -92.5q129 119 332 119q64 0 95.5 -1.5t81 -17t81.5 -47.5q80 9 305 72q-36 -99 -164 -644t-139 -616q-2 -14 -4.5 -32.5t-4 -28t-3 -22.5t-1.5 -19.5t0.5 -15t3 -12t6 -8.5t10 -7.5t14 -4.5t18.5 -3q41 -4 84 39.5t109 142.5l49 -31 q-80 -145 -173 -223.5t-220 -77.5q-79 2 -121 44t-35 116q14 131 121 603.5t123 604.5q-14 -35 -45 -51q-30 -17 -82 -19.5t-80.5 1.5t-50.5 8v2q7 24 12 50.5t3.5 58t-13.5 47.5q-21 21 -60 8q-26 -9 -46 -30t-32.5 -54t-18.5 -55t-13 -58l-60 -274h293l-20 -93h-289 l-59 -268q-21 -97 -52 -240.5t-49 -226t-18 -84.5q-29 -136 -47 -189q-81 -241 -267 -323q-97 -43 -221 -43q-145 0 -198 31q-29 18 -45 58t-5.5 84t50.5 67q8 4 10 6q31 13 82.5 14t82 -2.5t50.5 -7.5q-9 -24 -13.5 -54.5t-2.5 -61.5t20.5 -46.5t52.5 -3.5q1 0 4 1t4 1 q75 35 109 197l78 367q31 143 68.5 323t60 291.5t22.5 112.5q-206 -3 -409 0q-17 -74 -92.5 -439t-100.5 -471q-98 -431 -448 -461q-74 -8 -153 0t-111 27q-29 17 -45 56.5t-5.5 84zM690 967h410q4 15 14.5 59t15.5 62t16 55t20.5 60t24.5 53t32 57q-48 58 -104 86t-138 24 q-94 -6 -142 -50t-77 -128q-36 -102 -72 -278z" />
<glyph unicode=" "  horiz-adv-x="655" />
<glyph unicode="&#x09;" horiz-adv-x="655" />
<glyph unicode="&#xa0;" horiz-adv-x="655" />
<glyph unicode="!" horiz-adv-x="620" d="M145 102q11 56 59.5 96t106.5 40q56 0 87.5 -39.5t21.5 -96.5q-12 -57 -61.5 -96t-106.5 -39t-88 39t-19 96zM293 358q4 66 9 258.5t15.5 341t32.5 254.5q15 66 73 115t124 49q72 0 109 -47t20 -117q-23 -107 -75 -254t-129.5 -342t-100.5 -258h-78z" />
<glyph unicode="&#x22;" horiz-adv-x="876" d="M176 819q2 31 5.5 140t10 188t19.5 139q7 40 49 69t82 29q41 0 73 -29.5t25 -68.5q-13 -60 -40.5 -140t-69.5 -186.5t-54 -140.5h-100zM502 819q3 42 7 142.5t10 183.5t18 141q9 40 50.5 70t82.5 30q42 0 73.5 -30t22.5 -70q-12 -58 -40 -140t-68.5 -185.5t-53.5 -141.5 h-102z" />
<glyph unicode="#" horiz-adv-x="1501" d="M-41 383l92 168h307l127 211h-329l90 172h327l252 446h185l-254 -446h272l254 446h186l-256 -446h293l-88 -172h-293l-127 -211h314l-94 -168h-314l-221 -385h-182l221 385h-272l-222 -385h-184l223 385h-307zM543 551h272l127 211h-274z" />
<glyph unicode="$" horiz-adv-x="1406" d="M203 -27q22 131 28 213q4 43 4.5 103t-1.5 99l-1 38h60q75 -373 350 -379q21 0 31 2l119 553q-78 43 -111 62q-51 27 -89.5 52.5t-72 55.5t-54 62.5t-32.5 70t-11.5 82t13.5 96.5q38 158 187 261t338 100h10l22 110h84l-24 -116q57 -9 155 -35.5t129 -26.5q9 0 16.5 2 t13.5 4.5t11 7.5l8.5 8.5t7 10.5t5.5 10.5t4.5 11.5t3 10.5t2.5 10t2 8.5h55q-24 -131 -34 -215q-4 -44 -8 -107.5t-6 -105.5l-1 -41h-59q-21 170 -106.5 260.5t-215.5 112.5l-98 -469q66 -29 104 -53q119 -72 166 -109q197 -159 150 -381q-20 -94 -82.5 -168t-151 -118.5 t-185.5 -68.5t-198 -28l-28 -137h-84l28 137h-4q-70 3 -137 22t-113.5 35.5t-70.5 16.5q-58 0 -74 -70h-55zM705 1161q-17 -82 26 -134t131 -95l92 440h-8q-81 0 -154 -66t-87 -145zM760 63q99 29 178 95.5t94 132.5q17 72 -20.5 132t-145.5 132z" />
<glyph unicode="%" horiz-adv-x="1443" d="M344 -33l1086 1452h75l-1085 -1452h-76zM397 1006q28 129 132.5 218t226.5 89q110 0 175.5 -81.5t39.5 -197.5q-28 -130 -132 -219.5t-229 -89.5q-109 0 -174 80t-39 201zM541 846q12 -77 82 -78q133 0 184 250q7 31 11 54t8 54.5t0.5 54.5t-11.5 44t-27 32t-47 11 q-130 0 -180 -252q-25 -123 -20 -170zM811 283q29 131 128 219.5t228 87.5q124 -1 184 -80t33 -199q-28 -130 -132.5 -220.5t-227.5 -90.5q-110 0 -174.5 80.5t-38.5 202.5zM953 129.5q3 -21.5 10.5 -43t26 -32.5t46.5 -11q133 0 185 248q6 29 8 41.5t6.5 41.5t4 43.5 t-0.5 38.5t-6.5 36.5t-16 26.5t-25.5 20t-38 6q-128 0 -178 -254q-8 -32 -12 -53t-8.5 -54t-1.5 -54.5z" />
<glyph unicode="&#x26;" horiz-adv-x="1605" d="M166 373q11 50 35.5 95.5t61.5 84t73.5 68.5t89 60.5t89 49.5t91.5 45q-33 205 27 340q57 134 187.5 230t254.5 96q97 0 155.5 -66.5t37.5 -165.5q-10 -46 -36.5 -90t-55.5 -74.5t-79 -66.5t-82 -55t-90.5 -52.5t-80.5 -46.5q52 -149 105.5 -253t140.5 -199 q38 37 88.5 95.5t109.5 152t70 161.5q7 38 -18 53.5t-83 12.5l11 55q184 -2 239 -2q102 0 254 12l-14 -65q-151 -6 -293 -182q-237 -296 -313 -359q43 -66 119.5 -98.5t160.5 -32.5q45 0 102.5 14.5t90.5 34.5l4 -28q-3 -3 -19.5 -23.5t-26.5 -32t-32.5 -34t-41.5 -37 t-49 -33.5t-60 -30.5t-69 -21t-81 -12.5q-92 -9 -163.5 27t-133.5 115q-193 -148 -412 -148q-255 0 -335 95.5t-29 310.5zM434 467q-33 -153 33.5 -245t232.5 -101q39 -1 95 16.5t98 44.5q-99 111 -162.5 236t-109.5 280q-168 -136 -187 -231zM813 1141q-10 -108 14 -244 q87 50 153 121.5t83 155.5q13 56 -15.5 110.5t-78.5 54.5q-68 0 -108 -58.5t-48 -139.5z" />
<glyph unicode="'" horiz-adv-x="552" d="M115 924q96 55 142.5 94.5t64.5 89.5q7 22 -2 31.5t-27 15.5q-8 4 -32.5 0.5t-45.5 1.5q-28 11 -36.5 35.5t3.5 77.5q13 51 56 80.5t88 29.5q71 0 106 -49.5t17 -136.5q-24 -114 -100 -188t-210 -144z" />
<glyph unicode="(" horiz-adv-x="483" d="M102 596q55 256 201.5 456t388.5 355l41 -43q-86 -78 -150 -171t-106.5 -202t-67 -196.5t-51.5 -212.5q-25 -119 -36 -203.5t-12 -183.5t24 -186t76 -165l-58 -47q-358 290 -250 799z" />
<glyph unicode=")" horiz-adv-x="616" d="M-125 -156q68 63 122 135t90 139t66 149.5t48 152t37 162.5q21 100 33 168.5t20.5 162t2.5 164t-30 147.5t-67 140l59 43q353 -313 246 -811q-111 -507 -590 -799z" />
<glyph unicode="*" horiz-adv-x="808" d="M106 838q8 37 56 64t102 40t119.5 27t89.5 24q-21 10 -81 24t-108.5 26t-84.5 40t-27 68q7 33 39 56.5t65 23.5q29 0 69 -43t81.5 -100.5t60.5 -73.5q7 45 -3 145t1 144q8 37 35.5 65.5t63.5 28.5q35 0 51 -29t8 -65q-11 -50 -63.5 -147.5t-65.5 -141.5q26 16 91 74 t123 101.5t87 43.5q35 0 58 -23.5t16 -56.5q-8 -38 -56.5 -66.5t-103 -41t-121 -26.5t-90.5 -24q21 -11 80 -24.5t108.5 -26t86 -39.5t28.5 -65q-6 -31 -38 -55.5t-64 -24.5q-31 0 -71.5 42t-83.5 99.5t-62 73.5q-5 -45 9.5 -147t6.5 -146q-8 -32 -39 -61t-63 -29 q-35 0 -52.5 27.5t-9.5 62.5q10 52 61 151t64 142q-26 -16 -92 -74.5t-124 -101.5t-89 -43q-34 0 -54.5 25t-13.5 57z" />
<glyph unicode="+" horiz-adv-x="1101" d="M49 414l35 166h408l86 403h165l-86 -403h408l-35 -166h-407l-91 -414h-163l88 414h-408z" />
<glyph unicode="," horiz-adv-x="575" d="M111 -244q43 25 65 39t58 41.5t56.5 56.5t26.5 62q5 16 -2 29.5t-22 13.5q-10 0 -30 -8t-30 -8q-35 0 -53.5 23.5t-11.5 60.5q12 50 53.5 82t89.5 32q73 0 109.5 -42t21.5 -115q-22 -100 -110 -184.5t-197 -131.5z" />
<glyph unicode="-" horiz-adv-x="698" d="M70 356l30 152h467l-30 -152h-467z" />
<glyph unicode="." horiz-adv-x="555" d="M150 102q10 55 58.5 95.5t104.5 40.5q57 0 89 -39.5t22 -96.5q-12 -57 -61.5 -96t-106.5 -39t-87.5 39t-18.5 96z" />
<glyph unicode="/" horiz-adv-x="905" d="M25 -180l806 1509h158l-811 -1509h-153z" />
<glyph unicode="0" horiz-adv-x="1224" d="M60.5 465q4.5 103 29.5 219q34 163 98 301.5t153 242.5t208 163t254 59q40 -1 76.5 -6t88 -23t91.5 -48t77 -85.5t55.5 -129.5t17 -186.5t-30.5 -250.5q-24 -112 -60 -214t-95 -203.5t-133 -175t-178.5 -119.5t-226.5 -46q-119 -1 -205 38.5t-133.5 106.5t-69 160.5 t-17 196.5zM340 347q-14 -304 162 -304q41 0 79.5 19.5t68.5 50t58.5 79t50 95t42 109t33.5 111t27.5 111.5t21.5 99t16 85q1 7 2 11.5t2 10t2 10.5q9 44 15 80t13 95t7.5 104.5t-6.5 97t-23.5 85t-48.5 55.5t-78 21q-50 -1 -96.5 -31t-81.5 -75.5t-68 -110.5t-55 -125.5 t-42.5 -131.5t-31.5 -118t-20 -94q-45 -227 -49 -339z" />
<glyph unicode="1" horiz-adv-x="1224" d="M102 0l17 61q68 1 102 15.5t94 58.5q53 39 150 547l115 541h-2l-254 -90l18 86l6 2l549 278l-182 -799v-2q-119 -512 -84 -567q17 -28 36.5 -41.5t35 -16t46.5 -5.5t54 -9l-12 -63q-124 18 -337 20.5t-352 -16.5z" />
<glyph unicode="2" horiz-adv-x="1224" d="M-51 2q35 164 37 164q4 3 83 60t126.5 92.5t128 100.5t145.5 124q152 136 254 270.5t131 239.5q11 41 16.5 75t4.5 79t-15 76t-51 53.5t-96 23.5q-76 1 -147 -51t-98 -132.5t17 -177.5q-35 -23 -99 -29.5t-121 9.5t-70 51q-22 55 -13.5 117t45.5 113q62 84 181.5 131 t263.5 53q80 3 148 1t125 -16.5t101 -42t75.5 -75t47.5 -115.5q20 -85 -6.5 -173.5t-106.5 -178t-152 -158t-206.5 -157.5t-201 -130t-200.5 -120q-56 -33 -81 -48q430 -2 465 0q2 0 18 0.5t25 1t27.5 3.5t32 8.5t32 15.5t33.5 24t31.5 35t29.5 48q95 -2 95 0 q-36 -84 -70 -175t-50 -140l-16 -50h-919z" />
<glyph unicode="3" horiz-adv-x="1224" d="M31 279q13 58 68 102.5t112 44.5q66 0 104 -12.5t54 -44.5q-38 -55 -53 -106.5t-8.5 -88t24.5 -65.5t41 -44.5t45 -19.5q84 -14 167 16.5t140.5 88t84.5 138t7 158.5q-35 137 -124 193.5t-277 42.5q28 137 30 137q129 0 198 15q107 23 175 79q74 63 109.5 157.5 t12.5 177.5t-105 108q-50 16 -115.5 1.5t-116.5 -53t-69.5 -98.5t26.5 -137q-44 -31 -110 -43t-123 8t-66 74q-13 65 19 125t80.5 97t109.5 65q26 12 53 20.5t47 14t50.5 9t45 5t50 1.5t46.5 -0.5t54.5 -2.5t54.5 -2q54 -2 106.5 -14t102.5 -38t85 -62.5t50.5 -93 t2.5 -124.5q-52 -279 -527 -350q8 -1 34 -4q56 -5 94 -10.5t107 -29.5t108.5 -60.5t64.5 -108t10 -166.5q-16 -107 -79 -189t-159 -131t-211 -73t-245 -23q-56 1 -104.5 6t-111.5 25t-103.5 52t-61.5 92t-4 141z" />
<glyph unicode="4" horiz-adv-x="1224" d="M-27 287l9 43h-2l933 1089h168l-217 -1022h219l-22 -110h-217q-2 -5 -4.5 -12.5t-7.5 -29t-7.5 -40.5t0 -40t11.5 -34q17 -26 37 -39t34.5 -16.5t46 -7.5t54.5 -9l-15 -63q-124 18 -332 20.5t-346 -16.5l15 61q48 1 80.5 10t51.5 20t64 44q37 26 66 152h-619zM170 401 h453l153 713z" />
<glyph unicode="5" horiz-adv-x="1224" d="M29 163q-16 53 3 111t72 107q58 52 147 47.5t124 -53.5q-44 -60 -60.5 -120.5t-5.5 -105t43 -74t78 -32.5q82 -6 152.5 40t114 120t66.5 160.5t19 164.5q-4 79 -26 137.5t-56 91.5t-76.5 52.5t-89 22t-92.5 -1t-87 -14.5t-73 -21t-50.5 -18t-18.5 -9q59 171 98.5 365.5 t30.5 285.5h858q0 -2 -29 -59t-57.5 -113t-28.5 -55q-1 0 -330 1t-333 1q-60 -295 -62 -295q14 3 73 20t110 26.5t121 15t144.5 -10t143.5 -53.5q102 -55 133.5 -181.5t-4.5 -265.5t-120 -245q-52 -65 -109.5 -110.5t-112.5 -72t-122.5 -40.5t-127.5 -17.5t-139 -1.5 q-85 2 -155 30t-110 72.5t-56 97.5z" />
<glyph unicode="6" horiz-adv-x="1224" d="M96 391q-4 107 19.5 246.5t88.5 303t161 273.5q62 72 129.5 120t139 71.5t135.5 32t142 8.5q71 0 135 -14t117 -42.5t78 -79t10 -116.5q-15 -61 -77 -99t-137 -35t-124 48q41 62 55.5 113t4.5 81.5t-36.5 49t-62.5 20.5t-77 -9.5t-78 -35.5q-33 -22 -63 -54.5 t-54.5 -72.5t-45 -80.5t-37.5 -90t-29.5 -88t-24 -86.5t-17 -73.5t-12.5 -62t-8 -39.5l13 13q13 13 36.5 33t54.5 42t76 43.5t92 32.5q103 27 184 17t141 -44.5t94 -95t43.5 -134.5t-11 -164t-68.5 -183q-79 -152 -216.5 -214.5t-360.5 -64.5q-104 -1 -183 33.5t-126 96.5 t-71.5 137t-29.5 163zM384 305q2 -70 15.5 -127t45.5 -94t81 -37q52 0 99.5 23t83 61.5t65 88t48 104.5t28 109.5t8 103.5t-13.5 86q-26 77 -84 103.5t-122.5 6.5t-127 -68.5t-102.5 -111.5q-12 -52 -19 -115t-5 -133z" />
<glyph unicode="7" horiz-adv-x="1224" d="M201 0q91 231 351.5 598.5t451.5 589.5q-1 1 -87.5 2.5t-194 2t-204.5 -2.5q-31 -1 -56 -9.5t-40 -19t-27 -27t-17 -28t-11.5 -28.5t-8.5 -21l-77 -3q-15 1 -15 3q1 1 29 91.5t56 179.5t30 87q1 2 222 3t441.5 0.5t219.5 -3.5q-108 -133 -241.5 -367t-234.5 -451 t-168.5 -390.5t-62.5 -206.5h-39q-39 0 -90 -0.5t-103.5 -0.5h-88.5t-35 1z" />
<glyph unicode="8" horiz-adv-x="1224" d="M121 350q0 96 41.5 179.5t124 139.5t192.5 66q-18 12 -56 37t-61.5 41t-58 42t-55.5 50.5t-42.5 54.5t-31.5 65t-10 73q0 92 39 160t108.5 106.5t152 57t183.5 20.5q94 2 176.5 -17t148 -59.5t104.5 -108t40 -155.5q1 -122 -93 -208t-210 -97q352 -162 352 -410 q1 -113 -40 -196.5t-115 -131t-164 -69.5t-201 -23q-248 -3 -386 91.5t-138 291.5zM389 334q2 -40 18 -88t44.5 -94.5t77.5 -77.5t108 -31q73 0 126.5 25t83 67.5t43 91t13.5 103.5q0 36 -8.5 68t-29 61.5t-38.5 50.5t-54 48.5t-57 42t-67 43.5t-65 42q-57 -19 -98.5 -63 t-61 -98.5t-28 -102t-7.5 -88.5zM414 1124q8 -40 33.5 -77t65 -67.5t72 -50.5t77 -44t55.5 -31q60 23 102.5 95t48.5 143q9 130 -50 203t-175 73q-82 0 -139.5 -38.5t-78 -93t-11.5 -112.5z" />
<glyph unicode="9" horiz-adv-x="1224" d="M82 211q15 62 77 100.5t136.5 35t122.5 -49.5q-40 -62 -54 -112.5t-3.5 -81t36.5 -49t62 -21t77 9t78 35.5q49 32 91.5 90.5t70 117t53.5 137t37 126t24.5 110.5t14.5 66l-13 -13q-13 -13 -37 -33t-55 -42t-76 -43.5t-91 -32.5q-104 -26 -184.5 -17t-139 41.5t-92 90.5 t-42 130t11 160.5t65.5 180.5q70 139 218.5 219.5t356.5 79.5q94 -1 165 -24.5t115 -62.5t72.5 -96t40.5 -116.5t15 -132.5q5 -106 -17.5 -245t-87.5 -302.5t-161 -273.5q-62 -72 -130 -120.5t-140 -71.5t-135.5 -31.5t-141.5 -8.5q-71 -1 -135.5 13t-117 42.5t-77.5 79 t-10 115.5zM466.5 879.5q0.5 -61.5 18.5 -105.5q31 -75 90 -100t123 -4t126 70t102 114q16 68 23 148t3 164t-37 139.5t-94 56.5q-62 1 -120 -30t-99.5 -81t-73.5 -114.5t-47 -130t-14.5 -127z" />
<glyph unicode=":" horiz-adv-x="462" d="M92 92q9 48 53 84.5t93 36.5q47 0 76 -37t20 -84q-10 -49 -55 -84t-93 -35t-76 35t-18 84zM244 809q10 49 53.5 85t91.5 36q47 0 76 -36t20 -85q-11 -48 -54.5 -83.5t-92.5 -35.5q-47 0 -75.5 36t-18.5 83z" />
<glyph unicode=";" horiz-adv-x="559" d="M82 -260q124 73 174 119q67 61 78 123q6 19 0 34q-37 -16 -53 -16q-45 0 -74 29t-19 73q10 58 64.5 98t112.5 40q65 0 92.5 -57.5t13.5 -125.5q-23 -111 -111.5 -203t-205.5 -145zM340 809q10 49 53.5 85t91.5 36t77 -36t20 -85q-11 -48 -55 -83.5t-93 -35.5 q-47 0 -75.5 36t-18.5 83z" />
<glyph unicode="&#x3c;" horiz-adv-x="677" d="M45 528l21 99l727 598l-58 -246l-491 -401l319 -404l-47 -250z" />
<glyph unicode="=" horiz-adv-x="1153" d="M4 225l37 174h1028l-37 -174h-1028zM90 633l37 172h1028l-37 -172h-1028z" />
<glyph unicode="&#x3e;" horiz-adv-x="675" d="M-106 -76l53 250l491 404l-321 401l53 246l469 -598l-23 -99z" />
<glyph unicode="?" horiz-adv-x="940" d="M84 1108q14 65 69.5 117.5t129.5 82t148.5 45t137.5 15.5q70 0 138.5 -17.5t126.5 -51t86.5 -90.5t13.5 -128q-14 -66 -50 -125t-83.5 -105t-102.5 -90t-110.5 -89.5t-104 -94t-86 -111.5t-53.5 -134h-51q27 155 31 170q15 71 46 134t67 106.5t77 90.5t76 86t64.5 93 t41.5 112q18 85 -23.5 128.5t-113.5 45.5q-70 0 -129.5 -33.5t-71.5 -86.5q-5 -26 5.5 -50t5.5 -45q-7 -37 -51.5 -59.5t-106.5 -22.5q-65 0 -100.5 30.5t-26.5 76.5zM154 94q12 51 56.5 86t96.5 35q51 0 79.5 -35t16.5 -86q-12 -54 -54.5 -89.5t-94.5 -35.5t-80.5 35.5 t-19.5 89.5z" />
<glyph unicode="@" horiz-adv-x="1423" d="M40.5 358q-32.5 122 0.5 269q41 192 166.5 351.5t306.5 252t377 92.5q121 0 226.5 -39t179.5 -107.5t105.5 -172t6.5 -224.5q-30 -139 -126 -263t-212.5 -193.5t-216.5 -69.5q-67 0 -95 47.5t-16 112.5q-79 -77 -135.5 -113.5t-128.5 -36.5q-111 0 -166 79.5t-30 197.5 q17 77 67 155t118 138.5t153 98.5t165 38q68 0 102.5 -39.5t31.5 -106.5h6l61 127h166l-262 -534q-47 -107 22 -107q43 0 102 36.5t117.5 96.5t107.5 149t69 183q25 120 -17.5 222t-149 165.5t-257.5 63.5q-263 0 -471 -165t-262 -421q-29 -131 -3 -239t91.5 -184.5 t171 -118.5t235.5 -42q150 0 290 72.5t249 198.5h117q-123 -166 -309 -265.5t-376 -99.5q-145 0 -266.5 49t-200 136.5t-111 209.5zM433 408q0 -37 22.5 -64t64.5 -27q59 0 122 53.5t110 129.5t80.5 151t44.5 127t-5.5 97t-66.5 45q-47 0 -98.5 -32.5t-94.5 -83t-80 -110 t-61 -115t-33 -96.5q-5 -38 -5 -75z" />
<glyph unicode="A" horiz-adv-x="1607" d="M-78 0l12 57h16.5t40 3.5t55 11t54.5 25t47 42.5q93 127 295.5 454t359.5 591l156 264h146q0 -3 54 -298.5t116 -617t78 -370.5q17 -57 62 -80t112 -25l-15 -57q-241 12 -364 12q-49 0 -134 -3t-145 -6l-61 -3l14 57q166 0 185 99q2 13 2 32q0 28 -5 70q-9 68 -21 120 l-13 52l-496 2q-15 -24 -38.5 -61.5t-66.5 -119t-51 -120.5q-1 -6 -1 -11q0 -28 35 -44q42 -19 106 -19l-15 -57q-127 8 -225 8zM524 530h430l-114 545z" />
<glyph unicode="B" horiz-adv-x="1554" d="M14 0l15 63q128 3 202 72q48 44 152 555q0 2 7.5 36.5t15 71.5t18.5 90.5t20 104.5t17 102t13 94.5t5 70.5q0 33 -18 55.5t-49 31t-54 11.5t-50 4h-7l12 57q18 -2 435 -5t436 -5q88 -7 161 -36.5t123 -89t50 -140.5q0 -91 -51 -164.5t-133.5 -117.5t-178.5 -67 q-92 -22 -186 -22h-8q485 -15 485 -295q0 -81 -27 -150t-71 -117t-104 -85.5t-123 -60.5t-132 -38t-126 -20.5t-109 -5.5h-590h-150zM528 88q61 -6 101 -6q80 0 152 16t138.5 50.5t114 98t66.5 150.5q10 52 10 86q0 47 -14.5 85t-36.5 62t-53 42t-58.5 26.5t-58.5 13.5 t-46.5 6t-29.5 1l-151 -4zM678 797q71 0 138.5 8.5t139.5 31.5t125.5 59t88 96t34.5 136q0 88 -56 138.5t-140 56.5q-39 3 -94 5q-41 1 -70 1q-10 -1 -18 -1l-33 1l-23 -104q-22 -105 -50.5 -239t-41.5 -189z" />
<glyph unicode="C" horiz-adv-x="1542" d="M139 506q0 175 55 329.5t147 264.5t210 190t245 119t251 39q83 0 162.5 -18t131 -36t66.5 -18q82 0 115 72h45l-84 -483h-58q-2 85 -23.5 154.5t-63 124t-110.5 84.5t-161 30q-418 0 -557 -649q-11 -52 -18 -107q-8 -55 -8 -119v-8q0 -60 8 -113q8 -57 30 -111.5t56 -94 t89 -63t126 -23.5q55 0 107 8.5t100 27t83 34t77 44t60 41.5t54.5 42.5t38.5 31.5l45 -57q-2 -5 -28.5 -30t-84.5 -67t-130 -80t-178 -66t-216 -28q-92 0 -175.5 18.5t-158.5 59.5t-129.5 102t-86.5 152t-32 203z" />
<glyph unicode="D" horiz-adv-x="1650" d="M14 0l13 61q139 4 209 74q12 12 26.5 46.5t28.5 82.5t27 98.5t25 108.5t20 97.5t15.5 79t8.5 42.5q94 458 94 570q0 21 -7 37.5t-21 26.5t-27 16t-34.5 9t-33.5 4t-33.5 1h-25.5l14 65l578 -2q224 -1 384 -58.5t249.5 -178t89.5 -297.5q0 -191 -73 -354.5t-202.5 -280 t-315 -182.5t-402.5 -66h-607zM528 80q37 0 80.5 -1t46.5 -1q118 0 220.5 52.5t175 141t124.5 203.5t77.5 241t25.5 253q0 202 -105.5 281t-353.5 79q-29 0 -31 -2q-2 0 -67.5 -311.5t-129.5 -623.5t-63 -312z" />
<glyph unicode="E" horiz-adv-x="1552" d="M8 0l15 61q128 3 204 74q48 46 152 555q0 2 7.5 36.5t15 71.5t18.5 90.5t20 104.5t17 102t13 94.5t5 70.5q0 21 -7 37.5t-20.5 26t-27 15.5t-34 8.5t-33 3.5t-32.5 1h-26l12 65q136 -2 318 -2l911 2q-11 -47 -17.5 -82.5t-9 -59t-8 -82.5t-12.5 -116h-70q-9 61 -22 102 t-30.5 61.5t-30 30t-34.5 17.5t-30 12q-4 1 -23.5 4.5t-31.5 5.5t-48.5 5.5t-79 5t-117.5 3t-169 1.5q-52 -253 -111 -528h35q290 0 348 28q35 17 76 72t57 119h70q0 -11 -8.5 -44.5t-26.5 -99t-29 -108.5q-21 -84 -35 -178.5t-18 -110.5l-74 2q3 33 3 60q0 37 -6 62 q-11 44 -48 71q-38 26 -305 26h-59q-27 -130 -60 -282.5t-51 -235.5t-18 -84q93 0 172 3t128.5 7t95.5 10.5t66 10.5t47.5 10.5t32.5 7.5q4 2 31.5 14t38 18t37 25.5t43.5 41.5t40 60t44 87l72 -2q-21 -66 -48.5 -149t-41.5 -129t-29 -109h-936h-328z" />
<glyph unicode="F" horiz-adv-x="1521" d="M8 -4l15 64q128 3 204 75q34 32 85 245.5t67 309.5q100 447 100 567q0 28 -6 39q-11 18 -26.5 29.5t-39.5 17t-37 7t-42 2t-31 0.5l12 68q253 -8 543 -9q325 0 698 10q-23 -100 -33 -162t-24 -204h-53q-9 61 -22.5 105t-25 67t-31 39.5t-29.5 21t-32 12.5 q-40 14 -132 19.5t-365 5.5q-14 -42 -117 -524q63 -2 117 -2q231 0 284 35q83 53 127 184q62 -2 62 0q-45 -143 -72 -270q-13 -62 -24.5 -129t-16 -106t-2.5 -38h-67q8 22 8 50q0 21 -4 45q-10 57 -45 98q-28 33 -251 33q-64 0 -143 -3q-1 -6 -16 -73.5t-29 -133t-30 -152.5 q-14 -87 -18 -133q-1 -15 -2 -28q0 -26 5 -43q50 -73 176 -76l-14 -67q-16 9 -186.5 16.5t-225.5 7.5q-42 0 -151 -5.5t-160 -14.5z" />
<glyph unicode="G" horiz-adv-x="1622" d="M139 494q0 189 69 363t188 304.5t290.5 208.5t366.5 78q94 0 170.5 -18t124.5 -36t73 -18q24 0 61.5 16.5t53.5 55.5h47q-8 -3 -30.5 -117t-38.5 -226q-12 -75 -12 -99q0 -12 3 -11l-57 -2q-7 40 -14 69.5t-21 70.5t-32 70.5t-47.5 61t-65.5 51.5t-88.5 33t-114.5 13 q-103 0 -191 -41t-150 -112t-109 -160.5t-75 -191.5t-41.5 -200t-13.5 -192q0 -199 75.5 -303.5t242.5 -104.5q89 4 151.5 42t96.5 81q0 2 14.5 65t26.5 119.5t23 126t11 107.5q0 23 -7 41t-22.5 28.5t-28.5 17.5t-36 10t-33.5 3.5l-31.5 1.5l16 64q15 -5 145 -10.5 t168 -5.5q44 0 172.5 4.5t145.5 9.5l-10 -60q-31 -1 -50 -4.5t-48 -19t-58 -45.5q-18 -18 -41 -99t-39.5 -162.5t-32 -167.5t-16.5 -91q-4 -1 -63 -25t-126.5 -49t-165 -46.5t-178.5 -21.5q-98 0 -188.5 18t-175 58t-146.5 99.5t-99.5 149t-37.5 198.5z" />
<glyph unicode="H" horiz-adv-x="1781" d="M14 0l15 61q68 1 102 15t96 59q10 8 22 34.5t25.5 72.5t25 88t26 106t22.5 100t21.5 98t15.5 73q1 7 11 54.5t21.5 102t24.5 127t21 129.5q8 58 11 110q1 12 1 22q0 34 -8 44q-11 27 -32 40.5t-39.5 15.5t-51 2t-47.5 2l12 61q63 -11 323 -12q25 0 50 -1q224 0 352 13 l-12 -65q-116 -9 -138 -16q-28 -9 -59 -42q-25 -29 -52 -111.5t-45.5 -161t-40.5 -180.5q-5 -23 -7 -34h592q69 322 69 437q0 39 -8 54q-13 26 -35 39.5t-40 15.5t-50 2.5t-47 2.5l13 59q62 -11 322 -12q25 0 49 -1q225 0 356 13l-13 -57q-107 -10 -140.5 -20.5t-64.5 -49.5 q-20 -26 -46.5 -110t-44.5 -163t-41.5 -187.5t-28.5 -129.5q-91 -389 -91 -513q0 -39 9 -52q17 -28 36.5 -42t34.5 -16.5t46.5 -5.5t54.5 -8l-15 -63q-136 16 -351 19h-55q-180 0 -310 -17l14 64q73 1 112.5 16t84.5 57q31 28 76 208.5t81 361.5h-590q-8 -32 -17 -70.5 t-24 -106.5t-25 -124q-10 -54 -20 -120q-9 -60 -9 -93v-7q1 -34 9 -57q17 -28 36.5 -41.5t35 -16t46.5 -5.5t54 -9l-12 -63q-124 18 -353 20q-27 0 -52 1q-193 0 -314 -17z" />
<glyph unicode="I" horiz-adv-x="915" d="M14 0l15 61q68 1 102 15t96 59q49 39 158 578q1 7 11.5 54t22 101.5t25 126.5t21.5 129q9 57 11 108v18q0 36 -9 46q-13 25 -34.5 38.5t-39 15.5t-49.5 3t-47 3l14 63q62 -11 321 -13h49q224 0 353 13l-14 -61q-106 -10 -136.5 -19t-64.5 -45q-11 -13 -24 -45.5t-27 -80 t-26.5 -95.5t-26.5 -109.5t-23 -103t-20.5 -95t-14.5 -67.5q-92 -396 -92 -518q0 -36 8 -49q17 -28 36.5 -41.5t35 -16t46.5 -5.5t54 -9l-12 -63q-124 18 -353 20q-27 0 -52 1q-193 0 -314 -17z" />
<glyph unicode="J" horiz-adv-x="997" d="M-61 115q16 42 33 57q11 10 26 18q33 18 69.5 26.5t57.5 7l35 -2.5q-8 -23 -11.5 -48t-0.5 -53.5t26 -45.5q19 -13 50 -13h12q85 8 114 138l111 495q9 41 23 109.5t36 183.5t32 203q4 42 4 68q0 28 -5 38q-7 13 -17.5 23t-25 16t-26 10t-30 6t-27.5 3t-28 1.5t-22 0.5 l14 63q16 -6 174 -11t213 -5q304 0 338 14l-12 -59q-42 -2 -65 -4t-66.5 -17.5t-71.5 -44.5q-11 -11 -25 -47t-29.5 -89t-30 -109t-29 -120t-24.5 -108.5t-19 -86.5t-9 -44l-63 -299q-18 -85 -55 -154t-78 -111.5t-94.5 -73.5t-95 -45.5t-90.5 -23t-70 -9.5t-44 -1 q-153 0 -180 43q-28 42 -28 76q0 13 4 25z" />
<glyph unicode="K" horiz-adv-x="1835" d="M8 0l12 57q114 3 203 80q18 18 44.5 103.5t46.5 171.5t40 180.5t21 97.5q23 104 64 336q32 183 32 243q0 16 -2 23q-7 17 -20 28.5t-26.5 17.5t-33.5 9.5t-33 4t-33.5 0.5h-27.5l14 67q15 -6 173.5 -10t224.5 -4q57 0 181.5 4t143.5 10l-14 -61q-27 -1 -36 -1.5 t-39.5 -4.5t-49 -10t-43 -19t-41.5 -31q-38 -40 -156 -616q532 393 713 565q34 34 38 55t-15 33q-31 25 -160 25l12 63q244 -12 363 -12q220 0 340 12l-13 -65q-10 -1 -43 -3t-45.5 -4t-45.5 -9t-61 -20.5t-72.5 -34.5t-99.5 -55t-124 -79q-37 -24 -124.5 -90.5 t-156.5 -120.5l-69 -55q16 -27 73.5 -123t110.5 -184.5t112 -185t100.5 -160.5t53.5 -76q76 -71 191 -91l-13 -61q-31 10 -372 10q-375 0 -404 -8l14 64h32t40 1t38.5 4t37.5 9t26 18q15 15 15 32q1 38 -119 252q-124 222 -188 318l-209 -149q-19 -95 -38.5 -193t-31 -158 t-12.5 -63q23 -39 75 -58.5t115 -21.5l-14 -61q-16 8 -162 13t-203 5q-47 0 -189 -4.5t-161 -9.5z" />
<glyph unicode="L" horiz-adv-x="1415" d="M8 0l12 66q132 3 205 69q18 18 44.5 104t46.5 172.5t40 181t21 97.5q10 45 23.5 111t36 183.5t32.5 205.5q5 44 5 70t-5 36q-10 18 -26 29.5t-38 17t-38 7.5t-41.5 2.5t-32.5 1.5l14 65q15 -6 163.5 -11t203.5 -5q53 0 204.5 5t168.5 11l-15 -63q-1 0 -19.5 -0.5t-24 -1 t-24 -2.5t-28 -4.5t-26.5 -7t-28.5 -10.5t-25.5 -15.5t-25 -20.5q-32 -34 -88 -267t-75 -337q-5 -22 -37.5 -173t-61.5 -290.5t-28 -134.5q7 -1 41 -1t90 1.5t98 3.5q163 12 219 23q201 40 290 188q22 36 38 80l74 2l-125 -389h-1258z" />
<glyph unicode="M" horiz-adv-x="2062" d="M-6 0l12 61q2 1 15.5 0t39 2t51 8t51.5 18.5t40 31.5q20 26 65.5 204.5t71.5 297.5q1 3 21.5 102.5t42 205t40 205t19.5 119.5q1 30 -16 56.5t-39 34.5q-30 12 -103 12l10 61q262 -2 393 -2t132 2l207 -970l641 966l493 2l-10 -61q-128 0 -193 -60q-17 -17 -37 -67 t-36.5 -109t-34.5 -135t-29 -129t-22 -107t-11 -55q-1 -3 -9.5 -43.5t-16.5 -79.5t-20 -101t-19.5 -108t-15.5 -101q-7 -49 -7 -74v-5q1 -24 6 -45q25 -41 66.5 -54t110.5 -15l-17 -72q-16 9 -181.5 14.5t-231.5 5.5q-38 0 -163.5 -7t-144.5 -13l13 65q127 3 206 74 q14 9 31.5 52t32.5 97.5t31 126t26.5 123t20.5 104t10 54.5l94 473q-8 -12 -205 -303.5t-367 -546t-204 -313.5q-10 72 -78.5 347t-137 538.5t-71.5 275.5q0 -2 -21.5 -109t-48 -236.5t-38.5 -184.5q-2 -12 -15.5 -73t-26.5 -128t-22 -123q-4 -25 -12 -67.5t-11 -63.5 t-1 -45.5t14 -38.5q25 -35 141 -35h19l-2.5 -10t-4.5 -19t-5 -21.5t-1 -8.5t-29 0t-77 -0.5t-105 -1t-115 -0.5h-105t-77.5 0.5t-29.5 1.5z" />
<glyph unicode="N" horiz-adv-x="1763" d="M-6 0l14 66q2 1 16 0t40.5 2t52.5 7t51.5 15.5t38.5 28.5q7 8 17.5 36t22 71t23 87t23.5 98t20.5 90.5t17 77t9.5 44.5q8 29 62.5 311.5t58.5 320.5q-8 68 -53 86q-11 3 -43.5 6.5t-60 5.5t-28.5 3l13 63h469q56 -111 157 -279.5t252 -408t176 -280.5q10 37 40.5 175 t37.5 175q25 117 57 298q26 145 27 191q0 11 -2 17q-7 29 -52 43q-39 12 -76 12h-11l-41 -2q8 41 12 59q0 -1 18.5 -1t50 -1t72 -0.5t85.5 0.5t90 0.5t86 0.5t72.5 0.5t50.5 0.5h20q1 0 -2 -14.5t-6 -29.5l-4 -15q-130 0 -174 -35q-17 -15 -30 -38.5t-19 -41.5t-17.5 -63.5 t-17.5 -67.5q-37 -142 -74 -321q-169 -792 -172 -811h-21.5t-41.5 -0.5t-46.5 -0.5t-17.5 1q-494 816 -682 1126q-71 -358 -96 -475q-40 -172 -62 -324q-4 -22 -12.5 -66.5t-11.5 -64.5t-1 -44.5t13 -39.5q25 -35 141 -35h19l-2.5 -10t-4.5 -19t-5 -21.5t-1 -8.5t-29 0 t-77 -0.5t-105 -1t-115 -0.5h-105t-77.5 0.5t-29.5 1.5z" />
<glyph unicode="O" horiz-adv-x="1687" d="M152 382q-12 57 -12 120q0 83 20 178q32 150 96 275.5t149.5 215.5t191.5 152.5t224 92.5t244 30h10q92 0 174 -18q86 -18 162 -57.5t129.5 -101t87.5 -146.5q34 -86 34 -199q0 -109 -30 -244q-49 -206 -180 -367.5t-315 -250.5t-387 -89q-161 0 -287 47.5t-204.5 138.5 t-106.5 223zM483 496v-28q0 -78 14 -144q17 -78 51.5 -136.5t91.5 -90.5q55 -31 126 -31h4q113 1 220.5 91t185.5 234t116 314q21 95 28 185q3 35 3 69q0 55 -7 107q-11 86 -41 149t-89 102.5t-142 40.5h-7q-69 0 -131 -20q-64 -21 -113 -57t-90.5 -90t-70 -110 t-53.5 -127.5t-40.5 -131.5t-30.5 -132q-22 -100 -25 -194z" />
<glyph unicode="P" horiz-adv-x="1476" d="M8 0l17 59q125 7 200 76q34 32 85 245.5t67 309.5q100 447 100 567q0 28 -6 39q-5 9 -12.5 17t-14 13.5t-17.5 10t-17 7.5t-19.5 5t-18.5 3t-20.5 1.5t-18.5 0.5h-19h-17l10 61h1h1h1h1h1h1h1h1h1h1h1h1h1h1h1h1h1h1h1h1h1h1h1h1h1h1h1h1h1h1h1h1h1h1h1h1h1h1h1h1h1h1h1 h1h1h1h1h1h1h1h1h1h1h1h1h1h1h1h1h1h1h1h1h1h1h1h1h1h1h1h1h1h1h1h1h1h1h1h1h1h1h1h1h1h1h1h1h1h1h1h1h1h1h1h1h1h1h1h1h1h1h1h1h1h1h1h1h1h1h1h1h1h1h1h1h1h1h1h1h1h1h1h1h1h1h1h1h1h1h1h1h1h1h1h1h1h1h1h1h1h1h1h1h1h1h1h1h1h1h1h1h1h1h1h1h1h1h1h1h1h1h1h1h1h1h1h1h1h1h1 h1h1h1h1h1h1h1h1h1h1h1h1h1h1h1h1h1h1h1h1h1h1h1h1h1h1h1h1h1h1h1h1h1h1h1h1h1h1h1h1h1h1h1h1h1h1h1h1h1h1h1h1h1h1h1h1h1h1h1h1h1h1h1h1h1h1h1h1h1h1h1h1h1h1h1h1h1h1h1h1h1h1h1h1h1h1h1h1h1h1h1h1h1h1h1h1h1h1h1h1h1h1h1h1h1h1h1h1h1h1h1h1h1h1h1h1h1h1h9q90 1 166 1 q268 0 377 -11q159 -17 243 -125q61 -77 61 -181q0 -40 -9 -85q-38 -192 -184.5 -293.5t-352.5 -114.5l-274 -4q1 0 -21 -106t-40 -222q-9 -62 -10 -98q0 -30 7 -41q49 -75 172 -78l-12 -61q-33 18 -353 18h-22q-301 0 -344 -14zM649 680h54q27 -2 33 -2h3q7 0 19 2 q16 2 26.5 3.5t40.5 6.5q88 17 158 70.5t106.5 118t47.5 131.5q7 41 7 78q0 63 -21 115q-34 82 -128 114q-19 7 -30.5 10.5t-29 5.5t-29.5 2.5t-48.5 1.5t-69.5 2q2 1 -33 -164t-70.5 -330.5t-35.5 -164.5z" />
<glyph unicode="Q" horiz-adv-x="1691" d="M160 680q41 187 129.5 334.5t209.5 241t265 142t303 48.5h10q92 0 174 -18q86 -18 162 -57.5t129.5 -101t87.5 -146.5q34 -86 34 -199q0 -109 -30 -244q-62 -263 -255.5 -450t-448.5 -240q89 -141 139 -185q39 -34 69 -55t75 -43.5t101 -34t126 -12.5l-8 -39 q-31 -2 -103 -2q-112 0 -213 13.5t-194.5 43t-168 81t-118.5 122.5l-68 111q-242 52 -354 232q-73 118 -73 278q0 84 20 180zM484 496q-1 -12 -1 -24q0 -80 15 -148q17 -79 52 -137t92 -90q55 -31 126 -31h4q113 1 220.5 91t185 234.5t114.5 313.5q22 95 30 185q3 38 3 74 q0 52 -7 102q-10 85 -40 148.5t-89 103t-142 40.5h-7q-70 0 -132 -20q-64 -21 -112.5 -56.5t-90.5 -90t-70.5 -110.5t-54 -127.5t-41.5 -131.5t-31 -132q-22 -101 -24 -194z" />
<glyph unicode="R" horiz-adv-x="1503" d="M8 0l12 57q122 3 205 78q48 46 152 555q10 45 23.5 111t36 183.5t32.5 205.5q5 44 5 70t-5 36q-10 18 -28 31t-33 19t-41.5 10t-35.5 4.5t-34 1.5l8 55h664q40 0 78.5 -2.5t80.5 -9t78.5 -16.5t73.5 -25.5t65 -37t53 -50t36.5 -64t17.5 -79.5q2 -15 2 -30q0 -31 -8 -67 q-11 -61 -40 -112.5t-66.5 -85.5t-81.5 -61t-83.5 -42t-75 -25t-54 -13t-21.5 -3l299 -559q26 -41 61.5 -57.5t94.5 -18.5l-13 -61q-20 8 -188 10q-22 0 -43 1q-134 0 -193 -9l-325 659l-74 -2q-86 -363 -86 -477q0 -34 8 -45q49 -75 172 -78l-10 -61q-17 8 -186 14t-224 6 q-37 0 -164.5 -5.5t-144.5 -10.5zM664 748q31 -1 58 -1q71 0 110 6q264 37 313 281q6 31 6 59q0 31 -7 59q-13 54 -41.5 87.5t-66.5 57t-73 33t-64 9.5l-111 -2q-19 -87 -36 -171t-88 -418z" />
<glyph unicode="S" horiz-adv-x="1329" d="M51 -27q23 129 29 213q4 42 5 102q0 30 0.5 55t-0.5 44l-1 39h59q75 -373 346 -379h9q80 1 162 35q88 36 147.5 93.5t71.5 115.5q5 22 5 44q0 70 -56 129q-74 78 -300 200q-62 33 -105 63.5t-79.5 68.5t-51.5 79t-20 94q-1 12 -1 23q0 43 14 91q38 157 186 259t340 102 q86 0 216 -34t157 -34q66 0 73 84h60q-27 -131 -37 -215q-5 -44 -8.5 -107.5t-4.5 -105.5l-1 -41h-60q-13 103 -50.5 179t-94 119t-122.5 63t-144 20q-82 0 -155 -66t-87 -145q-4 -22 -4 -41q0 -32 10 -58q17 -44 58 -74t83 -52t101 -48.5t90 -45.5q120 -72 169 -112 q155 -128 154 -296q0 -40 -8 -82q-18 -85 -71 -154t-125 -112.5t-160 -72t-176 -38.5q-62 -7 -123 -7q-24 0 -49 1q-90 6 -194.5 40t-129.5 34q-57 0 -69 -70h-58z" />
<glyph unicode="T" horiz-adv-x="1400" d="M180 1077q52 156 88 343h1256q-48 -212 -58 -347h-69q-6 85 -37 148.5t-66 76.5q-24 9 -45 15t-35.5 9t-39.5 4.5t-38.5 1.5t-51 -0.5t-60.5 -0.5q-121 -563 -131 -608q-94 -415 -94 -542q0 -33 6 -46q10 -25 28.5 -38t35 -16.5t51 -8t57.5 -9.5l-16 -63q-123 18 -351 20 q-27 0 -51 1q-192 0 -313 -17l14 61q74 2 111.5 16t83.5 58q14 13 31.5 60.5t37 124t33.5 137t33 148.5t24 108l131 616q-26 0 -72 0.5t-63 0.5t-47.5 -2.5t-55.5 -8.5t-58 -16q-41 -14 -100 -78.5t-101 -147.5h-68z" />
<glyph unicode="U" horiz-adv-x="1533" d="M180 1362l13 57q15 -6 171.5 -10t221.5 -4q55 0 178.5 4t140.5 10l-12 -57q-41 -2 -63.5 -4t-66 -17.5t-71.5 -44.5q-33 -35 -108 -352.5t-99 -445.5q-1 -7 -4 -23q-6 -33 -9 -52t-7 -56.5t-3.5 -61t4 -58t13 -57t26.5 -47.5t41.5 -39.5t60.5 -24t81 -9.5q246 3 377 163 q69 83 113 291l122 580q16 80 18 123v11q0 36 -11 65q-9 19 -24 31t-37 17t-35 7t-40.5 2h-31.5l12 59q15 -8 118.5 -12t155.5 -4q50 0 153.5 4t123.5 12l-14 -59q-41 -2 -63.5 -4t-66.5 -17.5t-73 -44.5q-25 -28 -38 -65.5t-32 -124.5l-119 -561q-30 -148 -66 -228 q-154 -344 -632 -344q-105 0 -183 23.5t-122 58.5t-69 87q-26 52 -34 98q-5 30 -4 65q0 19 1 39q4 58 10 89t15 69l3 12q29 110 94 430q50 244 50 322q0 24 -5 32q-13 22 -33.5 36t-51 20t-45 7.5t-44.5 2.5z" />
<glyph unicode="V" horiz-adv-x="1634" d="M174 1354l10 61q262 -14 383 -14l363 10l-12 -59q-95 0 -143.5 -26t-55.5 -81q-2 -15 -2 -36q0 -59 15 -159q20 -136 67 -376t63 -336q46 77 131 217t143.5 237t120.5 203t96.5 171.5t37.5 86.5q3 14 3 25q0 38 -26 54q-34 22 -143 24l12 59q205 -12 301 -12q43 0 111 3 t115 6l46 3l-10 -59q-7 0 -20 -0.5t-48.5 -5.5t-66 -14.5t-64.5 -30.5t-53 -50l-823 -1286h-109q0 5 -48 296t-106 608.5t-77 363.5q-25 60 -70 88t-141 29z" />
<glyph unicode="W" horiz-adv-x="2392" d="M174 1354l14 61q228 -12 351 -12l352 10l-12 -61h-9q-59 0 -91 -24q-34 -26 -40 -83q-1 -11 -1 -27q0 -49 14 -142q18 -124 41.5 -237t56.5 -262.5t39 -177.5q56 92 147 251t154 272l63 112q-21 168 -36 197q-11 27 -15 36t-14.5 28.5t-20 26.5t-25 17t-36 13.5 t-47.5 3.5l12 61q168 -14 291 -14l397 12l-10 -59q-97 0 -146 -26t-53 -81v-16q0 -68 26 -257q30 -215 61.5 -404.5t31.5 -180.5q3 0 116 198.5t229 413t122 246.5q2 12 2 23q0 40 -27 58q-34 22 -141 24l12 59q216 -10 314 -10q42 0 110 3t115 6l47 3l-12 -59 q-7 0 -20 -0.5t-48 -5.5t-65.5 -14.5t-64.5 -30.5t-54 -50q-318 -486 -793 -1286h-49l-7 30q-7 30 -19.5 83t-28 121.5t-33 152.5t-34 168t-32.5 175.5t-26 168.5q3 1 -140.5 -224t-287.5 -450l-145 -225h-50q1 1 -57 294.5t-126.5 609t-88.5 362.5q-25 61 -70.5 89.5 t-142.5 29.5z" />
<glyph unicode="X" horiz-adv-x="1636" d="M-137 -2l16 63q103 3 179 35.5t159 110.5q55 51 96 90.5t88.5 87.5t72 72.5t95 97.5t107.5 111l-17 33q-117 220 -151 296q-6 13 -20.5 46.5t-20.5 46t-18 38.5t-19.5 40t-19 34t-22.5 35.5t-23 30.5q-20 24 -43 40.5t-48.5 24.5t-42.5 11.5t-44 6t-35 3.5l14 65 q30 -10 335 -10q15 1 31 1q336 0 414 11l-12 -59q-77 -2 -115.5 -12t-58.5 -45q-6 -11 -6 -28.5t4.5 -34.5t14 -41t18 -41.5t21.5 -43t19 -39.5q92 -194 93 -194q29 31 133.5 135t165 173t69.5 101q7 22 -3.5 37t-33 22t-46 9.5t-48.5 1.5l13 57q146 -10 296 -10q39 0 83 1 t78.5 3t62.5 4t44 3t15 1l-12 -53q-113 -6 -188 -43t-185 -137q-68 -60 -169.5 -154t-168.5 -158l-67 -65q0 -2 44 -87.5t97.5 -188.5t60.5 -117q11 -21 33 -62.5t31.5 -59t27.5 -46.5t36 -52.5t42 -50.5q69 -77 203 -86l-14 -61q-200 15 -403.5 15t-411.5 -15l16 61 q169 0 188 80q0 13 1.5 19.5t-3 22.5t-6.5 24.5t-9.5 26.5t-11.5 28t-13 28.5t-13.5 28t-13.5 27t-13 25.5q-21 39 -64.5 124.5t-45.5 90.5l-3 -4q-4 -3 -11 -10.5t-17 -18t-22.5 -23.5t-26 -27t-29.5 -30t-31.5 -32t-32.5 -33.5t-32 -32.5q-49 -45 -106 -123 q-56 -77 -56 -118q0 -36 42 -52q34 -13 83 -12h19l-15 -68q-260 10 -336 12q-27 1 -53 1q-120 0 -231 -15z" />
<glyph unicode="Y" horiz-adv-x="1478" d="M205 1354l12 65q48 -18 328 -18q40 0 177.5 5.5t154.5 10.5l-13 -63q-6 0 -28.5 1t-34.5 0t-30.5 -4.5t-31.5 -13.5t-22 -26q-3 -5 -3 -16q0 -35 32 -131q42 -127 92 -244l49 -117l77 103q77 104 161 221.5t98 148.5q6 13 6 24q0 20 -21 34q-27 20 -75 20h-13l15 61 q180 -8 235 -8q104 0 252 12l-14 -65q-114 -4 -188.5 -54t-211.5 -210q-36 -40 -110.5 -134t-132.5 -169.5t-58 -77.5q-1 -4 -7.5 -31.5t-13.5 -57t-17.5 -74t-19.5 -85.5t-18.5 -87t-16 -84.5t-10.5 -71.5t-4 -55t5 -28q47 -74 167 -74h9l-14 -67q-16 9 -146 16.5t-174 7.5 q-55 0 -215 -5t-178 -11l14 61q124 3 205 76q18 17 44 102t45.5 171t39.5 180t21 98q-143 367 -244 590q-13 28 -29.5 45t-37.5 23t-36 7.5t-38.5 0t-32.5 -1.5z" />
<glyph unicode="Z" horiz-adv-x="1497" d="M10 0q191 204 604 705q168 203 294.5 357t169.5 206l42 53h-69q-383 0 -465 -21q-28 -8 -48.5 -17.5t-54.5 -33t-71 -69t-76 -111.5h-64l99 350h1192q-394 -448 -621 -719q-97 -116 -219 -267t-195 -244l-73 -93q46 -1 90 -1q149 1 281 11q170 14 231 29q139 41 229 254 l72 -2q-23 -76 -49.5 -150.5t-42 -124.5t-29.5 -112h-1h-1h-1h-1h-1h-1h-1h-1h-1h-1h-1h-1h-1h-1h-1h-1h-1h-1h-1h-1h-1h-1h-1h-1h-1h-1h-1h-1h-1h-1h-1h-1h-1h-1h-1h-1h-1h-1h-1h-1h-1h-1h-1h-1h-1h-1h-1h-1h-1h-1h-1h-1h-1h-1h-1h-1h-1h-1h-1h-1h-1h-1h-1h-1h-1h-1h-1h-1 h-1h-1h-1h-1h-1h-1h-1h-1h-1h-1h-1h-1h-1h-1h-1h-1h-1h-1h-1h-1h-1h-1h-1h-1h-1h-1h-1h-1h-1h-1h-1h-1h-1h-1h-1h-1h-1h-1h-1h-1h-1h-1h-1h-1h-1h-1h-1h-1h-1h-1h-1h-1h-1h-1h-1h-1h-1h-1h-1h-1h-1h-1h-1h-1h-1h-1h-1h-1h-1h-1h-1h-1h-1h-1h-1h-1h-1h-1h-1h-1h-1h-1h-1h-1 h-1h-1h-1h-1h-1h-1h-1h-1h-1h-1h-1h-1h-1h-1h-1h-1h-1h-1h-1h-1h-1h-1h-1h-1h-1h-1h-1h-1h-1h-1h-1h-1h-1h-1h-1h-1h-1h-1h-1h-1h-1h-1h-1h-1h-1h-1h-1h-1h-1h-1h-1h-1h-1h-1h-1h-1h-1h-1h-1h-1h-1h-1h-1h-1h-1h-1h-2h-1h-1h-1h-1h-1h-1h-1h-1h-1h-1h-1h-1h-1h-1h-1h-2h-1 h-1h-1h-1h-1h-1h-1h-1h-1h-1h-2h-1h-1h-1h-1h-1h-1h-1h-1h-2h-1h-1h-1h-1h-1h-1h-1h-2h-1h-1h-1h-1h-1h-1h-1h-2h-1h-1h-1h-1h-1h-2h-1h-1h-1h-1h-1h-1h-2h-1h-1h-1h-1h-1h-2h-1h-1h-1h-1h-2h-1h-1h-1h-1h-1h-2h-1h-1h-1h-1h-2h-1h-1h-1h-1h-2h-1h-1h-1h-2h-1h-1h-1h-1h-2 h-1h-1h-1h-2h-1h-1h-1h-1h-2h-1h-1h-1h-2h-1h-1h-1h-2h-1h-1h-1h-2h-1h-1h-1h-2h-1h-1h-1h-2h-1h-1h-2h-1h-1h-1h-2h-1h-1h-1h-2h-1h-1h-2h-1h-1h-1h-2h-1h-1h-2h-1h-1h-2h-1h-1h-1h-2h-1h-1h-2h-1h-1h-2h-1h-1h-2h-1h-1h-2h-1h-1h-2h-1h-1h-2h-1h-1h-2h-1h-1h-2h-1h-1h-2 h-1h-1h-2h-1h-1h-2h-1h-1h-2h-1h-2h-1h-1h-2h-1h-1h-2h-1h-1h-2h-1h-2h-1h-1h-2h-1h-1h-2h-1h-2h-1h-1h-2h-1h-2h-1h-1h-2h-1h-2h-1h-1h-2h-1h-2h-1h-1h-2h-1h-2h-1h-1h-2h-1h-2h-1h-2h-1h-1h-2h-1h-2h-1h-2h-1h-1h-2h-1h-2h-1h-2h-1h-1h-2h-1h-2h-1h-2h-1h-2h-1h-2h-1h-1 h-2h-1h-2h-1h-2h-1h-2h-1h-2h-1h-2h-1h-1h-2h-1h-2h-1h-2h-1h-2h-1h-2h-1h-2h-1h-2h-1h-2h-1h-2h-1h-2h-1h-2h-1h-2h-1h-2h-1h-2h-1h-2h-1h-2h-1h-2h-1h-2h-1h-2h-1h-2h-1h-2h-1h-2h-1h-2h-2h-1h-2h-1h-2h-1h-2h-1h-2h-1h-2h-1h-2h-2h-1h-2h-1h-2h-1h-2h-1h-2h-2h-1h-2h-1 h-2h-1h-2h-1h-2h-2h-1h-2h-1h-2h-1h-2h-2h-1h-2h-1h-2h-1h-2h-2h-1h-2h-1h-2h-2h-1h-2h-1h-2h-2h-1h-2h-1h-2h-1h-2h-2h-1h-2h-2h-1h-2h-1h-2h-2h-1h-2h-1h-2h-2h-1h-2h-1h-2h-2h-1h-2h-2h-1h-2h-2h-1h-2h-1h-2h-2h-1h-2h-2h-1h-2h-2h-1h-2h-1h-2h-2h-1h-2h-2h-1h-2h-2h-1 h-2h-2h-1h-2h-2h-1h-2h-2h-1h-2h-2h-1h-2h-2h-1h-2h-2h-1h-2h-2h-1h-2h-2h-1h-2h-2h-1h-2h-2h-2h-1h-2h-2h-1h-2h-2h-1h-2h-2h-2h-1h-2h-2h-1h-2h-2h-1h-2h-2h-2h-1h-2h-2h-2h-1h-2h-2h-1h-2h-2h-2h-1h-2h-2h-1h-2h-2h-2h-1h-2h-2h-2h-1h-2h-2h-2h-1h-2h-2h-2h-1h-2h-2h-2 h-1h-2h-2h-2h-1h-2h-2h-2h-1h-2h-2h-2h-2h-1h-2h-2h-2h-1h-2h-2h-2h-2h-1h-2h-2h-2h-1h-2h-2h-2h-2h-1h-2h-2h-2h-2h-1h-2h-2h-2h-2h-1h-2h-2h-2h-2h-1h-2h-2h-2h-2h-1h-2h-2h-2h-2h-2h-1h-2h-2h-2h-2h-2h-1h-2h-2h-2h-2h-2h-1h-2h-2h-2h-2h-2h-2h-1h-2h-2h-2h-2h-2h-1h-2 h-2h-2h-2h-2h-2h-2h-1h-2h-2h-2h-2h-2h-2h-2h-1h-2h-2h-2h-2h-2h-2h-2h-2h-1h-2h-2h-2h-2h-2h-2h-2h-2h-2h-1h-2h-2h-2h-2h-2h-2h-2h-2h-2h-2h-2h-1h-2h-2h-2h-2h-2h-2h-2h-9z" />
<glyph unicode="[" horiz-adv-x="610" d="M2 -377l354 1673h506l-12 -71h-272l-328 -1530h272l-14 -72h-506z" />
<glyph unicode="\" horiz-adv-x="1220" d="M299 1401h174l424 -1401h-174z" />
<glyph unicode="]" horiz-adv-x="743" d="M-113 -377l15 72h272l326 1530h-273l15 71h506l-355 -1673h-506z" />
<glyph unicode="^" horiz-adv-x="972" d="M96 475l344 744h92l342 -744h-118l-271 604l-268 -604h-121z" />
<glyph unicode="_" horiz-adv-x="684" d="M-8 -205l16 94h762l-14 -94h-764z" />
<glyph unicode="`" horiz-adv-x="481" d="M-133 1389q0 36 25 61t61 25q43 0 68.5 -16.5t58.5 -55.5l250 -289h-105l-321 197q-37 24 -37 78z" />
<glyph unicode="a" horiz-adv-x="1159" d="M55 101q-3 17 -3 37q0 25 5 55q35 160 194 259t492 173l29 125q3 15 3 29q0 41 -26 77q-35 48 -73 51h-18q-62 -1 -102 -25q-46 -28 -58 -79q-9 -23 -6 -40t5 -21.5t11 -11.5t12 -11q-26 -35 -75 -58t-103 -28q-27 -2 -55 6.5t-50.5 30t-22 57.5t29.5 88q31 52 77.5 86.5 t108 51.5t119 23t135.5 7h25q192 0 260 -74q39 -41 49 -108q5 -33 5 -60q0 -29 -5 -53l-10 -47l-50 -246q-5 -24 -16 -69q-25 -80 -25 -130q0 -55 46 -55q24 0 48.5 25.5t36.5 50.5l13 25l65 -23q-73 -138 -154 -195t-159 -57q-19 0 -38.5 2t-48.5 12.5t-48.5 27.5t-31.5 50 q-8 21 -8 46q0 15 3 32q-96 -80 -158.5 -119t-124.5 -49q-30 -5 -62 -5h-6q-36 0 -75.5 7.5t-71 23t-56.5 41.5t-32 65zM375 268q-9 -31 -9 -54q0 -36 20 -56q30 -29 79 -29h12q41 3 90 26t90 64q13 56 36.5 168t39.5 180q-88 -28 -156.5 -68t-108 -82.5t-61 -78 t-30.5 -66.5z" />
<glyph unicode="b" horiz-adv-x="1136" d="M25 53q77 278 110 439q166 767 166 840v5q-8 35 -82 35l12 62q8 -4 61 -4q38 0 100 2q148 5 210 24q-11 -25 -30 -97t-39 -157.5t-38 -167.5t-30 -137.5t-12 -56.5q43 50 121 95t171 46h3q196 0 274 -132q50 -83 49 -194q0 -67 -18 -145q-14 -62 -44.5 -129.5t-85 -140 t-124 -129.5t-169.5 -94t-212 -37q-82 0 -209 23.5t-184 49.5zM299 135q-2 -8 -2 -15q0 -31 35 -52q32 -19 75 -19q15 0 31 2q58 8 106.5 37t80.5 67t57.5 88t39 93.5t23.5 91.5q18 80 18 152q1 62 -13 118q-30 122 -111 140q-15 4 -31 4q-46 0 -100 -30q-72 -40 -90 -124z " />
<glyph unicode="c" horiz-adv-x="1138" d="M90 272q-5 30 -5 64q0 56 15 121q29 138 94.5 245.5t154.5 172.5t190 99t211 36h21q120 0 206 -32q93 -35 119 -89q15 -31 15 -62q-1 -33 -17 -65q-32 -64 -99 -84q-26 -9 -52 -9q-5 1 -11 1q-32 2 -55.5 8t-45 17.5t-32 19t-15.5 12.5q2 3 18 19t24 26t16 30 q10 22 10 40q0 40 -36 64q-37 24 -68 24q-27 -1 -58 -10.5t-73.5 -36t-79.5 -66.5t-71.5 -110t-53.5 -160q-13 -72 -13 -131q0 -29 3 -55q10 -78 46 -128.5t85 -74.5q47 -23 103 -23h5q52 1 98.5 16t83.5 43t60.5 50.5t52 56.5t35.5 41l47 -39q-41 -80 -132.5 -170 t-164.5 -119q-106 -43 -240 -43h-18q-61 2 -119 19.5t-113.5 53.5t-91 92t-49.5 136z" />
<glyph unicode="d" horiz-adv-x="1230" d="M86 312q2 66 18 145q29 139 114.5 261t203 194.5t235.5 72.5q78 0 129 -26t84 -99q30 106 56 280q21 141 21 190q0 11 -1 18q-3 21 -23 28.5t-59 7.5l13 60q14 -8 172 -8t219 18q-215 -737 -303 -1188q-9 -41 -9 -70q0 -20 4 -34q10 -34 28 -42t44 -1t39 14t40 33t71 80 l45 -31q-150 -250 -322 -250q-67 1 -113 36t-62 79q-9 26 -10 51q0 17 5 33q-128 -184 -334 -184q-19 0 -40.5 3t-53 10t-59.5 23t-57 39t-49 60t-34 83q-12 42 -13 100q1 7 1 14zM392 225q31 -119 122 -125h4q42 0 99 42q60 44 108 139q61 142 100 438q-8 66 -37.5 107.5 t-61.5 53.5q-21 8 -42 9q-10 0 -20 -2q-85 -13 -156.5 -105.5t-106.5 -253.5q-23 -104 -23 -187q0 -64 14 -116z" />
<glyph unicode="e" horiz-adv-x="1128" d="M102 457q25 112 75 204.5t114 155t141 105.5q78 42 156 61q75 18 149 18h8q63 -1 116 -14t100 -43.5t73 -79.5q27 -50 38 -122q4 -26 4 -54q0 -52 -13 -115h-660q-15 -79 -16 -145v-11q0 -59 10 -101q11 -46 32 -80.5t46 -55t56 -33.5t59 -17.5t57 -4.5q54 0 106 20.5 t97.5 58t74 66t62.5 68.5l49 -43q-77 -96 -134 -152t-130 -99q-72 -42 -156 -58q-79 -15 -188 -15h-14q-181 1 -270 135q-58 87 -58 211q0 65 16 140zM426 662h393q10 60 10 113q-1 7 -1 14q-2 59 -29 99t-76 40q-192 0 -297 -266z" />
<glyph unicode="f" horiz-adv-x="884" d="M-288 -350q-1 6 -1 13q0 57 51 91q27 15 78 17q19 1 35 1q28 0 49 -2q31 -4 51 -8q-9 -23 -13 -52t-2.5 -58t19.5 -43.5t52 -3.5q76 27 112 188l213 1041h-184l18 84h187q2 7 5 24q7 35 11.5 56.5t17 66t25.5 74.5t35.5 73t47.5 73t62 62.5t79.5 52.5t99.5 33t121 13 q139 0 188 -29q27 -18 43 -56q9 -24 9 -48q0 -16 -3 -31q-10 -42 -49 -63q-36 -20 -100 -20q-49 0 -113 11q9 23 13.5 52t3 58t-19 44t-50.5 4q-25 -9 -44 -29.5t-31 -51t-18.5 -52t-13.5 -53.5l-53 -264h279l-21 -84h-274q0 1 -41.5 -193t-84 -389.5t-44.5 -198.5 q-2 -7 -5 -24q-7 -37 -12 -59t-17.5 -66.5t-25 -74.5t-35 -73t-47.5 -72t-62 -61t-79.5 -51t-99 -32t-121.5 -13q-139 0 -191 29q-44 28 -50 94z" />
<glyph unicode="g" horiz-adv-x="1091" d="M-115 -254q12 65 97 113t170 61q-21 8 -35.5 14.5t-32 15.5t-26.5 18t-20 22t-13 27.5t-4.5 34.5t4.5 42q12 61 67.5 113.5t112.5 80t112 42.5l2 4q-38 15 -66 30t-54 35t-41.5 44t-25.5 54q-10 29 -10 66q0 41 11 90q30 147 160.5 239.5t335.5 92.5q120 0 219 -43 q40 -19 98 -19q37 0 82 8q114 20 150 64q-2 -19 -6 -47t-22 -78t-42 -57q-19 -6 -45 -6q-11 0 -22 1q-41 3 -70 9.5t-47 13.5q1 -2 10.5 -14t16 -20.5t14.5 -27.5t11.5 -38t2.5 -48t-8 -62q-24 -102 -93 -177.5t-180 -109.5q-61 -18 -91.5 -20.5t-180.5 -2.5 q-37 0 -94.5 -31.5t-65.5 -72.5q-5 -24 2 -37.5t28.5 -19t53 -7.5t79.5 -2h15.5h14h16.5l135 -2q25 0 52 -3t60 -11t61 -20.5t52.5 -33t38.5 -47.5q13 -25 13 -62q0 -40 -19 -87q-33 -87 -96.5 -153.5t-145.5 -106.5t-175 -60t-193 -20q-81 0 -141.5 5.5t-111 20t-79.5 38.5 t-40 61q-6 18 -6 40t5 46zM111 -225q-2 -10 -2 -19q0 -26 15 -44q20 -26 58 -36t67 -13.5t57 -4.5h11h14q58 0 124 7q74 8 155.5 39t102.5 81q9 19 9 35q0 28 -26 44q-42 27 -127 27h-360q-49 -33 -70 -57.5t-28 -58.5zM397 491q0 -38 9.5 -60.5t32.5 -37.5q22 -14 55 -14h4 q38 0 68.5 17.5t49.5 41.5t35 64t24 70.5t17 74.5q19 98 19 152q0 18 -2 31q-15 89 -97 90q-45 0 -79 -22.5t-56 -66.5t-34.5 -84.5t-24.5 -99.5q-11 -49 -16 -83.5t-5 -72.5z" />
<glyph unicode="h" horiz-adv-x="1323" d="M86 0q25 61 137 504q37 138 99 446q55 276 56 364q0 10 -1 17q1 19 -31 29q-26 8 -62 8h-16l17 66q30 -9 179 -10h15q138 0 209 18q-25 -58 -89 -341t-73 -339q20 36 61 79t100 85t140 66q57 16 114 17l48 -3q49 -6 82 -23t55 -55q23 -39 23 -100q-1 -58 -23 -150 q-22 -94 -71 -219q-29 -73 -44 -132t-16 -94t6.5 -58t18.5 -32t24 -8q30 0 63 24t59 58.5t43 61.5t24 43l53 -31q-174 -324 -412 -324q-105 0 -141 92q-8 21 -8 58q0 127 94 438q24 76 35 133t11.5 87.5t-8.5 51t-18 27t-24 10.5q-19 5 -37 5l-27 -3q-32 -6 -63 -25 t-59.5 -43.5t-52 -51.5t-41 -49.5t-27.5 -36.5l-10 -15q-12 -46 -23.5 -94t-19.5 -83.5t-18.5 -88t-15 -77t-14.5 -83t-12 -72t-12.5 -78.5t-11.5 -71q-24 14 -138 14h-9q-106 0 -138 -12z" />
<glyph unicode="i" horiz-adv-x="684" d="M94 90q-3 30 -3 62q0 54 9 114q15 96 54 242q8 30 21.5 75t22.5 76t20.5 71.5t16 62.5t8.5 49t-1 30q-17 41 -109 41l17 76q25 -6 176 -11q50 -2 93 -2q84 0 136 7q-82 -218 -180 -577q-15 -62 -23 -106q-8 -48 -7 -90q0 -42 15 -62q16 -22 48 -21q37 1 87.5 54 t102.5 143l53 -25q-43 -83 -88 -145.5t-78.5 -94t-72 -52.5t-56.5 -26.5t-43 -9.5q-13 -5 -33 -5q-12 0 -24 2q-36 4 -69.5 14t-60.5 39t-32 69zM305 1298q14 62 66.5 106t113.5 44t96 -44q25 -31 25 -72q0 -16 -4 -34q-12 -62 -65.5 -106.5t-114.5 -44.5q-61 1 -95 45 q-25 33 -25 75q0 15 3 31z" />
<glyph unicode="j" horiz-adv-x="837" d="M-246 -337q3 22 10 44t31 44t60 34q28 9 56 9q13 0 27 -2q41 -7 71 -29t30 -48q-13 -9 -22.5 -31t-2.5 -42q8 -26 46 -26q8 0 18 1q39 5 69 35.5t53 94t33 100t28 117.5q5 20 7 30q32 135 103 495q67 341 67 384q0 42 -90 42l14 66q31 -7 172 -8h13q131 0 207 18 q-17 -60 -55.5 -238.5t-83.5 -399t-62 -296.5q-55 -259 -193 -392.5t-313 -133.5h-32q-232 0 -257 98q-4 8 -4 22v12zM508 1298q14 62 67.5 106t114.5 44q62 0 96 -44q26 -33 26 -75q0 -15 -3 -31q-13 -61 -66.5 -105t-115.5 -44q-63 0 -97 43q-25 33 -25 75q0 15 3 31z" />
<glyph unicode="k" horiz-adv-x="1218" d="M37 2q65 201 133 504q38 169 98 479q52 273 52 327q0 7 -1 11q-9 35 -106 39l14 72q25 -3 99 -5q29 -1 63 -1q50 0 107 2q96 3 139 14q-34 -91 -126.5 -480t-105.5 -464q90 39 153.5 69.5t161 94t161.5 131.5q24 25 32 50t1.5 43t-16 32.5t-18.5 21.5l-10 8q73 45 203 45 q11 0 26 -2t37 -9.5t38 -19.5t24 -36q5 -13 5 -28q0 -12 -3 -26q-9 -43 -54.5 -86t-113 -77.5t-125.5 -59.5t-120.5 -47t-67.5 -24q55 -142 104 -234q44 -84 77 -117q30 -30 61 -30h6q22 2 39.5 14t29.5 33.5t17 33t12 33.5l57 -26q-41 -153 -119.5 -234.5t-152.5 -81.5 q-170 0 -273 224l-116 268l-72 -31q-35 -176 -68 -430q-38 9 -143 9t-139 -9z" />
<glyph unicode="l" horiz-adv-x="630" d="M63 119q13 121 129 633q109 479 110 583q0 7 -1 13q-1 22 -21 29t-61 7l12 60q31 -8 165 -9h13q124 0 197 17q-33 -92 -154.5 -609t-132.5 -587q-13 -66 -13 -98q0 -8 1 -14q4 -29 51 -33h6q34 1 73 39q42 42 102 133l47 -31q-77 -136 -165 -210q-87 -73 -205 -73h-3 q-76 2 -116 41q-35 34 -35 91q0 9 1 18z" />
<glyph unicode="m" horiz-adv-x="1935" d="M41 -2q22 41 123 491q7 32 21 92.5t23 100.5t18 85.5t12.5 74.5t1.5 41q-7 37 -82 37h-11l13 59q32 -9 160 -9q3 0 7 -1q123 0 199 20q-24 -59 -46 -144t-29 -126q39 46 104 105.5t155.5 119t153.5 64.5q20 2 39 1q30 1 55 -3q41 -6 76 -25t52.5 -53t22.5 -86 q1 -11 1 -23q0 -44 -14 -100q45 51 103.5 107.5t147.5 116.5t152 65q34 4 65 4q22 0 42 -2q48 -5 83 -20.5t54 -54.5q20 -40 19 -103q0 -60 -22 -154q-24 -96 -71 -227q-30 -83 -44 -144t-14 -93.5t11 -51.5t24 -23.5t31 -3.5q29 1 59.5 23t55 56.5t38 57.5t23.5 43l45 -24 q-136 -304 -414 -323q-3 -1 -5 -1h-4h-3q-27 -1 -56 15q-30 16 -52 47q-16 25 -19 65q-1 9 -1 18q0 35 8 81q10 59 22.5 108.5t34 129t31.5 122.5q30 111 38 173q5 34 4 58q0 20 -3 30q-7 24 -29 30q-20 6 -41 6q-29 0 -61 -10q-56 -18 -103.5 -56t-88 -77t-64.5 -68 l-23 -29q-30 -113 -52.5 -216.5t-46 -224t-34.5 -171.5q-22 7 -124 8h-17q-89 0 -123 -10q9 19 28.5 104t46.5 215t37 174q22 101 32.5 156t16.5 104q3 27 3 45q0 15 -2 25q-5 21 -19 25q-19 6 -41 6q-29 0 -61 -10q-57 -18 -105.5 -56t-90.5 -77t-67 -68l-24 -29 q-17 -72 -41.5 -176.5t-37.5 -160.5t-28.5 -131.5t-27.5 -143.5q-23 7 -117 9h-28q-73 0 -105 -9z" />
<glyph unicode="n" horiz-adv-x="1280" d="M41 0q15 32 64.5 212t74.5 292q26 112 44 226q13 85 14 123q0 13 -2 21q-5 39 -109 39l16 66q31 -9 179 -11h20q133 0 205 19q-49 -112 -66 -225q20 36 61 79t100 85t140 66q57 16 114 17l48 -3q49 -6 82 -23t55 -55q23 -39 23 -100q0 -58 -22 -150q-22 -94 -72 -219 q-29 -73 -43.5 -132t-15.5 -94t7 -58t19 -32t24 -8q30 0 62.5 23.5t59 59.5t42 60.5t25.5 43.5l53 -31q-175 -324 -414 -324q-103 0 -139 92q-10 24 -10 65q0 130 96 431q24 76 34.5 132.5t11 87.5t-8 51t-18 27t-23.5 11q-18 6 -37 6q-26 0 -53 -10q-48 -18 -87 -53 t-71.5 -71.5t-50.5 -63.5l-18 -27q-64 -243 -129 -647q-24 14 -138 14h-10q-106 0 -137 -12z" />
<glyph unicode="o" horiz-adv-x="1241" d="M94 266q-7 40 -7 85q0 70 17 153q48 222 222 361.5t417 142.5h12q103 0 187 -32q88 -34 147 -100t78 -166q8 -41 8 -88q0 -66 -16 -143q-51 -239 -226 -379q-174 -139 -418 -139h-3q-111 1 -197.5 35t-144.5 101t-76 169zM380 292v-14q0 -70 15 -126q15 -60 53 -94 q36 -33 92 -33h3q32 1 69 20t79.5 60t82.5 123.5t66 193.5q24 110 32 200q4 45 4 86q0 42 -4 80q-8 76 -44 118t-97 42q-98 0 -190 -125t-140 -362q-19 -91 -21 -169z" />
<glyph unicode="p" horiz-adv-x="1155" d="M-61 -426q14 33 59 205t68 280q7 34 41 187t53.5 249.5t36.5 214.5q13 90 13 143q0 16 -1 28q-1 14 -12 18.5t-34.5 4.5t-35.5 3l14 56q7 -4 62 -4q35 0 91 1q142 5 206 25q-20 -95 -35 -164l-4 -18q57 71 151 126.5t205 55.5q147 0 223 -127q49 -80 49 -194 q0 -65 -16 -140t-50 -151t-86.5 -147t-116 -125.5t-145 -87.5t-167.5 -33q-128 0 -203 96l-72 -338q-1 -5 -1.5 -8t-0.5 -4t-0.5 -2t-0.5 -2t-0.5 -4.5t-1.5 -9l-3 -16.5t-4 -25t-6 -36.5t-8 -50.5q-16 6 -102 6h-25q-110 -1 -141 -12zM334 205q-3 -11 -3 -23q0 -24 13 -48 q20 -36 78 -48q19 -5 39.5 -5t48 6.5t54.5 21.5t56.5 44.5t56 70.5t52 103t45.5 140q16 57 24 117q10 63 10 124t-21 104t-62 52q-16 3 -31 3q-82 0 -164 -76q-33 -30 -58.5 -64t-34.5 -53l-9 -19z" />
<glyph unicode="q" horiz-adv-x="1148" d="M85 187q-12 46 -12 104q0 72 19 162q31 146 120.5 268.5t214 193t255.5 70.5q153 0 248 -78q41 4 101.5 26t109.5 62q-71 -191 -183 -714q-127 -601 -137 -701q-26 9 -111 9h-18q-100 -1 -123 -9q27 104 72 304.5t57 252.5q-92 -93 -171.5 -125t-182.5 -32q-98 0 -165 51 t-94 156zM362 386q-2 -21 -2 -41q0 -33 4 -65q8 -50 28 -85.5t58 -54.5q32 -16 75 -16q9 0 18 1q63 4 120 63.5t72 108.5l105 500q1 51 -36 81q-33 27 -75 27h-8q-143 -13 -222 -109t-120 -294q-13 -61 -17 -116z" />
<glyph unicode="r" horiz-adv-x="954" d="M47 2q14 32 62 212t73 290q28 112 46 230q15 97 15 137q0 8 -1 14q-7 35 -79 35h-16l13 59q39 -8 170 -10h23q115 0 194 18q-6 -16 -26 -89t-37 -136.5t-19 -63.5q70 87 131 144q56 56 108 88.5t121 54.5q31 7 57 8q14 -1 26 -3q36 -6 55 -29t23 -53q1 -6 1 -13 q0 -26 -14 -57q-18 -39 -55 -74q-46 -41 -105 -51q-2 20 -14.5 40t-35.5 35t-61.5 9.5t-83.5 -35.5q-11 -7 -52.5 -44.5t-77.5 -71.5l-35 -34q-82 -387 -121 -614q-21 8 -135 10q-25 1 -46 1q-76 0 -104 -7z" />
<glyph unicode="s" horiz-adv-x="1046" d="M68 -27l75 344h56q1 -27 3.5 -49.5t16.5 -64.5t37 -71t70.5 -53t111.5 -26h15q36 0 63 8q33 10 51.5 30t28 40.5t14.5 46.5q2 11 2 21q0 26 -14 49q-20 32 -59 56.5t-86.5 49t-94 54t-83 65t-52.5 89.5q-9 29 -9 60q0 28 7 58q19 87 97 158.5t178.5 109t197.5 37.5 q58 0 117.5 -22.5t71.5 -22.5q40 0 63 41h51l-65 -301h-58q-9 112 -57.5 172.5t-136.5 60.5q-57 0 -109.5 -34t-62.5 -82q-3 -13 -3 -26q0 -23 10 -43q15 -30 46 -51t71 -42.5t82.5 -41t80.5 -47.5t64.5 -61.5t34.5 -82.5q3 -17 3 -36q0 -35 -10 -75q-28 -113 -99 -187 t-158 -103.5t-190 -29.5q-45 0 -103 14.5t-101.5 30t-47.5 15.5h-6q-37 0 -61 -58h-53z" />
<glyph unicode="t" horiz-adv-x="745" d="M94 150v6q0 30 10 83q10 58 22 109t30 126q2 7 3 11l2.5 10t2.5 11q15 65 35 144.5t36 140.5t19 73h-139l5 4q6 3 18 10t28 16t37 23l43.5 29t50 35t53.5 41q47 36 105 87.5t93 86t34 35.5q-38 -183 -56 -273h215l-20 -98h-221q1 -2 -19 -84t-49 -204.5t-45 -194.5 q-27 -104 -26 -174q-1 -3 -1 -7q2 -72 52 -75h4q80 0 200 190l48 -20q-173 -324 -378 -324h-12h-8q-37 2 -63.5 9.5t-57 34.5t-43.5 73q-7 35 -8 66z" />
<glyph unicode="u" d="M92 80q-1 15 -1 31q1 23 3 45q4 40 16 98.5t27 120t39 147.5q18 64 44 190q23 110 23 146q0 6 -1 10q-8 37 -83 37h-12l13 56q36 -7 162 -7q3 0 6 -1q122 0 200 18q-77 -277 -135 -557q-33 -149 -33 -202q0 -54 37 -67q13 -5 28 -5q22 0 49 10q45 18 86.5 51.5t78.5 69 t59 61.5l23 26q33 131 69 327t54 280q14 -6 102 -6h26q112 1 142 12q-1 -7 -24 -105.5t-54.5 -227.5t-50.5 -200q-23 -94 -33 -152q-8 -44 -8 -76q0 -10 1 -18q3 -36 17.5 -48t43.5 -13h1q39 0 101 66q62 67 78 112l55 -24q-36 -68 -73.5 -121.5t-70.5 -86t-66.5 -57 t-61 -33.5t-53.5 -15q-19 -5 -35 -5q-6 1 -11 1q-19 2 -36 0q-3 1 -4.5 1h-4h-4.5q-86 0 -121 76q-16 33 -16 83q0 47 14 110q-80 -103 -213 -180t-235 -85q-20 -2 -36.5 -2t-30.5 2q-28 4 -47.5 18t-30.5 33.5t-13 55.5z" />
<glyph unicode="v" horiz-adv-x="1112" d="M25 913l16 76q37 -9 197 -17q55 -3 101 -3q88 0 144 10q0 -81 35 -391t43 -408q106 155 185 324.5t108 292.5q7 31 5 55t-8 41.5t-14 29.5t-13 17l-5 6l5 6q5 6 15.5 14.5t25 17.5t37 16t48.5 8q13 1 26 1q79 1 121 -27q37 -24 37 -82q0 -19 -4 -42q-7 -33 -25.5 -73 t-38 -72t-58.5 -83.5t-62.5 -80t-75.5 -90.5t-73 -88q-89 -106 -150 -187t-80.5 -111.5t-44.5 -74.5q-18 7 -93 7q-5 -1 -11 -1q-86 0 -103 -4q-96 719 -133 836q-6 18 -14 32t-21 22t-21.5 13.5t-27.5 7t-24.5 2.5t-26.5 0.5t-22 -0.5z" />
<glyph unicode="w" horiz-adv-x="1691" d="M25 907l12 54q36 -6 210 -7h20q159 0 239 15v-79v-108.5t1.5 -113.5t4 -137.5t8 -133.5t12.5 -147l351 713q106 -1 158.5 -1t52.5 1q50 -458 77 -730q7 10 19.5 28.5t47 77.5t65 119t65.5 146.5t57 167.5q9 31 10 60t-4 48.5t-11.5 34.5t-11.5 22l-5 7l11 5 q10 5 27.5 12.5t38.5 15.5t47 14t48 8q6 1 17 1t31 -2.5t36 -10.5t32 -23q15 -14 19 -38q1 -9 2 -20q0 -18 -4 -40q-9 -39 -43.5 -96t-68 -100t-103.5 -129t-102 -127q-184 -238 -271 -410q-2 -3 -2 -2q-58 7 -120 7h-16q-71 -1 -89 -7q-70 588 -72 588q0 2 -72 -120 t-157 -269.5t-113 -200.5q-18 8 -85 8h-8q-74 0 -91 -8q-92 725 -137 836q-10 26 -24 41.5t-33 21.5t-31.5 7t-35.5 1h-9z" />
<glyph unicode="x" horiz-adv-x="1253" d="M-74 2l15 57q33 0 92 18t108 54q147 115 336 318l-168 372q-10 26 -25.5 41.5t-37 21.5t-35.5 7.5t-40 1.5h-3.5h-3.5l16 70q10 -6 123 -6q23 1 53 1q164 2 232 15q-2 0 29.5 -85t63.5 -170l32 -85q-1 -2 34.5 38.5t77.5 88.5t58 67q24 27 54 62.5t50 59.5t19 24 q59 -12 130 -12q3 1 6 1q75 0 115 5l-14 -64q-119 0 -217 -74l-285 -264q-1 -1 36.5 -81t88 -181.5t78.5 -146.5q57 -100 152 -100q8 0 16 1l-12 -59q-60 6 -194 10q-30 1 -58 1q-96 0 -168 -9q-1 -3 -43.5 91t-84.5 189l-42 95q0 -1 -38.5 -45t-90 -104.5t-76.5 -92.5 l-106 -133q-50 10 -141 10h-9q-98 0 -123 -8z" />
<glyph unicode="y" horiz-adv-x="1148" d="M-174 -360q-4 21 -4 41q0 33 11 63q17 46 48 72.5t63.5 44.5t56.5 24l24 6l1 -9q0 -9 1 -23t3.5 -30t9 -33t15.5 -29q27 -35 78 -35h11q59 4 94 43q40 45 83.5 96.5t43.5 54.5q-105 793 -140 910q-6 18 -14 32t-21.5 22t-21.5 13t-27 7t-25 3t-27.5 0.5t-22.5 -0.5l18 76 q33 -9 198 -17q53 -2 97 -2q94 0 149 11q0 -63 13 -196t33.5 -317.5t29.5 -281.5q104 152 177.5 316t103.5 293q7 30 5 54t-8.5 42.5t-15.5 30.5t-14 18l-6 6l5 6q5 6 15.5 14.5t25 17.5t38 16t49.5 8q13 1 24 1q32 0 58 -5q35 -5 63.5 -21t39.5 -49q6 -18 6 -42 q0 -18 -3 -38q-5 -28 -17 -58t-34.5 -66.5t-40.5 -63.5t-55.5 -73t-57 -69.5t-66.5 -78.5t-65 -76q-65 -77 -221 -272.5t-188 -233.5q-66 -78 -116.5 -131.5t-107 -101.5t-108.5 -70q-44 -20 -85 -20q-8 0 -15 1q-150 10 -164 99z" />
<glyph unicode="z" horiz-adv-x="1079" d="M8 0l10 53l707 840q-181 -1 -249 -16q-119 -26 -187 -123q-27 -38 -51 -90h-54l78 297h795l-13 -56l-698 -839q36 -1 68 -1q174 0 237 23q57 19 111 68t83.5 93.5t45.5 82.5h59l-104 -332h-838z" />
<glyph unicode="{" horiz-adv-x="555" d="M49 524q86 18 142 59.5t81.5 95.5t38.5 119.5t19.5 133.5t17.5 134t39 124t76.5 102.5t139 69.5t218.5 24q-81 -15 -137 -51t-85.5 -85t-47.5 -108.5t-26.5 -123.5t-17 -127.5t-25.5 -123t-45.5 -108.5t-83.5 -84.5t-134 -50.5q91 -21 130 -76t34 -127t-27.5 -155 t-44.5 -164.5t-26 -151t36.5 -119t133.5 -63.5l-56 -2q-244 -4 -284 130q-22 77 21 242l18 63q45 163 47 233q2 140 -124 182q-13 5 -28 8z" />
<glyph unicode="|" horiz-adv-x="448" d="M-14 0l290 1372h148l-293 -1372h-145z" />
<glyph unicode="}" horiz-adv-x="804" d="M82 -332q78 11 132 44t83 80t46.5 105t26.5 121.5t18 128t27 125t47 110.5t83.5 87.5t132.5 54.5q-72 15 -111 50.5t-47 84.5t0 108.5t27 123t37.5 127.5t26 123.5t-1 108.5t-49 85t-114.5 51q128 1 207.5 -24t109.5 -69t33.5 -102t-14 -124.5t-39.5 -134.5t-37 -133.5 t-13 -120t40 -95.5t115 -59q-81 -17 -136 -57.5t-81.5 -94.5t-41.5 -119.5t-23.5 -133.5t-19 -134.5t-35.5 -124.5t-66.5 -102t-118.5 -69t-185 -23z" />
<glyph unicode="~" horiz-adv-x="1259" d="M76 508q38 49 70.5 84.5t76.5 72.5t92.5 56.5t98.5 19.5q49 0 111.5 -22.5t111.5 -49t105.5 -49t95.5 -22.5q65 0 127.5 46t111.5 114l70 -135q-71 -93 -156.5 -156.5t-175.5 -63.5q-53 0 -112.5 22t-103.5 49t-100.5 49t-105.5 22q-39 0 -76 -15.5t-72 -48.5 t-55.5 -56.5t-54.5 -66.5z" />
<glyph unicode="&#xa1;" horiz-adv-x="636" d="M164 133q3 15 7.5 31t11 36.5t10.5 32.5l274 754h78l-43 -754q-2 -12 -6 -46.5t-9 -53.5q-11 -61 -62.5 -112.5t-135.5 -51.5q-75 0 -106 52.5t-19 111.5zM428 1241q12 58 59.5 97.5t104.5 39.5q59 0 90.5 -39.5t19.5 -97.5q-12 -55 -61 -94t-106 -39t-88 38.5t-19 94.5z " />
<glyph unicode="&#xa2;" horiz-adv-x="942" d="M105 397q-12 65 6 150q22 105 70 188t113 136t140 83t158 37l24 119h68l-27 -117q102 -1 171 -28t90 -68q25 -51 -1 -102.5t-79 -69.5q-36 -7 -63.5 -5.5t-52.5 13t-37.5 19.5t-18.5 14q53 47 55 92q1 30 -24 48t-52 22l-137 -637q28 -4 41 -4q42 1 79.5 13t67.5 34.5 t48.5 40t42 45t28.5 33.5l37 -31q-33 -65 -107 -138t-133 -96q-76 -27 -131 -32l-39 -183h-65l39 181h-10q-49 1 -96 15t-91.5 43t-73 74.5t-40.5 110.5zM365 621q-23 -117 1.5 -195t82.5 -113l126 602q-43 -16 -79.5 -45t-74.5 -94t-56 -155z" />
<glyph unicode="&#xa3;" horiz-adv-x="1216" d="M132 3q-21 30 9 71q17 19 33.5 31.5t26 16.5t28.5 9t27 8q14 7 44.5 40t69.5 86t76.5 135.5t55.5 170.5q9 40 12.5 74t2.5 48l-1 14h-225l16 88q211 2 211 0q-16 77 -63 168q-26 47 -23.5 97.5t19 95.5t47.5 87t61.5 72.5t61.5 52.5q70 50 135.5 67t140.5 17 q183 -3 256 -57t53 -142q-21 -101 -250 -77q51 60 35 122q-8 31 -36.5 54.5t-84.5 23.5q-103 -1 -154.5 -51t-46.5 -132.5t60 -182.5q23 -42 36 -107t11 -104q240 4 240 0l-19 -92h-227q-10 -77 -54.5 -164t-103.5 -158.5t-114.5 -126t-98.5 -84.5l7 6q8 5 24.5 15 t42.5 18.5t64 13t88 -1.5q75 -6 135 -28.5t105.5 -35.5t107.5 -3q64 11 105.5 56.5t62.5 104.5l55 3q-6 -31 -28 -92.5t-67.5 -141.5t-92.5 -108q-31 -19 -71.5 -24.5t-73 -3t-82 17.5t-73.5 24t-73 30q-11 5 -17 7q-90 39 -160.5 50t-154.5 -3q-1 -1 -20 -32t-41 -52 t-47 -21q-42 0 -63 30z" />
<glyph unicode="&#xa4;" horiz-adv-x="972" d="M66 635q0 149 90 256l-88 88l92 87l4 5l80 -98q103 75 241 78q133 3 244 -78l80 98q-1 -1 23.5 -25t49 -47t23.5 -20l-88 -88q90 -107 90 -256q0 -147 -90 -258l88 -86q1 -2 -8.5 -12t-23.5 -23.5t-28 -26t-24.5 -22t-11.5 -10.5l-80 98q-111 -78 -244 -78 q-130 0 -241 78l-80 -98l-67 59q-32 30 -29 35l88 86q-90 111 -90 258zM178 633q0 -137 93 -232.5t216 -95.5q124 0 217 95.5t93 232.5q0 133 -93.5 229t-216.5 96q-124 0 -216.5 -95.5t-92.5 -229.5z" />
<glyph unicode="&#xa5;" horiz-adv-x="1312" d="M-20 1354l12 65q48 -18 327 -18q40 0 177.5 5.5t154.5 10.5l-12 -63q-6 0 -28.5 1t-34.5 0t-30.5 -4.5t-31.5 -13.5t-22 -26q-14 -20 28.5 -147t91.5 -244l50 -117l77 103q77 104 160.5 221.5t97.5 148.5q17 36 -14 58.5t-88 19.5l14 61q181 -8 236 -8q104 0 252 12 l-15 -65q-113 -4 -187.5 -53.5t-211.5 -210.5q-55 -62 -264 -332h315l-10 -78h-350l-19 -76h349l-11 -78h-354q-83 -355 -59 -391q49 -77 176 -74l-15 -67q-16 9 -145.5 16.5t-173.5 7.5q-55 0 -215 -5t-178 -11l14 61q124 3 205 76q38 38 114 387h-329l12 78h334 q9 50 16 76h-332l13 78h295q-119 310 -217 522q-13 28 -29.5 45t-37.5 23t-36 7.5t-38.5 0t-32.5 -1.5z" />
<glyph unicode="&#xa6;" horiz-adv-x="524" d="M174 -29v543h178v-543h-178zM174 723v545h178v-545h-178z" />
<glyph unicode="&#xa7;" horiz-adv-x="1124" d="M160 -336q20 56 50.5 160t43.5 143h76l-6 -20q-32 -134 23 -193t196 -59q54 0 118 24.5t117.5 73t65.5 105.5q13 60 -14.5 103.5t-81 69t-120.5 46.5t-133 45.5t-118.5 57.5t-77.5 90.5t-8 135.5q11 49 28 87t48 72.5t57.5 57.5t77.5 62q-77 71 -51 195q38 177 200 304.5 t340 127.5q132 0 244 -64q-40 -88 -92 -287h-74l4 29q27 115 -8 152t-160 37q-42 0 -87 -11t-88 -32t-76 -57.5t-44 -82.5q-9 -46 6.5 -80.5t49.5 -55t80 -38.5t98 -30.5t103.5 -30t96.5 -38t76.5 -55t43.5 -79.5t-1 -113q-21 -94 -66 -157t-134 -136q90 -70 61 -213 q-25 -116 -119 -217.5t-216.5 -158t-237.5 -56.5q-182 0 -291 86zM455 547q-9 -41 27 -83t102 -76.5t125.5 -60t125 -48t72.5 -25.5q73 77 84 129q3 25 4.5 45t-7 39t-16 32.5t-23.5 27t-30 22.5t-34 19t-36.5 16.5t-37.5 13.5l-256 92q-84 -72 -100 -143z" />
<glyph unicode="&#xa8;" horiz-adv-x="692" d="M55 1225q3 57 56 102t110 45q44 0 75 -30.5t28 -73.5q-3 -54 -54.5 -101t-105.5 -47q-45 0 -78.5 31t-30.5 74zM588 1225q3 57 53 102t107 45q44 0 76.5 -30t29.5 -74q-3 -55 -55 -101.5t-107 -46.5q-45 0 -76 30.5t-28 74.5z" />
<glyph unicode="&#xa9;" horiz-adv-x="1411" d="M12 520q0 148 43.5 278t120 226.5t177 166.5t218 105t240.5 35q163 0 298.5 -74t212.5 -202.5t77 -282.5q0 -185 -67 -339.5t-179.5 -255.5t-257.5 -156.5t-303 -55.5q-123 0 -231 43t-184.5 117.5t-120.5 177t-44 217.5zM133 541q0 -128 62 -236.5t173 -172.5t246 -64 q134 0 257 54.5t212 146t142 218t53 265.5q0 129 -65.5 238t-178 172t-246.5 63q-126 0 -245 -51.5t-209.5 -140.5t-145.5 -218t-55 -274zM374 506q-13 67 5 162q35 163 157 257.5t263 94.5q53 0 106 -17.5t56 -17.5q37 0 53 35h33l-39 -229h-39q-2 85 -42 131t-128 43 q-47 -1 -85.5 -19t-65 -45.5t-47.5 -67.5t-33.5 -79t-22.5 -86q-33 -153 8 -223t129 -70q27 0 51.5 4t46.5 12.5t37.5 15t34.5 19.5t27 18.5t25 19.5t18 15l26 -33q-7 -8 -17 -17.5t-40.5 -31t-63 -38t-83 -29.5t-101.5 -13q-64 0 -118 19t-96 61t-55 109z" />
<glyph unicode="&#xaa;" horiz-adv-x="710" d="M190 639q19 89 108.5 145.5t276.5 96.5l17 71q11 42 -7 65t-53 23q-82 0 -94 -57q-4 -21 -3.5 -27t7 -12.5t7.5 -9.5q-12 -18 -41 -32t-60 -17q-21 -1 -40 9t-28 33t15 62q23 39 65.5 60.5t82.5 27t100 6.5q123 3 162 -43q22 -22 27.5 -59t-0.5 -63l-5 -27l-29 -139 q-3 -14 -8 -33.5t-8 -31.5t-6 -26t-3 -22.5t2 -16t8 -11t15 -3.5q15 0 30 14.5t22 29.5l8 14q1 0 2.5 -1t6 -2.5t8.5 -3l8 -3t6 -2.5l2 -1q-39 -77 -85.5 -110t-89.5 -33q-11 0 -22.5 1.5t-27.5 7t-27 15.5t-17.5 28.5t-3.5 43.5q-105 -85 -158 -94q-28 -6 -61 -1t-61 15.5 t-43 40t-5 72.5zM369 680q-14 -43 5 -61.5t52 -16.5q54 0 102 51q8 36 21.5 98.5t21.5 98.5q-93 -30 -141.5 -78t-60.5 -90v-2z" />
<glyph unicode="&#xab;" horiz-adv-x="888" d="M61 438q55 38 153 113t168 131l71 55l69 -16q-201 -226 -260 -283q15 -24 49.5 -94.5t62.5 -129.5l27 -58l-77 -17q-224 260 -263 299zM371 438q54 38 151.5 113t168.5 131l71 55l72 -16q-204 -226 -263 -283q14 -24 49.5 -94.5t63.5 -129.5l29 -58l-78 -17 q-225 260 -264 299z" />
<glyph unicode="&#xac;" horiz-adv-x="997" d="M63 375v145h871v-434h-141v289h-730z" />
<glyph unicode="&#xad;" horiz-adv-x="698" d="M70 356l30 152h467l-30 -152h-467z" />
<glyph unicode="&#xae;" horiz-adv-x="1525" d="M74 520q0 148 43.5 278t119.5 226.5t177 166.5t218 105t240 35q163 0 298.5 -74t212.5 -202.5t77 -282.5q0 -185 -67 -339.5t-179.5 -255.5t-257.5 -156.5t-303 -55.5q-164 0 -297 73.5t-207.5 200.5t-74.5 281zM195 541q0 -128 62 -236.5t173 -172.5t246 -64 q134 0 257 54.5t212 146t141.5 218t52.5 265.5q0 129 -65 238t-177.5 172t-246.5 63q-126 0 -245 -51.5t-209.5 -140.5t-145.5 -218t-55 -274zM377 332l8 41q57 0 94 37q7 6 15.5 27t15.5 46t15 57.5t13 56t9.5 47.5t5.5 26q43 194 43 264q0 49 -80 49l8 39h322 q43 0 80 -6.5t73 -22t57 -47t21 -76.5q0 -49 -21 -87t-51.5 -58t-60.5 -33t-51 -16l-21 -4q15 -27 44 -82t53.5 -98t50.5 -82q12 -20 28.5 -27.5t47.5 -9.5l-9 -41q-16 4 -106 4q-64 0 -100 -4l-156 319h-35q-37 -185 -37 -221q0 -30 23.5 -43.5t58.5 -13.5l-8 -43 q-8 4 -89.5 7t-107.5 3q-19 0 -81.5 -2.5t-71.5 -5.5zM705 705q3 0 14.5 -1.5t19.5 -1.5q153 0 179 134q4 24 4 32q0 39 -21 64t-44.5 33t-47.5 8l-49 -2q-9 -42 -10.5 -48t-3.5 -17.5t-3.5 -19.5t-11.5 -56t-26 -125z" />
<glyph unicode="&#xaf;" horiz-adv-x="671" d="M25 1112l24 119h598l-24 -119h-598z" />
<glyph unicode="&#xb0;" horiz-adv-x="692" d="M86 993q24 114 108 183t191 69q112 0 179.5 -70.5t43.5 -181.5q-26 -116 -109.5 -183t-193.5 -67q-112 0 -178 68t-41 182zM186 993q-18 -81 18 -131.5t103 -50.5t125 50.5t76 131.5q17 82 -19.5 133.5t-103.5 51.5t-124.5 -51.5t-74.5 -133.5z" />
<glyph unicode="&#xb1;" horiz-adv-x="1175" d="M90 39v133h991v-133h-991zM139 684l35 166h408l86 403h166l-86 -403h407l-35 -166h-407l-90 -414h-164l88 414h-408z" />
<glyph unicode="&#xb2;" horiz-adv-x="518" d="M0 983l8 47l170 148q71 65 123.5 144.5t52.5 125.5q0 45 -35 45q-27 0 -45 -33.5t-18 -64.5q0 -25 10 -33q-27 -23 -88 -23q-98 0 -98 58q0 64 65 103.5t174 39.5q199 0 199 -121q0 -33 -13.5 -64t-41 -60t-50.5 -48.5t-62.5 -49t-55.5 -42.5q-26 -21 -70 -51.5 t-61 -42.5q93 0 122 8q52 15 70 64h103q-10 -18 -27 -71.5t-22 -78.5h-410z" />
<glyph unicode="&#xb3;" horiz-adv-x="618" d="M55 1073q0 44 37 67t84 23q56 0 76 -26q-19 -23 -19 -68q0 -47 35 -47q26 0 45.5 19t27.5 47t11.5 49.5t3.5 36.5q0 75 -61 75q-49 0 -84 -2q14 31 14 62h58q58 0 87 38t29 105q0 47 -32 47q-21 0 -39.5 -24.5t-18.5 -57.5q0 -13 6 -22q-32 -25 -90 -25q-84 0 -84 49 q0 56 66.5 92.5t163.5 36.5q50 0 91 -9t73 -36t32 -69q0 -47 -49.5 -94t-118.5 -56q56 -10 91.5 -40.5t35.5 -80.5q0 -63 -44.5 -107t-105 -62.5t-126.5 -18.5q-88 0 -141.5 28.5t-53.5 69.5z" />
<glyph unicode="&#xb4;" horiz-adv-x="618" d="M268 1114l148 303q24 47 98 78q39 12 86 -6t55 -70q2 -14 0 -26.5t-11 -24.5t-15 -19t-21 -21t-20 -19l-193 -195h-127z" />
<glyph unicode="&#xb5;" horiz-adv-x="1228" d="M1.5 -249q-1.5 27 0.5 61q4 49 35 183.5t75 311.5t56 228q5 21 18 75t18.5 77t15.5 68t14.5 71t10 61t7.5 63t2 54q52 -6 145.5 -4t149.5 12q-61 -137 -174 -572q-15 -63 -22 -96t-12 -78t2 -71.5t26 -40.5q18 -13 41 -15t46 5t41.5 16t34.5 20q53 36 94.5 75.5 t56.5 60.5l15 22q32 117 82.5 350.5t55.5 310.5q159 -13 288 0q-86 -233 -184 -585q-16 -61 -23.5 -101.5t-7.5 -77t14.5 -57.5t43.5 -28q28 -10 78 35t96 141l55 -27q-162 -314 -375 -322q-108 -7 -145 82q-6 36 -4.5 70.5t6.5 60.5l4 25q-91 -107 -187 -167t-161 -60 q-41 0 -71 9t-56 32.5t-38.5 70t-10.5 115.5q-24 -95 -27 -171.5t9 -120.5t34.5 -76t41 -44.5t36.5 -17.5q69 -26 170 -2q-3 -8 -8 -22t-24.5 -49.5t-43 -63t-63 -51t-84.5 -25.5q-56 -3 -96 13t-60 40t-30 61.5t-11.5 64.5z" />
<glyph unicode="&#xb6;" horiz-adv-x="1196" d="M178 1032q28 130 146.5 215.5t302.5 75.5q182 -10 331 -10q165 0 310 8l-13 -61h-149q-16 -29 -45 -164l-250 -1149q-4 -22 -8.5 -58t-6.5 -61l-3 -25h149l-12 -51h-723l10 51h152q29 95 39 144l153 710q-57 0 -116 15t-113.5 46.5t-94 75t-57 105.5t-2.5 133zM381 993 q-22 -101 35.5 -173.5t158.5 -90.5l109 518q-37 6 -80.5 -5t-88.5 -38.5t-82 -82.5t-52 -128zM524 -197h113q29 95 39 144l276 1300h-131l-278 -1300q-4 -22 -9 -58t-8 -61z" />
<glyph unicode="&#xb7;" horiz-adv-x="485" d="M129 582q0 48 33 81t82 33q46 0 79 -33.5t33 -80.5q0 -46 -33 -79.5t-79 -33.5q-47 0 -81 33.5t-34 79.5z" />
<glyph unicode="&#xb8;" horiz-adv-x="491" d="M25 -403l32 71q228 -51 228 56q0 89 -146 61l-18 14l80 178l78 -6l-50 -108q55 10 84 10q80 0 117 -40.5t37 -104.5q0 -166 -270 -166q-74 0 -172 35z" />
<glyph unicode="&#xb9;" horiz-adv-x="505" d="M66 975l10 55q52 0 72 24t40 113l48 224q-18 -6 -51 -13.5t-38 -9.5l13 55q30 13 138.5 67.5t156.5 82.5q-74 -288 -97 -406q-14 -57 -14 -90q0 -29 14 -38t52 -9l-11 -55q-90 12 -163 12q-76 0 -170 -12z" />
<glyph unicode="&#xba;" horiz-adv-x="720" d="M252 807q26 121 120 196t226 78q126 2 191.5 -73.5t35.5 -212.5q-28 -130 -122.5 -205.5t-227.5 -75.5q-126 2 -189.5 77t-33.5 216zM411 617.5q18 -69.5 78 -68.5q18 1 38.5 11t43.5 32.5t44.5 67t35.5 104.5q13 59 17.5 108t0 90t-24 64t-52.5 23q-53 0 -102 -68.5 t-74 -196.5q-23 -97 -5 -166.5z" />
<glyph unicode="&#xbb;" horiz-adv-x="999" d="M123 156q207 229 260 282q-16 25 -50.5 96t-61.5 129l-27 58l78 16q178 -213 262 -299l-391 -299zM432 156q207 229 262 282q-16 25 -51.5 96t-62.5 129l-27 58l80 16q176 -213 262 -299l-391 -299z" />
<glyph unicode="&#xbc;" horiz-adv-x="1327" d="M141 0l908 1382h172l-904 -1382h-176zM256 782l10 56q52 0 72.5 24t40.5 113l47 223q-19 -6 -51 -13t-37 -9l12 55q31 13 139.5 67t155.5 82q-71 -275 -96 -405q-14 -57 -14 -90q0 -29 14 -38t51 -9l-10 -56q-98 13 -164 13q-68 0 -170 -13zM750 141l8 37l356 395h137 l-82 -378h93l-11 -54h-92q-6 -24 -6 -37q0 -19 10.5 -27.5t22 -9.5t41.5 -1l-15 -70q-61 12 -174 12q-109 0 -164 -10l15 68q28 0 39 1t25 8t21 22.5t13 43.5h-237zM903 195h92l29 129q-24 -28 -65.5 -70.5t-55.5 -58.5z" />
<glyph unicode="&#xbd;" horiz-adv-x="1406" d="M125 0l907 1382h172l-903 -1382h-176zM256 784l10 56q52 0 72.5 24t40.5 113l47 223q-19 -6 -51 -13t-37 -9l12 55q31 13 139.5 67t155.5 82q-71 -275 -96 -405q-14 -57 -14 -90q0 -29 14 -38t51 -9l-10 -56q-98 13 -164 13q-68 0 -170 -13zM823 -2l11 49l167 146 q71 65 124 145.5t53 124.5q0 45 -35 45q-28 0 -46 -35t-18 -67q0 -24 11 -29q-12 -8 -38.5 -15.5t-52.5 -7.5q-96 0 -96 58q0 64 65.5 104.5t174.5 40.5q198 0 198 -121q0 -13 -4 -37q-9 -33 -40 -71t-56.5 -60t-71 -56.5t-51.5 -39.5q-9 -8 -133 -96h29h31t27 1.5t28.5 4 t23 8t23.5 13t17.5 18.5t15.5 26h102q-10 -16 -28 -70t-23 -79h-408z" />
<glyph unicode="&#xbe;" horiz-adv-x="1390" d="M66 907q0 44 36.5 67t83.5 23q56 0 76 -26q-18 -22 -18 -68q0 -47 35 -47q26 0 45.5 19t27.5 47t11.5 49.5t3.5 36.5q0 75 -62 75q-49 0 -84 -2q15 34 15 62h57q58 0 87.5 38t29.5 105q0 47 -33 47q-21 0 -39.5 -24.5t-18.5 -57.5q0 -11 7 -22q-32 -25 -90 -25 q-84 0 -84 49q0 56 66 92.5t163 36.5q36 0 68.5 -5.5t62.5 -17.5t48 -35.5t18 -55.5q0 -47 -49.5 -94t-118.5 -56q56 -10 91.5 -40.5t35.5 -80.5q0 -63 -45 -107t-105.5 -62.5t-126.5 -18.5q-88 0 -141 28.5t-53 69.5zM225 0l908 1382h172l-904 -1382h-176zM813 143l8 37 l357 395h137l-82 -378h92l-10 -54h-92q-6 -24 -6 -37q0 -27 15.5 -32.5t57.5 -5.5l-14 -70q-61 12 -174 12q-109 0 -164 -10l14 68q28 0 39 1t25.5 8t21.5 22.5t13 43.5h-238zM967 197h92l28 129q-24 -28 -66 -72t-54 -57z" />
<glyph unicode="&#xbf;" horiz-adv-x="1155" d="M133 256q14 66 50 125t83.5 105t102.5 90.5t110.5 90t104 94t86 111.5t53.5 134h51q-27 -155 -31 -170q-17 -84 -57 -156t-86.5 -124t-92.5 -101.5t-83.5 -111.5t-52.5 -130q-18 -85 23.5 -128.5t113.5 -45.5q69 0 129 34t72 87q5 26 -5.5 49.5t-5.5 44.5q7 36 54 59 t104 23q61 0 98.5 -31t28.5 -76q-14 -65 -69.5 -117.5t-129.5 -82t-148.5 -45t-137.5 -15.5q-70 0 -138.5 17.5t-126.5 51t-86.5 90.5t-13.5 128zM664 1243q12 54 54.5 89.5t94.5 35.5t80.5 -35.5t19.5 -89.5q-12 -51 -56.5 -86t-96.5 -35q-51 0 -79.5 35t-16.5 86z" />
<glyph unicode="&#xc0;" horiz-adv-x="1607" d="M-78 0l12 57h16.5t40 3.5t55 11t54.5 25t47 42.5q93 127 295.5 454t359.5 591l156 264h146q0 -3 54 -298.5t116 -617t78 -370.5q17 -57 62 -80t112 -25l-15 -57q-241 12 -364 12q-49 0 -134 -3t-145 -6l-61 -3l14 57q166 0 185 99q6 33 -3 101.5t-21 120.5l-13 52l-496 2 q-15 -24 -38.5 -61.5t-66.5 -119t-51 -120.5q-8 -36 34 -55t106 -19l-15 -57q-127 8 -225 8zM524 530h430l-114 545zM629 1772q0 36 25 61t61 25q43 0 68.5 -16.5t58.5 -55.5l250 -289h-105l-321 197q-37 22 -37 78z" />
<glyph unicode="&#xc1;" horiz-adv-x="1607" d="M-78 0l12 57h16.5t40 3.5t55 11t54.5 25t47 42.5q93 127 295.5 454t359.5 591l156 264h146q0 -3 54 -298.5t116 -617t78 -370.5q17 -57 62 -80t112 -25l-15 -57q-241 12 -364 12q-49 0 -134 -3t-145 -6l-61 -3l14 57q166 0 185 99q6 33 -3 101.5t-21 120.5l-13 52l-496 2 q-15 -24 -38.5 -61.5t-66.5 -119t-51 -120.5q-8 -36 34 -55t106 -19l-15 -57q-127 8 -225 8zM524 530h430l-114 545zM985 1495l148 301q34 78 98 78q39 0 71.5 -19.5t32.5 -56.5q0 -14 -3 -26t-12.5 -24.5t-13.5 -18t-20 -20.5t-18 -17l-195 -197h-88z" />
<glyph unicode="&#xc2;" horiz-adv-x="1607" d="M-78 0l12 57h16.5t40 3.5t55 11t54.5 25t47 42.5q93 127 295.5 454t359.5 591l156 264h146q0 -3 54 -298.5t116 -617t78 -370.5q17 -57 62 -80t112 -25l-15 -57q-241 12 -364 12q-49 0 -134 -3t-145 -6l-61 -3l14 57q166 0 185 99q6 33 -3 101.5t-21 120.5l-13 52l-496 2 q-15 -24 -38.5 -61.5t-66.5 -119t-51 -120.5q-8 -36 34 -55t106 -19l-15 -57q-127 8 -225 8zM524 530h430l-114 545zM684 1497l313 342h183l159 -342h-110l-156 199l-280 -199h-109z" />
<glyph unicode="&#xc3;" horiz-adv-x="1607" d="M-78 0l12 57h16.5t40 3.5t55 11t54.5 25t47 42.5q93 127 295.5 454t359.5 591l156 264h146q0 -3 54 -298.5t116 -617t78 -370.5q17 -57 62 -80t112 -25l-15 -57q-241 12 -364 12q-49 0 -134 -3t-145 -6l-61 -3l14 57q166 0 185 99q6 33 -3 101.5t-21 120.5l-13 52l-496 2 q-15 -24 -38.5 -61.5t-66.5 -119t-51 -120.5q-8 -36 34 -55t106 -19l-15 -57q-127 8 -225 8zM524 530h430l-114 545zM682 1497q1 30 14.5 69t39 79.5t71.5 68t104 27.5q62 0 154 -47q92 -45 143 -45q22 0 37.5 6t28 23t17.5 26.5t18 36.5h84q-12 -50 -30 -91t-45.5 -77 t-68.5 -56t-92 -20q-58 0 -158 47q-89 47 -147 47q-35 0 -58 -28t-34 -66h-78z" />
<glyph unicode="&#xc4;" horiz-adv-x="1607" d="M-78 0l12 57h16.5t40 3.5t55 11t54.5 25t47 42.5q93 127 295.5 454t359.5 591l156 264h146q0 -3 54 -298.5t116 -617t78 -370.5q17 -57 62 -80t112 -25l-15 -57q-241 12 -364 12q-49 0 -134 -3t-145 -6l-61 -3l14 57q166 0 185 99q6 33 -3 101.5t-21 120.5l-13 52l-496 2 q-15 -24 -38.5 -61.5t-66.5 -119t-51 -120.5q-8 -36 34 -55t106 -19l-15 -57q-127 8 -225 8zM524 530h430l-114 545zM639 1595q3 57 56 101.5t110 44.5q43 0 74 -30.5t30 -72.5q-3 -54 -55 -100.5t-106 -46.5q-45 0 -77.5 30.5t-31.5 73.5zM1171 1595q3 56 54 101t108 45 q43 0 75.5 -30t29.5 -73q-3 -55 -55 -101t-107 -46q-44 0 -76 30.5t-29 73.5z" />
<glyph unicode="&#xc5;" horiz-adv-x="1607" d="M-78 0l12 57h16.5t40 3.5t55 11t54.5 25t47 42.5q93 127 295.5 454t359.5 591l156 264h146q0 -3 54 -298.5t116 -617t78 -370.5q17 -57 62 -80t112 -25l-15 -57q-241 12 -364 12q-49 0 -134 -3t-145 -6l-61 -3l14 57q166 0 185 99q6 33 -3 101.5t-21 120.5l-13 52l-496 2 q-15 -24 -38.5 -61.5t-66.5 -119t-51 -120.5q-8 -36 34 -55t106 -19l-15 -57q-127 8 -225 8zM524 530h430l-114 545zM870 1694q19 83 85 138.5t155 55.5q71 0 121 -60t37 -134q-17 -90 -82 -142.5t-158 -52.5q-75 0 -123.5 64.5t-34.5 130.5zM973 1694q-9 -40 13 -68.5 t63 -28.5t75 28.5t43 68.5q9 41 -13 69.5t-62 28.5q-41 0 -75.5 -28.5t-43.5 -69.5z" />
<glyph unicode="&#xc6;" horiz-adv-x="2054" d="M-260 2l14 55h16.5t40.5 3.5t57.5 11t60.5 25t57 42.5q150 161 482.5 565t510.5 629q-10 6 -23 9.5t-23.5 5.5t-26.5 3t-23.5 1h-24h-18.5l14 65q-1 -1 305.5 -1h612.5l307 1q-10 -46 -16 -81.5t-8.5 -60t-8 -82t-12.5 -116.5h-72q-7 51 -18 88.5t-22 58t-26 35t-26 19 t-28 11t-25 11.5l-27 6q-27 5 -47.5 6.5t-70 5.5t-130 5.5t-192.5 1.5q-56 -253 -113 -528h19.5h49.5t71 0.5t77 2.5t75.5 5t58 8t32.5 12q46 41 75 78.5t38.5 58t21.5 54.5h68q2 -1 -5.5 -31.5t-28 -105.5t-30.5 -115q-15 -59 -26.5 -130t-17 -113t-7.5 -44q-6 -2 -24.5 -2 t-33.5 1l-16 1q0 8 3 32t2.5 39t-4.5 37.5t-17.5 43.5t-36.5 41q-16 15 -107.5 21.5t-175.5 5.5l-84 -1l-127 -602q110 0 197.5 3.5t147.5 10.5t90.5 12t68.5 14t39 9q5 2 32 14t38.5 18t37.5 25.5t43 41.5t40.5 60t44.5 87l71 -2q-21 -67 -49.5 -149t-42 -128.5 t-26.5 -109.5h-15q-385 -1 -680 -1.5t-573 1.5l14 61q128 3 207 74q34 34 96 299l-497 -2q-180 -213 -219 -301q-14 -36 23.5 -55t100.5 -19l-14 -55q-127 8 -223 8zM446 530h445q25 123 35 162q96 466 94 570z" />
<glyph unicode="&#xc7;" horiz-adv-x="1544" d="M142 468.5q-4 106.5 22 240.5q37 174 129 316.5t214 233.5t262 140t280 49q83 0 162.5 -18t131 -36t66.5 -18q82 0 115 72h45l-84 -483h-58q-2 87 -24.5 158t-66.5 126t-117 84t-170 25q-98 -3 -163.5 -28t-121.5 -77q-80 -77 -142 -202.5t-110 -341.5 q-28 -134 -28.5 -242.5t23 -181.5t67 -122.5t100 -71.5t125.5 -21q48 0 95.5 8t85 19t78 30t68 34t61.5 39t50.5 36.5t44 35t33.5 27.5l45 -57q-2 -5 -28.5 -30t-84.5 -67t-130 -80t-178 -66t-216 -28q-89 0 -169.5 17.5t-154.5 55t-128 96t-89.5 140.5t-39.5 188.5z M500 -403l30 71q228 -51 228 56q0 89 -144 61l-20 14l84 187h80l-53 -123q55 10 81 10q81 0 117.5 -40t36.5 -105q0 -48 -26.5 -83t-70.5 -52t-86 -24t-87 -7q-72 0 -170 35z" />
<glyph unicode="&#xc8;" horiz-adv-x="1552" d="M8 0l15 61q128 3 204 74q34 32 85 245.5t67 309.5q123 552 92 606q-10 18 -25.5 29.5t-39.5 17t-36.5 7t-42.5 2t-32 0.5l12 65h1229q-11 -47 -17.5 -82.5t-9 -59t-8 -82.5t-12.5 -116h-70q-9 61 -22 102t-30.5 61.5t-30 30t-34.5 17.5t-30 12q-4 1 -23.5 4.5t-31.5 5.5 t-48.5 5.5t-79 5t-117.5 3t-169 1.5q-52 -253 -111 -528q353 0 383 28q46 41 74.5 78.5t38.5 59t20 53.5h70q2 -1 -5.5 -31.5t-28 -105.5t-30.5 -115q-14 -58 -26.5 -130t-18.5 -113.5t-8 -43.5q-5 -2 -23.5 -2t-34.5 1l-16 1q0 3 3.5 31.5t2.5 40t-4.5 36t-17 45 t-35.5 40.5q-16 15 -107 21.5t-174 5.5l-83 -1q-27 -130 -60 -282.5t-51 -235.5t-18 -84q93 0 172 3t128.5 7t95.5 10.5t66 10.5t47.5 10.5t32.5 7.5q4 2 31.5 14t38 18t37 25.5t43.5 41.5t40 60t44 87l72 -2q-21 -66 -48.5 -149t-41.5 -129t-29 -109h-5q-1257 -4 -1259 0z M557 1776q0 36 25 61t61 25q43 0 68.5 -16.5t58.5 -55.5l250 -289h-105l-321 197q-37 24 -37 78z" />
<glyph unicode="&#xc9;" horiz-adv-x="1552" d="M8 0l15 61q127 3 206 74q49 49 152 555q123 552 90 606q-10 18 -25 29.5t-39 17t-36 7t-43 2t-33 0.5l14 65h1227q-10 -46 -16 -81.5t-8.5 -60t-8.5 -81.5t-14 -117h-70q-8 51 -19 88.5t-22 58t-26 35t-25.5 19t-27.5 11t-25 11.5l-27 6q-27 5 -48 6.5t-70 5.5 t-130.5 5.5t-193.5 1.5q-54 -253 -111 -528q353 0 383 28q45 41 73 78.5t38 59t20 53.5h72q2 -1 -6.5 -33.5t-27.5 -101.5t-32 -117q-14 -58 -25.5 -129.5t-17.5 -113.5t-8 -44q-6 -2 -24.5 -2t-33.5 1l-15 1q0 7 3 31.5t2 39.5t-4.5 37.5t-17 43.5t-35.5 41 q-16 15 -107.5 21.5t-174.5 5.5l-84 -1q-26 -125 -59 -281t-50.5 -237.5t-17.5 -83.5q110 0 197.5 3.5t147 10.5t90.5 12t68 14t39 9q6 3 31 14t37.5 17.5t37.5 26t43 41.5t41 60t44 87l72 -2q-16 -49 -40.5 -121t-33.5 -99t-21.5 -72t-23.5 -95h-10q-1254 -4 -1256 0z M885 1495l147 301q40 78 98 78q39 0 72 -20.5t33 -55.5q0 -14 -3 -26t-12 -24.5t-14 -18.5t-19 -20.5t-18 -18.5l-194 -195h-90z" />
<glyph unicode="&#xca;" horiz-adv-x="1552" d="M8 0l15 61q128 3 204 74q34 32 85 245.5t67 309.5q123 552 92 606q-10 18 -25.5 29.5t-39.5 17t-36.5 7t-42.5 2t-32 0.5l12 65h1229q-11 -47 -17.5 -82.5t-9 -59t-8 -82.5t-12.5 -116h-70q-9 61 -22 102t-30.5 61.5t-30 30t-34.5 17.5t-30 12q-4 1 -23.5 4.5t-31.5 5.5 t-48.5 5.5t-79 5t-117.5 3t-169 1.5q-52 -253 -111 -528q353 0 383 28q46 41 74.5 78.5t38.5 59t20 53.5h70q2 -1 -5.5 -31.5t-28 -105.5t-30.5 -115q-14 -58 -26.5 -130t-18.5 -113.5t-8 -43.5q-5 -2 -23.5 -2t-34.5 1l-16 1q0 3 3.5 31.5t2.5 40t-4.5 36t-17 45 t-35.5 40.5q-16 15 -107 21.5t-174 5.5l-83 -1q-27 -130 -60 -282.5t-51 -235.5t-18 -84q93 0 172 3t128.5 7t95.5 10.5t66 10.5t47.5 10.5t32.5 7.5q4 2 31.5 14t38 18t37 25.5t43.5 41.5t40 60t44 87l72 -2q-21 -66 -48.5 -149t-41.5 -129t-29 -109h-5q-1257 -4 -1259 0z M616 1503l314 342h182l160 -342h-111l-155 199l-281 -199h-109z" />
<glyph unicode="&#xcb;" horiz-adv-x="1552" d="M8 0l15 61q128 3 204 74q34 32 85 245.5t67 309.5q123 552 92 606q-10 18 -25.5 29.5t-39.5 17t-36.5 7t-42.5 2t-32 0.5l12 65h1229q-11 -47 -17.5 -82.5t-9 -59t-8 -82.5t-12.5 -116h-70q-9 61 -22 102t-30.5 61.5t-30 30t-34.5 17.5t-30 12q-4 1 -23.5 4.5t-31.5 5.5 t-48.5 5.5t-79 5t-117.5 3t-169 1.5q-52 -253 -111 -528q353 0 383 28q46 41 74.5 78.5t38.5 59t20 53.5h70q2 -1 -5.5 -31.5t-28 -105.5t-30.5 -115q-14 -58 -26.5 -130t-18.5 -113.5t-8 -43.5q-5 -2 -23.5 -2t-34.5 1l-16 1q0 3 3.5 31.5t2.5 40t-4.5 36t-17 45 t-35.5 40.5q-16 15 -107 21.5t-174 5.5l-83 -1q-27 -130 -60 -282.5t-51 -235.5t-18 -84q93 0 172 3t128.5 7t95.5 10.5t66 10.5t47.5 10.5t32.5 7.5q4 2 31.5 14t38 18t37 25.5t43.5 41.5t40 60t44 87l72 -2q-21 -66 -48.5 -149t-41.5 -129t-29 -109h-5q-1257 -4 -1259 0z M575 1610q3 57 56 101t110 44q44 0 75 -30t28 -72q-1 -55 -53 -102.5t-107 -47.5q-45 0 -78.5 31t-30.5 76zM1108 1610q3 56 53.5 100.5t108.5 44.5q43 0 75 -29.5t29 -72.5q-3 -56 -55 -103t-107 -47q-45 0 -76 31t-28 76z" />
<glyph unicode="&#xcc;" horiz-adv-x="915" d="M14 0l15 61q68 1 102 15t96 59q49 39 158 578q1 7 11.5 54t22 101.5t25 126.5t21.5 129t10.5 108t-8.5 64q-13 25 -34.5 38.5t-39 15.5t-49.5 3t-47 3l14 63q62 -11 321 -12.5t402 12.5l-14 -61q-106 -10 -136.5 -19t-64.5 -45q-11 -13 -24 -45.5t-27 -80t-26.5 -95.5 t-26.5 -109.5t-23 -103t-20.5 -95t-14.5 -67.5q-119 -512 -84 -567q17 -28 36.5 -41.5t35 -16t46.5 -5.5t54 -9l-12 -63q-124 18 -353 20.5t-366 -16.5zM270 1769q0 35 24.5 60.5t59.5 25.5q44 0 70.5 -16t58.5 -55l250 -287h-106l-320 195q-37 22 -37 77z" />
<glyph unicode="&#xcd;" horiz-adv-x="915" d="M14 0l15 61q68 1 102 15t96 59q49 39 158 578q1 7 11.5 54t22 101.5t25 126.5t21.5 129t10.5 108t-8.5 64q-13 25 -34.5 38.5t-39 15.5t-49.5 3t-47 3l14 63q62 -11 321 -12.5t402 12.5l-14 -61q-106 -10 -136.5 -19t-64.5 -45q-11 -13 -24 -45.5t-27 -80t-26.5 -95.5 t-26.5 -109.5t-23 -103t-20.5 -95t-14.5 -67.5q-119 -512 -84 -567q17 -28 36.5 -41.5t35 -16t46.5 -5.5t54 -9l-12 -63q-124 18 -353 20.5t-366 -16.5zM625 1495l149 301q34 78 98 78q39 0 71 -19.5t32 -56.5q0 -14 -3 -25.5t-12.5 -25t-12.5 -17.5t-21 -21l-17 -17 l-194 -197h-90z" />
<glyph unicode="&#xce;" horiz-adv-x="915" d="M14 0l15 61q68 1 102 15t96 59q49 39 158 578q1 7 11.5 54t22 101.5t25 126.5t21.5 129t10.5 108t-8.5 64q-13 25 -34.5 38.5t-39 15.5t-49.5 3t-47 3l14 63q62 -11 321 -12.5t402 12.5l-14 -61q-106 -10 -136.5 -19t-64.5 -45q-11 -13 -24 -45.5t-27 -80t-26.5 -95.5 t-26.5 -109.5t-23 -103t-20.5 -95t-14.5 -67.5q-119 -512 -84 -567q17 -28 36.5 -41.5t35 -16t46.5 -5.5t54 -9l-12 -63q-124 18 -353 20.5t-366 -16.5zM340 1497l313 342h181l161 -342h-110l-156 199l-283 -199h-106z" />
<glyph unicode="&#xcf;" horiz-adv-x="974" d="M14 0l15 61q68 1 102 15t96 59q49 39 158 578q1 7 11.5 54t22 101.5t25 126.5t21.5 129t10.5 108t-8.5 64q-13 25 -34.5 38.5t-39 15.5t-49.5 3t-47 3l14 63q62 -11 321 -12.5t402 12.5l-14 -61q-106 -10 -136.5 -19t-64.5 -45q-11 -13 -24 -45.5t-27 -80t-26.5 -95.5 t-26.5 -109.5t-23 -103t-20.5 -95t-14.5 -67.5q-119 -512 -84 -567q17 -28 36.5 -41.5t35 -16t46.5 -5.5t54 -9l-12 -63q-124 18 -353 20.5t-366 -16.5zM295 1610q3 57 56 101t110 44q42 0 73.5 -30t28.5 -72q-3 -55 -55 -102.5t-107 -47.5q-44 0 -76.5 31t-29.5 76z M825 1610q3 56 54 100.5t108 44.5q44 0 76 -29.5t29 -72.5q-1 -56 -53 -103t-107 -47q-45 0 -77.5 31t-29.5 76z" />
<glyph unicode="&#xd0;" horiz-adv-x="1550" d="M-86 0l12 61q128 3 209 74q46 46 150 551h-219l16 70h217q105 496 78 540q-8 15 -22.5 26t-27.5 16.5t-34.5 9t-32.5 4.5t-34.5 1.5t-26.5 0.5l14 65l578 -2q194 0 340 -44t241 -132.5t126.5 -222t-5.5 -313.5q-14 -65 -38.5 -129t-66.5 -135t-97 -133.5t-132.5 -119.5 t-169.5 -98t-212.5 -65.5t-256.5 -24.5h-606zM428 80q2 2 127 -2q12 0 23 0.5t45.5 6t66 15t77 31t85 51t85 77.5t82 107.5t70 144.5t54.5 185q70 320 -2 463q-13 24 -21 37t-36.5 42t-62.5 46t-95.5 31t-137.5 14q-98 0 -100 -2l-123 -571h305l-16 -70h-301 q-115 -545 -125 -606z" />
<glyph unicode="&#xd1;" horiz-adv-x="1763" d="M-6 0l14 66q2 1 16 0t40.5 2t52.5 7t51.5 15.5t38.5 28.5q7 8 17.5 36t22 71t23 87t23.5 98t20.5 90.5t17 77t9.5 44.5q8 29 62.5 311.5t58.5 320.5q-8 68 -53 86q-11 3 -43.5 6.5t-60 5.5t-28.5 3l13 63h469q56 -111 157 -279.5t252 -408t176 -280.5q10 37 40.5 175 t37.5 175q25 117 57.5 298t24.5 208q-7 30 -52 43.5t-87 11.5l-41 -2q8 41 12 59q0 -1 18.5 -1t50 -0.5t72 -0.5h85.5t90 0.5t86 0.5t72.5 0.5t50.5 0.5h20q1 0 -2 -14.5t-6 -29.5l-4 -15q-130 0 -174 -35q-17 -15 -30 -38.5t-19 -41.5t-17.5 -63.5t-17.5 -67.5 q-37 -142 -74 -321q-169 -792 -172 -811h-21.5t-41.5 -0.5t-46.5 -0.5t-17.5 1q-494 816 -682 1126q-71 -358 -96 -475q-40 -172 -62 -324q-4 -22 -12.5 -66.5t-11.5 -64.5t-1 -44.5t13 -39.5q27 -38 160 -35l-2.5 -10t-4.5 -19t-5 -21.5t-1 -8.5t-29 0t-77 -0.5t-105 -1 t-115 -0.5h-105t-77.5 0.5t-29.5 1.5zM702 1505q1 23 8.5 52.5t25.5 63.5t43.5 62t65.5 47t87 19q59 0 151 -47q100 -47 144 -47q12 0 22 2.5t17 4.5t14.5 9.5t11.5 11t10.5 15t8.5 15t9 18.5t9 18h82q-58 -246 -235 -246q-56 0 -156 49q-100 47 -150 47q-34 0 -57.5 -28.5 t-32.5 -65.5h-78z" />
<glyph unicode="&#xd2;" horiz-adv-x="1687" d="M151.5 381.5q-27.5 131.5 8.5 298.5q32 150 96 275.5t149.5 215.5t191.5 152.5t224 92.5t244 30q98 1 184 -17.5t162 -58t129.5 -101t87 -146.5t34 -195.5t-29.5 -247.5q-49 -206 -180 -367.5t-315 -250.5t-387 -89q-161 0 -287 47.5t-205 138.5t-106.5 222.5zM483 495.5 q-3 -93.5 14 -172t51.5 -136.5t91.5 -90t130 -31q113 1 220.5 91t185.5 234t116 314q21 95 28 185t-4 175.5t-41 149t-89 103t-142 40.5q-74 1 -138.5 -20t-113 -57t-90 -90t-70 -110t-53.5 -127.5t-40.5 -131.5t-30.5 -132q-22 -101 -25 -194.5zM657 1776q0 36 25 61t61 25 q43 0 68.5 -16.5t58.5 -55.5l250 -289h-104l-322 197q-37 24 -37 78z" />
<glyph unicode="&#xd3;" horiz-adv-x="1687" d="M152.5 381.5q-27.5 131.5 7.5 298.5q32 150 96 275.5t150 215.5t192.5 152.5t224.5 92.5t244 30q118 1 218.5 -26t183.5 -84.5t131 -148t60.5 -217t-28.5 -290.5q-48 -205 -179 -367t-315 -251t-386 -89q-161 0 -287 47.5t-205.5 138.5t-107 222.5zM483.5 495.5 q-2.5 -93.5 14.5 -172t51.5 -136.5t91 -90t129.5 -31q113 1 221 91t186 234.5t115 313.5q21 95 28.5 185t-3.5 175.5t-41 149t-89 103t-143 40.5q-74 1 -138 -20t-112 -56.5t-89.5 -90t-70.5 -110.5t-54 -127.5t-41 -131.5t-31 -132q-22 -101 -24.5 -194.5zM1008 1505 l149 303q36 78 96 78q40 0 72.5 -20.5t32.5 -57.5q0 -11 -3.5 -22.5t-6 -18.5t-12.5 -19t-13 -15l-17.5 -17.5l-15.5 -15.5l-192 -195h-90z" />
<glyph unicode="&#xd4;" horiz-adv-x="1687" d="M151.5 381.5q-27.5 131.5 8.5 298.5q32 150 96 275.5t149.5 215.5t191.5 152.5t224 92.5t244 30q98 1 184 -17.5t162 -58t129.5 -101t87 -146.5t34 -195.5t-29.5 -247.5q-49 -206 -180 -367.5t-315 -250.5t-387 -89q-161 0 -287 47.5t-205 138.5t-106.5 222.5zM483 495.5 q-3 -93.5 14 -172t51.5 -136.5t91.5 -90t130 -31q113 1 220.5 91t185.5 234t116 314q21 95 28 185t-4 175.5t-41 149t-89 103t-142 40.5q-74 1 -138.5 -20t-113 -57t-90 -90t-70 -110t-53.5 -127.5t-40.5 -131.5t-30.5 -132q-22 -101 -25 -194.5zM729 1493l313 340h181 l161 -340h-110l-156 199l-282 -199h-107z" />
<glyph unicode="&#xd5;" horiz-adv-x="1687" d="M151.5 381.5q-27.5 131.5 8.5 298.5q32 150 96 275.5t149.5 215.5t191.5 152.5t224 92.5t244 30q98 1 184 -17.5t162 -58t129.5 -101t87 -146.5t34 -195.5t-29.5 -247.5q-49 -206 -180 -367.5t-315 -250.5t-387 -89q-161 0 -287 47.5t-205 138.5t-106.5 222.5zM483 495.5 q-3 -93.5 14 -172t51.5 -136.5t91.5 -90t130 -31q113 1 220.5 91t185.5 234t116 314q21 95 28 185t-4 175.5t-41 149t-89 103t-142 40.5q-74 1 -138.5 -20t-113 -57t-90 -90t-70 -110t-53.5 -127.5t-40.5 -131.5t-30.5 -132q-22 -101 -25 -194.5zM709 1507q1 23 8.5 52.5 t26 63.5t44 62t65.5 47t87 19q60 0 152 -47q96 -47 143 -47q22 0 37.5 6t28 23.5t17 26.5t17.5 38h84q-58 -246 -235 -246q-54 0 -158 49q-98 48 -147 48q-35 0 -58.5 -28.5t-34.5 -66.5h-77z" />
<glyph unicode="&#xd6;" horiz-adv-x="1687" d="M151.5 381.5q-27.5 131.5 8.5 298.5q32 150 96 275.5t149.5 215.5t191.5 152.5t224 92.5t244 30q98 1 184 -17.5t162 -58t129.5 -101t87 -146.5t34 -195.5t-29.5 -247.5q-49 -206 -180 -367.5t-315 -250.5t-387 -89q-161 0 -287 47.5t-205 138.5t-106.5 222.5zM483 495.5 q-3 -93.5 14 -172t51.5 -136.5t91.5 -90t130 -31q113 1 220.5 91t185.5 234t116 314q21 95 28 185t-4 175.5t-41 149t-89 103t-142 40.5q-74 1 -138.5 -20t-113 -57t-90 -90t-70 -110t-53.5 -127.5t-40.5 -131.5t-30.5 -132q-22 -101 -25 -194.5zM645 1604q3 57 56 101 t110 44q42 0 73.5 -30t28.5 -72q-3 -54 -54.5 -102t-106.5 -48q-44 0 -77 31.5t-30 75.5zM1176 1604q3 56 53.5 100.5t107.5 44.5q44 0 77 -29.5t30 -72.5q-3 -55 -55 -102.5t-107 -47.5q-45 0 -76 31t-30 76z" />
<glyph unicode="&#xd8;" horiz-adv-x="1669" d="M103 414q-17 119 14 266q40 187 128.5 335t209.5 241.5t266 142t303 47.5h12l27 90h104l-28 -96q101 -13 184 -47.5t150 -95.5t103 -148t43 -204t-30 -265q-48 -205 -179 -367t-315 -251t-386 -89h-47l-54 -159h-104l55 170q-128 21 -224.5 77t-155.5 145t-76 208z M456.5 324.5q34.5 -165.5 141.5 -228.5l410 1262h-7q-74 2 -138 -19t-112 -56.5t-89.5 -90t-70.5 -110.5t-54 -128t-41 -132t-31 -132q-43 -200 -8.5 -365.5zM690 66h37q113 1 221 91t186 234.5t115 313.5q23 103 29 200t-6.5 185.5t-54 154.5t-109.5 94z" />
<glyph unicode="&#xd9;" horiz-adv-x="1531" d="M178 1368l12 55q15 -5 174.5 -8.5t219.5 -3.5q51 0 176.5 3.5t142.5 8.5l-12 -55q-43 -2 -64 -3.5t-65 -17t-72 -44.5q-33 -35 -108 -353t-99 -446q-1 -7 -4 -23q-6 -33 -9 -52t-7 -56.5t-3.5 -61t4 -58t13 -56.5t26.5 -47t41.5 -39.5t60.5 -24t81 -8.5q247 0 377 162 q69 83 111 290l124 578q16 82 18 124t-11 75q-9 19 -24 31.5t-37.5 18t-35.5 7.5t-41.5 2h-31.5l14 57q15 -6 119.5 -10t152.5 -4q49 0 154 4t125 10l-14 -57q-41 -2 -63.5 -4t-66.5 -17.5t-73 -44.5q-25 -28 -38 -66t-32 -126l-119 -557q-31 -150 -69 -233 q-156 -341 -629 -341q-508 0 -386 527q2 10 3 14q0 1 8.5 37t17 74t22 100.5t24.5 116.5t24.5 122t22 117t16 102t7 76.5t-4.5 39.5q-32 58 -148 64q-6 0 -16 1h-8zM614 1774q0 35 24.5 60.5t59.5 25.5q43 0 67.5 -16t61.5 -56l250 -289h-106l-320 197q-37 22 -37 78z" />
<glyph unicode="&#xda;" horiz-adv-x="1533" d="M180 1362l13 57q15 -6 171.5 -10t221.5 -4q55 0 178.5 4t140.5 10l-12 -57q-41 -2 -63.5 -4t-66 -17.5t-71.5 -44.5q-33 -35 -108 -352.5t-99 -445.5q-1 -7 -4 -23q-6 -33 -9 -52t-7 -56.5t-3.5 -61t4 -58t13 -57t26.5 -47.5t41.5 -39.5t60.5 -24t81 -9.5q246 3 377 163 q69 83 113 291l122 580q16 80 18 123t-11 76q-9 19 -24 31t-37 17t-35 7t-40.5 2h-31.5l12 59q15 -8 118.5 -12t155.5 -4q50 0 153.5 4t123.5 12l-14 -59q-41 -2 -63.5 -4t-66.5 -17.5t-73 -44.5q-25 -28 -38 -65.5t-32 -124.5l-119 -561q-30 -148 -66 -228 q-154 -344 -632 -344q-105 0 -183 23.5t-122 58.5t-69.5 87.5t-33 98t-3.5 103t10 89t15 69.5l3 12q29 110 94 429.5t45 354.5q-13 22 -33.5 36t-51 20t-45 7.5t-44.5 2.5zM1010 1493l147 301q34 78 98 78q39 0 72 -20t33 -56q0 -14 -3.5 -26t-12.5 -24t-14 -18.5t-19.5 -20 t-18.5 -17.5l-194 -197h-88z" />
<glyph unicode="&#xdb;" horiz-adv-x="1533" d="M180 1362l13 57q15 -6 171.5 -10t221.5 -4q55 0 178.5 4t140.5 10l-12 -57q-41 -2 -63.5 -4t-66 -17.5t-71.5 -44.5q-33 -35 -108 -352.5t-99 -445.5q-1 -7 -4 -23q-6 -33 -9 -52t-7 -56.5t-3.5 -61t4 -58t13 -57t26.5 -47.5t41.5 -39.5t60.5 -24t81 -9.5q246 3 377 163 q69 83 113 291l122 580q16 80 18 123t-11 76q-9 19 -24 31t-37 17t-35 7t-40.5 2h-31.5l12 59q15 -8 118.5 -12t155.5 -4q50 0 153.5 4t123.5 12l-14 -59q-41 -2 -63.5 -4t-66.5 -17.5t-73 -44.5q-25 -28 -38 -65.5t-32 -124.5l-119 -561q-30 -148 -66 -228 q-154 -344 -632 -344q-105 0 -183 23.5t-122 58.5t-69.5 87.5t-33 98t-3.5 103t10 89t15 69.5l3 12q29 110 94 429.5t45 354.5q-13 22 -33.5 36t-51 20t-45 7.5t-44.5 2.5zM680 1499l313 342h181l161 -342h-110l-156 199l-283 -199h-106z" />
<glyph unicode="&#xdc;" horiz-adv-x="1533" d="M180 1362l15 57q15 -6 171 -10t222 -4q54 0 177.5 4t141.5 10l-12 -57q-42 -2 -64.5 -4t-66.5 -17.5t-72 -44.5q-34 -35 -114 -376.5t-91 -421.5q-26 -139 -25 -201q2 -229 226 -227q245 3 379 163q67 85 111 291l122 580q33 147 9 199q-8 16 -21 27t-26 16.5t-32.5 9 t-31.5 4t-32 0.5h-27l12 59q15 -8 119 -12t155 -4t155.5 4t121.5 12l-12 -59q-42 -2 -65 -4t-66.5 -17.5t-71.5 -44.5q-26 -27 -38 -63.5t-32 -126.5l-119 -561q-1 -5 -3 -14q-9 -42 -15 -67t-21.5 -75t-32.5 -83t-47 -80.5t-64.5 -79.5t-86.5 -67.5t-112.5 -56.5 t-141.5 -35t-174 -14q-511 0 -386 528q2 9 3 13q164 737 137 784q-10 18 -28 31t-33 19t-42 10t-36.5 4.5t-34.5 1.5zM664 1595q1 57 53.5 101.5t109.5 44.5q44 0 76 -30.5t29 -72.5q-3 -53 -55 -100t-107 -47q-45 0 -77 30.5t-29 73.5zM1194 1595q3 57 54 101.5t108 44.5 q43 0 75 -30t29 -73q-3 -55 -55 -101t-107 -46q-44 0 -75.5 30.5t-28.5 73.5z" />
<glyph unicode="&#xdd;" horiz-adv-x="1478" d="M205 1354l12 65q48 -18 328 -18q40 0 177.5 5.5t154.5 10.5l-13 -63q-6 0 -28.5 1t-34.5 0t-30.5 -4.5t-31.5 -13.5t-22 -26q-14 -20 28.5 -147t92.5 -244l49 -117l77 103q77 104 161 221.5t98 148.5q17 36 -14.5 58.5t-88.5 19.5l15 61q180 -8 235 -8q104 0 252 12 l-14 -65q-114 -4 -188.5 -54t-211.5 -210q-36 -40 -110.5 -134t-132.5 -169.5t-58 -77.5q-1 -4 -7.5 -31.5t-13.5 -57t-17.5 -74t-19.5 -85.5t-18.5 -87t-16 -84.5t-10.5 -71.5t-4 -55t5 -28q49 -77 176 -74l-14 -67q-16 9 -146 16.5t-174 7.5q-55 0 -215 -5t-178 -11l14 61 q124 3 205 76q18 17 44 102t45.5 171t39.5 180t21 98q-143 367 -244 590q-13 28 -29.5 45t-37.5 23t-36 7.5t-38.5 0t-32.5 -1.5zM969 1493l147 301q38 78 101 78q38 0 70 -20t32 -56q0 -14 -3 -25.5t-12.5 -25t-12.5 -17.5t-21 -21l-17 -17l-194 -197h-90z" />
<glyph unicode="&#xde;" horiz-adv-x="1372" d="M-47 0l12 61q70 1 103 15t96 59q33 25 78.5 210t79.5 368q116 522 84 583q-11 21 -25.5 33t-33 17t-35 6t-40.5 1.5t-39 2.5l15 63q62 -11 321 -12.5t402 12.5l-13 -61q-106 -9 -136 -18t-64 -46q-18 -20 -41 -92q240 -4 325 -12q157 -15 242.5 -123.5t52.5 -267.5 q-20 -98 -70.5 -174.5t-122.5 -125t-158 -75t-185 -31.5q-78 -4 -133 -4q-3 5 -7.5 13t-13.5 24.5t-13 27.5t-1 11q24 0 88 12q88 17 157 70.5t105.5 117.5t48.5 132q20 111 -14 193t-129 114q-18 6 -29 9t-28 4.5t-28.5 2t-46 1t-65.5 1.5q-16 -56 -57 -231 q-1 -2 -8.5 -35.5t-16.5 -73t-21.5 -96.5t-24 -113.5t-23.5 -117.5t-20 -114t-13.5 -97.5t-5 -74t7.5 -38.5q16 -21 31 -33.5t31 -18t29.5 -7.5t37.5 -5t45 -8l-14 -63q-124 18 -352.5 20.5t-364.5 -16.5z" />
<glyph unicode="&#xdf;" horiz-adv-x="917" d="M-289 0l10 57h150q25 77 37 138l123 583h-154l19 86h153l33 150q19 92 71 163t126.5 113t161.5 63t184 21q173 0 260.5 -95.5t52.5 -260.5q-18 -91 -70 -191q-62 47 -125 47q-50 0 -88 -31t-47 -75q-7 -33 10 -64.5t49.5 -56.5t72.5 -55.5t78.5 -61.5t68.5 -74t42 -93 t-1 -119q-27 -125 -149.5 -198t-293.5 -73q-55 1 -98 11q-62 12 -154 16q-6 0 -57 1t-98 1q-34 0 -163 -1t-204 -1zM160 57q41 0 94 2l61 242h76q-2 -17 -11.5 -63t-8.5 -70q6 -67 39.5 -91t101.5 -24q77 0 117 43t47 109q2 33 -15.5 64t-46.5 55t-64 52t-68.5 55t-59.5 63 t-36 77t1 97q58 278 367 297q21 51 26 82q22 105 -34 176t-146 71q-86 0 -148 -60.5t-85 -166.5l-76 -338l-113 -534q-14 -70 -18 -138z" />
<glyph unicode="&#xe0;" horiz-adv-x="1161" d="M55.5 101q-7.5 39 1.5 92q35 160 194.5 259t493.5 173l27 125q14 58 -21.5 106.5t-74.5 50.5q-73 4 -118.5 -24t-59.5 -80q-8 -24 -5 -40.5t5.5 -21t10.5 -11.5t11 -11q-26 -35 -75 -58t-103 -28q-26 -2 -53.5 6.5t-49.5 30t-22 57.5t29 88q30 52 76.5 86.5t108 51.5 t119 23t134.5 7q110 3 182.5 -18t104.5 -56q40 -41 49.5 -108t-0.5 -113l-10 -47l-52 -246q-5 -24 -16 -69q-26 -83 -25 -134t46 -51q24 0 49 25.5t38 50.5l13 25l65 -23q-73 -138 -154 -195t-159 -57q-20 0 -39.5 2t-48 12.5t-48.5 27.5t-32 50t-6 78q-96 -80 -158 -119 t-123 -49q-33 -5 -68.5 -4.5t-75 7.5t-71 22.5t-57 41.5t-33 65zM332 1380q0 34 25 59t61 25q44 0 69.5 -16t59.5 -55l248 -287h-105l-321 197q-37 21 -37 77zM368.5 198q3.5 -28 21.5 -43.5t40 -21.5t49 -4q39 3 88 26t92 64l74 348q-87 -27 -155.5 -67.5t-108 -83.5 t-61 -77.5t-31.5 -66.5l-2 -4q-10 -42 -6.5 -70z" />
<glyph unicode="&#xe1;" horiz-adv-x="1161" d="M55.5 101q-7.5 39 1.5 92q35 160 194.5 259t493.5 173l27 125q14 58 -21.5 106.5t-74.5 50.5q-73 4 -118.5 -24t-59.5 -80q-8 -24 -5 -40.5t5.5 -21t10.5 -11.5t11 -11q-26 -35 -75 -58t-103 -28q-26 -2 -53.5 6.5t-49.5 30t-22 57.5t29 88q30 52 76.5 86.5t108 51.5 t119 23t134.5 7q110 3 182.5 -18t104.5 -56q40 -41 49.5 -108t-0.5 -113l-10 -47l-52 -246q-5 -24 -16 -69q-26 -83 -25 -134t46 -51q24 0 49 25.5t38 50.5l13 25l65 -23q-73 -138 -154 -195t-159 -57q-20 0 -39.5 2t-48 12.5t-48.5 27.5t-32 50t-6 78q-96 -80 -158 -119 t-123 -49q-33 -5 -68.5 -4.5t-75 7.5t-71 22.5t-57 41.5t-33 65zM368.5 198q3.5 -28 21.5 -43.5t40 -21.5t49 -4q39 3 88 26t92 64l74 348q-87 -27 -155.5 -67.5t-108 -83.5t-61 -77.5t-31.5 -66.5l-2 -4q-10 -42 -6.5 -70zM680 1110l149 303q34 78 99 78q39 0 70.5 -19.5 t31.5 -56.5q0 -14 -3 -26t-12 -24.5t-13 -18.5t-19 -21l-18 -18l-195 -197h-90z" />
<glyph unicode="&#xe2;" horiz-adv-x="1161" d="M55.5 101q-7.5 39 1.5 92q35 160 194.5 259t493.5 173l27 125q14 58 -21.5 106.5t-74.5 50.5q-73 4 -118.5 -24t-59.5 -80q-8 -24 -5 -40.5t5.5 -21t10.5 -11.5t11 -11q-26 -35 -75 -58t-103 -28q-26 -2 -53.5 6.5t-49.5 30t-22 57.5t29 88q30 52 76.5 86.5t108 51.5 t119 23t134.5 7q110 3 182.5 -18t104.5 -56q40 -41 49.5 -108t-0.5 -113l-10 -47l-52 -246q-5 -24 -16 -69q-26 -83 -25 -134t46 -51q24 0 49 25.5t38 50.5l13 25l65 -23q-73 -138 -154 -195t-159 -57q-20 0 -39.5 2t-48 12.5t-48.5 27.5t-32 50t-6 78q-96 -80 -158 -119 t-123 -49q-33 -5 -68.5 -4.5t-75 7.5t-71 22.5t-57 41.5t-33 65zM354 1118l314 340h180l162 -340h-111l-156 199l-282 -199h-107zM368.5 198q3.5 -28 21.5 -43.5t40 -21.5t49 -4q39 3 88 26t92 64l74 348q-87 -27 -155.5 -67.5t-108 -83.5t-61 -77.5t-31.5 -66.5l-2 -4 q-10 -42 -6.5 -70z" />
<glyph unicode="&#xe3;" horiz-adv-x="1161" d="M55.5 101q-7.5 39 1.5 92q35 160 194.5 259t493.5 173l27 125q14 58 -21.5 106.5t-74.5 50.5q-73 4 -118.5 -24t-59.5 -80q-8 -24 -5 -40.5t5.5 -21t10.5 -11.5t11 -11q-26 -35 -75 -58t-103 -28q-26 -2 -53.5 6.5t-49.5 30t-22 57.5t29 88q30 52 76.5 86.5t108 51.5 t119 23t134.5 7q110 3 182.5 -18t104.5 -56q40 -41 49.5 -108t-0.5 -113l-10 -47l-52 -246q-5 -24 -16 -69q-26 -83 -25 -134t46 -51q24 0 49 25.5t38 50.5l13 25l65 -23q-73 -138 -154 -195t-159 -57q-20 0 -39.5 2t-48 12.5t-48.5 27.5t-32 50t-6 78q-96 -80 -158 -119 t-123 -49q-33 -5 -68.5 -4.5t-75 7.5t-71 22.5t-57 41.5t-33 65zM368.5 198q3.5 -28 21.5 -43.5t40 -21.5t49 -4q39 3 88 26t92 64l74 348q-87 -27 -155.5 -67.5t-108 -83.5t-61 -77.5t-31.5 -66.5l-2 -4q-10 -42 -6.5 -70zM369 1110q1 30 14.5 69t39 79.5t71.5 68t104 27.5 q62 0 154 -47q92 -45 143 -45q22 0 37.5 6t27.5 22.5t17.5 26.5t17.5 37h84q-58 -246 -235 -246q-54 0 -158 49q-89 47 -147 47q-35 0 -58.5 -28t-34.5 -66h-77z" />
<glyph unicode="&#xe4;" horiz-adv-x="1161" d="M55.5 101q-7.5 39 1.5 92q35 160 194.5 259t493.5 173l27 125q14 58 -21.5 106.5t-74.5 50.5q-73 4 -118.5 -24t-59.5 -80q-8 -24 -5 -40.5t5.5 -21t10.5 -11.5t11 -11q-26 -35 -75 -58t-103 -28q-26 -2 -53.5 6.5t-49.5 30t-22 57.5t29 88q30 52 76.5 86.5t108 51.5 t119 23t134.5 7q110 3 182.5 -18t104.5 -56q40 -41 49.5 -108t-0.5 -113l-10 -47l-52 -246q-5 -24 -16 -69q-26 -83 -25 -134t46 -51q24 0 49 25.5t38 50.5l13 25l65 -23q-73 -138 -154 -195t-159 -57q-20 0 -39.5 2t-48 12.5t-48.5 27.5t-32 50t-6 78q-96 -80 -158 -119 t-123 -49q-33 -5 -68.5 -4.5t-75 7.5t-71 22.5t-57 41.5t-33 65zM272 1221q3 57 56 101t112 44q42 0 74 -30t29 -72q-3 -56 -55 -103t-107 -47q-44 0 -77 31t-32 76zM368.5 198q3.5 -28 21.5 -43.5t40 -21.5t49 -4q39 3 88 26t92 64l74 348q-87 -27 -155.5 -67.5t-108 -83.5 t-61 -77.5t-31.5 -66.5l-2 -4q-10 -42 -6.5 -70zM803 1221q3 56 54.5 100.5t109.5 44.5q44 0 75.5 -30t28.5 -72q-3 -56 -54.5 -103t-107.5 -47q-44 0 -75.5 31t-30.5 76z" />
<glyph unicode="&#xe5;" horiz-adv-x="1159" d="M55 101q-7 39 2 92q35 160 194 259t492 173l29 125q12 58 -23 106.5t-73 50.5q-73 4 -119.5 -24.5t-58.5 -79.5q-9 -23 -6 -40t5 -21.5t11 -11.5t12 -11q-26 -35 -75 -58t-103 -28q-27 -2 -55 6.5t-50.5 30t-22 57.5t29.5 88q31 52 77.5 86.5t108 51.5t119 23t135.5 7 q213 5 285 -74q40 -41 49.5 -108t-0.5 -113l-10 -47l-50 -246q-5 -24 -16 -69q-26 -83 -25 -134t46 -51q24 0 48.5 25.5t36.5 50.5l13 25l65 -23q-73 -138 -154 -195t-159 -57q-19 0 -38.5 2t-48.5 12.5t-48.5 27.5t-31.5 50t-5 78q-96 -80 -158.5 -119t-124.5 -49 q-33 -5 -68.5 -4.5t-75 7.5t-71 22.5t-56.5 41.5t-32 65zM375 268q-22 -77 11.5 -110t90.5 -29q41 3 90 26t90 64q13 56 36.5 168t39.5 180q-88 -28 -156.5 -68t-108 -82.5t-61 -78t-30.5 -66.5zM496 1303q18 82 83.5 138t153.5 56q71 0 121 -60t37 -134 q-17 -88 -81.5 -141.5t-156.5 -53.5q-77 0 -125 64.5t-32 130.5zM596 1303q-9 -40 13 -68.5t63 -28.5t75.5 28.5t43.5 68.5q9 41 -13 69.5t-63 28.5t-75.5 -28.5t-43.5 -69.5z" />
<glyph unicode="&#xe6;" horiz-adv-x="1720" d="M55 101q-7 39 2 92q35 160 194.5 259t493.5 173l27 125q12 58 -23 106.5t-73 50.5q-73 4 -118.5 -24t-59.5 -80q-8 -24 -5.5 -40t5.5 -21.5t11 -12t11 -10.5q-26 -35 -75 -58t-103 -28q-26 -2 -53.5 6.5t-50 30t-23 57.5t28.5 88q59 99 169 134.5t269 37.5 q114 3 182 -18.5t111 -73.5q160 109 360 106q63 -1 116 -14t100.5 -43.5t74 -79.5t37 -121.5t-9.5 -169.5h-660q-15 -79 -16 -145t10 -111.5t32 -80.5t46.5 -55.5t56.5 -33.5t59 -17.5t58 -4.5q162 0 338 213l49 -43q-77 -96 -133.5 -152t-129 -99t-157 -58.5t-202.5 -14.5 q-115 0 -189 58.5t-104 165.5q-93 -99 -186.5 -157t-164.5 -69q-33 -5 -69 -4.5t-75.5 7.5t-71 22.5t-57 41.5t-32.5 65zM375 268q-22 -77 11.5 -110t90.5 -29q97 8 182 90l74 348q-87 -27 -155.5 -67.5t-108 -83.5t-61 -77.5t-31.5 -66.5zM1018 662h393q11 68 9 127t-30 99 t-77 40q-190 0 -295 -266z" />
<glyph unicode="&#xe7;" horiz-adv-x="1138" d="M88.5 302q-7.5 70 11.5 155q29 138 94.5 245.5t154.5 172.5t190 99t211 36q134 3 227 -32t119 -89q32 -63 -0.5 -127.5t-100.5 -83.5q-30 -12 -62.5 -9t-55 8.5t-45 17.5t-32 19t-16.5 13l12 12l16 16t13.5 16t14 20.5t9 22t5.5 26.5q1 43 -36.5 66.5t-69.5 23.5 q-27 -1 -58 -10.5t-74 -36t-79.5 -66.5t-70.5 -110t-52 -160q-30 -143 -0.5 -235t89 -135t138.5 -42q52 1 98.5 16t83.5 43t60.5 50.5t52 56.5t35.5 41l45 -39q-39 -79 -130.5 -169.5t-164.5 -119.5q-115 -46 -256 -43q-8 1 -24 2t-23 2l-49 -112q55 10 84 10 q80 0 116.5 -40.5t36.5 -104.5q0 -48 -27 -83t-71 -52t-86 -24t-86 -7q-74 0 -172 35l33 71q227 -51 227 56q0 89 -145 61l-19 14l84 187h14q-51 13 -95 37.5t-83 64t-61.5 92t-30 122.5z" />
<glyph unicode="&#xe8;" horiz-adv-x="1128" d="M102 457q25 112 75 204.5t114 155t141 105t155.5 61.5t157.5 18q63 -1 116 -14t100 -43.5t73.5 -79.5t37.5 -121.5t-9 -169.5h-660q-15 -79 -16 -145t10 -111.5t32 -80.5t46 -55.5t56 -33.5t59 -17.5t57 -4.5q54 0 106 20.5t97.5 58t74 66t62.5 68.5l49 -43 q-77 -96 -134 -152t-129.5 -99t-157 -58.5t-201.5 -14.5q-181 2 -270 135.5t-42 350.5zM324 1389q0 36 25 61t61 25q43 0 68.5 -16.5t58.5 -55.5l249 -289h-104l-322 197q-36 23 -36 78zM426 662h393q11 68 9.5 127t-29 99t-76.5 40q-192 0 -297 -266z" />
<glyph unicode="&#xe9;" horiz-adv-x="1128" d="M102 457q25 112 75 204.5t114 155t141 105t155.5 61.5t157.5 18q63 -1 116 -14t100 -43.5t73.5 -79.5t37.5 -121.5t-9 -169.5h-660q-15 -79 -16 -145t10 -111.5t32 -80.5t46 -55.5t56 -33.5t59 -17.5t57 -4.5q54 0 106 20.5t97.5 58t74 66t62.5 68.5l49 -43 q-77 -96 -134 -152t-129.5 -99t-157 -58.5t-201.5 -14.5q-181 2 -270 135.5t-42 350.5zM426 662h393q11 68 9.5 127t-29 99t-76.5 40q-192 0 -297 -266zM688 1114l150 303q34 78 98 78q39 0 70.5 -19.5t31.5 -56.5q0 -10 -1.5 -19t-6.5 -19l-7.5 -15t-11.5 -15.5t-11 -12.5 l-14 -14l-13 -13l-195 -197h-90z" />
<glyph unicode="&#xea;" horiz-adv-x="1128" d="M102 457q25 112 75 204.5t114 155t141 105t155.5 61.5t157.5 18q63 -1 116 -14t100 -43.5t73.5 -79.5t37.5 -121.5t-9 -169.5h-660q-15 -79 -16 -145t10 -111.5t32 -80.5t46 -55.5t56 -33.5t59 -17.5t57 -4.5q54 0 106 20.5t97.5 58t74 66t62.5 68.5l49 -43 q-77 -96 -134 -152t-129.5 -99t-157 -58.5t-201.5 -14.5q-181 2 -270 135.5t-42 350.5zM381 1110l313 342h183l159 -342h-110l-156 199l-281 -199h-108zM426 662h393q11 68 9.5 127t-29 99t-76.5 40q-192 0 -297 -266z" />
<glyph unicode="&#xeb;" horiz-adv-x="1175" d="M102 457q25 112 75 204.5t114 155t141 105t155.5 61.5t157.5 18q63 -1 116 -14t100 -43.5t73.5 -79.5t37.5 -121.5t-9 -169.5h-660q-15 -79 -16 -145t10 -111.5t32 -80.5t46 -55.5t56 -33.5t59 -17.5t57 -4.5q54 0 106 20.5t97.5 58t74 66t62.5 68.5l49 -43 q-77 -96 -134 -152t-129.5 -99t-157 -58.5t-201.5 -14.5q-181 2 -270 135.5t-42 350.5zM324 1214q3 57 55 101.5t110 44.5q42 0 74 -30.5t29 -72.5q-3 -54 -55.5 -101.5t-106.5 -47.5q-44 0 -76.5 31t-29.5 75zM426 662h393q11 68 9.5 127t-29 99t-76.5 40q-192 0 -297 -266 zM854 1214q3 56 54 101t108 45q44 0 75.5 -30t28.5 -73q-3 -55 -54.5 -102t-107.5 -47q-44 0 -75.5 30.5t-28.5 75.5z" />
<glyph unicode="&#xec;" horiz-adv-x="745" d="M-29 1378q0 34 24.5 59t59.5 25q44 0 69 -15.5t60 -55.5l250 -287h-106l-320 196q-37 19 -37 78zM88 90q-9 80 5.5 177.5t53.5 240.5q9 31 22 75.5t22.5 75.5t20.5 71.5t16 62.5t9 48.5t-1 30.5q-17 41 -109 41l16 76q25 -6 176.5 -11t229.5 5q-82 -218 -180 -577 q-15 -62 -22.5 -106t-8.5 -87.5t15 -65t48 -20.5q38 1 88.5 54.5t102.5 142.5l53 -25q-43 -83 -88 -145.5t-78.5 -94t-72 -52.5t-56.5 -26.5t-43 -9.5q-21 -8 -56.5 -3.5t-69.5 14.5t-61 39t-32 69z" />
<glyph unicode="&#xed;" horiz-adv-x="661" d="M104 90q-10 78 4.5 173t53.5 245q10 35 26.5 91t26.5 89.5t22.5 80.5t13.5 64t-1 39q-15 41 -109 41l19 76q25 -6 176 -11t227 5q-87 -230 -178 -577q-15 -62 -22.5 -105.5t-8.5 -87.5t15 -65.5t49 -20.5q38 1 88 54.5t100 142.5l56 -25q-43 -83 -88 -145t-78.5 -94 t-72 -53t-57 -26.5t-44.5 -9.5q-20 -8 -55 -3.5t-69 14.5t-61.5 39t-32.5 69zM379 1110l147 303q40 78 99 78q38 0 71 -20.5t33 -55.5q0 -14 -3 -26t-12 -25t-13 -18.5t-20 -21.5l-19 -19l-193 -195h-90z" />
<glyph unicode="&#xee;" horiz-adv-x="811" d="M104 1112l314 342h180l162 -342h-111l-155 197l-283 -197h-107zM150 90q-9 80 5.5 177.5t53.5 240.5q8 30 21.5 75t22.5 76t20.5 71.5t16 62.5t8.5 49t-1 30q-17 41 -109 41l17 76q25 -6 176 -11t229 5q-82 -218 -180 -577q-15 -61 -22.5 -105.5t-8 -88t15.5 -65 t48 -20.5q37 1 87.5 54t102.5 143l54 -25q-43 -83 -88 -145.5t-78.5 -94t-72 -52.5t-56.5 -26.5t-43 -9.5q-21 -8 -56.5 -3.5t-69.5 14.5t-61 39t-32 69z" />
<glyph unicode="&#xef;" horiz-adv-x="829" d="M43 1217q4 57 57 101t111 44q42 0 73.5 -30t28.5 -72q-3 -55 -54 -102.5t-107 -47.5q-44 0 -77 31t-32 76zM147 90q-9 80 6 176.5t54 241.5q8 30 21.5 75t22.5 76t20.5 71.5t16 62.5t8.5 49t-1 30q-17 41 -109 41l17 76q25 -6 176 -11t229 5q-82 -218 -180 -577 q-15 -61 -22.5 -105.5t-8 -88t15.5 -65t48 -20.5q37 1 87.5 54t102.5 143l54 -25q-43 -83 -88 -145.5t-78.5 -94t-72 -52.5t-56.5 -26.5t-43 -9.5q-21 -8 -56.5 -3.5t-69.5 14.5t-61.5 39t-32.5 69zM575 1217q1 57 52 101t110 44q44 0 77 -29.5t30 -72.5q-3 -55 -55 -102.5 t-107 -47.5q-45 0 -76.5 31t-30.5 76z" />
<glyph unicode="&#xf0;" horiz-adv-x="1148" d="M113 301q0 189 79.5 330t213.5 212.5t303 71.5q34 0 100 -12q-3 117 -72 221l-260 -114l-31 61q11 5 42 19t89 40.5t117 53.5q-88 105 -188 131q7 37 14 59q191 -23 324 -123l295 129l28 -65q-142 -61 -262 -117q91 -87 152 -243.5t61 -317.5q0 -166 -47 -295.5 t-130.5 -211t-196 -123.5t-246.5 -42q-187 0 -286 86.5t-99 249.5zM399 252q0 -193 140 -193q94 0 163.5 82.5t102.5 239.5q31 146 31 235q0 207 -140 207q-195 0 -266 -338q-31 -143 -31 -233z" />
<glyph unicode="&#xf1;" horiz-adv-x="1323" d="M86 0q14 33 63.5 214.5t73.5 289.5q27 113 45.5 226.5t12.5 143.5q-8 39 -109 39l14 66q33 -9 180 -10.5t226 18.5q-56 -130 -66 -225q19 36 60 79t100.5 85.5t140.5 66t162 13.5q49 -6 82 -23t55 -55t22.5 -97.5t-22.5 -153t-73 -218.5q-29 -73 -43 -132t-15 -94 t6.5 -58t18.5 -32t24 -8q30 0 63 24t59 58.5t43 61.5t24 43l53 -31q-174 -324 -412 -324q-105 0 -141 92q-37 99 86 496q24 76 35 133t11.5 87.5t-8.5 51t-18 27t-24 10.5q-32 9 -64 2.5t-63 -25.5t-59.5 -43.5t-52 -51.5t-41 -49.5t-27.5 -36.5l-10 -15q-12 -46 -23.5 -94 t-19.5 -83.5t-18.5 -88t-15 -77t-14.5 -83t-12 -72t-12.5 -78.5t-11.5 -71q-26 13 -139.5 13.5t-145.5 -11.5zM403 1112q1 24 8.5 53.5t25.5 63.5t43.5 62t65.5 46.5t87 18.5q59 0 151 -47q96 -45 144 -45q10 0 19 1t16.5 5t13 6t12 10t9.5 10.5t9 13.5t7.5 13.5t8 16 t7.5 16.5h84q-62 -246 -235 -246q-58 0 -158 49q-92 47 -150 47q-34 0 -57.5 -28.5t-32.5 -65.5h-78z" />
<glyph unicode="&#xf2;" horiz-adv-x="1241" d="M94 266.5q-18 101.5 10 237.5q48 222 222 361.5t417 142.5q111 2 199.5 -31.5t147 -100t77.5 -166.5t-8 -231q-51 -239 -226 -379t-421 -139q-111 1 -197.5 35t-144.5 101.5t-76 169zM344 1380q0 34 25 59t61 25q44 0 70.5 -16t58.5 -55l248 -287h-105l-321 197 q-37 21 -37 77zM380.5 291.5q-1.5 -78.5 14.5 -139t53.5 -94.5t94.5 -33q32 1 69 20t79.5 60t82.5 123.5t66 193.5q24 109 32.5 199.5t0 166t-44.5 118t-97 42.5q-98 0 -190 -125t-140 -362q-19 -91 -20.5 -169.5z" />
<glyph unicode="&#xf3;" horiz-adv-x="1241" d="M94 266.5q-18 101.5 10 237.5q48 222 222 361.5t417 142.5q111 2 199.5 -31.5t147 -100t77.5 -166.5t-8 -231q-51 -239 -226 -379t-421 -139q-111 1 -197.5 35t-144.5 101.5t-76 169zM380.5 291.5q-1.5 -78.5 14.5 -139t53.5 -94.5t94.5 -33q32 1 69 20t79.5 60 t82.5 123.5t66 193.5q24 109 32.5 199.5t0 166t-44.5 118t-97 42.5q-98 0 -190 -125t-140 -362q-19 -91 -20.5 -169.5zM727 1108l150 301q34 78 98 78q39 0 70.5 -19.5t31.5 -56.5q0 -14 -3 -26t-12 -24.5t-13 -18.5t-19 -21l-18 -18l-195 -195h-90z" />
<glyph unicode="&#xf4;" horiz-adv-x="1241" d="M94 266.5q-18 101.5 10 237.5q48 222 222 361.5t417 142.5q111 2 199.5 -31.5t147 -100t77.5 -166.5t-8 -231q-51 -239 -226 -379t-421 -139q-111 1 -197.5 35t-144.5 101.5t-76 169zM380.5 291.5q-1.5 -78.5 14.5 -139t53.5 -94.5t94.5 -33q32 1 69 20t79.5 60 t82.5 123.5t66 193.5q24 109 32.5 199.5t0 166t-44.5 118t-97 42.5q-98 0 -190 -125t-140 -362q-19 -91 -20.5 -169.5zM414 1108l313 340h180l162 -340h-111l-155 197l-283 -197h-106z" />
<glyph unicode="&#xf5;" horiz-adv-x="1241" d="M94 266.5q-18 101.5 10 237.5q48 222 222 361.5t417 142.5q111 2 199.5 -31.5t147 -100t77.5 -166.5t-8 -231q-51 -239 -226 -379t-421 -139q-111 1 -197.5 35t-144.5 101.5t-76 169zM379 1108q1 30 14.5 69t39 79.5t72.5 68t105 27.5q60 0 152 -47q92 -45 143 -45 q22 0 37.5 6t28 23t17.5 26.5t18 36.5h84q-58 -244 -236 -244q-58 0 -158 47q-89 47 -147 47q-35 0 -58 -28t-34 -66h-78zM380.5 291.5q-1.5 -78.5 14.5 -139t53.5 -94.5t94.5 -33q32 1 69 20t79.5 60t82.5 123.5t66 193.5q24 109 32.5 199.5t0 166t-44.5 118t-97 42.5 q-98 0 -190 -125t-140 -362q-19 -91 -20.5 -169.5z" />
<glyph unicode="&#xf6;" horiz-adv-x="1241" d="M94 266.5q-18 101.5 10 237.5q48 222 222 361.5t417 142.5q111 2 199.5 -31.5t147 -100t77.5 -166.5t-8 -231q-51 -239 -226 -379t-421 -139q-111 1 -197.5 35t-144.5 101.5t-76 169zM362 1212q3 57 56 101.5t110 44.5q42 0 74 -30.5t29 -72.5q-3 -53 -55 -100t-107 -47 q-44 0 -77 30t-30 74zM380.5 291.5q-1.5 -78.5 14.5 -139t53.5 -94.5t94.5 -33q32 1 69 20t79.5 60t82.5 123.5t66 193.5q24 109 32.5 199.5t0 166t-44.5 118t-97 42.5q-98 0 -190 -125t-140 -362q-19 -91 -20.5 -169.5zM893 1212q3 56 54 101t108 45q44 0 75.5 -30 t28.5 -73q-3 -55 -54 -101t-106 -46q-46 0 -77.5 29.5t-28.5 74.5z" />
<glyph unicode="&#xf7;" horiz-adv-x="1148" d="M84 385l37 166h942l-37 -166h-942zM371 127q10 55 57.5 94t103.5 39t89.5 -38.5t21.5 -94.5q-12 -57 -61.5 -97t-106.5 -40t-86.5 40t-17.5 97zM518 821q10 55 59 94t105 39t88.5 -38.5t20.5 -94.5q-12 -57 -61.5 -97t-106.5 -40t-87 40t-18 97z" />
<glyph unicode="&#xf8;" horiz-adv-x="1282" d="M129 504q48 222 221.5 361t415.5 143l41 127h72l-43 -129q97 -9 172 -47.5t124 -105t63 -160t-11 -214.5q-51 -239 -226 -379t-421 -139q-27 0 -41 2l-50 -149h-71l53 157q-179 34 -263.5 170.5t-35.5 362.5zM407.5 230q8.5 -105 53.5 -158l284 874q-96 -6 -184 -131 t-135 -354q-27 -126 -18.5 -231zM518 33q19 -8 49 -8q32 1 69 20t79.5 60t82.5 123.5t66 193.5q98 442 -51 512z" />
<glyph unicode="&#xf9;" d="M92.5 80.5q-2.5 35.5 1 75t16 98.5t27.5 120.5t39 147.5q17 63 43.5 189.5t22.5 156.5q-9 40 -95 37l13 56q35 -7 161.5 -7.5t206.5 17.5q-77 -277 -135 -557q-33 -151 -32.5 -203.5t36.5 -65.5q32 -12 77 5.5t86.5 51t78.5 69t59 61.5l23 26q33 131 69 327t54 280 q16 -7 128 -6t142 12q-1 -7 -24 -105.5t-54.5 -227.5t-50.5 -200q-23 -95 -33 -152.5t-7 -93t17.5 -48t43.5 -13.5q39 -1 101.5 66t78.5 112l55 -24q-36 -68 -73.5 -121.5t-70.5 -86t-66.5 -57t-61 -33.5t-54 -15.5t-45.5 -4t-36 0.5q-3 1 -4.5 1h-4h-4.5q-86 0 -121 76 q-31 64 -2 193q-80 -103 -213 -180t-235 -85q-39 -4 -67 0t-47.5 18t-30 34t-13 55.5zM285 1384q0 35 24.5 60.5t59.5 25.5q44 0 70.5 -16t58.5 -55l250 -289h-107l-319 197q-37 22 -37 77z" />
<glyph unicode="&#xfa;" horiz-adv-x="1275" d="M92 80.5q-2 35.5 1.5 74.5t16 99t27.5 121t39 147q1 2 11 47t18.5 82.5t18 85.5t14 83t2.5 48q-9 40 -93 37l11 56q35 -7 161.5 -7.5t208.5 17.5q-24 -81 -68.5 -261t-68.5 -296q-33 -151 -32.5 -203.5t36.5 -65.5q32 -12 77 5.5t87 51t79.5 69t59.5 61.5l23 26 q30 124 64.5 310.5t58.5 296.5q16 -7 128 -6t142 12q-1 -7 -24 -105.5t-54.5 -227.5t-50.5 -200q-23 -96 -33 -153t-7.5 -92.5t16.5 -48t43 -13.5q40 -1 102 65.5t80 112.5l53 -24q-49 -94 -102 -159.5t-93.5 -96t-86 -45.5t-70 -16.5t-54.5 0.5q-10 1 -14 1q-84 0 -121 76 q-27 64 -2 193q-80 -103 -212.5 -180t-233.5 -85q-39 -4 -67.5 0t-47.5 18t-30 34t-13 55.5zM674 1106l147 301q40 78 99 78q38 0 71 -20.5t33 -55.5q0 -12 -3.5 -23.5t-6.5 -19t-12.5 -18.5t-13 -15t-16.5 -17l-16 -16l-192 -194h-90z" />
<glyph unicode="&#xfb;" horiz-adv-x="1275" d="M92 80.5q-2 35.5 1.5 74.5t16 99t27.5 121t39 147q1 2 11 47t18.5 82.5t18 85.5t14 83t2.5 48q-9 40 -93 37l11 56q35 -7 161.5 -7.5t208.5 17.5q-24 -81 -68.5 -261t-68.5 -296q-33 -151 -32.5 -203.5t36.5 -65.5q32 -12 77 5.5t87 51t79.5 69t59.5 61.5l23 26 q30 124 64.5 310.5t58.5 296.5q16 -7 128 -6t142 12q-1 -7 -24 -105.5t-54.5 -227.5t-50.5 -200q-23 -96 -33 -153t-7.5 -92.5t16.5 -48t43 -13.5q40 -1 102 65.5t80 112.5l53 -24q-49 -94 -102 -159.5t-93.5 -96t-86 -45.5t-70 -16.5t-54.5 0.5q-10 1 -14 1q-84 0 -121 76 q-27 64 -2 193q-80 -103 -212.5 -180t-233.5 -85q-39 -4 -67.5 0t-47.5 18t-30 34t-13 55.5zM369 1108l313 340h180l162 -340h-111l-155 197l-283 -197h-106z" />
<glyph unicode="&#xfc;" horiz-adv-x="1275" d="M92 80.5q-2 35.5 1.5 74.5t16 99t27.5 121t39 147q1 2 11 47t18.5 82.5t18 85.5t14 83t2.5 48q-9 40 -93 37l11 56q35 -7 161.5 -7.5t208.5 17.5q-24 -81 -68.5 -261t-68.5 -296q-33 -151 -32.5 -203.5t36.5 -65.5q32 -12 77 5.5t87 51t79.5 69t59.5 61.5l23 26 q30 124 64.5 310.5t58.5 296.5q16 -7 128 -6t142 12q-1 -7 -24 -105.5t-54.5 -227.5t-50.5 -200q-23 -96 -33 -153t-7.5 -92.5t16.5 -48t43 -13.5q40 -1 102 65.5t80 112.5l53 -24q-49 -94 -102 -159.5t-93.5 -96t-86 -45.5t-70 -16.5t-54.5 0.5q-10 1 -14 1q-84 0 -121 76 q-27 64 -2 193q-80 -103 -212.5 -180t-233.5 -85q-39 -4 -67.5 0t-47.5 18t-30 34t-13 55.5zM322 1217q3 57 55.5 101t109.5 44q42 0 74 -30t29 -72q-3 -55 -55 -102.5t-107 -47.5q-44 0 -76.5 31t-29.5 76zM852 1217q3 56 53.5 100.5t108.5 44.5q44 0 75.5 -29.5 t30.5 -72.5q-3 -55 -55 -102.5t-107 -47.5q-45 0 -77 31t-29 76z" />
<glyph unicode="&#xfd;" horiz-adv-x="1148" d="M-174 -360q-10 57 7 103.5t48 73t63.5 44.5t56.5 24l24 6l1 -9q0 -9 1 -23t3.5 -30t9 -33t15.5 -29q30 -39 89 -35t94 43q40 45 83.5 96.5t43.5 54.5q-105 793 -140 910q-6 18 -14 32t-21.5 22t-21.5 13t-27 7t-25 3t-27.5 0.5t-22.5 -0.5l18 76q33 -9 198 -16.5t246 8.5 q0 -63 13 -196t33.5 -317.5t29.5 -281.5q104 152 177.5 316t103.5 293q7 30 5 54t-8.5 42.5t-15.5 30.5t-14 18l-6 6l5 6q5 6 15.5 14.5t25 17.5t38 16t49.5 8q47 2 82 -3.5t63.5 -21.5t39.5 -48.5t3 -80.5q-5 -28 -17 -58t-34.5 -66.5t-40.5 -63.5t-55.5 -73t-57 -69.5 t-66.5 -78.5t-65 -76q-65 -77 -221 -272.5t-188 -233.5q-66 -78 -116.5 -131.5t-107 -101.5t-108.5 -70.5t-100 -18.5q-150 10 -164 99zM653 1108l148 303q38 78 100 78q39 0 71 -19.5t32 -56.5q0 -14 -3 -26t-12 -24.5t-14 -18.5t-19 -20.5t-18 -18.5l-195 -197h-90z" />
<glyph unicode="&#xfe;" horiz-adv-x="1122" d="M-66 -426q14 33 59 205t68 280q13 65 93 420t118 533q11 48 32.5 138t30 133t7.5 65q-1 14 -12 18.5t-34.5 4.5t-35.5 3l12 56q13 -7 154.5 -2.5t204.5 24.5q-8 -35 -21.5 -90.5t-29.5 -115t-33.5 -124t-33.5 -121t-29 -102t-20 -71.5t-7 -25q57 71 151 126.5t205 55.5 q147 0 223 -126.5t33 -334.5q-16 -75 -50 -151t-86.5 -147t-116 -125.5t-145 -87.5t-167.5 -33q-128 0 -203 96l-72 -338q-1 -5 -1.5 -8t-0.5 -4t-0.5 -2t-0.5 -2t-0.5 -4.5t-1.5 -9l-3 -16.5t-4 -25t-6 -36.5t-8 -50.5q-18 7 -128 6t-141 -12zM330 205q-9 -36 10.5 -71.5 t77.5 -47.5q19 -5 39.5 -5t48 6.5t54.5 21.5t56.5 44.5t56 70.5t52 103t45.5 140q16 57 24.5 116.5t9 122t-20.5 106t-62 52.5q-98 17 -195 -73q-33 -30 -58.5 -64t-34.5 -53l-9 -19z" />
<glyph unicode="&#xff;" horiz-adv-x="1148" d="M-174 -360q-10 57 7 103.5t48 73t63.5 44.5t56.5 24l24 6l1 -9q0 -9 1 -23t3.5 -30t9 -33t15.5 -29q30 -39 89 -35t94 43q40 45 83.5 96.5t43.5 54.5q-105 793 -140 910q-6 18 -14 32t-21.5 22t-21.5 13t-27 7t-25 3t-27.5 0.5t-22.5 -0.5l18 76q33 -9 198 -16.5t246 8.5 q0 -63 13 -196t33.5 -317.5t29.5 -281.5q104 152 177.5 316t103.5 293q7 30 5 54t-8.5 42.5t-15.5 30.5t-14 18l-6 6l5 6q5 6 15.5 14.5t25 17.5t38 16t49.5 8q47 2 82 -3.5t63.5 -21.5t39.5 -48.5t3 -80.5q-5 -28 -17 -58t-34.5 -66.5t-40.5 -63.5t-55.5 -73t-57 -69.5 t-66.5 -78.5t-65 -76q-65 -77 -221 -272.5t-188 -233.5q-66 -78 -116.5 -131.5t-107 -101.5t-108.5 -70.5t-100 -18.5q-150 10 -164 99zM311 1214q3 57 56 101.5t110 44.5q42 0 74 -30.5t29 -72.5q-3 -54 -55.5 -101.5t-106.5 -47.5q-44 0 -77 31t-30 75zM842 1214 q3 56 54 101t108 45q44 0 75.5 -30t28.5 -73q-1 -55 -53 -102t-107 -47q-45 0 -77 30.5t-29 75.5z" />
<glyph unicode="&#x100;" horiz-adv-x="1607" d="M-78 0l12 57h16.5t40 3.5t55 11t54.5 25t47 42.5q93 127 295.5 454t359.5 591l156 264h146q0 -3 54 -298.5t116 -617t78 -370.5q17 -57 62 -80t112 -25l-15 -57q-241 12 -364 12q-49 0 -134 -3t-145 -6l-61 -3l14 57q166 0 185 99q6 33 -3 101.5t-21 120.5l-13 52l-496 2 q-15 -24 -38.5 -61.5t-66.5 -119t-51 -120.5q-8 -36 34 -55t106 -19l-15 -57q-127 8 -225 8zM524 530h430l-114 545zM717 1497l26 119h596l-22 -119h-600z" />
<glyph unicode="&#x101;" horiz-adv-x="1159" d="M55 101q-7 39 2 92q35 160 194 259t492 173l29 125q12 58 -23 106.5t-73 50.5q-73 4 -119.5 -24.5t-58.5 -79.5q-9 -23 -6 -40t5 -21.5t11 -11.5t12 -11q-26 -35 -75 -58t-103 -28q-27 -2 -55 6.5t-50.5 30t-22 57.5t29.5 88q31 52 77.5 86.5t108 51.5t119 23t135.5 7 q213 5 285 -74q40 -41 49.5 -108t-0.5 -113l-10 -47l-50 -246q-5 -24 -16 -69q-26 -83 -25 -134t46 -51q24 0 48.5 25.5t36.5 50.5l13 25l65 -23q-73 -138 -154 -195t-159 -57q-19 0 -38.5 2t-48.5 12.5t-48.5 27.5t-31.5 50t-5 78q-96 -80 -158.5 -119t-124.5 -49 q-33 -5 -68.5 -4.5t-75 7.5t-71 22.5t-56.5 41.5t-32 65zM375 268q-22 -77 11.5 -110t90.5 -29q41 3 90 26t90 64q13 56 36.5 168t39.5 180q-88 -28 -156.5 -68t-108 -82.5t-61 -78t-30.5 -66.5zM375 1112l24 119h598l-24 -119h-598z" />
<glyph unicode="&#x102;" horiz-adv-x="1607" d="M-78 0l12 57h16.5t40 3.5t55 11t54.5 25t47 42.5q93 127 295.5 454t359.5 591l156 264h146q0 -3 54 -298.5t116 -617t78 -370.5q17 -57 62 -80t112 -25l-15 -57q-241 12 -364 12q-49 0 -134 -3t-145 -6l-61 -3l14 57q166 0 185 99q6 33 -3 101.5t-21 120.5l-13 52l-496 2 q-15 -24 -38.5 -61.5t-66.5 -119t-51 -120.5q-8 -36 34 -55t106 -19l-15 -57q-127 8 -225 8zM524 530h430l-114 545zM848 1733l65 -2q9 -79 42 -107.5t100 -28.5q53 0 105.5 35.5t86.5 102.5q1 0 12 0.5t22 0.5h23t17 -1q-12 -100 -99.5 -168t-189.5 -68q-93 2 -148.5 72 t-35.5 164z" />
<glyph unicode="&#x103;" horiz-adv-x="1159" d="M55 101q-7 39 2 92q35 160 194 259t492 173l29 125q12 58 -23 106.5t-73 50.5q-73 4 -119.5 -24.5t-58.5 -79.5q-9 -23 -6 -40t5 -21.5t11 -11.5t12 -11q-26 -35 -75 -58t-103 -28q-27 -2 -55 6.5t-50.5 30t-22 57.5t29.5 88q31 52 77.5 86.5t108 51.5t119 23t135.5 7 q213 5 285 -74q40 -41 49.5 -108t-0.5 -113l-10 -47l-50 -246q-5 -24 -16 -69q-26 -83 -25 -134t46 -51q24 0 48.5 25.5t36.5 50.5l13 25l65 -23q-73 -138 -154 -195t-159 -57q-19 0 -38.5 2t-48.5 12.5t-48.5 27.5t-31.5 50t-5 78q-96 -80 -158.5 -119t-124.5 -49 q-33 -5 -68.5 -4.5t-75 7.5t-71 22.5t-56.5 41.5t-32 65zM375 268q-22 -77 11.5 -110t90.5 -29q41 3 90 26t90 64q13 56 36.5 168t39.5 180q-88 -28 -156.5 -68t-108 -82.5t-61 -78t-30.5 -66.5zM514 1350l66 -2q9 -79 41.5 -107.5t99.5 -28.5q53 0 105.5 35.5t86.5 102.5 h74q-12 -100 -100 -169t-189 -67q-92 2 -148 72t-36 164z" />
<glyph unicode="&#x104;" horiz-adv-x="1607" d="M-78 0l12 57h16.5t40 3.5t55 11t54.5 25t47 42.5q93 127 295.5 454t359.5 591l156 264h146q0 -3 54 -298.5t116 -617t78 -370.5q17 -57 62 -80t112 -25l-15 -57q-190 8 -319 10q-131 -134 -131 -235q0 -50 28 -79.5t78 -29.5q51 0 90 29q17 -6 17 -31q-68 -94 -176 -94 q-80 0 -121 44.5t-41 106.5q0 133 176 289q-52 0 -128 -2.5t-126 -5.5l-51 -2l14 57q166 0 185 99q6 33 -3 101.5t-21 120.5l-13 52l-496 2q-15 -24 -38.5 -61.5t-66.5 -119t-51 -120.5q-8 -36 34 -55t106 -19l-15 -57q-127 8 -225 8zM524 530h430l-114 545z" />
<glyph unicode="&#x105;" horiz-adv-x="1159" d="M55 101q-7 39 2 92q35 160 194 259t492 173l29 125q12 58 -23 106.5t-73 50.5q-73 4 -119.5 -24.5t-58.5 -79.5q-9 -23 -6 -40t5 -21.5t11 -11.5t12 -11q-26 -35 -75 -58t-103 -28q-27 -2 -55 6.5t-50.5 30t-22 57.5t29.5 88q31 52 77.5 86.5t108 51.5t119 23t135.5 7 q213 5 285 -74q40 -41 49.5 -108t-0.5 -113l-10 -47l-50 -246q-5 -24 -16 -69q-26 -83 -25 -134t46 -51q24 0 48.5 25.5t36.5 50.5l13 25l65 -23q-103 -192 -235 -239q-105 -118 -105 -205q0 -50 28.5 -79.5t78.5 -29.5q54 0 90 29q18 -5 18 -31q-68 -94 -178 -94 q-80 0 -120.5 44.5t-40.5 106.5q0 116 133 246q-22 1 -42 5.5t-44 16t-40.5 29t-25 48.5t-2.5 71q-96 -80 -158.5 -119t-124.5 -49q-33 -5 -68.5 -4.5t-75 7.5t-71 22.5t-56.5 41.5t-32 65zM375 268q-22 -77 11.5 -110t90.5 -29q41 3 90 26t90 64l76 348q-88 -28 -156.5 -68 t-108 -82.5t-61 -78t-30.5 -66.5z" />
<glyph unicode="&#x106;" horiz-adv-x="1544" d="M142 468.5q-4 106.5 22 240.5q37 174 129 316.5t214 233.5t262 140t280 49q83 0 162.5 -18t131 -36t66.5 -18q82 0 115 72h45l-84 -483h-58q-2 87 -24.5 158t-66.5 126t-117 84t-170 25q-98 -3 -163.5 -28t-121.5 -77q-80 -77 -142 -202.5t-110 -341.5 q-28 -134 -28.5 -242.5t23 -181.5t67 -122.5t100 -71.5t125.5 -21q48 0 95.5 8t85 19t78 30t68 34t61.5 39t50.5 36.5t44 35t33.5 27.5l45 -57q-2 -5 -28.5 -30t-84.5 -67t-130 -80t-178 -66t-216 -28q-89 0 -169.5 17.5t-154.5 55t-128 96t-89.5 140.5t-39.5 188.5z M1006 1491l147 301q38 78 98 78q39 0 72 -20t33 -56q0 -14 -3 -25.5t-12.5 -25t-12.5 -17.5t-20 -21l-18 -17l-194 -197h-90z" />
<glyph unicode="&#x107;" horiz-adv-x="1138" d="M90.5 272.5q-14.5 79.5 9.5 184.5q29 138 94.5 245.5t154.5 172.5t190 99t211 36q134 3 227 -32t119 -89q31 -63 -1.5 -127.5t-99.5 -83.5q-32 -11 -63.5 -8.5t-55 8.5t-45 17.5t-32 19t-15.5 12.5q2 3 18 19t24 26t16.5 29.5t9.5 38.5q1 43 -36 66.5t-68 23.5 q-27 -1 -58 -10.5t-73.5 -36t-79.5 -66.5t-71.5 -110t-53.5 -160q-20 -108 -10 -186t46 -128.5t85 -74.5t108 -23q52 1 98.5 16t83.5 43t60.5 50.5t52 56.5t35.5 41l47 -39q-41 -80 -132.5 -170t-164.5 -119q-113 -46 -258 -43q-61 2 -119 19.5t-113.5 53.5t-90.5 92.5 t-49.5 136zM719 1114l149 303q34 78 99 78q39 0 70.5 -19.5t31.5 -56.5q0 -10 -1.5 -19t-6.5 -19l-7.5 -15t-11.5 -15.5t-11 -12.5l-14 -14l-13 -13l-195 -197h-90z" />
<glyph unicode="&#x108;" horiz-adv-x="1544" d="M142 468.5q-4 106.5 22 240.5q37 174 129 316.5t214 233.5t262 140t280 49q83 0 162.5 -18t131 -36t66.5 -18q82 0 115 72h45l-84 -483h-58q-2 87 -24.5 158t-66.5 126t-117 84t-170 25q-98 -3 -163.5 -28t-121.5 -77q-80 -77 -142 -202.5t-110 -341.5 q-28 -134 -28.5 -242.5t23 -181.5t67 -122.5t100 -71.5t125.5 -21q48 0 95.5 8t85 19t78 30t68 34t61.5 39t50.5 36.5t44 35t33.5 27.5l45 -57q-2 -5 -28.5 -30t-84.5 -67t-130 -80t-178 -66t-216 -28q-89 0 -169.5 17.5t-154.5 55t-128 96t-89.5 140.5t-39.5 188.5z M709 1497l313 340h182l162 -340h-113l-155 197l-281 -197h-108z" />
<glyph unicode="&#x109;" horiz-adv-x="1136" d="M90.5 272.5q-14.5 79.5 9.5 184.5q29 138 94.5 245.5t154.5 172.5t190 99t211 36q134 3 227 -32t119 -89q31 -63 -1.5 -127.5t-99.5 -83.5q-32 -11 -63.5 -8.5t-55 8.5t-45 17.5t-32 19t-15.5 12.5q2 3 18 19t24 26t16.5 29.5t9.5 38.5q1 43 -36 66.5t-68 23.5 q-27 -1 -58 -10.5t-73.5 -36t-79.5 -66.5t-71.5 -110t-53.5 -160q-20 -108 -10 -186t46 -128.5t85 -74.5t108 -23q52 1 98.5 16t83.5 43t60.5 50.5t52 56.5t35.5 41l47 -39q-41 -80 -132.5 -170t-164.5 -119q-113 -46 -258 -43q-61 2 -119 19.5t-113.5 53.5t-90.5 92.5 t-49.5 136zM422 1116l313 342h180l162 -342h-110l-156 199l-283 -199h-106z" />
<glyph unicode="&#x10a;" horiz-adv-x="1544" d="M142 468.5q-4 106.5 22 240.5q37 174 129 316.5t214 233.5t262 140t280 49q83 0 162.5 -18t131 -36t66.5 -18q82 0 115 72h45l-84 -483h-58q-2 87 -24.5 158t-66.5 126t-117 84t-170 25q-98 -3 -163.5 -28t-121.5 -77q-80 -77 -142 -202.5t-110 -341.5 q-28 -134 -28.5 -242.5t23 -181.5t67 -122.5t100 -71.5t125.5 -21q48 0 95.5 8t85 19t78 30t68 34t61.5 39t50.5 36.5t44 35t33.5 27.5l45 -57q-2 -5 -28.5 -30t-84.5 -67t-130 -80t-178 -66t-216 -28q-89 0 -169.5 17.5t-154.5 55t-128 96t-89.5 140.5t-39.5 188.5z M936 1602q3 57 53 102t107 45q45 0 77 -30t31 -72q-3 -55 -55 -102.5t-107 -47.5q-45 0 -76 30t-30 75z" />
<glyph unicode="&#x10b;" horiz-adv-x="1136" d="M90.5 272.5q-14.5 79.5 9.5 184.5q29 138 94.5 245.5t154.5 172.5t190 99t211 36q134 3 227 -32t119 -89q31 -63 -1.5 -127.5t-99.5 -83.5q-32 -11 -63.5 -8.5t-55 8.5t-45 17.5t-32 19t-15.5 12.5q2 3 18 19t24 26t16.5 29.5t9.5 38.5q1 43 -36 66.5t-68 23.5 q-27 -1 -58 -10.5t-73.5 -36t-79.5 -66.5t-71.5 -110t-53.5 -160q-20 -108 -10 -186t46 -128.5t85 -74.5t108 -23q52 1 98.5 16t83.5 43t60.5 50.5t52 56.5t35.5 41l47 -39q-41 -80 -132.5 -170t-164.5 -119q-113 -46 -258 -43q-61 2 -119 19.5t-113.5 53.5t-90.5 92.5 t-49.5 136zM655 1212q3 57 54 102.5t108 45.5q43 0 75.5 -30.5t31.5 -72.5q-3 -55 -55 -102t-107 -47q-44 0 -76 29.5t-31 74.5z" />
<glyph unicode="&#x10c;" horiz-adv-x="1544" d="M142 468.5q-4 106.5 22 240.5q37 174 129 316.5t214 233.5t262 140t280 49q83 0 162.5 -18t131 -36t66.5 -18q82 0 115 72h45l-84 -483h-58q-2 87 -24.5 158t-66.5 126t-117 84t-170 25q-98 -3 -163.5 -28t-121.5 -77q-80 -77 -142 -202.5t-110 -341.5 q-28 -134 -28.5 -242.5t23 -181.5t67 -122.5t100 -71.5t125.5 -21q48 0 95.5 8t85 19t78 30t68 34t61.5 39t50.5 36.5t44 35t33.5 27.5l45 -57q-2 -5 -28.5 -30t-84.5 -67t-130 -80t-178 -66t-216 -28q-89 0 -169.5 17.5t-154.5 55t-128 96t-89.5 140.5t-39.5 188.5z M809 1843q11 0 33.5 -0.5t40.5 -0.5l18 -1l195 -196l252 198h116l-307 -342h-180z" />
<glyph unicode="&#x10d;" horiz-adv-x="1177" d="M90.5 272.5q-14.5 79.5 9.5 184.5q29 138 94.5 245.5t154.5 172.5t190 99t211 36q134 3 227 -32t119 -89q31 -63 -1.5 -127.5t-99.5 -83.5q-32 -11 -63.5 -8.5t-55 8.5t-45 17.5t-32 19t-15.5 12.5q2 3 18 19t24 26t16.5 29.5t9.5 38.5q1 43 -36 66.5t-68 23.5 q-27 -1 -58 -10.5t-73.5 -36t-79.5 -66.5t-71.5 -110t-53.5 -160q-20 -108 -10 -186t46 -128.5t85 -74.5t108 -23q52 1 98.5 16t83.5 43t60.5 50.5t52 56.5t35.5 41l47 -39q-41 -80 -132.5 -170t-164.5 -119q-113 -46 -258 -43q-61 2 -119 19.5t-113.5 53.5t-90.5 92.5 t-49.5 136zM498 1450q11 0 33.5 -0.5t40.5 -1.5h18l196 -197l250 199h117l-307 -342h-180z" />
<glyph unicode="&#x10e;" horiz-adv-x="1650" d="M14 0l13 61q128 3 209 74q18 18 44 104t46 172.5t40 180.5t21 98q1 5 15.5 75t28.5 142t30 165t19.5 144.5t-3.5 79.5q-8 15 -22.5 26t-27.5 16.5t-34.5 9t-32.5 4.5t-34.5 1.5t-26.5 0.5l14 65l578 -2q194 0 340 -44t241 -132.5t126.5 -222t-5.5 -313.5 q-14 -65 -38.5 -129t-66.5 -135t-96.5 -133.5t-132.5 -119.5t-169.5 -98t-212 -65.5t-256.5 -24.5h-607zM528 80q0 1 3 1.5t10.5 0.5t16 -0.5t20.5 -1t23.5 -0.5t26.5 -1t27 -1t23 0.5t45.5 6t66 15t77 31t85 51t85 77.5t82 107.5t70 144.5t54.5 185q70 320 -2 463 q-13 24 -21 37t-36.5 42t-62 45.5t-95 31t-137.5 14.5q-99 0 -101 -2q-2 0 -67.5 -311.5t-129.5 -623.5t-63 -312zM668 1843q12 0 34.5 -0.5t39.5 -0.5l18 -1l196 -196l252 198h117l-309 -342h-180z" />
<glyph unicode="&#x10f;" horiz-adv-x="1579" d="M86 311.5q1 66.5 18 145.5q28 139 114 261t204.5 194.5t236.5 72.5q75 0 125.5 -26t83.5 -99q31 105 57.5 279.5t20.5 208.5q-4 21 -23.5 28.5t-58.5 7.5l13 60q14 -8 172 -8t219 18q-215 -737 -303 -1188q-15 -70 -5 -103.5t27.5 -42t44.5 -1.5q26 7 39 14t40 33t71 80 l43 -31q-147 -250 -320 -250q-67 1 -113.5 36t-62.5 79.5t-6 83.5q-125 -184 -334 -184q-18 0 -39 3t-52 10t-59 23t-57.5 39t-50 60t-33.5 83.5t-12 113zM392 225q31 -119 122 -125q43 -2 103.5 41.5t107.5 139.5q63 153 100 438q-11 96 -61 136.5t-100 31.5 q-86 -13 -157.5 -105.5t-105.5 -253.5q-40 -184 -9 -303zM1395 991q94 52 141.5 93.5t65.5 91.5q11 34 -29 47q-6 2 -32.5 -2t-45.5 4q-57 16 -33 112q13 51 56 80t88 29q71 0 106 -48.5t17 -135.5q-13 -60 -40 -109.5t-70 -89.5t-89 -70.5t-111 -64.5z" />
<glyph unicode="&#x110;" horiz-adv-x="1650" d="M14 0l13 61q128 3 209 74q45 45 149 551h-219l16 70h217q105 496 78 540q-8 15 -22.5 26t-27.5 16.5t-34.5 9t-32.5 4.5t-34.5 1.5t-26.5 0.5l14 65l578 -2q194 0 340 -44t241 -132.5t126.5 -222t-5.5 -313.5q-14 -65 -38.5 -129t-66.5 -135t-96.5 -133.5t-132.5 -119.5 t-169.5 -98t-212 -65.5t-256.5 -24.5h-607zM528 80q2 2 127 -2q12 0 23 0.5t45.5 6t66 15t77 31t85 51t85 77.5t82 107.5t70 144.5t54.5 185q70 320 -2 463q-13 24 -21 37t-36.5 42t-62 45.5t-95 31t-137.5 14.5q-99 0 -101 -2q-1 0 -16.5 -74t-48 -227.5t-57.5 -269.5h305 l-17 -70h-301q-115 -545 -125 -606z" />
<glyph unicode="&#x111;" horiz-adv-x="1288" d="M85.5 311.5q1.5 66.5 18.5 145.5q29 139 114.5 261t203 194.5t235.5 72.5q78 0 129 -26t84 -99q35 136 54 264h-217l16 76h211q18 126 12 148q-3 21 -23 28.5t-59 7.5l13 60q14 -8 172 -8t219 18q-15 -46 -39 -132t-35 -122h131l-14 -76h-137q-137 -484 -209 -858 q-15 -70 -4.5 -103.5t28 -42t43.5 -1.5t39 14t40 33t71 80l45 -31q-150 -250 -322 -250q-67 1 -113.5 36t-62 79.5t-4.5 83.5q-128 -184 -334 -184q-19 0 -40.5 3t-53 10t-59.5 23t-57 39t-49.5 60t-34 83.5t-12 113zM392 225q31 -119 122 -125q26 -1 59.5 13t77 57.5 t74.5 110.5q60 128 100 438q-8 66 -37.5 107.5t-61 54t-62.5 6.5q-85 -13 -156.5 -105.5t-106.5 -253.5q-40 -184 -9 -303z" />
<glyph unicode="&#x112;" horiz-adv-x="1552" d="M8 0l15 61q128 3 204 74q34 32 85 245.5t67 309.5q123 552 92 606q-10 18 -25.5 29.5t-39.5 17t-36.5 7t-42.5 2t-32 0.5l12 65h1229q-11 -47 -17.5 -82.5t-9 -59t-8 -82.5t-12.5 -116h-70q-9 61 -22 102t-30.5 61.5t-30 30t-34.5 17.5t-30 12q-4 1 -23.5 4.5t-31.5 5.5 t-48.5 5.5t-79 5t-117.5 3t-169 1.5q-52 -253 -111 -528q353 0 383 28q46 41 74.5 78.5t38.5 59t20 53.5h70q2 -1 -5.5 -31.5t-28 -105.5t-30.5 -115q-14 -58 -26.5 -130t-18.5 -113.5t-8 -43.5q-5 -2 -23.5 -2t-34.5 1l-16 1q0 3 3.5 31.5t2.5 40t-4.5 36t-17 45 t-35.5 40.5q-16 15 -107 21.5t-174 5.5l-83 -1q-27 -130 -60 -282.5t-51 -235.5t-18 -84q93 0 172 3t128.5 7t95.5 10.5t66 10.5t47.5 10.5t32.5 7.5q4 2 31.5 14t38 18t37 25.5t43.5 41.5t40 60t44 87l72 -2q-21 -66 -48.5 -149t-41.5 -129t-29 -109h-5q-1257 -4 -1259 0z M668 1493l24 119h598l-22 -119h-600z" />
<glyph unicode="&#x113;" horiz-adv-x="1128" d="M102 457q25 112 75 204.5t114 155t141 105t155.5 61.5t157.5 18q63 -1 116 -14t100 -43.5t73.5 -79.5t37.5 -121.5t-9 -169.5h-660q-15 -79 -16 -145t10 -111.5t32 -80.5t46 -55.5t56 -33.5t59 -17.5t57 -4.5q54 0 106 20.5t97.5 58t74 66t62.5 68.5l49 -43 q-77 -96 -134 -152t-129.5 -99t-157 -58.5t-201.5 -14.5q-181 2 -270 135.5t-42 350.5zM406 1110l24 119h598l-24 -119h-598zM426 662h393q11 68 9.5 127t-29 99t-76.5 40q-192 0 -297 -266z" />
<glyph unicode="&#x114;" horiz-adv-x="1552" d="M8 0l15 61q128 3 204 74q34 32 85 245.5t67 309.5q123 552 92 606q-10 18 -25.5 29.5t-39.5 17t-36.5 7t-42.5 2t-32 0.5l12 65h1229q-11 -47 -17.5 -82.5t-9 -59t-8 -82.5t-12.5 -116h-70q-9 61 -22 102t-30.5 61.5t-30 30t-34.5 17.5t-30 12q-4 1 -23.5 4.5t-31.5 5.5 t-48.5 5.5t-79 5t-117.5 3t-169 1.5q-52 -253 -111 -528q353 0 383 28q46 41 74.5 78.5t38.5 59t20 53.5h70q2 -1 -5.5 -31.5t-28 -105.5t-30.5 -115q-14 -58 -26.5 -130t-18.5 -113.5t-8 -43.5q-5 -2 -23.5 -2t-34.5 1l-16 1q0 3 3.5 31.5t2.5 40t-4.5 36t-17 45 t-35.5 40.5q-16 15 -107 21.5t-174 5.5l-83 -1q-27 -130 -60 -282.5t-51 -235.5t-18 -84q93 0 172 3t128.5 7t95.5 10.5t66 10.5t47.5 10.5t32.5 7.5q4 2 31.5 14t38 18t37 25.5t43.5 41.5t40 60t44 87l72 -2q-21 -66 -48.5 -149t-41.5 -129t-29 -109h-5q-1257 -4 -1259 0z M780 1733l66 -2q9 -79 41.5 -107.5t99.5 -28.5q53 0 106 35.5t87 102.5h73q-12 -100 -99 -168t-189 -68q-93 2 -149 72t-36 164z" />
<glyph unicode="&#x115;" horiz-adv-x="1128" d="M102 457q25 112 75 204.5t114 155t141 105t155.5 61.5t157.5 18q63 -1 116 -14t100 -43.5t73.5 -79.5t37.5 -121.5t-9 -169.5h-660q-15 -79 -16 -145t10 -111.5t32 -80.5t46 -55.5t56 -33.5t59 -17.5t57 -4.5q54 0 106 20.5t97.5 58t74 66t62.5 68.5l49 -43 q-77 -96 -134 -152t-129.5 -99t-157 -58.5t-201.5 -14.5q-181 2 -270 135.5t-42 350.5zM426 662h393q11 68 9.5 127t-29 99t-76.5 40q-192 0 -297 -266zM559 1339l66 -2q9 -81 41 -109t98 -28q55 0 108 35.5t86 103.5h74q-12 -101 -99.5 -169t-189.5 -66q-94 2 -149.5 71 t-34.5 164z" />
<glyph unicode="&#x116;" horiz-adv-x="1552" d="M8 0l15 61q128 3 204 74q34 32 85 245.5t67 309.5q123 552 92 606q-10 18 -25.5 29.5t-39.5 17t-36.5 7t-42.5 2t-32 0.5l12 65h1229q-11 -47 -17.5 -82.5t-9 -59t-8 -82.5t-12.5 -116h-70q-9 61 -22 102t-30.5 61.5t-30 30t-34.5 17.5t-30 12q-4 1 -23.5 4.5t-31.5 5.5 t-48.5 5.5t-79 5t-117.5 3t-169 1.5q-52 -253 -111 -528q353 0 383 28q46 41 74.5 78.5t38.5 59t20 53.5h70q2 -1 -5.5 -31.5t-28 -105.5t-30.5 -115q-14 -58 -26.5 -130t-18.5 -113.5t-8 -43.5q-5 -2 -23.5 -2t-34.5 1l-16 1q0 3 3.5 31.5t2.5 40t-4.5 36t-17 45 t-35.5 40.5q-16 15 -107 21.5t-174 5.5l-83 -1q-27 -130 -60 -282.5t-51 -235.5t-18 -84q93 0 172 3t128.5 7t95.5 10.5t66 10.5t47.5 10.5t32.5 7.5q4 2 31.5 14t38 18t37 25.5t43.5 41.5t40 60t44 87l72 -2q-21 -66 -48.5 -149t-41.5 -129t-29 -109h-5q-1257 -4 -1259 0z M809 1608q3 57 54 102t108 45q45 0 76 -30t30 -72q-1 -56 -52.5 -103t-106.5 -47q-45 0 -77.5 30t-31.5 75z" />
<glyph unicode="&#x117;" horiz-adv-x="1128" d="M102 457q25 112 75 204.5t114 155t141 105t155.5 61.5t157.5 18q63 -1 116 -14t100 -43.5t73.5 -79.5t37.5 -121.5t-9 -169.5h-660q-15 -79 -16 -145t10 -111.5t32 -80.5t46 -55.5t56 -33.5t59 -17.5t57 -4.5q54 0 106 20.5t97.5 58t74 66t62.5 68.5l49 -43 q-77 -96 -134 -152t-129.5 -99t-157 -58.5t-201.5 -14.5q-181 2 -270 135.5t-42 350.5zM426 662h393q11 68 9.5 127t-29 99t-76.5 40q-192 0 -297 -266zM635 1223q3 57 54 102t108 45q44 0 75.5 -30.5t30.5 -73.5q-3 -55 -55 -101.5t-107 -46.5q-44 0 -75.5 30t-30.5 75z " />
<glyph unicode="&#x118;" horiz-adv-x="1552" d="M8 0l15 61q128 3 204 74q34 32 85 245.5t67 309.5q123 552 92 606q-10 18 -25.5 29.5t-39.5 17t-36.5 7t-42.5 2t-32 0.5l12 65h1229q-11 -47 -17.5 -82.5t-9 -59t-8 -82.5t-12.5 -116h-70q-9 61 -22 102t-30.5 61.5t-30 30t-34.5 17.5t-30 12q-4 1 -23.5 4.5t-31.5 5.5 t-48.5 5.5t-79 5t-117.5 3t-169 1.5q-52 -253 -111 -528q353 0 383 28q46 41 74.5 78.5t38.5 59t20 53.5h70q2 -1 -5.5 -31.5t-28 -105.5t-30.5 -115q-14 -58 -26.5 -130t-18.5 -113.5t-8 -43.5q-5 -2 -23.5 -2t-34.5 1l-16 1q0 3 3.5 31.5t2.5 40t-4.5 36t-17 45 t-35.5 40.5q-16 15 -107 21.5t-174 5.5l-83 -1l-129 -602q93 0 172 3t128.5 7t95.5 10.5t66 10.5t47.5 10.5t32.5 7.5q4 2 31.5 14t38 18t37 25.5t43.5 41.5t40 60t44 87l72 -2q-21 -66 -48.5 -149t-41.5 -129t-29 -109q-274 0 -567 -2q-121 -131 -121 -223q0 -50 28 -79.5 t78 -29.5q54 0 90 29q19 -5 19 -31q-68 -94 -178 -94q-80 0 -121 44.5t-41 106.5q0 131 166 277q-617 0 -617 2z" />
<glyph unicode="&#x119;" horiz-adv-x="1128" d="M102 457q25 112 75 204.5t114 155t141 105t155.5 61.5t157.5 18q63 -1 116 -14t100 -43.5t73.5 -79.5t37.5 -121.5t-9 -169.5h-660q-15 -79 -16 -145t10 -111.5t32 -80.5t46 -55.5t56 -33.5t59 -17.5t57 -4.5q54 0 106 20.5t97.5 58t74 66t62.5 68.5l49 -43 q-71 -88 -123.5 -141t-117.5 -96t-138 -63t-170 -24q-98 -109 -98 -196q0 -50 28.5 -79.5t78.5 -29.5q54 0 90 29q18 -5 18 -31q-68 -94 -178 -94q-80 0 -121 44.5t-41 106.5q0 115 135 250q-174 6 -258 139.5t-39 346.5zM426 662h393q11 68 9.5 127t-29 99t-76.5 40 q-192 0 -297 -266z" />
<glyph unicode="&#x11a;" horiz-adv-x="1552" d="M8 0l15 61q128 3 204 74q34 32 85 245.5t67 309.5q123 552 92 606q-10 18 -25.5 29.5t-39.5 17t-36.5 7t-42.5 2t-32 0.5l12 65h1229q-11 -47 -17.5 -82.5t-9 -59t-8 -82.5t-12.5 -116h-70q-9 61 -22 102t-30.5 61.5t-30 30t-34.5 17.5t-30 12q-4 1 -23.5 4.5t-31.5 5.5 t-48.5 5.5t-79 5t-117.5 3t-169 1.5q-52 -253 -111 -528q353 0 383 28q46 41 74.5 78.5t38.5 59t20 53.5h70q2 -1 -5.5 -31.5t-28 -105.5t-30.5 -115q-14 -58 -26.5 -130t-18.5 -113.5t-8 -43.5q-5 -2 -23.5 -2t-34.5 1l-16 1q0 3 3.5 31.5t2.5 40t-4.5 36t-17 45 t-35.5 40.5q-16 15 -107 21.5t-174 5.5l-83 -1q-27 -130 -60 -282.5t-51 -235.5t-18 -84q93 0 172 3t128.5 7t95.5 10.5t66 10.5t47.5 10.5t32.5 7.5q4 2 31.5 14t38 18t37 25.5t43.5 41.5t40 60t44 87l72 -2q-21 -66 -48.5 -149t-41.5 -129t-29 -109h-5q-1257 -4 -1259 0z M670 1835q11 0 33.5 -0.5t40.5 -0.5l18 -1l196 -197l250 199h117l-307 -340h-180z" />
<glyph unicode="&#x11b;" horiz-adv-x="1177" d="M102 457q25 112 75 204.5t114 155t141 105t155.5 61.5t157.5 18q63 -1 116 -14t100 -43.5t73.5 -79.5t37.5 -121.5t-9 -169.5h-660q-15 -79 -16 -145t10 -111.5t32 -80.5t46 -55.5t56 -33.5t59 -17.5t57 -4.5q54 0 106 20.5t97.5 58t74 66t62.5 68.5l49 -43 q-77 -96 -134 -152t-129.5 -99t-157 -58.5t-201.5 -14.5q-181 2 -270 135.5t-42 350.5zM426 662h393q11 68 9.5 127t-29 99t-76.5 40q-192 0 -297 -266zM471 1452q11 0 33.5 -0.5t40.5 -1.5h18l197 -197l250 199h116l-307 -342h-180z" />
<glyph unicode="&#x11c;" horiz-adv-x="1624" d="M142 493q-1 99 28 236q29 136 107.5 264.5t192 230t267 163t318.5 61.5q94 0 170.5 -18t124.5 -36t73 -18q24 0 61.5 16.5t53.5 55.5h47q-33 -116 -53 -225q-8 -52 -14 -109t-8 -88l-3 -31l-57 -2q-7 40 -14 69.5t-21 70.5t-32 70.5t-47.5 61t-65.5 51.5t-88.5 33 t-114.5 13q-438 0 -557 -672q-33 -196 -15 -337t102.5 -219t229.5 -77q50 0 125 44.5t101 78.5q1 4 8.5 36.5t14.5 63.5t17.5 80t17 86t13 81.5t5.5 66.5t-5 41q-10 21 -27.5 35t-43.5 20t-41 7.5t-43 2.5l16 64q15 -5 145 -10.5t168 -5.5q44 0 172.5 4.5t145.5 9.5l-10 -60 q-31 -1 -50 -4.5t-48 -19t-58 -45.5q-18 -18 -41 -99t-39.5 -162.5t-32 -167.5t-16.5 -91q-4 -1 -63 -25t-126.5 -49t-165 -46.5t-178.5 -21.5q-174 0 -321.5 55.5t-230.5 172.5q-48 68 -70.5 131.5t-23.5 162.5zM725 1497l313 342h181l161 -342h-110l-156 199l-283 -199 h-106z" />
<glyph unicode="&#x11d;" horiz-adv-x="1097" d="M-113 -254q14 65 99 113t168 61q-19 7 -31.5 12.5t-27.5 13t-24.5 15t-19.5 17.5t-15.5 21t-9 25.5t-2.5 32t5 37.5q13 60 68.5 112.5t113.5 81t113 42.5v4q-38 15 -66 30t-55 35.5t-41.5 43t-26.5 54.5t-9.5 69.5t9.5 86.5q31 147 161.5 239.5t338.5 92.5q118 0 217 -43 q66 -31 180 -11t152 64q-2 -19 -6.5 -47t-23 -78t-42.5 -57q-25 -10 -67 -5.5t-70.5 10.5t-48.5 13q1 -1 9.5 -11t13.5 -17t13.5 -21t12 -29.5t6.5 -35.5t1 -45t-9 -54q-23 -100 -91.5 -175t-179.5 -109q-61 -18 -91.5 -20.5t-180.5 -2.5q-36 0 -93.5 -31.5t-66.5 -72.5 q-5 -24 2.5 -37.5t29.5 -19t53.5 -7.5t79.5 -2h15.5h14h16.5l133 -2q25 0 52 -3t60 -11t61.5 -20.5t53 -33t38 -47t13.5 -65t-18 -84.5q-45 -115 -142 -193t-215.5 -112.5t-254.5 -34.5q-81 0 -142 6t-111.5 20t-79.5 38t-40.5 60.5t-1.5 86.5zM115 -225q-7 -38 13 -63.5 t58.5 -35.5t68 -13.5t58.5 -4.5h11q63 -1 136.5 7t154.5 39t102 81q24 53 -17.5 79.5t-128.5 26.5h-358q-49 -33 -70 -57.5t-28 -58.5zM289 1120l313 340h180l162 -340h-110l-156 199l-283 -199h-106zM400.5 491q0.5 -38 10 -60.5t32.5 -37.5t59 -14q38 0 68.5 17.5 t49.5 41.5t35 64t24 70.5t17 74.5q7 33 10.5 54t8 57.5t0.5 61t-13 49.5t-31 38t-55 13q-45 0 -79 -22.5t-56.5 -67t-35 -84t-25.5 -99.5q-10 -49 -15 -83.5t-4.5 -72.5z" />
<glyph unicode="&#x11e;" horiz-adv-x="1624" d="M142 493q-1 99 28 236q29 136 107.5 264.5t192 230t267 163t318.5 61.5q94 0 170.5 -18t124.5 -36t73 -18q24 0 61.5 16.5t53.5 55.5h47q-33 -116 -53 -225q-8 -52 -14 -109t-8 -88l-3 -31l-57 -2q-7 40 -14 69.5t-21 70.5t-32 70.5t-47.5 61t-65.5 51.5t-88.5 33 t-114.5 13q-438 0 -557 -672q-33 -196 -15 -337t102.5 -219t229.5 -77q50 0 125 44.5t101 78.5q1 4 8.5 36.5t14.5 63.5t17.5 80t17 86t13 81.5t5.5 66.5t-5 41q-10 21 -27.5 35t-43.5 20t-41 7.5t-43 2.5l16 64q15 -5 145 -10.5t168 -5.5q44 0 172.5 4.5t145.5 9.5l-10 -60 q-31 -1 -50 -4.5t-48 -19t-58 -45.5q-18 -18 -41 -99t-39.5 -162.5t-32 -167.5t-16.5 -91q-4 -1 -63 -25t-126.5 -49t-165 -46.5t-178.5 -21.5q-174 0 -321.5 55.5t-230.5 172.5q-48 68 -70.5 131.5t-23.5 162.5zM885 1733l65 -2q9 -79 42 -107.5t100 -28.5q53 0 105.5 35.5 t86.5 102.5h74q-12 -100 -99.5 -168t-189.5 -68q-93 2 -148.5 72t-35.5 164z" />
<glyph unicode="&#x11f;" horiz-adv-x="1095" d="M-113 -254q14 65 99 113t168 61q-21 8 -35.5 14.5t-31 15.5t-27 18t-20 22t-13 27.5t-3.5 34t5 42.5q12 61 67.5 113.5t113 80t112.5 42.5l2 4q-38 15 -65.5 30t-54.5 35.5t-41 43t-26 54.5t-9.5 69.5t9.5 86.5q31 147 160.5 239.5t335.5 92.5q120 0 219 -43 q64 -31 178 -11t152 64q-2 -19 -6 -47t-22 -78t-42 -57q-27 -10 -68 -6t-69.5 10.5t-46.5 13.5q1 -2 12.5 -16.5t19 -28.5t15.5 -37.5t7.5 -56t-9.5 -71.5q-24 -102 -93 -177.5t-180 -109.5q-61 -18 -91.5 -20.5t-180.5 -2.5q-37 0 -93.5 -31.5t-64.5 -72.5q-5 -24 2 -37.5 t28.5 -19t53 -7.5t79.5 -2h15.5h14h16.5l135 -2q25 0 52 -3t60 -11t61 -20.5t52.5 -33t38 -47t13 -65t-18.5 -84.5q-44 -114 -141 -192.5t-215.5 -113t-253.5 -34.5q-81 0 -142 5.5t-111.5 20t-80 38.5t-41 60.5t-0.5 86.5zM115 -225q-7 -38 13 -63.5t58 -35.5t67.5 -13.5 t57.5 -4.5h11q65 -1 138.5 7t154 39t102.5 81q22 53 -19 79.5t-125 26.5h-360q-50 -34 -71 -58t-27 -58zM400 491q0 -37 10 -60.5t33 -38t59 -13.5q27 0 50.5 9t40.5 22.5t32 37t24.5 43.5t19.5 51.5t15 51.5t12 53q25 129 17 183q-15 89 -97 90q-45 0 -79 -22.5t-56 -66.5 t-34.5 -84.5t-24.5 -99.5q-11 -48 -16.5 -83.5t-5.5 -72.5zM436 1350l68 -2q7 -81 39.5 -109.5t99.5 -28.5q52 0 106 36t89 102q2 0 33 1t40 1q-13 -102 -100 -170t-190 -66q-92 2 -148.5 72t-36.5 164z" />
<glyph unicode="&#x120;" horiz-adv-x="1624" d="M142 493q-1 99 28 236q29 136 107.5 264.5t192 230t267 163t318.5 61.5q94 0 170.5 -18t124.5 -36t73 -18q24 0 61.5 16.5t53.5 55.5h47q-33 -116 -53 -225q-8 -52 -14 -109t-8 -88l-3 -31l-57 -2q-7 40 -14 69.5t-21 70.5t-32 70.5t-47.5 61t-65.5 51.5t-88.5 33 t-114.5 13q-438 0 -557 -672q-33 -196 -15 -337t102.5 -219t229.5 -77q50 0 125 44.5t101 78.5q1 4 8.5 36.5t14.5 63.5t17.5 80t17 86t13 81.5t5.5 66.5t-5 41q-10 21 -27.5 35t-43.5 20t-41 7.5t-43 2.5l16 64q15 -5 145 -10.5t168 -5.5q44 0 172.5 4.5t145.5 9.5l-10 -60 q-31 -1 -50 -4.5t-48 -19t-58 -45.5q-18 -18 -41 -99t-39.5 -162.5t-32 -167.5t-16.5 -91q-4 -1 -63 -25t-126.5 -49t-165 -46.5t-178.5 -21.5q-174 0 -321.5 55.5t-230.5 172.5q-48 68 -70.5 131.5t-23.5 162.5zM987 1602q3 57 54 102t108 45q44 0 76 -29.5t32 -72.5 q-3 -55 -54.5 -102.5t-106.5 -47.5q-45 0 -77.5 30t-31.5 75z" />
<glyph unicode="&#x121;" horiz-adv-x="1093" d="M-113 -254q12 65 97 113t170 61q-21 8 -35.5 14.5t-32 15.5t-26.5 18t-20 22t-13 27.5t-4.5 34.5t4.5 42q12 61 67.5 113.5t112.5 80t112 42.5l3 4q-38 15 -66 30t-54 35t-42 44t-26 54t-9.5 69.5t10.5 86.5q30 147 160.5 239.5t335.5 92.5q120 0 219 -43q66 -31 180 -11 t150 64q-2 -19 -6 -47t-22 -78t-42 -57q-26 -9 -67 -5.5t-70 10t-47 13.5q1 -2 10.5 -14t16 -20.5t14.5 -27.5t11.5 -38t2.5 -48t-8 -62q-24 -102 -93 -177.5t-180 -109.5q-61 -18 -91.5 -20.5t-180.5 -2.5q-37 0 -94.5 -31.5t-65.5 -72.5q-5 -24 2 -37.5t28.5 -19t53 -7.5 t79.5 -2h15.5h14h16.5l135 -2q25 0 52 -3t60 -11t61 -20.5t52.5 -33t38 -47t13 -65t-18.5 -84.5q-33 -87 -96.5 -153.5t-145.5 -106.5t-175 -60t-193 -20q-81 0 -141.5 5.5t-111 20t-79.5 38.5t-40.5 60.5t-0.5 86.5zM113 -225q-7 -38 13 -63.5t58 -35.5t67 -13.5t57 -4.5 h11q64 -1 138 7t155.5 39t102.5 81q24 53 -17.5 79.5t-126.5 26.5h-360q-49 -33 -70 -57.5t-28 -58.5zM399 491q0 -38 9.5 -60.5t32.5 -37.5t59 -14q38 0 68.5 17.5t49.5 41.5t35 64t24 70.5t17 74.5q25 129 17 183q-15 89 -97 90q-45 0 -79 -22.5t-56 -66.5t-34.5 -84.5 t-24.5 -99.5q-11 -49 -16 -83.5t-5 -72.5zM532 1214q3 57 54 102.5t108 45.5q44 0 76 -30t31 -72q-3 -55 -55 -102.5t-107 -47.5q-44 0 -76 29.5t-31 74.5z" />
<glyph unicode="&#x122;" horiz-adv-x="1624" d="M142 493q-1 99 28 236q29 136 107.5 264.5t192 230t267 163t318.5 61.5q94 0 170.5 -18t124.5 -36t73 -18q24 0 61.5 16.5t53.5 55.5h47q-33 -116 -53 -225q-8 -52 -14 -109t-8 -88l-3 -31l-57 -2q-7 40 -14 69.5t-21 70.5t-32 70.5t-47.5 61t-65.5 51.5t-88.5 33 t-114.5 13q-438 0 -557 -672q-33 -196 -15 -337t102.5 -219t229.5 -77q50 0 125 44.5t101 78.5q1 4 8.5 36.5t14.5 63.5t17.5 80t17 86t13 81.5t5.5 66.5t-5 41q-10 21 -27.5 35t-43.5 20t-41 7.5t-43 2.5l16 64q15 -5 145 -10.5t168 -5.5q44 0 172.5 4.5t145.5 9.5l-10 -60 q-31 -1 -50 -4.5t-48 -19t-58 -45.5q-18 -18 -41 -99t-39.5 -162.5t-32 -167.5t-16.5 -91q-4 -1 -63 -25t-126.5 -49t-165 -46.5t-178.5 -21.5q-174 0 -321.5 55.5t-230.5 172.5q-48 68 -70.5 131.5t-23.5 162.5zM518 -537q174 24 195 123q2 14 -5.5 22t-27.5 9 q-127 3 -102 117q13 52 53 80q45 30 88 30q61 0 90 -43q29 -47 18 -114q-28 -128 -98.5 -193t-210.5 -69v38z" />
<glyph unicode="&#x123;" horiz-adv-x="1095" d="M-113 -254q8 45 56.5 84t104 60.5t106.5 29.5q-21 8 -35.5 14.5t-32 15.5t-26.5 18t-20 22t-13 27.5t-4.5 34.5t4.5 42q13 61 68.5 113.5t113 80t113.5 42.5l2 4q-38 15 -66.5 30t-54 35t-41.5 44t-25.5 54.5t-9.5 69t10 86.5q31 147 160.5 239.5t335.5 92.5 q118 0 217 -43q66 -31 180 -11t152 64q-2 -19 -6.5 -47t-22.5 -78t-41 -57q-26 -10 -68 -5.5t-70 10.5t-48 13q1 -2 10.5 -14t16 -20.5t14.5 -27.5t11.5 -38t2.5 -48t-8 -62q-24 -102 -93 -177.5t-180 -109.5q-61 -18 -91.5 -20.5t-180.5 -2.5q-36 0 -93.5 -31.5 t-66.5 -72.5q-5 -24 3 -37.5t29.5 -19t53 -7.5t79.5 -2h46l133 -2q26 0 52.5 -3t60 -11t61.5 -20.5t52.5 -33t38 -47t13.5 -65t-18 -84.5q-66 -169 -233.5 -254.5t-378.5 -85.5q-81 0 -141.5 5.5t-111 20t-79.5 38.5t-40.5 60.5t-0.5 86.5zM113 -225q-3 -19 0.5 -35 t14 -27.5t23 -20.5t30.5 -14.5t32.5 -9t34.5 -5.5t31 -3t26 -1.5t17 -0.5q64 -1 137.5 7t154.5 39t103 81q22 53 -19 79.5t-127 26.5h-358q-50 -33 -71.5 -57t-28.5 -59zM399 491q0 -38 9.5 -60.5t32.5 -37.5t59 -14q38 0 69 17.5t49.5 41.5t34.5 64.5t23.5 70t17.5 74.5 q6 29 9.5 45.5t7.5 49t3.5 53t-5 47t-15.5 41.5t-31 26t-49 11q-36 0 -65.5 -16.5t-48.5 -41t-35.5 -64t-25.5 -72t-19 -79.5q-11 -49 -16 -83.5t-5 -72.5zM541 1247q24 112 88 172.5t180 63.5l2 -33q-153 -24 -172 -111q-6 -30 27 -30q112 -3 94 -103q-12 -44 -47 -71 q-41 -27 -82 -27q-57 0 -80 39q-25 39 -10 100z" />
<glyph unicode="&#x124;" horiz-adv-x="1781" d="M14 0l15 61q68 1 102 15t96 59q10 8 22 34.5t25.5 72.5t25 88t26 106t22.5 100t21.5 98t15.5 73q1 7 11 54.5t21.5 102t24.5 127t21 129.5t11 109.5t-7 66.5q-11 27 -32 40.5t-39.5 15.5t-51 2t-47.5 2l12 61q64 -11 323.5 -12.5t401.5 12.5l-12 -65q-116 -9 -138 -16 q-28 -9 -59 -42q-25 -29 -52 -111.5t-45.5 -161t-40.5 -180.5q-5 -23 -7 -34h592q93 433 61 491q-13 26 -35 39.5t-40 15.5t-50 2.5t-47 2.5l13 59q62 -11 322 -12.5t405 12.5l-13 -57q-107 -10 -140.5 -20.5t-64.5 -49.5q-20 -26 -46.5 -110t-44.5 -163t-41.5 -187.5 t-28.5 -129.5q-119 -510 -82 -565q17 -28 36.5 -42t34.5 -16.5t46.5 -5.5t54.5 -8l-15 -63q-136 16 -351 19t-365 -17l14 64q73 1 112.5 16t84.5 57q31 28 76 208.5t81 361.5h-590q-8 -32 -17 -70.5t-24 -106.5t-25 -123.5t-20 -121t-9 -99t9 -57.5q17 -28 36.5 -41.5 t35 -16t46.5 -5.5t54 -9l-12 -63q-124 18 -353 20.5t-366 -16.5zM741 1497l314 340h182l162 -340h-113l-156 197l-280 -197h-109z" />
<glyph unicode="&#x125;" horiz-adv-x="1323" d="M86 0q25 61 137 504q38 139 99.5 446.5t54.5 380.5q0 20 -31.5 29.5t-77.5 7.5l17 66q30 -9 179 -10t224 18q-25 -58 -89 -341t-73 -339q20 36 61 79t100 85.5t140 66t162 13.5q49 -6 82 -23t55 -55t22.5 -97.5t-22 -153t-71.5 -218.5q-29 -73 -44 -132t-15.5 -94 t6.5 -58t18 -32t24 -8q30 0 63 24t59 58.5t43 61.5t24 43l53 -31q-174 -324 -412 -324q-105 0 -141 92q-35 95 86 496q24 76 35 133t11.5 87.5t-8.5 51t-18 27t-24 10.5q-32 9 -64 2.5t-63 -25.5t-59.5 -43.5t-52 -51.5t-41 -49.5t-27.5 -36.5l-10 -15q-12 -46 -23.5 -94 t-19.5 -83.5t-18.5 -88t-15 -77t-14.5 -83t-12 -72t-12.5 -78.5t-11.5 -71q-24 13 -138 13.5t-147 -11.5zM182 1499l312 342h182l162 -342h-111l-156 199l-282 -199h-107z" />
<glyph unicode="&#x126;" horiz-adv-x="1781" d="M14 0l15 61q68 1 102 15t96 59q10 8 22 34.5t25.5 72.5t25 88t26 106t22.5 100t21.5 98t15.5 73q1 5 11.5 55.5t25 122.5t24.5 135h-167l14 84h168q21 157 6 192q-11 27 -32 40.5t-39.5 15.5t-51 2t-47.5 2l12 61q64 -11 323.5 -12.5t401.5 12.5l-12 -65 q-116 -9 -138 -16q-28 -9 -59 -42q-31 -36 -77 -190h577q28 156 8 194q-13 26 -35 39.5t-40 15.5t-50 2.5t-47 2.5l13 59q62 -11 322 -12.5t405 12.5l-13 -57q-107 -10 -140.5 -20.5t-64.5 -49.5q-28 -33 -69 -186h225l-12 -84h-234q-19 -75 -44.5 -195.5t-26.5 -124.5 q-119 -510 -82 -565q17 -28 36.5 -42t34.5 -16.5t46.5 -5.5t54.5 -8l-15 -63q-136 16 -351 19t-365 -17l14 64q73 1 112.5 16t84.5 57q31 28 76 208.5t81 361.5h-590q-8 -32 -17 -70.5t-24 -106.5t-25 -123.5t-20 -121t-9 -99t9 -57.5q17 -28 36.5 -41.5t35 -16t46.5 -5.5 t54 -9l-12 -63q-124 18 -353 20.5t-366 -16.5zM680 807h592q19 92 41 213h-586q-12 -48 -47 -213z" />
<glyph unicode="&#x127;" horiz-adv-x="1323" d="M86 0q25 61 137 504q22 74 62.5 266t68.5 352h-133l15 70h131q13 104 10 139q0 20 -31.5 29.5t-77.5 7.5l17 66q30 -9 179 -10t224 18q-13 -35 -67 -250h188l-14 -70h-191q-61 -264 -78 -360q20 36 61 79t100 85.5t140 66t162 13.5q49 -6 82 -23t55 -55t22.5 -97.5 t-22 -153t-71.5 -218.5q-29 -73 -44 -132t-15.5 -94t6.5 -58t18 -32t24 -8q30 0 63 24t59 58.5t43 61.5t24 43l53 -31q-174 -324 -412 -324q-105 0 -141 92q-35 95 86 496q24 76 35 133t11.5 87.5t-8.5 51t-18 27t-24 10.5q-32 9 -64 2.5t-63 -25.5t-59.5 -43.5t-52 -51.5 t-41 -49.5t-27.5 -36.5l-10 -15q-12 -46 -23.5 -94t-19.5 -83.5t-18.5 -88t-15 -77t-14.5 -83t-12 -72t-12.5 -78.5t-11.5 -71q-24 13 -138 13.5t-147 -11.5z" />
<glyph unicode="&#x128;" horiz-adv-x="915" d="M14 0l15 61q68 1 102 15t96 59q49 39 158 578q1 7 11.5 54t22 101.5t25 126.5t21.5 129t10.5 108t-8.5 64q-13 25 -34.5 38.5t-39 15.5t-49.5 3t-47 3l14 63q62 -11 321 -12.5t402 12.5l-14 -61q-106 -10 -136.5 -19t-64.5 -45q-11 -13 -24 -45.5t-27 -80t-26.5 -95.5 t-26.5 -109.5t-23 -103t-20.5 -95t-14.5 -67.5q-119 -512 -84 -567q17 -28 36.5 -41.5t35 -16t46.5 -5.5t54 -9l-12 -63q-124 18 -353 20.5t-366 -16.5zM315 1493q1 30 14.5 68t39 78.5t72 68t104.5 27.5q57 0 153 -45q90 -48 144 -48q27 0 46.5 13.5t27 26t21.5 43.5 q2 3 3 5.5t2 4.5h84q-58 -244 -235 -244q-58 0 -158 47q-89 47 -148 47q-35 0 -58 -27t-34 -65h-78z" />
<glyph unicode="&#x129;" horiz-adv-x="833" d="M90 1110q1 30 14.5 69t39 79.5t71.5 68t104 27.5q62 0 154 -47q92 -45 143 -45q22 0 37.5 6t28 22t18 27t17.5 37h84q-12 -50 -30 -91t-45.5 -77.5t-68.5 -57t-92 -20.5q-53 0 -157 49q-89 47 -148 47q-35 0 -58 -28t-34 -66h-78zM162 90q-9 80 5.5 177.5t53.5 240.5 q8 30 21.5 75t22.5 76t20.5 71.5t16 62.5t8.5 49t-1 30q-17 41 -108 41l16 76q25 -6 176.5 -11t229.5 5q-86 -228 -181 -577q-15 -61 -22.5 -105.5t-8 -88t15.5 -65t48 -20.5q38 1 88.5 54.5t102.5 142.5l53 -25q-43 -83 -88 -145.5t-78.5 -94t-72 -52.5t-56.5 -26.5 t-43 -9.5q-21 -8 -56.5 -3.5t-69.5 14.5t-61 39t-32 69z" />
<glyph unicode="&#x12a;" horiz-adv-x="915" d="M14 0l15 61q68 1 102 15t96 59q49 39 158 578q1 7 11.5 54t22 101.5t25 126.5t21.5 129t10.5 108t-8.5 64q-13 25 -34.5 38.5t-39 15.5t-49.5 3t-47 3l14 63q62 -11 321 -12.5t402 12.5l-14 -61q-106 -10 -136.5 -19t-64.5 -45q-11 -13 -24 -45.5t-27 -80t-26.5 -95.5 t-26.5 -109.5t-23 -103t-20.5 -95t-14.5 -67.5q-119 -512 -84 -567q17 -28 36.5 -41.5t35 -16t46.5 -5.5t54 -9l-12 -63q-124 18 -353 20.5t-366 -16.5zM389 1497l27 119h596l-23 -119h-600z" />
<glyph unicode="&#x12b;" horiz-adv-x="747" d="M90 1108l25 117h600l-27 -117h-598zM125 90q-9 79 5.5 176t51.5 242q10 36 26.5 90.5t27.5 89.5t23 81t13.5 64t-0.5 39q-17 41 -108 41l14 76q29 -7 177.5 -11.5t228.5 5.5q-99 -272 -176 -577q-16 -62 -24 -106t-9 -87.5t15 -65t50 -20.5q35 1 86 55t101 142l55 -25 q-43 -83 -88.5 -145t-78.5 -94t-71 -53t-56.5 -26.5t-43.5 -9.5q-20 -8 -55.5 -3.5t-70 14.5t-62 39t-31.5 69z" />
<glyph unicode="&#x12c;" horiz-adv-x="915" d="M14 0l15 61q68 1 102 15t96 59q49 39 158 578q1 7 11.5 54t22 101.5t25 126.5t21.5 129t10.5 108t-8.5 64q-13 25 -34.5 38.5t-39 15.5t-49.5 3t-47 3l14 63q62 -11 321 -12.5t402 12.5l-14 -61q-106 -10 -136.5 -19t-64.5 -45q-11 -13 -24 -45.5t-27 -80t-26.5 -95.5 t-26.5 -109.5t-23 -103t-20.5 -95t-14.5 -67.5q-119 -512 -84 -567q17 -28 36.5 -41.5t35 -16t46.5 -5.5t54 -9l-12 -63q-124 18 -353 20.5t-366 -16.5zM483 1733l66 -2q9 -79 41.5 -107.5t99.5 -28.5q53 0 106.5 35.5t86.5 102.5h73q-12 -100 -99 -168t-189 -68 q-93 2 -149 72t-36 164z" />
<glyph unicode="&#x12d;" horiz-adv-x="808" d="M90 709l27 -54l45 33q94 70 139 70q23 0 23 -29q-4 -25 -17 -76l-121 -493q-12 -53 -12 -107q0 -88 62 -88q82 0 206 74q1 1 19.5 13.5t72 49t103.5 70.5l-25 57l-55 -34q-100 -62 -125 -62q-24 0 -24 27q0 34 41 186l110 402q19 71 19 137q0 76 -52 76q-99 0 -307 -156z M303 1339l66 -2q9 -81 41 -109t98 -28q55 0 108 35.5t86 103.5l11 1h22.5h23.5t17 -1q-12 -101 -99.5 -169t-189.5 -66q-94 2 -149.5 71t-34.5 164z" />
<glyph unicode="&#x12e;" horiz-adv-x="915" d="M14 0l15 61q68 1 102 15t96 59q49 39 158 578q1 7 11.5 54t22 101.5t25 126.5t21.5 129t10.5 108t-8.5 64q-13 25 -34.5 38.5t-39 15.5t-49.5 3t-47 3l14 63q62 -11 321 -12.5t402 12.5l-14 -61q-106 -10 -136.5 -19t-64.5 -45q-11 -13 -24 -45.5t-27 -80t-26.5 -95.5 t-26.5 -109.5t-23 -103t-20.5 -95t-14.5 -67.5q-119 -512 -84 -567q17 -28 36.5 -41.5t35 -16t46.5 -5.5t54 -9l-12 -63q-122 17 -309 20q-137 -140 -137 -241q0 -50 28 -79.5t78 -29.5q54 0 90 29q19 -5 19 -31q-68 -94 -178 -94q-80 0 -121 44.5t-41 106.5q0 135 186 295 q-206 3 -334 -16z" />
<glyph unicode="&#x12f;" horiz-adv-x="684" d="M94 90q-9 80 6 176.5t54 241.5q8 30 21.5 75t22.5 76t20.5 71.5t16 62.5t8.5 49t-1 30q-17 41 -109 41l17 76q25 -6 176 -11t229 5q-82 -218 -180 -577q-15 -61 -22.5 -105.5t-8 -88t15.5 -65t48 -20.5q37 1 87.5 54t102.5 143l53 -25q-128 -250 -276 -311 q-111 -121 -111 -213q0 -50 28.5 -79.5t78.5 -29.5q54 0 90 29q18 -5 18 -31q-68 -94 -178 -94q-80 0 -121 44.5t-41 106.5q0 115 131 246q-38 1 -73 11.5t-66 39.5t-37 72zM305 1298q14 62 66.5 106t113.5 44t96 -44t21 -106q-12 -62 -65.5 -106.5t-114.5 -44.5t-95 44.5 t-22 106.5z" />
<glyph unicode="&#x130;" horiz-adv-x="915" d="M14 0l15 61q68 1 102 15t96 59q49 39 158 578q1 7 11.5 54t22 101.5t25 126.5t21.5 129t10.5 108t-8.5 64q-13 25 -34.5 38.5t-39 15.5t-49.5 3t-47 3l14 63q62 -11 321 -12.5t402 12.5l-14 -61q-106 -10 -136.5 -19t-64.5 -45q-11 -13 -24 -45.5t-27 -80t-26.5 -95.5 t-26.5 -109.5t-23 -103t-20.5 -95t-14.5 -67.5q-119 -512 -84 -567q17 -28 36.5 -41.5t35 -16t46.5 -5.5t54 -9l-12 -63q-124 18 -353 20.5t-366 -16.5zM571 1602q3 57 54 102t108 45q44 0 76 -30t31 -72q-3 -55 -55 -102.5t-107 -47.5q-44 0 -76 30t-31 75z" />
<glyph unicode="&#x131;" horiz-adv-x="684" d="M94 90q-9 80 6 176.5t54 241.5q8 30 21.5 75t22.5 76t20.5 71.5t16 62.5t8.5 49t-1 30q-17 41 -109 41l17 76q25 -6 176 -11t229 5q-82 -218 -180 -577q-15 -61 -22.5 -105.5t-8 -88t15.5 -65t48 -20.5q37 1 87.5 54t102.5 143l53 -25q-43 -83 -88 -145.5t-78.5 -94 t-72 -52.5t-56.5 -26.5t-43 -9.5q-21 -8 -56.5 -3.5t-69.5 14.5t-61 39t-32 69z" />
<glyph unicode="&#x132;" horiz-adv-x="1882" d="M14 0l13 61q69 1 102 15t96 59q33 25 78.5 210t79.5 368q116 522 84 583q-13 25 -34.5 38.5t-39 15.5t-50.5 3t-48 3l14 63q62 -11 321 -12.5t402 12.5l-12 -61q-107 -9 -137 -18t-64 -46q-11 -13 -24.5 -45t-27.5 -80t-26.5 -96t-27 -110t-23.5 -103t-20.5 -95 t-14.5 -67q-119 -512 -84 -567q17 -28 37 -41.5t35 -16t46.5 -5.5t55.5 -9l-14 -63q-124 18 -352.5 20.5t-364.5 -16.5zM825 115q7 19 11 28t17 23.5t32 23.5q33 18 69.5 26.5t57.5 7l35 -2.5q-8 -24 -11.5 -48.5t-1 -53t25 -45t62.5 -13.5q86 8 115 138l111 495 q9 41 23 109.5t36 183.5t31.5 202.5t-0.5 106.5q-7 13 -17.5 23t-25 16t-26 10t-30 6t-27.5 3t-28 1.5t-22 0.5l14 63q16 -6 174 -11t213 -5q304 0 338 14l-12 -59q-42 -2 -65 -4t-66.5 -17.5t-71.5 -44.5q-11 -11 -25 -47t-29.5 -89t-30 -109t-29 -120t-24.5 -108.5 t-19 -86.5t-9 -44l-64 -299q-18 -85 -55 -154t-78 -111.5t-94 -73.5t-94.5 -45.5t-90.5 -23t-70 -9.5t-44 -1q-153 0 -180 43q-40 59 -25 101z" />
<glyph unicode="&#x133;" horiz-adv-x="1296" d="M94 90q-9 80 6 176.5t54 241.5q8 30 21.5 75t22.5 76t20.5 71.5t16 62.5t8.5 49t-1 30q-17 41 -109 41l17 76q25 -6 176 -11t229 5q-82 -218 -180 -577q-15 -61 -22.5 -105.5t-8 -88t15.5 -65t48 -20.5q37 1 87.5 54t102.5 143l53 -25q-43 -83 -88 -145.5t-78.5 -94 t-72 -52.5t-56.5 -26.5t-43 -9.5q-21 -8 -56.5 -3.5t-69.5 14.5t-61 39t-32 69zM214 -337q3 22 10 44t31 44t60 34q42 13 83.5 6.5t71.5 -28.5t30 -48q-14 -9 -23 -31t-2 -42q10 -32 64 -25q39 5 69.5 36t54 99.5t32 100.5t27.5 120q4 14 5 21q33 138 104.5 496.5 t67.5 386.5q-5 38 -90 38l14 66q31 -7 171 -8t220 18q-17 -59 -55 -238t-83 -398.5t-62 -297.5q-55 -258 -193.5 -392t-312.5 -134q-262 -7 -291 98q-6 12 -3 34zM305 1298q14 62 66.5 106t113.5 44t96 -44t21 -106q-12 -62 -65.5 -106.5t-114.5 -44.5t-95 44.5t-22 106.5z M969 1298q14 62 66.5 106t113.5 44q63 0 98 -44t21 -106q-12 -61 -65.5 -105t-115.5 -44q-63 0 -97.5 43.5t-20.5 105.5z" />
<glyph unicode="&#x134;" horiz-adv-x="997" d="M-61 115q16 42 33 57q11 10 26 18q33 18 69.5 26.5t57.5 7l35 -2.5q-8 -23 -11.5 -48t-0.5 -53.5t25.5 -45t62.5 -13.5q85 8 114 138l111 495q9 41 23 109.5t36 183.5t31.5 202.5t-0.5 106.5q-7 13 -17.5 23t-25 16t-26 10t-30 6t-27.5 3t-28 1.5t-22 0.5l14 63 q16 -6 174 -11t213 -5q304 0 338 14l-12 -59q-42 -2 -65 -4t-66.5 -17.5t-71.5 -44.5q-11 -11 -25 -47t-29.5 -89t-30 -109t-29 -120t-24.5 -108.5t-19 -86.5t-9 -44l-63 -299q-18 -85 -55 -154t-78 -111.5t-94.5 -73.5t-95 -45.5t-90.5 -23t-70 -9.5t-44 -1q-153 0 -180 43 q-39 58 -24 101zM424 1503l313 342h183l159 -342h-110l-156 199l-281 -199h-108z" />
<glyph unicode="&#x135;" horiz-adv-x="917" d="M-245.5 -337q2.5 22 9.5 44t31 44t60 34q42 13 83 6.5t71 -28.5t30 -48q-13 -9 -22.5 -31t-2.5 -42q10 -32 64 -25q39 5 69 35.5t53 94t33 100t28 117.5q5 20 7 30q32 135 103 495t67 388q-5 38 -90 38l14 66q31 -7 171.5 -8t220.5 18q-17 -60 -55.5 -238.5t-83.5 -399 t-62 -296.5q-55 -259 -193 -392.5t-313 -133.5q-262 -7 -289 98q-6 12 -3.5 34zM238 1108l313 340h182l160 -340h-111l-155 197l-281 -197h-108z" />
<glyph unicode="&#x136;" horiz-adv-x="1835" d="M8 0l12 57q114 3 203 80q18 18 44.5 103.5t46.5 171.5t40 180.5t21 97.5q23 104 64 336t30 266q-7 17 -20 28.5t-26.5 17.5t-33.5 9.5t-33 4t-33.5 0.5h-27.5l14 67q15 -6 173.5 -10t224.5 -4q57 0 181.5 4t143.5 10l-14 -61q-27 -1 -36 -1.5t-39.5 -4.5t-49 -10t-43 -19 t-41.5 -31q-38 -40 -156 -616q532 393 713 565q34 34 38 55t-15 33q-31 25 -160 25l12 63q244 -12 363 -12q220 0 340 12l-13 -65q-10 -1 -43 -3t-45.5 -4t-45.5 -9t-61 -20.5t-72.5 -34.5t-99.5 -55t-124 -79q-37 -24 -124.5 -90.5t-156.5 -120.5l-69 -55q16 -27 73.5 -123 t110.5 -184.5t112 -185t100.5 -160.5t53.5 -76q76 -71 191 -91l-13 -61q-31 10 -372 10q-375 0 -404 -8l14 64q7 0 32 0.5t40 1t38.5 3.5t37.5 9t26 18t15 29q5 32 -119.5 254.5t-187.5 318.5l-209 -149q-19 -95 -38.5 -193t-31 -158t-12.5 -63q23 -39 75 -58.5t115 -21.5 l-14 -61q-16 8 -162 13t-203 5q-47 0 -189 -4.5t-161 -9.5zM623 -532l2 38q171 24 192 123q3 14 -6 22.5t-27 8.5q-123 6 -102 119q11 46 51 80q42 28 90 28q66 0 90 -43q30 -49 19 -114q-28 -128 -98.5 -193t-210.5 -69z" />
<glyph unicode="&#x137;" horiz-adv-x="1218" d="M37 2q65 201 133 504q38 169 97.5 479t51.5 338q-9 35 -106 39l14 72q26 -3 99.5 -5t169.5 1t139 14q-34 -91 -126.5 -480t-105.5 -464q90 39 153.5 69.5t161 94t161.5 131.5q24 25 32 50t1.5 43t-16 32.5t-18.5 21.5l-10 8q73 45 203 45q11 0 26 -2t37 -9.5t38 -19.5 t24.5 -35.5t1.5 -54.5q-9 -43 -54.5 -86t-113 -77.5t-125.5 -59.5t-120.5 -47t-67.5 -24q55 -142 104 -234q44 -84 77 -117t67 -30q22 2 39.5 14t29.5 33.5t17 33t12 33.5l57 -26q-41 -153 -119.5 -234.5t-152.5 -81.5q-170 0 -273 224l-116 268l-72 -31q-35 -176 -68 -430 q-38 9 -143 9t-139 -9zM289 -516q171 27 192 123q6 28 -30 31q-126 3 -105 116q13 55 51 80q42 31 92 31q65 0 89 -41q31 -54 18 -117q-28 -127 -98.5 -192.5t-208.5 -69.5v39z" />
<glyph unicode="&#x139;" horiz-adv-x="1415" d="M8 0l12 66q132 3 205 69q18 18 44.5 104t46.5 172.5t40 181t21 97.5q10 45 23.5 111t36 183.5t32.5 205t0 106.5q-10 18 -26 29.5t-38 17t-38 7.5t-41.5 2.5t-32.5 1.5l14 65q15 -6 163.5 -11t203.5 -5q53 0 204.5 5t168.5 11l-15 -63q-1 0 -19.5 -0.5t-24 -1t-24 -2.5 t-28 -4.5t-26.5 -7t-28.5 -10.5t-25.5 -15.5t-25 -20.5q-32 -34 -88 -267t-75 -337q-5 -22 -37.5 -173t-61.5 -290.5t-28 -134.5q7 -1 41 -1t90 1.5t98 3.5q163 12 219 23q201 40 290 188q22 36 38 80l74 2l-125 -389h-1258zM629 1497l147 303q34 78 98 78q39 0 72 -20 t33 -56q0 -12 -3 -23t-6.5 -19t-12.5 -18.5t-13.5 -15.5t-16.5 -16.5t-16 -15.5l-194 -197h-88z" />
<glyph unicode="&#x13a;" horiz-adv-x="790" d="M63 119q13 121 129.5 632.5t108.5 596.5q-1 22 -21 29t-61 7l12 60q31 -8 164.5 -9t210.5 17q-33 -92 -154.5 -609t-132.5 -587q-16 -83 -12 -112t51 -33q37 -4 79 38.5t102 133.5l47 -31q-77 -136 -165 -210t-208 -73q-76 2 -116 41t-34 109zM416 1497l149 301 q34 78 99 78q39 0 70.5 -19.5t31.5 -56.5q0 -14 -3 -26t-12 -24.5t-14 -18.5t-19 -20.5t-18 -18.5l-194 -195h-90z" />
<glyph unicode="&#x13b;" horiz-adv-x="1415" d="M8 0l12 66q132 3 205 69q18 18 44.5 104t46.5 172.5t40 181t21 97.5q10 45 23.5 111t36 183.5t32.5 205t0 106.5q-10 18 -26 29.5t-38 17t-38 7.5t-41.5 2.5t-32.5 1.5l14 65q15 -6 163.5 -11t203.5 -5q53 0 204.5 5t168.5 11l-15 -63q-1 0 -19.5 -0.5t-24 -1t-24 -2.5 t-28 -4.5t-26.5 -7t-28.5 -10.5t-25.5 -15.5t-25 -20.5q-32 -34 -88 -267t-75 -337q-5 -22 -37.5 -173t-61.5 -290.5t-28 -134.5q7 -1 41 -1t90 1.5t98 3.5q163 12 219 23q201 40 290 188q22 36 38 80l74 2l-125 -389h-1258zM487 -494q175 24 193 123q7 31 -31 31 q-127 6 -100 119q8 45 49 80q45 28 90 28q63 0 90 -43q30 -54 17 -114q-26 -127 -97.5 -192.5t-210.5 -69.5v38z" />
<glyph unicode="&#x13c;" horiz-adv-x="724" d="M61 -553q172 27 193 123q6 31 -31 31q-125 6 -104 118q12 50 53 80q36 29 90 29q66 0 88 -43q32 -52 19 -115q-28 -127 -98.5 -192.5t-209.5 -69.5v39zM158 119q13 121 129 632.5t108 596.5q-1 22 -21 29t-61 7l13 60q31 -8 164 -9t210 17q-33 -92 -153.5 -608.5 t-132.5 -587.5q-16 -83 -12 -112t51 -33q37 -4 78.5 38t101.5 134l47 -31q-77 -136 -165 -210t-208 -73q-76 2 -115.5 41t-33.5 109z" />
<glyph unicode="&#x13d;" horiz-adv-x="1531" d="M8 0l12 66q132 3 205 69q18 18 44.5 104t46.5 172.5t40 181t21 97.5q10 45 23.5 111t36 183.5t32.5 205t0 106.5q-10 18 -26 29.5t-38 17t-38 7.5t-41.5 2.5t-32.5 1.5l14 65q15 -6 163.5 -11t203.5 -5q53 0 204.5 5t168.5 11l-15 -63q-1 0 -19.5 -0.5t-24 -1t-24 -2.5 t-28 -4.5t-26.5 -7t-28.5 -10.5t-25.5 -15.5t-25 -20.5q-32 -34 -88 -267t-75 -337q-5 -22 -37.5 -173t-61.5 -290.5t-28 -134.5q7 -1 41 -1t90 1.5t98 3.5q163 12 219 23q201 40 290 188q22 36 38 80l74 2l-125 -389h-1258zM1219 995q95 54 141.5 95t64.5 92q12 36 -28 45 q-9 4 -33.5 0.5t-44.5 1.5q-56 22 -33 112q13 52 55.5 81.5t88.5 29.5q71 0 105.5 -49.5t16.5 -136.5q-24 -114 -99.5 -188.5t-209.5 -143.5z" />
<glyph unicode="&#x13e;" horiz-adv-x="972" d="M63 119q13 121 129.5 632.5t108.5 596.5q-1 22 -21 29t-61 7l12 60q31 -8 164.5 -9t210.5 17q-33 -92 -154.5 -609t-132.5 -587q-16 -83 -12 -112t51 -33q37 -4 79 38.5t102 133.5l47 -31q-77 -136 -165 -210t-208 -73q-76 2 -116 41t-34 109zM682 991q94 52 141.5 93.5 t65.5 91.5q11 34 -29 47q-8 2 -33.5 -1.5t-44.5 3.5q-28 10 -36 33.5t4 78.5q13 51 55.5 80t87.5 29q71 0 106 -48.5t17 -135.5q-24 -115 -99.5 -190t-209.5 -144z" />
<glyph unicode="&#x13f;" horiz-adv-x="1466" d="M8 0l12 66q132 3 205 69q18 18 44.5 104t46.5 172.5t40 181t21 97.5q10 45 23.5 111t36 183.5t32.5 205t0 106.5q-10 18 -26 29.5t-38 17t-38 7.5t-41.5 2.5t-32.5 1.5l14 65q15 -6 163.5 -11t203.5 -5q53 0 204.5 5t168.5 11l-15 -63q-1 0 -19.5 -0.5t-24 -1t-24 -2.5 t-28 -4.5t-26.5 -7t-28.5 -10.5t-25.5 -15.5t-25 -20.5q-32 -34 -88 -267t-75 -337q-5 -22 -37.5 -173t-61.5 -290.5t-28 -134.5q7 -1 41 -1t90 1.5t98 3.5q163 12 219 23q201 40 290 188q22 36 38 80l74 2l-125 -389h-1258zM1171 967q3 57 54 102t108 45q44 0 76 -30 t31 -72q-3 -55 -55 -101.5t-107 -46.5q-44 0 -76 30t-31 73z" />
<glyph unicode="&#x140;" horiz-adv-x="829" d="M63 119q13 121 129.5 632.5t108.5 596.5q-1 22 -21 29t-61 7l12 60q31 -8 164.5 -9t210.5 17q-33 -92 -154.5 -609t-132.5 -587q-16 -83 -12 -112t51 -33q37 -4 79 38.5t102 133.5l47 -31q-77 -136 -165 -210t-208 -73q-76 2 -116 41t-34 109zM600 885q3 57 54 102 t108 45q43 0 75 -30t31 -72q-3 -55 -54.5 -102.5t-106.5 -47.5q-44 0 -76 30t-31 75z" />
<glyph unicode="&#x141;" horiz-adv-x="1415" d="M8 0l12 66q132 3 205 69q42 40 144 512l-207 -43v94l227 50q37 169 66.5 344t13.5 204q-10 18 -26 29.5t-38 17t-38 7.5t-41.5 2.5t-32.5 1.5l14 65q15 -6 163.5 -11t203.5 -5q53 0 204.5 5t168.5 11l-15 -63q-1 0 -19.5 -0.5t-24 -1t-24 -2.5t-28 -4.5t-26.5 -7 t-28.5 -10.5t-25.5 -15.5t-25 -20.5q-41 -41 -139 -485l361 76v-92l-381 -80l-131 -621q7 -1 41 -1t90 1.5t98 3.5q163 12 219 23q201 40 290 188q22 36 38 80l74 2l-125 -389h-1258z" />
<glyph unicode="&#x142;" horiz-adv-x="790" d="M29 575v99l223 47q95 428 110 537q8 61 5 90q-1 22 -21 29t-61 7l12 60q31 -8 164.5 -9t210.5 17q-29 -81 -170 -674l264 58v-99l-289 -61q-18 -82 -42.5 -191.5t-36 -163.5t-13.5 -65q-16 -83 -12 -112t51 -33q37 -4 78.5 38t101.5 134l47 -31q-78 -137 -165 -210.5 t-207 -72.5q-76 2 -116 41t-34 109q15 139 100 499z" />
<glyph unicode="&#x143;" horiz-adv-x="1763" d="M-6 0l14 66q2 1 16 0t40.5 2t52.5 7t51.5 15.5t38.5 28.5q7 8 17.5 36t22 71t23 87t23.5 98t20.5 90.5t17 77t9.5 44.5q8 29 62.5 311.5t58.5 320.5q-8 68 -53 86q-11 3 -43.5 6.5t-60 5.5t-28.5 3l13 63h469q56 -111 157 -279.5t252 -408t176 -280.5q10 37 40.5 175 t37.5 175q25 117 57.5 298t24.5 208q-7 30 -52 43.5t-87 11.5l-41 -2q8 41 12 59q0 -1 18.5 -1t50 -0.5t72 -0.5h85.5t90 0.5t86 0.5t72.5 0.5t50.5 0.5h20q1 0 -2 -14.5t-6 -29.5l-4 -15q-130 0 -174 -35q-17 -15 -30 -38.5t-19 -41.5t-17.5 -63.5t-17.5 -67.5 q-37 -142 -74 -321q-169 -792 -172 -811h-21.5t-41.5 -0.5t-46.5 -0.5t-17.5 1q-494 816 -682 1126q-71 -358 -96 -475q-40 -172 -62 -324q-4 -22 -12.5 -66.5t-11.5 -64.5t-1 -44.5t13 -39.5q27 -38 160 -35l-2.5 -10t-4.5 -19t-5 -21.5t-1 -8.5t-29 0t-77 -0.5t-105 -1 t-115 -0.5h-105t-77.5 0.5t-29.5 1.5zM965 1497l147 303q38 78 100 78q38 0 70.5 -20t32.5 -56q0 -14 -3 -26t-12 -24.5t-14 -18.5t-19 -20.5t-18 -18.5l-194 -197h-90z" />
<glyph unicode="&#x144;" horiz-adv-x="1275" d="M41 2q14 33 63.5 213.5t73.5 288.5q28 123 46 232t12 138q-8 39 -109 39l12 66q19 -4 96.5 -8t174 -0.5t137.5 18.5q-52 -122 -68 -227q20 36 61.5 79t101 85.5t140.5 66t162 13.5q49 -5 82 -22t54.5 -55t22 -97.5t-22.5 -153.5t-72 -219q-29 -73 -43.5 -132t-15.5 -94 t6 -58t18 -32t24 -8q31 0 64.5 24t59.5 58.5t43 62.5t24 44l51 -33q-172 -324 -410 -324q-105 0 -141 92q-37 99 86 496q24 77 35 134t11 87.5t-9 51t-18 27t-23 11.5q-42 13 -90 -5t-87 -52.5t-71.5 -71t-50.5 -63.5l-18 -27q-19 -72 -34.5 -140t-30.5 -147t-22 -117.5 t-23 -133t-19 -111.5q-24 13 -138 14t-145 -10zM670 1110l147 303q36 78 96 78q40 0 73.5 -20.5t33.5 -55.5q0 -14 -3 -26t-12 -24.5t-14 -19t-20 -21t-19 -19.5l-194 -195h-88z" />
<glyph unicode="&#x145;" horiz-adv-x="1763" d="M-6 0l14 66q2 1 16 0t40.5 2t52.5 7t51.5 15.5t38.5 28.5q7 8 17.5 36t22 71t23 87t23.5 98t20.5 90.5t17 77t9.5 44.5q8 29 62.5 311.5t58.5 320.5q-8 68 -53 86q-11 3 -43.5 6.5t-60 5.5t-28.5 3l13 63h469q56 -111 157 -279.5t252 -408t176 -280.5q10 37 40.5 175 t37.5 175q25 117 57.5 298t24.5 208q-7 30 -52 43.5t-87 11.5l-41 -2q8 41 12 59q0 -1 18.5 -1t50 -0.5t72 -0.5h85.5t90 0.5t86 0.5t72.5 0.5t50.5 0.5h20q1 0 -2 -14.5t-6 -29.5l-4 -15q-130 0 -174 -35q-17 -15 -30 -38.5t-19 -41.5t-17.5 -63.5t-17.5 -67.5 q-37 -142 -74 -321q-169 -792 -172 -811h-21.5t-41.5 -0.5t-46.5 -0.5t-17.5 1q-494 816 -682 1126q-71 -358 -96 -475q-40 -172 -62 -324q-4 -22 -12.5 -66.5t-11.5 -64.5t-1 -44.5t13 -39.5q27 -38 160 -35l-2.5 -10t-4.5 -19t-5 -21.5t-1 -8.5t-29 0t-77 -0.5t-105 -1 t-115 -0.5h-105t-77.5 0.5t-29.5 1.5zM643 -494q175 24 193 123q3 14 -5 22.5t-26 8.5q-127 6 -103 119q8 42 52 80q42 28 90 28q63 0 90 -43q29 -53 16 -114q-28 -128 -98 -193t-209 -69v38z" />
<glyph unicode="&#x146;" horiz-adv-x="1206" d="M41 0q15 32 64.5 212t74.5 292q27 111 44.5 225.5t11.5 144.5q-5 39 -109 39l16 66q31 -9 179 -10.5t225 18.5q-49 -112 -66 -225q20 36 61 79t100 85.5t140 66t162 13.5q49 -6 82 -23t55 -55t22.5 -97.5t-22 -153t-71.5 -218.5q-29 -73 -43.5 -132t-15 -94t7 -58 t18.5 -32t24 -8q30 0 62.5 23.5t59 59.5t42 60.5t25.5 43.5l53 -31q-175 -324 -414 -324q-103 0 -139 92q-40 100 86 496q24 76 34.5 132.5t11 87.5t-8 51t-18 27t-23.5 11q-42 13 -90 -4.5t-87 -52.5t-71.5 -71.5t-50.5 -63.5l-18 -27q-64 -243 -129 -647 q-24 13 -138.5 13.5t-146.5 -11.5zM313 -543q175 24 193 123q6 28 -31 31q-63 1 -88.5 31t-11.5 86q9 50 51 79q46 31 90 31q61 0 88 -43q32 -52 19 -114q-28 -128 -99.5 -193.5t-210.5 -69.5v39z" />
<glyph unicode="&#x147;" horiz-adv-x="1769" d="M-6 0l14 66q2 1 16 0t40.5 2t52.5 7t51.5 15.5t38.5 28.5q7 8 17.5 36t22 71t23 87t23.5 98t20.5 90.5t17 77t9.5 44.5q8 29 62.5 311.5t58.5 320.5q-8 68 -53 86q-11 3 -43.5 6.5t-60 5.5t-28.5 3l13 63h469q56 -111 157 -279.5t252 -408t176 -280.5q10 37 40.5 175 t37.5 175q25 117 57.5 298t24.5 208q-7 30 -52 43.5t-87 11.5l-41 -2q8 41 12 59q0 -1 18.5 -1t50 -0.5t72 -0.5h85.5t90 0.5t86 0.5t72.5 0.5t50.5 0.5h20q1 0 -2 -14.5t-6 -29.5l-4 -15q-130 0 -174 -35q-17 -15 -30 -38.5t-19 -41.5t-17.5 -63.5t-17.5 -67.5 q-37 -142 -74 -321q-169 -792 -172 -811h-21.5t-41.5 -0.5t-46.5 -0.5t-17.5 1q-494 816 -682 1126q-71 -358 -96 -475q-40 -172 -62 -324q-4 -22 -12.5 -66.5t-11.5 -64.5t-1 -44.5t13 -39.5q27 -38 160 -35l-2.5 -10t-4.5 -19t-5 -21.5t-1 -8.5t-29 0t-77 -0.5t-105 -1 t-115 -0.5h-105t-77.5 0.5t-29.5 1.5zM776 1837q11 0 33 -0.5t39 -0.5l18 -1l197 -197l252 199h117l-308 -340h-182z" />
<glyph unicode="&#x148;" horiz-adv-x="1206" d="M41 0q15 32 64.5 212t74.5 292q27 111 44.5 225.5t11.5 144.5q-5 39 -109 39l16 66q31 -9 179 -10.5t225 18.5q-49 -112 -66 -225q20 36 61 79t100 85.5t140 66t162 13.5q49 -6 82 -23t55 -55t22.5 -97.5t-22 -153t-71.5 -218.5q-29 -73 -43.5 -132t-15 -94t7 -58 t18.5 -32t24 -8q30 0 62.5 23.5t59 59.5t42 60.5t25.5 43.5l53 -31q-175 -324 -414 -324q-103 0 -139 92q-40 100 86 496q24 76 34.5 132.5t11 87.5t-8 51t-18 27t-23.5 11q-42 13 -90 -4.5t-87 -52.5t-71.5 -71.5t-50.5 -63.5l-18 -27q-64 -243 -129 -647 q-24 13 -138.5 13.5t-146.5 -11.5zM399 1452q12 0 34.5 -0.5t40.5 -1.5h18l196 -197l250 199h117l-307 -342h-181z" />
<glyph unicode="&#x149;" horiz-adv-x="1206" d="M41 0q15 32 64.5 212t74.5 292q27 111 44.5 225.5t11.5 144.5q-5 39 -107 39l14 66q33 -9 180 -10.5t224 18.5q-50 -122 -66 -225q21 37 62 79.5t100 85t139.5 66t161.5 13.5q49 -6 82 -23t55 -55t23 -97.5t-21 -153t-71 -218.5q-30 -73 -44.5 -132t-15.5 -94t6.5 -58 t18.5 -32t24 -8q30 0 62.5 23.5t59 59.5t42 60.5t25.5 43.5l53 -31q-175 -324 -414 -324q-103 0 -139 92q-38 96 86 496q24 76 34.5 132.5t11 87.5t-8 51t-18 27t-23.5 11q-42 13 -90 -4.5t-87 -52.5t-71.5 -71.5t-50.5 -63.5l-18 -27q-64 -243 -129 -647 q-23 13 -137.5 13.5t-147.5 -11.5zM274 1169q96 52 144.5 93.5t66.5 91.5q9 28 -19 43q-2 1 -6 2l-3 2q-9 2 -35.5 -2t-42.5 4q-57 20 -33 113q13 51 54.5 79.5t88.5 28.5q71 0 106 -48.5t17 -135.5q-24 -115 -100 -189.5t-209 -142.5z" />
<glyph unicode="&#x14a;" horiz-adv-x="1769" d="M-6 0l12 66q2 1 16.5 0t41 2t52.5 7t52 15.5t39 28.5q31 34 135 504q118 607 121 632q4 31 -13.5 53.5t-39.5 32.5q-12 3 -45 6.5t-60.5 5.5t-28.5 3l15 63h469q56 -111 154 -275t256 -416.5t173 -276.5q11 34 45.5 191t34.5 159q2 8 14 72t23 124.5t23 130t17.5 118.5 t2.5 61q-7 30 -52 43.5t-87 11.5l-41 -2q8 41 12 59q0 -1 18 -1t49.5 -0.5t72.5 -0.5h86t90 0.5t86.5 0.5t72.5 0.5t50 0.5h20q2 0 -1 -14.5t-7 -29.5l-4 -15q-131 0 -172 -35q-14 -12 -24.5 -26.5t-19 -38t-13 -38.5t-13.5 -52.5t-14 -55.5q-37 -142 -74 -321 q-8 -37 -50 -236t-78.5 -372t-43.5 -203q-3 -10 -14 -53t-19 -71.5t-26 -75t-37 -79t-50 -66t-67 -53.5q-31 -18 -80 -29t-100 -8.5t-76 25.5q-59 60 -52 123t47.5 113t82.5 57l7 -23q6 -23 20.5 -52t31.5 -40q40 -24 76 -11t62.5 43t33.5 62q31 131 31 138 q-494 816 -680 1126q-73 -358 -98 -475q-56 -284 -62 -324q-3 -16 -10.5 -54.5t-10 -53.5t-4.5 -40t1.5 -40t11.5 -27q30 -38 160 -35l-2.5 -10t-4.5 -19t-5 -21.5t-1 -8.5t-18 0t-49.5 -0.5t-71.5 -0.5t-85.5 -0.5t-89.5 -0.5h-85t-71.5 0.5t-49.5 0.5t-18 1z" />
<glyph unicode="&#x14b;" horiz-adv-x="1069" d="M41 0q15 32 64.5 212t74.5 292q27 111 44.5 225.5t11.5 144.5q-5 39 -109 39l16 66q31 -9 179 -10.5t225 18.5q-49 -112 -66 -225q20 36 61 79t100 85.5t140 66t162 13.5q50 -6 80.5 -19t53.5 -45.5t26.5 -89t-9 -148t-44.5 -223.5q-14 -58 -45 -198.5t-57 -238.5 t-60 -189q-60 -163 -166 -243.5t-295 -80.5q-262 -7 -291 98q-6 12 -3 34t10.5 44t31.5 44t60 34q42 13 83.5 6.5t71.5 -28.5t29 -48q-13 -8 -22 -30t-5 -43q10 -32 68 -25q21 3 40 15.5t33 29.5t27.5 43.5t22.5 51t19 59.5t16 60t14.5 61.5t13.5 56.5t53 244.5t76 316.5 q29 98 38.5 158.5t0 98.5t-42.5 52q-31 12 -63 6.5t-63 -24t-59.5 -43.5t-52.5 -53t-41.5 -51.5t-27.5 -38.5l-10 -15q-64 -243 -129 -647q-24 13 -138.5 13.5t-146.5 -11.5z" />
<glyph unicode="&#x14c;" horiz-adv-x="1687" d="M151.5 381.5q-27.5 131.5 8.5 298.5q32 150 96 275.5t149.5 215.5t191.5 152.5t224 92.5t244 30q98 1 184 -17.5t162 -58t129.5 -101t87 -146.5t34 -195.5t-29.5 -247.5q-49 -206 -180 -367.5t-315 -250.5t-387 -89q-161 0 -287 47.5t-205 138.5t-106.5 222.5zM483 495.5 q-3 -93.5 14 -172t51.5 -136.5t91.5 -90t130 -31q113 1 220.5 91t185.5 234t116 314q21 95 28 185t-4 175.5t-41 149t-89 103t-142 40.5q-74 1 -138.5 -20t-113 -57t-90 -90t-70 -110t-53.5 -127.5t-40.5 -131.5t-30.5 -132q-22 -101 -25 -194.5zM739 1497l25 119h598 l-25 -119h-598z" />
<glyph unicode="&#x14d;" horiz-adv-x="1241" d="M94 266.5q-18 101.5 10 237.5q48 222 222 361.5t417 142.5q111 2 199.5 -31.5t147 -100t77.5 -166.5t-8 -231q-51 -239 -226 -379t-421 -139q-111 1 -197.5 35t-144.5 101.5t-76 169zM380.5 291.5q-1.5 -78.5 14.5 -139t53.5 -94.5t94.5 -33q32 1 69 20t79.5 60 t82.5 123.5t66 193.5q24 109 32.5 199.5t0 166t-44.5 118t-97 42.5q-98 0 -190 -125t-140 -362q-19 -91 -20.5 -169.5zM428 1108l27 119h596l-23 -119h-600z" />
<glyph unicode="&#x14e;" horiz-adv-x="1687" d="M151.5 381.5q-27.5 131.5 8.5 298.5q32 150 96 275.5t149.5 215.5t191.5 152.5t224 92.5t244 30q98 1 184 -17.5t162 -58t129.5 -101t87 -146.5t34 -195.5t-29.5 -247.5q-49 -206 -180 -367.5t-315 -250.5t-387 -89q-161 0 -287 47.5t-205 138.5t-106.5 222.5zM483 495.5 q-3 -93.5 14 -172t51.5 -136.5t91.5 -90t130 -31q113 1 220.5 91t185.5 234t116 314q21 95 28 185t-4 175.5t-41 149t-89 103t-142 40.5q-74 1 -138.5 -20t-113 -57t-90 -90t-70 -110t-53.5 -127.5t-40.5 -131.5t-30.5 -132q-22 -101 -25 -194.5zM940 1733l66 -2 q9 -80 40.5 -108t98.5 -28q54 0 107 35.5t85 102.5q1 0 12 0.5t22.5 0.5h23.5t16 -1q-10 -99 -98 -167.5t-189 -68.5q-93 2 -149 72t-35 164z" />
<glyph unicode="&#x14f;" horiz-adv-x="1241" d="M94 266.5q-18 101.5 10 237.5q48 222 222 361.5t417 142.5q111 2 199.5 -31.5t147 -100t77.5 -166.5t-8 -231q-51 -239 -226 -379t-421 -139q-111 1 -197.5 35t-144.5 101.5t-76 169zM380.5 291.5q-1.5 -78.5 14.5 -139t53.5 -94.5t94.5 -33q32 1 69 20t79.5 60 t82.5 123.5t66 193.5q24 109 32.5 199.5t0 166t-44.5 118t-97 42.5q-98 0 -190 -125t-140 -362q-19 -91 -20.5 -169.5zM584 1341h65q9 -81 42 -109t100 -28q53 0 106 35t86 102h74q-12 -100 -99.5 -167.5t-189.5 -65.5q-92 0 -148 69.5t-36 163.5z" />
<glyph unicode="&#x150;" horiz-adv-x="1687" d="M151.5 381.5q-27.5 131.5 8.5 298.5q32 150 96 275.5t149.5 215.5t191.5 152.5t224 92.5t244 30q98 1 184 -17.5t162 -58t129.5 -101t87 -146.5t34 -195.5t-29.5 -247.5q-49 -206 -180 -367.5t-315 -250.5t-387 -89q-161 0 -287 47.5t-205 138.5t-106.5 222.5zM483 495.5 q-3 -93.5 14 -172t51.5 -136.5t91.5 -90t130 -31q113 1 220.5 91t185.5 234t116 314q21 95 28 185t-4 175.5t-41 149t-89 103t-142 40.5q-74 1 -138.5 -20t-113 -57t-90 -90t-70 -110t-53.5 -127.5t-40.5 -131.5t-30.5 -132q-22 -101 -25 -194.5zM850 1497l147 303 q18 35 39 54t44 21.5t38.5 -0.5t36.5 -11q30 -11 39.5 -36t2 -51.5t-25.5 -45.5l-231 -234h-90zM1137 1497l149 303q17 35 38 54t44 21.5t39 -0.5t37 -11q44 -16 44 -59t-30 -74l-231 -234h-90z" />
<glyph unicode="&#x151;" horiz-adv-x="1241" d="M94 266.5q-18 101.5 10 237.5q48 222 222 361.5t417 142.5q111 2 199.5 -31.5t147 -100t77.5 -166.5t-8 -231q-51 -239 -226 -379t-421 -139q-111 1 -197.5 35t-144.5 101.5t-76 169zM380.5 291.5q-1.5 -78.5 14.5 -139t53.5 -94.5t94.5 -33q32 1 69 20t79.5 60 t82.5 123.5t66 193.5q24 109 32.5 199.5t0 166t-44.5 118t-97 42.5q-98 0 -190 -125t-140 -362q-19 -91 -20.5 -169.5zM530 1108l148 303q17 35 38 54t44 21.5t39 -0.5t37 -11q44 -16 44 -59.5t-30 -74.5l-232 -233h-88zM817 1108l148 303q18 35 39 54t43.5 21.5t38 -0.5 t36.5 -11q31 -11 41 -36.5t2 -52t-26 -45.5l-232 -233h-90z" />
<glyph unicode="&#x152;" horiz-adv-x="2285" d="M151.5 386q-27.5 132 8.5 296q39 184 126 330t205 238t259.5 138t293.5 39q456 -15 1225 -10q-10 -46 -16 -81.5t-8.5 -60t-8 -82t-12.5 -116.5h-72q-8 51 -19.5 88.5t-22 58t-26 35t-26 19t-27 11t-24.5 11.5l-27 6q-27 5 -48 6.5t-70 5.5t-130.5 5.5t-193.5 1.5 q-54 -253 -111 -528q353 0 383 28q65 59 91 101t41 90h71q1 -1 -7.5 -34.5t-25.5 -100t-30 -117.5q-15 -60 -27.5 -130t-18.5 -114l-6 -43q-6 -2 -25.5 -2t-35.5 1l-16 1q1 7 4.5 32t3 39t-3.5 37t-16.5 44t-36.5 41q-16 15 -108 21.5t-176 5.5l-83 -1q-27 -130 -60 -282.5 t-51 -235.5t-18 -84q110 0 197.5 3.5t148 11t91 12t69.5 13.5l39 9q5 3 30.5 14t37.5 17.5t37.5 26t43 41.5t40.5 60t44 87l72 -2q-22 -68 -49.5 -149.5t-41.5 -128t-28 -109.5q-861 5 -1270 -14q-158 -7 -282 39.5t-200 137.5t-103.5 223zM476.5 455.5 q5.5 -111.5 35 -195.5t94 -133.5t154.5 -48.5q49 1 75.5 3.5t63 15.5t64.5 38q47 47 151 555q0 1 21.5 103.5t40 198t30 190.5t0.5 114q-11 18 -27 29.5t-39.5 16t-38.5 6.5t-42.5 2h-32.5q-72 1 -135 -20t-110 -56t-88 -89.5t-69 -109t-53 -126t-40.5 -130t-30.5 -129.5 q-29 -123 -23.5 -234.5z" />
<glyph unicode="&#x153;" horiz-adv-x="1882" d="M93.5 266.5q-17.5 101.5 10.5 237.5q46 222 220 361.5t415 142.5q235 3 355 -138q178 134 389 131q63 -1 116 -14t100 -43.5t74 -79.5t38 -121.5t-9 -169.5h-661q-15 -79 -15.5 -145t10.5 -111.5t32 -80.5t46.5 -55.5t57 -33.5t59.5 -17.5t58 -4.5q159 0 335 213l52 -43 q-78 -96 -134.5 -152t-129.5 -99t-157.5 -58.5t-203.5 -14.5q-84 0 -152.5 33.5t-89.5 87.5q-178 -131 -399 -131q-111 1 -197.5 35t-144 101.5t-75 169zM379 291q-1 -79 15 -139t53.5 -94t93.5 -33q26 1 54 11.5t63 39t66.5 71t62 114t51.5 161.5q24 109 32.5 199.5t0 166 t-43.5 118t-96 42.5q-98 0 -191 -125t-141 -362q-19 -91 -20 -170zM1167 662h392q11 68 8.5 127t-30.5 99t-77 40q-94 0 -166.5 -64t-126.5 -202z" />
<glyph unicode="&#x154;" horiz-adv-x="1503" d="M8 0l12 57q122 3 205 78q48 46 152 555q10 45 23.5 111t36 183.5t32.5 205t0 106.5q-10 18 -28 31t-33 19t-41.5 10t-35.5 4.5t-34 1.5l8 55h664q40 0 78.5 -2.5t80.5 -9t78.5 -16.5t73.5 -25.5t65 -37t53 -50t36.5 -64t17 -79.5t-5.5 -97q-11 -61 -40 -112.5 t-66.5 -85.5t-81.5 -61t-83.5 -42t-75 -25t-54 -13t-21.5 -3l299 -559q26 -41 61.5 -57.5t94.5 -18.5l-13 -61q-21 9 -188.5 10.5t-235.5 -8.5l-325 659l-74 -2q-111 -471 -78 -522q49 -75 172 -78l-10 -61q-17 8 -186 14t-224 6q-37 0 -164.5 -5.5t-144.5 -10.5zM664 748 q115 -3 168 5q264 37 313 281q12 64 -1 117.5t-41.5 87.5t-66.5 57.5t-73 33t-64 9.5l-111 -2q-19 -87 -36 -171t-88 -418zM836 1495l147 301q34 78 98 78q39 0 72 -20t33 -56q0 -10 -1.5 -19t-6.5 -18t-8 -15t-11.5 -15t-12 -12.5t-14.5 -13.5t-14 -13l-194 -197h-88z" />
<glyph unicode="&#x155;" horiz-adv-x="954" d="M47 2q14 32 62 212t73 290q27 112 45.5 230.5t14.5 150.5q-8 39 -95 35l13 59q39 -8 170 -10t217 18q-6 -16 -26 -89t-37 -136.5t-19 -63.5q70 87 131 144q56 56 108 88.5t121 54.5q46 11 82.5 5.5t55.5 -29t23.5 -54t-13.5 -69.5t-55 -74q-46 -41 -105 -51 q-2 20 -14.5 40t-35.5 35t-61.5 9.5t-83.5 -35.5q-11 -7 -52.5 -44.5t-77.5 -71.5l-35 -34q-82 -387 -121 -614q-21 8 -135 10.5t-150 -6.5zM393 1108l148 303q38 78 100 78q39 0 70.5 -19.5t31.5 -56.5q0 -14 -3 -26t-12 -24.5t-13 -18.5t-19 -21l-18 -18l-195 -197h-90z " />
<glyph unicode="&#x156;" horiz-adv-x="1503" d="M8 0l15 57q121 3 202 78q34 32 85 245.5t67 309.5q123 552 94 606q-13 22 -34 36t-51.5 20t-45 7.5t-45.5 2.5l12 55h662q77 0 144.5 -8.5t138 -34t117.5 -66t70 -110.5t7 -162q-10 -61 -39 -112.5t-66.5 -85.5t-81.5 -61t-84 -42t-75.5 -25t-54 -13t-21.5 -3l299 -559 q27 -41 62.5 -57.5t93.5 -18.5l-15 -61q-18 9 -185 10.5t-237 -8.5l-323 659l-76 -2q-1 -7 -11.5 -53t-20.5 -94t-23 -114t-19.5 -114t-9 -94t7.5 -53q49 -75 172 -78l-14 -61q-16 8 -184 14t-224 6q-37 0 -163.5 -5.5t-145.5 -10.5zM645 -494q174 24 195 123q2 14 -6 22.5 t-27 8.5q-126 6 -102 119q11 46 51 80q42 28 90 28q63 0 90 -43q29 -47 18 -114q-29 -129 -99 -193.5t-210 -68.5v38zM664 748q115 -2 167 5q265 35 314 281q14 67 0 118t-42 86.5t-66.5 58t-73.5 32.5t-64 10l-108 -2q-19 -89 -37.5 -172.5t-89.5 -416.5z" />
<glyph unicode="&#x157;" horiz-adv-x="1050" d="M47 -514q175 27 193 123q6 31 -31 31q-127 6 -103 118q12 51 54 80q36 29 88 29q65 0 90 -43q29 -48 18 -115q-29 -127 -100 -192.5t-209 -69.5v39zM143 2q14 33 63 213t73 289q26 111 44.5 230t14.5 151q-8 39 -94 35l12 59q39 -8 170 -10t217 18q-6 -16 -26 -89 t-37 -136.5t-19 -63.5q70 87 131 144q56 56 108.5 88.5t121.5 54.5q76 22 122 -9t39 -92.5t-69 -119.5q-46 -41 -105 -51q-2 20 -14.5 40t-35 35t-61 9.5t-83.5 -35.5q-11 -7 -52.5 -44.5t-77.5 -71.5l-36 -34q-82 -387 -121 -614q-21 8 -135 10.5t-150 -6.5z" />
<glyph unicode="&#x158;" horiz-adv-x="1503" d="M8 0l12 57q122 3 205 78q48 46 152 555q10 45 23.5 111t36 183.5t32.5 205t0 106.5q-10 18 -28 31t-33 19t-41.5 10t-35.5 4.5t-34 1.5l8 55h664q40 0 78.5 -2.5t80.5 -9t78.5 -16.5t73.5 -25.5t65 -37t53 -50t36.5 -64t17 -79.5t-5.5 -97q-11 -61 -40 -112.5 t-66.5 -85.5t-81.5 -61t-83.5 -42t-75 -25t-54 -13t-21.5 -3l299 -559q26 -41 61.5 -57.5t94.5 -18.5l-13 -61q-21 9 -188.5 10.5t-235.5 -8.5l-325 659l-74 -2q-111 -471 -78 -522q49 -75 172 -78l-10 -61q-17 8 -186 14t-224 6q-37 0 -164.5 -5.5t-144.5 -10.5zM588 1843 q11 0 33.5 -0.5t40.5 -0.5l18 -1l197 -196l249 198h117l-307 -342h-180zM664 748q115 -3 168 5q264 37 313 281q12 64 -1 117.5t-41.5 87.5t-66.5 57.5t-73 33t-64 9.5l-111 -2q-19 -87 -36 -171t-88 -418z" />
<glyph unicode="&#x159;" horiz-adv-x="964" d="M47 2q14 32 62 212t73 290q27 112 45.5 230.5t14.5 150.5q-8 39 -95 35l13 59q39 -8 170 -10t217 18q-6 -16 -26 -89t-37 -136.5t-19 -63.5q70 87 131 144q56 56 108 88.5t121 54.5q46 11 82.5 5.5t55.5 -29t23.5 -54t-13.5 -69.5t-55 -74q-46 -41 -105 -51 q-2 20 -14.5 40t-35.5 35t-61.5 9.5t-83.5 -35.5q-11 -7 -52.5 -44.5t-77.5 -71.5l-35 -34q-82 -387 -121 -614q-21 8 -135 10.5t-150 -6.5zM340 1454q12 0 34.5 -0.5t39.5 -1.5h18l197 -197l252 199h116l-309 -342h-180z" />
<glyph unicode="&#x15a;" horiz-adv-x="1329" d="M51 -27q23 129 29 213q4 42 5 102t0 99l-1 39h59q75 -373 346 -379q83 -2 170.5 34.5t147.5 94t72 115.5q23 95 -51.5 173t-299.5 200q-62 33 -105 63.5t-79.5 68.5t-51.5 79t-20 94t13 114q38 157 186 259t340 102q86 0 216 -34t157 -34q66 0 73 84h60 q-27 -131 -37 -215q-5 -44 -8.5 -107.5t-4.5 -105.5l-1 -41h-60q-13 103 -50.5 179t-94 119t-122.5 63t-144 20q-82 0 -155 -66t-87 -145q-11 -55 6 -98.5t58 -74t83 -52.5t101 -48.5t90 -45.5q120 -72 169 -112q191 -158 146 -378q-18 -85 -71 -154t-125 -112.5t-160 -72 t-175.5 -38.5t-172.5 -6q-90 6 -194.5 40t-129.5 34q-57 0 -69 -70h-58zM688 1493l148 301q38 78 100 78q39 0 70.5 -19.5t31.5 -56.5q0 -12 -3 -23.5t-6 -18.5t-12 -18t-12.5 -15t-16.5 -16.5t-15 -14.5l-195 -197h-90z" />
<glyph unicode="&#x15b;" horiz-adv-x="1046" d="M68 -27l75 344h56q1 -27 3.5 -49.5t16.5 -64.5t37 -71t70.5 -53t111.5 -26q45 -2 78 8t51.5 30t28 40.5t14.5 46.5q8 38 -12.5 70t-59 56.5t-86 49t-94 54t-83 65t-52.5 89t-2 118.5q19 87 97 158.5t178.5 109t197.5 37.5q58 0 117.5 -22.5t71.5 -22.5q40 0 63 41h51 l-65 -301h-58q-9 112 -57.5 172.5t-136.5 60.5q-57 0 -109.5 -34t-62.5 -82q-8 -38 7 -68.5t46 -51.5t71 -42.5t82.5 -41t80.5 -47.5t64.5 -61.5t35 -82.5t-7.5 -111q-28 -113 -99 -187t-158 -103.5t-190 -29.5q-45 0 -103 14.5t-101.5 30t-47.5 15.5q-41 5 -67 -58h-53z M547 1112l147 303q38 78 101 78q39 0 70.5 -19.5t31.5 -56.5q0 -14 -3 -26t-12 -24.5t-14 -18.5t-19 -20.5t-18 -18.5l-194 -197h-90z" />
<glyph unicode="&#x15c;" horiz-adv-x="1329" d="M51 -27q23 129 29 213q4 42 5 102t0 99l-1 39h59q75 -373 346 -379q83 -2 170.5 34.5t147.5 94t72 115.5q23 95 -51.5 173t-299.5 200q-62 33 -105 63.5t-79.5 68.5t-51.5 79t-20 94t13 114q38 157 186 259t340 102q86 0 216 -34t157 -34q66 0 73 84h60 q-27 -131 -37 -215q-5 -44 -8.5 -107.5t-4.5 -105.5l-1 -41h-60q-13 103 -50.5 179t-94 119t-122.5 63t-144 20q-82 0 -155 -66t-87 -145q-11 -55 6 -98.5t58 -74t83 -52.5t101 -48.5t90 -45.5q120 -72 169 -112q191 -158 146 -378q-18 -85 -71 -154t-125 -112.5t-160 -72 t-175.5 -38.5t-172.5 -6q-90 6 -194.5 40t-129.5 34q-57 0 -69 -70h-58zM463 1497l313 340h180l162 -340h-110l-156 197l-283 -197h-106z" />
<glyph unicode="&#x15d;" horiz-adv-x="1058" d="M68 -27l75 344h56q1 -27 3.5 -49.5t16.5 -64.5t37 -71t70.5 -53t111.5 -26q45 -2 78 8t51.5 30t28 40.5t14.5 46.5q8 38 -12.5 70t-59 56.5t-86 49t-94 54t-83 65t-52.5 89t-2 118.5q19 87 97 158.5t178.5 109t197.5 37.5q58 0 117.5 -22.5t71.5 -22.5q40 0 63 41h51 l-65 -301h-58q-9 112 -57.5 172.5t-136.5 60.5q-57 0 -109.5 -34t-62.5 -82q-8 -38 7 -68.5t46 -51.5t71 -42.5t82.5 -41t80.5 -47.5t64.5 -61.5t35 -82.5t-7.5 -111q-28 -113 -99 -187t-158 -103.5t-190 -29.5q-45 0 -103 14.5t-101.5 30t-47.5 15.5q-41 5 -67 -58h-53z M354 1108l314 340h180l162 -340h-111l-156 197l-282 -197h-107z" />
<glyph unicode="&#x15e;" horiz-adv-x="1329" d="M51 -27q23 129 29 213q4 42 5 102t0 99l-1 39h59q75 -373 346 -379q83 -2 170.5 34.5t147.5 94t72 115.5q23 95 -51.5 173t-299.5 200q-62 33 -105 63.5t-79.5 68.5t-51.5 79t-20 94t13 114q38 157 186 259t340 102q86 0 216 -34t157 -34q66 0 73 84h60 q-27 -131 -37 -215q-5 -44 -8.5 -107.5t-4.5 -105.5l-1 -41h-60q-13 103 -50.5 179t-94 119t-122.5 63t-144 20q-82 0 -155 -66t-87 -145q-11 -55 6 -98.5t58 -74t83 -52.5t101 -48.5t90 -45.5q120 -72 169 -112q191 -158 146 -378q-21 -98 -87 -173.5t-158.5 -119.5 t-194 -66.5t-205.5 -23.5l-45 -106q55 10 82 10q81 0 117.5 -40t36.5 -105q0 -48 -27 -83t-70.5 -52t-86 -24t-87.5 -7q-72 0 -170 35l31 71q227 -51 227 56q0 89 -143 61l-20 14l75 172q-82 6 -180 39t-123 33q-57 0 -69 -70h-58z" />
<glyph unicode="&#x15f;" horiz-adv-x="1046" d="M68 -27l75 344h56q1 -27 3.5 -49.5t16.5 -64.5t37 -71t70.5 -53t111.5 -26q45 -2 78 8t51.5 30t28 40.5t14.5 46.5q8 38 -12.5 70t-59 56.5t-86 49t-94 54t-83 65t-52.5 89t-2 118.5q19 87 97 158.5t178.5 109t197.5 37.5q58 0 117.5 -22.5t71.5 -22.5q40 0 63 41h51 l-65 -301h-58q-9 112 -57.5 172.5t-136.5 60.5q-57 0 -109.5 -34t-62.5 -82q-8 -38 7 -68.5t46 -51.5t71 -42.5t82.5 -41t80.5 -47.5t64.5 -61.5t35 -82.5t-7.5 -111q-21 -84 -66.5 -147.5t-106.5 -100.5t-129 -54.5t-143 -17.5l-49 -108q55 10 84 10q80 0 117 -40.5 t37 -104.5q0 -48 -27 -83t-71 -52t-86.5 -24t-86.5 -7q-74 0 -172 35l33 71q228 -51 228 56q0 89 -146 61l-18 14l80 181q-36 6 -77 18.5t-68.5 22t-31.5 10.5q-41 5 -67 -58h-53z" />
<glyph unicode="&#x160;" horiz-adv-x="1329" d="M51 -27q23 129 29 213q4 42 5 102t0 99l-1 39h59q75 -373 346 -379q83 -2 170.5 34.5t147.5 94t72 115.5q23 95 -51.5 173t-299.5 200q-62 33 -105 63.5t-79.5 68.5t-51.5 79t-20 94t13 114q38 157 186 259t340 102q86 0 216 -34t157 -34q66 0 73 84h60 q-27 -131 -37 -215q-5 -44 -8.5 -107.5t-4.5 -105.5l-1 -41h-60q-13 103 -50.5 179t-94 119t-122.5 63t-144 20q-82 0 -155 -66t-87 -145q-11 -55 6 -98.5t58 -74t83 -52.5t101 -48.5t90 -45.5q120 -72 169 -112q191 -158 146 -378q-18 -85 -71 -154t-125 -112.5t-160 -72 t-175.5 -38.5t-172.5 -6q-90 6 -194.5 40t-129.5 34q-57 0 -69 -70h-58zM543 1843q11 0 33.5 -0.5t40.5 -0.5l18 -1l194 -196l252 198h117l-307 -342h-180z" />
<glyph unicode="&#x161;" horiz-adv-x="1148" d="M68 -27l75 344h56q1 -27 3.5 -49.5t16.5 -64.5t37 -71t70.5 -53t111.5 -26q45 -2 78 8t51.5 30t28 40.5t14.5 46.5q8 38 -12.5 70t-59 56.5t-86 49t-94 54t-83 65t-52.5 89t-2 118.5q19 87 97 158.5t178.5 109t197.5 37.5q58 0 117.5 -22.5t71.5 -22.5q40 0 63 41h51 l-65 -301h-58q-9 112 -57.5 172.5t-136.5 60.5q-57 0 -109.5 -34t-62.5 -82q-8 -38 7 -68.5t46 -51.5t71 -42.5t82.5 -41t80.5 -47.5t64.5 -61.5t35 -82.5t-7.5 -111q-28 -113 -99 -187t-158 -103.5t-190 -29.5q-45 0 -103 14.5t-101.5 30t-47.5 15.5q-41 5 -67 -58h-53z M444 1454q11 0 33 -0.5t40 -1.5h18l196 -197l252 199h117l-307 -342h-183z" />
<glyph unicode="&#x162;" horiz-adv-x="1400" d="M180 1077q52 156 88 342h1256q-48 -212 -58 -346h-69q-6 85 -37 148.5t-66 76.5q-24 9 -45 15t-35.5 9t-39.5 4.5t-38.5 1.5t-51 -0.5t-60.5 -0.5q-121 -563 -131 -608q-119 -523 -88 -588q10 -25 28.5 -38t35 -16.5t51 -8t57.5 -9.5l-16 -63q-122 18 -350.5 20.5 t-364.5 -16.5l14 61q74 2 111.5 16t83.5 58q14 13 31.5 60.5t37 124t33.5 137t33 148.5t24 108l131 616q-26 0 -72 0.5t-63 0.5t-47.5 -2.5t-55.5 -8.5t-58 -16q-41 -14 -100 -78.5t-101 -147.5h-68zM369 -516q171 27 192 123q6 28 -31 31q-125 3 -104 116q13 52 51 80 q42 31 92 31q64 0 88 -41q32 -55 19 -117q-28 -127 -98.5 -192.5t-208.5 -69.5v39z" />
<glyph unicode="&#x163;" horiz-adv-x="825" d="M94 -530q172 24 193 120q2 18 -5.5 25.5t-27.5 7.5q-126 6 -102 119q11 47 53 80q42 28 88 28q66 0 90 -43q29 -44 18 -114q-28 -128 -98.5 -193.5t-208.5 -68.5v39zM162 84q-24 73 56 401q3 14 5 21q15 65 35 144.5t36 140.5t19 73h-139l6 4q5 3 17 10t28 16t37.5 23 t44 29t50 35t53.5 41q47 36 104.5 87.5t92.5 86t34 35.5q-37 -183 -55 -273h215l-21 -98h-221q1 -2 -19 -84t-49 -204.5t-45 -194.5q-28 -110 -26.5 -181.5t51.5 -74.5q82 -5 205 190l47 -20q-178 -334 -389 -324h-8q-37 2 -63.5 9.5t-57 34.5t-43.5 73z" />
<glyph unicode="&#x164;" horiz-adv-x="1402" d="M180 1077q53 153 90 342h1256q-44 -171 -60 -346h-67q-7 85 -38.5 148.5t-64.5 76.5q-29 11 -49 17t-50 9t-41.5 3.5t-61 0t-70.5 -0.5q-119 -563 -129 -608q-119 -522 -92 -588q11 -25 30 -38t36 -16.5t51 -8t57 -9.5l-14 -63q-124 18 -352 20.5t-365 -16.5l14 61 q75 2 113 16t84 58q13 13 30.5 59.5t37.5 126t33.5 135.5t34 149.5t23.5 107.5l132 616q-26 0 -73.5 0.5t-64.5 0.5t-48 -2.5t-56 -8.5t-57 -16q-40 -14 -98.5 -78t-102.5 -148h-68zM659 1843q11 0 33.5 -0.5t41.5 -0.5l18 -1l194 -196l252 198h117l-307 -342h-181z" />
<glyph unicode="&#x165;" horiz-adv-x="1275" d="M94 150q-1 31 9.5 89t22.5 109t30 126q2 7 3 11l2.5 10t2.5 11q15 65 35 144.5t36 140.5t19 73h-139l5 4q6 3 18 10t28 16t37 23l43.5 29t50 35t53.5 41q47 36 105 87.5t93 86t34 35.5q-38 -183 -56 -273h215l-20 -98h-221q1 -2 -19 -84t-49 -204.5t-45 -194.5 q-28 -110 -26.5 -181.5t51.5 -74.5q81 -5 204 190l48 -20q-178 -334 -390 -324h-8q-37 2 -63.5 9.5t-57 34.5t-43.5 73q-7 35 -8 66zM909 995q95 55 142.5 95.5t66.5 91.5q9 36 -31 45q-8 4 -31.5 0.5t-45.5 1.5q-28 11 -36 35t3 77q14 52 56.5 81.5t88.5 29.5 q70 0 105.5 -50t15.5 -136q-24 -114 -99.5 -188.5t-209.5 -143.5z" />
<glyph unicode="&#x166;" horiz-adv-x="1400" d="M180 1077q52 156 88 342h1256q-48 -212 -58 -346h-69q-6 85 -37 148.5t-66 76.5q-24 9 -45 15t-35.5 9t-39.5 4.5t-38.5 1.5t-51 -0.5t-60.5 -0.5l-90 -420h409l-24 -98h-406l-20 -90q-5 -25 -18 -85t-21 -101t-20 -100.5t-18.5 -102t-12 -86t-5 -72t6.5 -41.5 q10 -25 28.5 -38t35 -16.5t51 -8t57.5 -9.5l-16 -63q-122 18 -350.5 20.5t-364.5 -16.5l14 61q74 2 111.5 16t83.5 58q45 42 151 541l3 13.5t2.5 11.5t2.5 12l23 96h-371l25 98h364l90 422q-26 0 -72 0.5t-63 0.5t-47.5 -2.5t-55.5 -8.5t-58 -16q-41 -14 -100 -78.5 t-101 -147.5h-68z" />
<glyph unicode="&#x167;" horiz-adv-x="786" d="M94 680l25 96h133l22 88h-139l5 4q6 3 18 10t28 16t37.5 23t44 29t50 35t53.5 41q47 36 104.5 87.5t92.5 86t34 35.5q-37 -183 -55 -273h215l-21 -98h-221q2 -2 -18 -84h221l-23 -96h-221q-42 -170 -71 -303q-28 -110 -27 -181.5t51 -74.5q82 -5 205 190l47 -20 q-178 -334 -389 -324h-8q-37 2 -63.5 9.5t-57 34.5t-43.5 73q-24 73 56 401q3 14 5 21q36 145 43 174h-133z" />
<glyph unicode="&#x168;" horiz-adv-x="1533" d="M180 1362l13 57q15 -6 171.5 -10t221.5 -4q55 0 178.5 4t140.5 10l-12 -57q-41 -2 -63.5 -4t-66 -17.5t-71.5 -44.5q-33 -35 -108 -352.5t-99 -445.5q-1 -7 -4 -23q-6 -33 -9 -52t-7 -56.5t-3.5 -61t4 -58t13 -57t26.5 -47.5t41.5 -39.5t60.5 -24t81 -9.5q246 3 377 163 q69 83 113 291l122 580q16 80 18 123t-11 76q-9 19 -24 31t-37 17t-35 7t-40.5 2h-31.5l12 59q15 -8 118.5 -12t155.5 -4q50 0 153.5 4t123.5 12l-14 -59q-41 -2 -63.5 -4t-66.5 -17.5t-73 -44.5q-25 -28 -38 -65.5t-32 -124.5l-119 -561q-30 -148 -66 -228 q-154 -344 -632 -344q-105 0 -183 23.5t-122 58.5t-69.5 87.5t-33 98t-3.5 103t10 89t15 69.5l3 12q29 110 94 429.5t45 354.5q-13 22 -33.5 36t-51 20t-45 7.5t-44.5 2.5zM688 1497q1 24 8.5 53.5t25.5 63.5t43.5 62t65.5 46.5t87 18.5q59 0 151 -47q96 -45 143 -45 q12 0 22 2.5t17 4.5t15 9.5t11.5 10.5t10.5 14.5t9 15t9.5 18t8.5 17.5h84q-61 -244 -236 -244q-61 0 -157 47q-92 47 -150 47q-34 0 -57.5 -28.5t-32.5 -65.5h-78z" />
<glyph unicode="&#x169;" d="M92.5 80.5q-2.5 35.5 1 75t16 98.5t27.5 120.5t39 147.5q17 63 43.5 189.5t22.5 156.5q-9 40 -95 37l13 56q35 -7 161.5 -7.5t206.5 17.5q-77 -277 -135 -557q-33 -151 -32.5 -203.5t36.5 -65.5q32 -12 77 5.5t86.5 51t78.5 69t59 61.5l23 26q33 131 69 327t54 280 q16 -7 128 -6t142 12q-1 -7 -24 -105.5t-54.5 -227.5t-50.5 -200q-23 -95 -33 -152.5t-7 -93t17.5 -48t43.5 -13.5q39 -1 101.5 66t78.5 112l55 -24q-36 -68 -73.5 -121.5t-70.5 -86t-66.5 -57t-61 -33.5t-54 -15.5t-45.5 -4t-36 0.5q-3 1 -4.5 1h-4h-4.5q-86 0 -121 76 q-31 64 -2 193q-80 -103 -213 -180t-235 -85q-39 -4 -67 0t-47.5 18t-30 34t-13 55.5zM362 1110q1 30 14.5 69t39.5 79.5t73 68t105 27.5q59 0 151 -47q92 -45 144 -45q22 0 37.5 6t27.5 22.5t17.5 26.5t17.5 37h84q-58 -246 -235 -246q-54 0 -158 49q-89 47 -148 47 q-35 0 -58 -28t-34 -66h-78z" />
<glyph unicode="&#x16a;" horiz-adv-x="1533" d="M180 1362l13 57q15 -6 171.5 -10t221.5 -4q55 0 178.5 4t140.5 10l-12 -57q-41 -2 -63.5 -4t-66 -17.5t-71.5 -44.5q-33 -35 -108 -352.5t-99 -445.5q-1 -7 -4 -23q-6 -33 -9 -52t-7 -56.5t-3.5 -61t4 -58t13 -57t26.5 -47.5t41.5 -39.5t60.5 -24t81 -9.5q246 3 377 163 q69 83 113 291l122 580q16 80 18 123t-11 76q-9 19 -24 31t-37 17t-35 7t-40.5 2h-31.5l12 59q15 -8 118.5 -12t155.5 -4q50 0 153.5 4t123.5 12l-14 -59q-41 -2 -63.5 -4t-66.5 -17.5t-73 -44.5q-25 -28 -38 -65.5t-32 -124.5l-119 -561q-30 -148 -66 -228 q-154 -344 -632 -344q-105 0 -183 23.5t-122 58.5t-69.5 87.5t-33 98t-3.5 103t10 89t15 69.5l3 12q29 110 94 429.5t45 354.5q-13 22 -33.5 36t-51 20t-45 7.5t-44.5 2.5zM709 1497l26 119h596l-22 -119h-600z" />
<glyph unicode="&#x16b;" d="M92.5 80.5q-2.5 35.5 1 75t16 98.5t27.5 120.5t39 147.5q17 63 43.5 189.5t22.5 156.5q-9 40 -95 37l13 56q35 -7 161.5 -7.5t206.5 17.5q-77 -277 -135 -557q-33 -151 -32.5 -203.5t36.5 -65.5q32 -12 77 5.5t86.5 51t78.5 69t59 61.5l23 26q33 131 69 327t54 280 q16 -7 128 -6t142 12q-1 -7 -24 -105.5t-54.5 -227.5t-50.5 -200q-23 -95 -33 -152.5t-7 -93t17.5 -48t43.5 -13.5q39 -1 101.5 66t78.5 112l55 -24q-36 -68 -73.5 -121.5t-70.5 -86t-66.5 -57t-61 -33.5t-54 -15.5t-45.5 -4t-36 0.5q-3 1 -4.5 1h-4h-4.5q-86 0 -121 76 q-31 64 -2 193q-80 -103 -213 -180t-235 -85q-39 -4 -67 0t-47.5 18t-30 34t-13 55.5zM393 1110l25 119h598l-25 -119h-598z" />
<glyph unicode="&#x16c;" horiz-adv-x="1533" d="M180 1362l13 57q15 -6 171.5 -10t221.5 -4q55 0 178.5 4t140.5 10l-12 -57q-41 -2 -63.5 -4t-66 -17.5t-71.5 -44.5q-33 -35 -108 -352.5t-99 -445.5q-1 -7 -4 -23q-6 -33 -9 -52t-7 -56.5t-3.5 -61t4 -58t13 -57t26.5 -47.5t41.5 -39.5t60.5 -24t81 -9.5q246 3 377 163 q69 83 113 291l122 580q16 80 18 123t-11 76q-9 19 -24 31t-37 17t-35 7t-40.5 2h-31.5l12 59q15 -8 118.5 -12t155.5 -4q50 0 153.5 4t123.5 12l-14 -59q-41 -2 -63.5 -4t-66.5 -17.5t-73 -44.5q-25 -28 -38 -65.5t-32 -124.5l-119 -561q-30 -148 -66 -228 q-154 -344 -632 -344q-105 0 -183 23.5t-122 58.5t-69.5 87.5t-33 98t-3.5 103t10 89t15 69.5l3 12q29 110 94 429.5t45 354.5q-13 22 -33.5 36t-51 20t-45 7.5t-44.5 2.5zM852 1733l66 -2q9 -80 40.5 -108t98.5 -28q54 0 107 35.5t85 102.5h74q-10 -99 -98 -167.5 t-189 -68.5q-93 2 -149 72t-35 164z" />
<glyph unicode="&#x16d;" horiz-adv-x="1269" d="M92.5 80.5q-2.5 35.5 1 75t16 98.5t27.5 120.5t39 147.5q17 63 43.5 189.5t22.5 156.5q-9 40 -95 37l13 56q35 -7 161.5 -7.5t206.5 17.5q-77 -277 -135 -557q-33 -151 -32.5 -203.5t36.5 -65.5q32 -12 77 5.5t86.5 51t78.5 69t59 61.5l23 26q33 131 69 327t54 280 q16 -7 128 -6t142 12q-1 -7 -24 -105.5t-54.5 -227.5t-50.5 -200q-23 -95 -33 -152.5t-7 -93t17.5 -48t43.5 -13.5q39 -1 101.5 66t78.5 112l55 -24q-36 -68 -73.5 -121.5t-70.5 -86t-66.5 -57t-61 -33.5t-54 -15.5t-45.5 -4t-36 0.5q-3 1 -4.5 1h-4h-4.5q-86 0 -121 76 q-31 64 -2 193q-80 -103 -213 -180t-235 -85q-39 -4 -67 0t-47.5 18t-30 34t-13 55.5zM510 1348l65 -2q9 -79 41.5 -107.5t98.5 -28.5q54 0 107 35.5t85 102.5h76q-12 -100 -100 -169t-189 -67q-93 2 -149 72t-35 164z" />
<glyph unicode="&#x16e;" horiz-adv-x="1533" d="M180 1362l13 57q15 -6 171.5 -10t221.5 -4q55 0 178.5 4t140.5 10l-12 -57q-41 -2 -63.5 -4t-66 -17.5t-71.5 -44.5q-33 -35 -108 -352.5t-99 -445.5q-1 -7 -4 -23q-6 -33 -9 -52t-7 -56.5t-3.5 -61t4 -58t13 -57t26.5 -47.5t41.5 -39.5t60.5 -24t81 -9.5q246 3 377 163 q69 83 113 291l122 580q16 80 18 123t-11 76q-9 19 -24 31t-37 17t-35 7t-40.5 2h-31.5l12 59q15 -8 118.5 -12t155.5 -4q50 0 153.5 4t123.5 12l-14 -59q-41 -2 -63.5 -4t-66.5 -17.5t-73 -44.5q-25 -28 -38 -65.5t-32 -124.5l-119 -561q-30 -148 -66 -228 q-154 -344 -632 -344q-105 0 -183 23.5t-122 58.5t-69.5 87.5t-33 98t-3.5 103t10 89t15 69.5l3 12q29 110 94 429.5t45 354.5q-13 22 -33.5 36t-51 20t-45 7.5t-44.5 2.5zM866 1692q20 82 85.5 138t154.5 56q71 0 121 -60.5t37 -133.5q-17 -90 -82 -142.5t-158 -52.5 q-75 0 -123.5 64t-34.5 131zM969 1692q-9 -41 12.5 -70t62.5 -29q40 0 75 29t44 70q8 40 -14 68t-62 28q-41 0 -76 -28t-42 -68z" />
<glyph unicode="&#x16f;" horiz-adv-x="1269" d="M92.5 80.5q-2.5 35.5 1 75t16 98.5t27.5 120.5t39 147.5q17 63 43.5 189.5t22.5 156.5q-9 40 -95 37l13 56q35 -7 161.5 -7.5t206.5 17.5q-77 -277 -135 -557q-33 -151 -32.5 -203.5t36.5 -65.5q32 -12 77 5.5t86.5 51t78.5 69t59 61.5l23 26q33 131 69 327t54 280 q16 -7 128 -6t142 12q-1 -7 -24 -105.5t-54.5 -227.5t-50.5 -200q-23 -95 -33 -152.5t-7 -93t17.5 -48t43.5 -13.5q39 -1 101.5 66t78.5 112l55 -24q-36 -68 -73.5 -121.5t-70.5 -86t-66.5 -57t-61 -33.5t-54 -15.5t-45.5 -4t-36 0.5q-3 1 -4.5 1h-4h-4.5q-86 0 -121 76 q-31 64 -2 193q-80 -103 -213 -180t-235 -85q-39 -4 -67 0t-47.5 18t-30 34t-13 55.5zM530 1307q19 83 85 138.5t155 55.5q71 0 121 -60t37 -134q-17 -90 -82 -142.5t-158 -52.5q-75 0 -123.5 64.5t-34.5 130.5zM633 1307q-9 -40 13 -68.5t63 -28.5q40 0 74.5 28.5 t43.5 68.5q8 41 -13.5 69.5t-61.5 28.5q-42 0 -77 -28.5t-42 -69.5z" />
<glyph unicode="&#x170;" horiz-adv-x="1533" d="M180 1362l13 57q15 -6 171.5 -10t221.5 -4q55 0 178.5 4t140.5 10l-12 -57q-41 -2 -63.5 -4t-66 -17.5t-71.5 -44.5q-33 -35 -108 -352.5t-99 -445.5q-1 -7 -4 -23q-6 -33 -9 -52t-7 -56.5t-3.5 -61t4 -58t13 -57t26.5 -47.5t41.5 -39.5t60.5 -24t81 -9.5q246 3 377 163 q69 83 113 291l122 580q16 80 18 123t-11 76q-9 19 -24 31t-37 17t-35 7t-40.5 2h-31.5l12 59q15 -8 118.5 -12t155.5 -4q50 0 153.5 4t123.5 12l-14 -59q-41 -2 -63.5 -4t-66.5 -17.5t-73 -44.5q-25 -28 -38 -65.5t-32 -124.5l-119 -561q-30 -148 -66 -228 q-154 -344 -632 -344q-105 0 -183 23.5t-122 58.5t-69.5 87.5t-33 98t-3.5 103t10 89t15 69.5l3 12q29 110 94 429.5t45 354.5q-13 22 -33.5 36t-51 20t-45 7.5t-44.5 2.5zM860 1497l150 303q17 35 38 54t43.5 21.5t38 -0.5t35.5 -11q31 -11 41 -36.5t2 -51.5t-26 -45 l-232 -234h-90zM1149 1497l147 303q18 35 39 54t44 21.5t38.5 -0.5t36.5 -11q30 -11 39.5 -36t2 -51.5t-25.5 -45.5l-231 -234h-90z" />
<glyph unicode="&#x171;" horiz-adv-x="1269" d="M92.5 80.5q-2.5 35.5 1 75t16 98.5t27.5 120.5t39 147.5q17 63 43.5 189.5t22.5 156.5q-9 40 -95 37l13 56q35 -7 161.5 -7.5t206.5 17.5q-77 -277 -135 -557q-33 -151 -32.5 -203.5t36.5 -65.5q32 -12 77 5.5t86.5 51t78.5 69t59 61.5l23 26q33 131 69 327t54 280 q16 -7 128 -6t142 12q-1 -7 -24 -105.5t-54.5 -227.5t-50.5 -200q-23 -95 -33 -152.5t-7 -93t17.5 -48t43.5 -13.5q39 -1 101.5 66t78.5 112l55 -24q-36 -68 -73.5 -121.5t-70.5 -86t-66.5 -57t-61 -33.5t-54 -15.5t-45.5 -4t-36 0.5q-3 1 -4.5 1h-4h-4.5q-86 0 -121 76 q-31 64 -2 193q-80 -103 -213 -180t-235 -85q-39 -4 -67 0t-47.5 18t-30 34t-13 55.5zM502 1112l147 303q18 35 39 54t44 21.5t38.5 -0.5t36.5 -11q30 -11 39.5 -36.5t2 -52t-25.5 -44.5l-231 -234h-90zM791 1112l147 303q17 35 38 54t44 21.5t39 -0.5t37 -11 q44 -16 44 -59.5t-30 -73.5l-231 -234h-88z" />
<glyph unicode="&#x172;" horiz-adv-x="1533" d="M180 1362l13 57q15 -6 171.5 -10t221.5 -4q55 0 178.5 4t140.5 10l-12 -57q-41 -2 -63.5 -4t-66 -17.5t-71.5 -44.5q-33 -35 -108 -352.5t-99 -445.5q-1 -7 -4 -23q-6 -33 -9 -52t-7 -56.5t-3.5 -61t4 -58t13 -57t26.5 -47.5t41.5 -39.5t60.5 -24t81 -9.5q246 3 377 163 q69 83 113 291l122 580q16 80 18 123t-11 76q-9 19 -24 31t-37 17t-35 7t-40.5 2h-31.5l12 59q15 -8 118.5 -12t155.5 -4q50 0 153.5 4t123.5 12l-14 -59q-41 -2 -63.5 -4t-66.5 -17.5t-73 -44.5q-25 -28 -38 -65.5t-32 -124.5l-119 -561q-30 -143 -61 -215 q-139 -328 -561 -355q-96 -117 -96 -198q0 -50 28 -79.5t78 -29.5q51 0 90 29q17 -6 17 -31q-68 -94 -177 -94q-80 0 -120.5 44.5t-40.5 106.5q0 114 133 250q-102 1 -178 25.5t-119 59.5t-67.5 87t-31.5 97t-3 102t10 88.5t15 69.5l3 12q29 110 94 429.5t45 354.5 q-13 22 -33.5 36t-51 20t-45 7.5t-44.5 2.5z" />
<glyph unicode="&#x173;" horiz-adv-x="1269" d="M92.5 80.5q-2.5 35.5 1 75t16 98.5t27.5 120.5t39 147.5q17 63 43.5 189.5t22.5 156.5q-9 40 -95 37l13 56q35 -7 161.5 -7.5t206.5 17.5q-77 -277 -135 -557q-33 -151 -32.5 -203.5t36.5 -65.5q32 -12 77 5.5t86.5 51t78.5 69t59 61.5l23 26q33 131 69 327t54 280 q16 -7 128 -6t142 12q-1 -7 -24 -105.5t-54.5 -227.5t-50.5 -200q-23 -95 -33 -152.5t-7 -93t17.5 -48t43.5 -13.5q39 -1 101.5 66t78.5 112l55 -24q-148 -279 -319 -312q-97 -118 -97 -198q0 -50 28.5 -79.5t78.5 -29.5q51 0 90 29q16 -5 16 -31q-68 -94 -176 -94 q-80 0 -121 44.5t-41 106.5q0 114 131 248h-10q-86 0 -121 76q-31 64 -2 193q-80 -103 -213 -180t-235 -85q-39 -4 -67 0t-47.5 18t-30 34t-13 55.5z" />
<glyph unicode="&#x174;" horiz-adv-x="2392" d="M174 1354l14 61q228 -12 351 -12l352 10l-12 -61q-66 2 -100 -24t-40 -83q-6 -45 12.5 -169t42 -237t56.5 -262.5t39 -177.5q56 92 147 251t154 272l63 112q-21 168 -36 197q-11 27 -15 36t-14.5 28.5t-20 26.5t-25 17t-36 13.5t-47.5 3.5l12 61q168 -14 291 -14l397 12 l-10 -59q-97 0 -146 -26t-53 -81q-4 -58 25.5 -273t61.5 -404.5t32 -180.5q3 0 116 198.5t229 413t122 246.5q9 59 -25 80.5t-141 24.5l12 59q216 -10 314 -10q42 0 110 3t115 6l47 3l-12 -59q-7 0 -20 -0.5t-48 -5.5t-65.5 -14.5t-64.5 -30.5t-54 -50q-318 -486 -793 -1286 h-49l-7 30q-7 30 -19.5 83t-28 121.5t-33 152.5t-34 168t-32.5 175.5t-26 168.5q3 1 -140.5 -224t-287.5 -450l-145 -225h-50q1 1 -57 294.5t-126.5 609t-88.5 362.5q-25 61 -70.5 89.5t-142.5 29.5zM1073 1497l313 342h181l162 -342h-111l-156 199l-282 -199h-107z" />
<glyph unicode="&#x175;" horiz-adv-x="1691" d="M25 907l12 54q36 -6 210 -7t259 15v-79v-108.5t1.5 -113.5t4 -137.5t8 -133.5t12.5 -147l351 713q211 -2 211 0q50 -458 77 -730q7 10 19.5 28.5t47 77.5t65 119t65.5 146.5t57 167.5q9 31 10 60t-4 48.5t-11.5 34.5t-11.5 22l-5 7l11 5q10 5 27.5 12.5t38.5 15.5t47 14 t48 8q6 1 17 1t31 -2.5t36 -10.5t32 -22.5t19.5 -39t-2.5 -59.5q-9 -39 -43.5 -96t-68 -100t-103.5 -129t-102 -127q-184 -238 -271 -410q-2 -3 -2 -2q-65 8 -136 7t-89 -7q-70 588 -72 588q0 2 -72 -120t-157 -269.5t-113 -200.5q-19 8 -93.5 7.5t-90.5 -7.5 q-92 725 -137 836q-10 26 -24 41.5t-33 21.5t-31.5 7t-35.5 1h-9zM631 1112l313 342h180l162 -342h-110l-156 199l-283 -199h-106z" />
<glyph unicode="&#x176;" horiz-adv-x="1478" d="M205 1354l12 65q48 -18 328 -18q40 0 177.5 5.5t154.5 10.5l-13 -63q-6 0 -28.5 1t-34.5 0t-30.5 -4.5t-31.5 -13.5t-22 -26q-14 -20 28.5 -147t92.5 -244l49 -117l77 103q77 104 161 221.5t98 148.5q17 36 -14.5 58.5t-88.5 19.5l15 61q180 -8 235 -8q104 0 252 12 l-14 -65q-114 -4 -188.5 -54t-211.5 -210q-36 -40 -110.5 -134t-132.5 -169.5t-58 -77.5q-1 -4 -7.5 -31.5t-13.5 -57t-17.5 -74t-19.5 -85.5t-18.5 -87t-16 -84.5t-10.5 -71.5t-4 -55t5 -28q49 -77 176 -74l-14 -67q-16 9 -146 16.5t-174 7.5q-55 0 -215 -5t-178 -11l14 61 q124 3 205 76q18 17 44 102t45.5 171t39.5 180t21 98q-143 367 -244 590q-13 28 -29.5 45t-37.5 23t-36 7.5t-38.5 0t-32.5 -1.5zM649 1501l314 342h180l162 -342h-111l-156 199l-282 -199h-107z" />
<glyph unicode="&#x177;" horiz-adv-x="1148" d="M-174 -360q-10 57 7 103.5t48 73t63.5 44.5t56.5 24l24 6l1 -9q0 -9 1 -23t3.5 -30t9 -33t15.5 -29q30 -39 89 -35t94 43q40 45 83.5 96.5t43.5 54.5q-105 793 -140 910q-6 18 -14 32t-21.5 22t-21.5 13t-27 7t-25 3t-27.5 0.5t-22.5 -0.5l18 76q33 -9 198 -16.5t246 8.5 q0 -63 13 -196t33.5 -317.5t29.5 -281.5q104 152 177.5 316t103.5 293q7 30 5 54t-8.5 42.5t-15.5 30.5t-14 18l-6 6l5 6q5 6 15.5 14.5t25 17.5t38 16t49.5 8q47 2 82 -3.5t63.5 -21.5t39.5 -48.5t3 -80.5q-5 -28 -17 -58t-34.5 -66.5t-40.5 -63.5t-55.5 -73t-57 -69.5 t-66.5 -78.5t-65 -76q-65 -77 -221 -272.5t-188 -233.5q-66 -78 -116.5 -131.5t-107 -101.5t-108.5 -70.5t-100 -18.5q-150 10 -164 99zM362 1120l314 340h180l162 -340h-111l-155 199l-283 -199h-107z" />
<glyph unicode="&#x178;" horiz-adv-x="1478" d="M205 1354l12 65q48 -18 328 -18q40 0 177.5 5.5t154.5 10.5l-13 -63q-6 0 -28.5 1t-34.5 0t-30.5 -4.5t-31.5 -13.5t-22 -26q-14 -20 28.5 -147t92.5 -244l49 -117l77 103q77 104 161 221.5t98 148.5q17 36 -14.5 58.5t-88.5 19.5l15 61q180 -8 235 -8q104 0 252 12 l-14 -65q-114 -4 -188.5 -54t-211.5 -210q-36 -40 -110.5 -134t-132.5 -169.5t-58 -77.5q-1 -4 -7.5 -31.5t-13.5 -57t-17.5 -74t-19.5 -85.5t-18.5 -87t-16 -84.5t-10.5 -71.5t-4 -55t5 -28q49 -77 176 -74l-14 -67q-16 9 -146 16.5t-174 7.5q-55 0 -215 -5t-178 -11l14 61 q124 3 205 76q18 17 44 102t45.5 171t39.5 180t21 98q-143 367 -244 590q-13 28 -29.5 45t-37.5 23t-36 7.5t-38.5 0t-32.5 -1.5zM592 1597q3 57 55 101.5t109 44.5q44 0 75.5 -30.5t28.5 -72.5q-3 -53 -55 -100t-107 -47q-46 0 -77.5 29.5t-28.5 74.5zM1122 1597 q3 56 54 101t108 45q43 0 75.5 -30t29.5 -73q-3 -55 -55 -101t-107 -46q-44 0 -76 30t-29 74z" />
</font>
</defs>
</svg>
