<svg xmlns="http://www.w3.org/2000/svg" width="80" height="15" version="1"><defs><clipPath id="a"><rect width="20.614" height="12.484" x="171.998" y="239.12"/></clipPath></defs><g transform="matrix(.988 0 0 .933 -323.901 -331.611)"><g transform="translate(158 118)"><rect y="237.862" x="170.5" height="15" width="80" fill="#fff" stroke="#000" stroke-width="1.042"/><rect width="77" height="12" x="172" y="239.362"/><path d="M172 239.375v12h20.335c1.309-1.75 2.192-3.784 2.192-6 0-2.201-.868-4.257-2.161-6h-20.366z" fill="#abb1aa"/><g clip-path="url(#a)"><path d="M189.534 245.362c.002 3.741-3.029 6.776-6.77 6.778-3.741.002-6.776-3.029-6.778-6.77v-.008c-.002-3.741 3.029-6.776 6.77-6.778 3.741-.002 6.776 3.029 6.778 6.77v.008z" fill="#fff"/><path d="M188.267 239.845c1.502 1.502 2.253 3.342 2.253 5.517 0 2.176-.738 3.996-2.214 5.46-1.567 1.541-3.418 2.312-5.555 2.312-2.111 0-3.93-.764-5.458-2.293-1.528-1.528-2.292-3.354-2.292-5.479 0-2.124.764-3.963 2.292-5.517 1.489-1.503 3.309-2.254 5.458-2.254 2.176 0 4.014.751 5.516 2.254zm-9.963 1.011c-1.27 1.283-1.905 2.785-1.905 4.509 0 1.723.628 3.213 1.885 4.469 1.257 1.257 2.753 1.885 4.489 1.885 1.736 0 3.245-.634 4.528-1.904 1.218-1.179 1.827-2.662 1.827-4.45 0-1.775-.619-3.281-1.856-4.519-1.237-1.237-2.737-1.856-4.499-1.856-1.762 0-3.252.622-4.47 1.866zm3.342 3.751c-.194-.423-.485-.635-.872-.635-.685 0-1.027.461-1.027 1.383 0 .922.342 1.383 1.027 1.383.452 0 .775-.224.969-.674l.949.506c-.453.804-1.131 1.206-2.037 1.206-.698 0-1.257-.214-1.677-.642-.421-.428-.63-1.018-.63-1.771 0-.739.216-1.326.65-1.761.433-.435.973-.652 1.62-.652.957 0 1.642.377 2.056 1.13l-1.027.526zm4.466 0c-.194-.423-.479-.635-.854-.635-.699 0-1.048.461-1.048 1.383 0 .922.35 1.383 1.048 1.383.453 0 .77-.224.951-.674l.971.506c-.452.804-1.13 1.206-2.033 1.206-.697 0-1.255-.214-1.675-.642-.419-.428-.629-1.018-.629-1.771 0-.739.213-1.326.639-1.761.426-.435.968-.652 1.626-.652.955 0 1.639.377 2.052 1.13l-1.048.526z"/></g></g><path d="M357.42 362.685c.245 0 .432-.054.558-.161.127-.107.19-.265.19-.474 0-.206-.063-.363-.19-.47-.127-.11-.313-.165-.558-.165h-.862v1.27h.862m.053 2.624c.313 0 .548-.066.704-.197.159-.131.239-.33.239-.595 0-.26-.078-.454-.235-.583-.156-.131-.392-.197-.708-.197h-.914v1.571h.914m1.449-2.158c.334.096.593.275.777.535.183.26.275.579.275.956 0 .579-.197 1.01-.591 1.294-.394.284-.993.426-1.797.426h-2.586v-6h2.339c.839 0 1.446.126 1.821.378.378.252.566.655.566 1.21 0 .292-.069.541-.206.747-.138.204-.337.355-.599.454m.917-2.789h1.703l1.376 2.138 1.376-2.138h1.708l-2.302 3.472v2.528h-1.558v-2.528l-2.302-3.472m5.321 3.046h2.541v1.169h-2.541v-1.169m3.759-3.046h1.74l2.197 4.115v-4.115h1.477v6h-1.74l-2.197-4.115v4.115h-1.477v-6m11.734 5.67c-.286.147-.584.259-.894.334-.31.075-.634.113-.971.113-1.006 0-1.803-.279-2.391-.836-.588-.56-.882-1.318-.882-2.275 0-.959.294-1.717.882-2.275.588-.56 1.385-.84 2.391-.84.337 0 .661.038.971.113.31.075.608.186.894.334v1.242c-.289-.196-.573-.339-.854-.43-.281-.091-.576-.137-.886-.137-.556 0-.993.177-1.311.53-.318.354-.477.841-.477 1.463 0 .619.159 1.105.477 1.459.318.354.755.53 1.311.53.31 0 .606-.046.886-.137.281-.091.565-.234.854-.43v1.242m1.177-2.624h2.541v1.169h-2.541v-1.169m7.963-2.857v1.27c-.332-.147-.655-.259-.971-.334-.316-.075-.614-.113-.894-.113-.372 0-.647.051-.825.153-.178.102-.267.26-.267.474 0 .161.059.287.178.378.121.088.34.165.655.229l.664.133c.672.134 1.149.338 1.432.611.283.273.425.662.425 1.165 0 .662-.198 1.155-.595 1.479-.394.322-.997.482-1.809.482-.383 0-.767-.036-1.153-.108-.386-.072-.772-.18-1.157-.322v-1.306c.386.204.758.358 1.117.462.361.102.709.153 1.044.153.34 0 .6-.056.781-.169.181-.113.271-.273.271-.482 0-.188-.062-.332-.186-.434-.121-.102-.366-.193-.732-.273l-.603-.133c-.604-.129-1.047-.334-1.327-.615-.278-.281-.417-.66-.417-1.137 0-.597.194-1.057.583-1.378.388-.321.947-.482 1.675-.482.332 0 .673.025 1.024.076.351.048.713.122 1.088.221m5.434 4.718h-2.436l-.384 1.093h-1.566l2.238-6h1.857l2.238 6h-1.566l-.38-1.093m-2.047-1.113h1.655l-.825-2.387-.829 2.387" font-size="8.259" font-weight="bold" fill="#fff" font-family="Bitstream Vera Sans"/></g></svg>