<svg version="1" xmlns="http://www.w3.org/2000/svg" width="550pt" height="550pt" viewBox="0 0 550.000000 550.000000"><path d="M254 14.6c-1.4.2-6.8 1.2-12 2-12.8 2.2-30.3 8-43 14.4-26 13-47.4 31.9-64 56.6l-5.2 7.5-4.1-.8c-13.3-2.6-25.2 1.3-34.9 11.5-18.3 19.2-20 51.1-3.8 69.6 2.5 2.8 13.4 9.6 15.4 9.6.3 0 .6-3.5.6-7.8.1-17.5 4.9-41.4 12.2-60 3.8-9.8 5.8-13.2 7.9-13.2 1.3 0 1.3.3-3.5 12.3-7.5 18.8-10.7 34.3-12.1 58.3l-.7 11.1 4.5 1.2c7.8 1.9 7.5 2.4 7.6-10.2 1-73.6 52.6-136.2 125.1-151.8 9-2 13.4-2.3 31-2.3 17.4 0 22 .3 30.2 2.1 35.2 7.9 67 27.1 88.8 53.8 22.3 27.3 34.7 59.8 36.6 96.2.4 7.3 1.1 13.3 1.6 13.3s3-.5 5.5-1.2l4.6-1.1-.7-12.7c-1-21.1-4.8-38.9-11.8-56-5.3-12.8-5.3-13-3.4-13 1.2 0 2.8 2.4 5.1 7.2 8.2 18.1 13.2 39.2 14.2 60.1.7 15.5.3 15.1 8.9 10.2 23.9-13.7 25-55.5 2.1-77.5-9-8.7-19.8-11.9-33.3-9.7-4.9.8-5.1.8-6.3-2-.7-1.5-3.6-6-6.4-9.8-20.5-28.1-49.4-49.4-81.2-60.1-18.8-6.3-27.6-7.6-51.5-7.9-11.8-.2-22.6-.1-24 .1zm-5 18c-32.9 5.9-65.8 25.1-86.2 50.1-23.4 28.6-33.8 58.5-33.8 96.8v16.3l-26.2.4c-29.3.5-32.9 1.2-47.3 8.6-9.9 5.1-21.8 17.2-26.8 27.2-17.1 34.2.5 73.3 39.1 86.7 7.4 2.6 8.7 2.7 34.2 3.3l26.5.5.2 81c.2 55 .6 82.9 1.4 87 3.8 20.5 22.2 39.1 43.5 44.1 5.6 1.2 11.3 1.5 29.4 1.2 20.3-.4 23.1-.7 28.7-2.7 13.5-4.9 25.5-15.2 31.8-27.3 6.1-11.6 6.7-14.4 7.2-36.6l.5-20.2h6.6l.5 20.2c.3 14.3.9 21.6 1.9 24.8 6.5 19.2 18 31.5 36.4 38.7 6.6 2.6 7.8 2.7 29.4 3.1 25.9.4 31.7-.4 43.4-6.5 9.2-4.8 19.3-14.7 23.6-23.3 7-13.9 6.4-5.9 7-99l.5-84.5 26.5-.5c25.6-.6 26.8-.7 34.3-3.3 10.1-3.5 14.1-5.6 20.8-10.8 25.4-19.8 32.2-52.4 16.4-79.5-1.6-2.7-6.2-8.3-10.4-12.5-6.2-6.2-9.4-8.5-17.1-12.2-13.8-6.6-20.4-7.7-47.8-7.7h-23l-.5-21.3c-.6-23.2-1.8-30.4-7.7-47.2-14.7-41.4-47.9-74.5-89-88.7-16.6-5.8-23.8-7-45.5-7.4-15-.2-22.1.1-28.5 1.2zm84.7 74.9c31.5 6 52.5 36 46.9 67.2-4 22.5-20.7 40.8-42 46.3-7.5 1.9-11.1 2-64.4 2-48.2 0-57.3-.2-62.6-1.6-19.9-5.1-36.9-21.8-42.1-41.4-1.9-7.1-1.9-22.9 0-30 5.6-21.2 24.3-38.6 45.6-42.5 11.3-2 107.8-2.1 118.6 0zm-113.6 39c-8.1 2.5-13.1 9.5-13.1 18.4 0 11.2 7.9 19.1 19.2 19.1 9.9 0 17.9-7.6 18.6-17.9 1-13.7-11.5-23.7-24.7-19.6zm98.5-.4c-10.8 2.5-17.4 15.2-13.5 25.6 1.4 3.8 6.7 9.2 10.6 10.9 7.4 3.2 17.8.5 22.6-5.8 2.6-3.3 5.1-11.5 4.3-14-.2-.7-.7-2.5-1-4.1-1.1-4.7-7.2-10.5-12.9-12.2-2.8-.8-5.3-1.5-5.6-1.4-.3.1-2.4.5-4.5 1z"/></svg>